<svg xmlns="http://www.w3.org/2000/svg" xmlns:xlink="http://www.w3.org/1999/xlink" id="logo" x="0" y="0" version="1.1" viewBox="0 0 167.2 88.7" xml:space="preserve" style="enable-background:new 0 0 167.2 88.7"><style type="text/css">.st0{fill:#fff}.st1{fill:url(#SVGID_1_)}.st2{fill:url(#SVGID_2_)}.st3{fill:url(#SVGID_3_)}.st4{fill:url(#SVGID_4_)}.st5{opacity:.7;fill:#1a4a9c;enable-background:new}.st6{fill:#16498b}.st7{fill:#e67424}</style><g><path d="M90.4,9.9c11.9,7.8,5,42.9-19.2,58C47,82.9,19.7,87.4,10,70.6c-9.8-16.8,0.5-43.7,24.6-58.7 C58.8-3.2,81.6,4.1,90.4,9.9z" class="st0"/><g><linearGradient id="SVGID_1_" x1="147.784" x2="172.056" y1="-455.747" y2="-447.936" gradientTransform="matrix(1 0 0 -1 -101 -437.7822)" gradientUnits="userSpaceOnUse"><stop offset="0" style="stop-color:#fedc00"/><stop offset=".302" style="stop-color:#fbc016"/><stop offset=".593" style="stop-color:#f9a91d"/><stop offset=".835" style="stop-color:#f89b20"/><stop offset="1" style="stop-color:#f89620"/></linearGradient><path d="M74.4,19.8c-3-2.3-7-3.6-11.2-3.6l2.1-11l-8.6,11.3C51.8,17.2,46.6,19,42,21.7L35.8,13 c2.7-1.7,5.5-3.4,8.6-4.7c19-7.9,33.5-6,46.1,1.6L74.4,19.8z" class="st1"/><g><radialGradient id="SVGID_2_" cx="139.54" cy="-455.411" r="57.19" gradientTransform="matrix(1 0 0 -1 -101 -437.7822)" gradientUnits="userSpaceOnUse"><stop offset="0" style="stop-color:#29abe2"/><stop offset=".23" style="stop-color:#29a9e1"/><stop offset=".392" style="stop-color:#25a3dd"/><stop offset=".534" style="stop-color:#2099d6"/><stop offset=".664" style="stop-color:#1a8ccc"/><stop offset=".785" style="stop-color:#137cc1"/><stop offset=".85" style="stop-color:#0c72ba"/><stop offset="1" style="stop-color:#0a67b2"/></radialGradient><path d="M42,21.7L35.8,13C28,18,21.2,24.4,16.6,31.6l5,2.3l-7.8,2.8c-3.4,7.1-4.6,14.7-2.7,22.2l18.8-11.5 C25.7,39.8,30.7,28.6,42,21.7z" class="st2"/></g><g><radialGradient id="SVGID_3_" cx="139.539" cy="-455.41" r="57.188" gradientTransform="matrix(1 0 0 -1 -101 -437.7822)" gradientUnits="userSpaceOnUse"><stop offset="0" style="stop-color:#29abe2"/><stop offset=".23" style="stop-color:#29a9e1"/><stop offset=".392" style="stop-color:#25a3dd"/><stop offset=".534" style="stop-color:#2099d6"/><stop offset=".664" style="stop-color:#1a8ccc"/><stop offset=".785" style="stop-color:#137cc1"/><stop offset=".85" style="stop-color:#0c72ba"/><stop offset="1" style="stop-color:#0a67b2"/></radialGradient><path d="M38.2,75.5c10-0.4,21.6-4.4,33.1-12.9l-9.2-12.8c-4.6,2.5-9.2,4.1-13.5,4.7L38.2,68.9l1.9-14.6 c-3.8-0.8-7-2.5-9.2-5.2c-0.1-0.1-0.2-0.3-0.3-0.4L11.4,60.5c2.6,8.2,10.3,13.6,20.4,14.8l5.8-4.8L38.2,75.5z" class="st3"/></g><radialGradient id="SVGID_4_" cx="139.541" cy="-455.41" r="57.186" gradientTransform="matrix(1 0 0 -1 -101 -437.7822)" gradientUnits="userSpaceOnUse"><stop offset="0" style="stop-color:#29abe2"/><stop offset=".23" style="stop-color:#29a9e1"/><stop offset=".392" style="stop-color:#25a3dd"/><stop offset=".534" style="stop-color:#2099d6"/><stop offset=".664" style="stop-color:#1a8ccc"/><stop offset=".785" style="stop-color:#137cc1"/><stop offset=".85" style="stop-color:#0c72ba"/><stop offset="1" style="stop-color:#0a67b2"/></radialGradient><path d="M84.6,55.9h-1.4c-32.7,33.4-68.5,25.4-74.3,5C2.5,38.7,24.9,14,48,5.7C26.9,10-5.9,39.7,4.4,68.4 c7.1,19.8,42.1,25.6,72.3,1.9l-2.3-3.2C79.6,62.7,83.2,58.6,84.6,55.9z" class="st4"/><g><path d="M48.6,54.5l-7.5,10.4l-0.8,4.4l9.5-12.5c4.2-0.7,9.2-2.3,13.7-4.9L62,49.8C57.5,52.3,52.9,53.9,48.6,54.5z" class="st5"/><path d="M39.9,56.6l0.3-2.3c-3.8-0.8-7-2.5-9.2-5.2c-0.1-0.1-0.2-0.3-0.3-0.4l-1.2,0.7c0.2,0.4,0.5,0.8,0.8,1.2 C32.4,53.7,35.8,55.7,39.9,56.6z" class="st5"/><path d="M29.9,34.7c-2.2,4.6-2.7,9.3-1.2,13.3l1-0.6C27.8,43.7,28,39.2,29.9,34.7z" class="st5"/></g><path d="M164.5,28.7c-1.1-4.1-4.3-5.7-8.8-5.6c-1.1,0-2.4,0.2-3.8,0.5l4-10.4h-7.7l-12.9,33.6l-0.1,0.2l0,0l0,0l0,0 h5.4l2.2-1.6c0,0,1.2,1.5,3.8,1.9c6.7,0.9,12.3-3.1,15.3-7.7C164.1,36.4,165.4,31.8,164.5,28.7z M155.1,38.9 c-1.6,2.2-3.7,3.9-6,3.9c-2,0-3.9-1.1-2.7-4.8c1.2-3.8,3.7-9.6,3.7-9.6c5.9-2.4,7.8,0.7,7.7,3C157.8,32.9,157,36.2,155.1,38.9z" class="st6"/><path d="M56,23.1c-5.1,0.5-9.1,2-13.1,5.6c-3.1,2.8-5.1,7.3-5.2,10.8c-0.1,4.6,3.3,8.7,10.2,7.6 c1.8-0.3,4.2-1.8,4.2-1.8l1.1,1.6h5.4l8.5-22.1C65.2,24.1,61.2,22.6,56,23.1z M58.4,27.7c0,0-2.4,6.6-4.2,10.4 c-1.7,3.7-4.1,4.9-6,4.8c-2.1-0.1-3.3-1.6-3.3-3.9c0.1-2.9,1.8-6,3.1-7.5C49.2,30.1,52.6,26.9,58.4,27.7z" class="st6"/><path d="M94.6,43.9l7.7-20.2h7.6l-7.2,18.9c2.2,1.1,6.2,0.5,8-3.4l5.9-15.5h7.7l-7.3,19c3,1,6.3,0.5,7.9-3.5l5.9-15.5 h7.6l-6.1,15.7c-1.5,3.5-4,8.3-12.5,8.3c-2.8,0-5.4-1-7.1-2.3c-1.9,1.1-5.8,2.3-8.7,2.3S95.9,46.7,94.6,43.9z" class="st6"/><g><path d="M72.7,24.8L64.2,47H72l7.2-18.7c1-0.3,2.6-0.5,3.8-0.5c2.5,0,3.6,1,3.4,2.2c0,0.3-0.1,0.6-0.3,0.9l-6.1,16 h7.8l6-15.7c0.2-0.6,0.4-1.2,0.5-1.8c0.4-3.4-2-6.4-9.5-6.4c-2.4,0-4.4,0.2-5.8,0.3C77.9,23.7,75.7,24,72.7,24.8z" class="st6"/></g><path d="M64.4,9.8l-1.2,6.4c0.6,0,1.2,0,1.8,0.1l1.8-10.7L64.4,9.8z" class="st7"/><g><path d="M65,6.6l0.3-1.4l-8.6,11.3c0.7-0.1,1.2-0.2,1.9-0.2L65,6.6z" class="st0"/><path d="M41.8,54.6c-0.8-0.1-0.9-0.1-1.6-0.3l-1.9,14.6l0.8-1.1L41.8,54.6z" class="st0"/></g></g></g></svg>