<?xml version="1.0" encoding="utf-8"?>
<!-- Generator: Adobe Illustrator 22.1.0, SVG Export Plug-In . SVG Version: 6.00 Build 0)  -->
<svg version="1.1" id="Layer_1" xmlns="http://www.w3.org/2000/svg" xmlns:xlink="http://www.w3.org/1999/xlink" x="0px" y="0px"
	 viewBox="0 0 495 138.7" style="enable-background:new 0 0 495 138.7;" xml:space="preserve">
<style type="text/css">
	.st0{display:none;}
	.st1{display:inline;opacity:0.4;fill:#295C2D;enable-background:new    ;}
	.st2{display:inline;opacity:0.4;}
	.st3{fill:#707071;}
	.st4{fill:#C1C1C0;}
	.st5{fill:#134B8E;}
</style>
<g id="clearspace_units" class="st0">
	<rect x="566.1" y="-212.8" class="st1" width="70.9" height="213"/>
	<rect x="-0.3" y="-283.7" class="st1" width="70.9" height="283.9"/>
	<rect x="70.6" y="-283.7" class="st1" width="566.4" height="70.9"/>
	<rect x="70.6" y="-70.7" class="st1" width="495.5" height="70.9"/>
	<g class="st2">
		<rect x="70.4" y="-212.7" class="st3" width="70.9" height="70.9"/>
		<rect x="141.1" y="-141.8" class="st3" width="70.9" height="70.9"/>
		<rect x="211.8" y="-212.7" class="st3" width="70.9" height="70.9"/>
		<rect x="282.5" y="-141.8" class="st3" width="70.9" height="70.9"/>
		<rect x="353.3" y="-212.7" class="st3" width="70.9" height="70.9"/>
		<rect x="424" y="-141.8" class="st3" width="70.9" height="70.9"/>
		<rect x="494.7" y="-212.7" class="st3" width="70.9" height="70.9"/>
	</g>
	<g class="st2">
		<rect x="70.4" y="-141.8" class="st4" width="70.9" height="70.9"/>
		<rect x="141.1" y="-212.7" class="st4" width="70.9" height="70.9"/>
		<rect x="211.8" y="-141.8" class="st4" width="70.9" height="70.9"/>
		<rect x="282.6" y="-212.7" class="st4" width="70.9" height="70.9"/>
		<rect x="353.3" y="-141.8" class="st4" width="70.9" height="70.9"/>
		<rect x="424" y="-212.7" class="st4" width="70.9" height="70.9"/>
		<rect x="494.7" y="-141.8" class="st4" width="70.9" height="70.9"/>
	</g>
</g>
<g id="logo">
	<g>
		<path class="st5" d="M56.3,0.3C29.9,0.3,5,15.3,0.6,55.9C-3.6,94,14.4,114.1,44.1,114l0,0h37.4l2.1-10.2H47l0,0
			c-26.7-0.6-37-16.7-34-46.9c3.3-33.4,25.3-46.2,42.1-46.2l0,0h437.7L495,0L56.3,0.3L56.3,0.3z"/>
		<path class="st5" d="M483.5,25.3h-11.2l-4.5,21h-22.9l3.6-14c0.6-1.8,2.1-3.2,4-3.2h11.9l2.2-9.5h-17.8c-5.3,0-11,2.4-12.3,7.9
			l-4.3,18.9h-9.6l-1.8,9.1h10.3l-12.2,57.6c-3.5,12.1-13.8,16.3-25.2,16.3h-193l-1.8,9.2l195.8,0.1h4.8c16-0.3,26.9-10.6,30.1-24.8
			l12.9-58.5h23.6l-7.5,35.7l-1.9,10.4c-1.6,8.7,7.1,14,15,13.5l6.3-0.3l1.9-9.6l-6.1,0.2c-6.4,0.4-6-4.2-5.1-10.1l8.8-39.8h11.3
			l1.9-9.1h-11.3L483.5,25.3L483.5,25.3z"/>
		<polygon class="st5" points="0.1,138.6 176.6,138.6 178.5,129.4 1.7,129.4 0.1,138.5 		"/>
		<path class="st5" d="M263.7,83.4c0.6,20.1,15.6,32.9,39.3,32.4c16.8,0,32.8-12.6,30.8-30.3c-0.3-18.4-26.3-22.9-39.5-33.4
			c-4.8-3-7.8-13.4-2.1-18.6c16.1-14,38.9,2.7,37.2,13.5l12-1c-1.5-22.2-17.7-28.2-35.6-28.5c-14.5-0.2-29.6,7.7-30.2,24
			c2.1,25.7,27.4,24.9,43.1,41.4c6,8.5-1.6,21.5-16.5,22.3c-15.6,0.4-27.3-10.3-26.3-23.2L263.7,83.4L263.7,83.4z"/>
		<path class="st5" d="M105.3,20.7L86.1,114h11l7.3-35.7c2.8-11.1,12.3-24.6,26.1-24.6c9.5,0.1,9.8,8.4,8,15.8l-10.2,44.6h11.5
			l9.5-41.5l0.8-3.4c2.7-12.2-3.3-22.8-17.2-23c-10.9-0.4-18.3,3.8-23.7,10.6l7.5-35.9h-11.4V20.7z"/>
		<path class="st5" d="M374.1,115.3L374.1,115.3c-19.9,0-30-15-30-29.8c0-17.2,13.5-40.1,38.8-40.1c23.4,0,33,19.2,29.8,36.6
			C409.8,98.1,395,115.3,374.1,115.3L374.1,115.3z M399.6,80.3c2.5-13.8-3.5-24.8-16.5-25.1c-1.6,0-3,0.1-4.5,0.4
			c-10.9,2.1-18.8,12.5-21,24.7l0,0l0,0c-2.4,13.8,5,25.1,16.5,25.1c1.5,0,3-0.2,4.5-0.5C388.6,102.4,397.5,92.2,399.6,80.3z"/>
		<path class="st5" d="M251.8,80.7c-3,19-17.4,35-32.6,35l0,0l0,0c-8.6-0.1-14.9-5.5-19-12.6l0,0l-7.3,35.5h-11.5l19.2-92.3h10.5
			l-1.9,9.6l0,0c5.9-5.6,12.9-9.8,20.1-9.8C244.8,46.1,254.8,61.7,251.8,80.7z M204.1,80.2L204.1,80.2c-2.1,13.7,4.3,24.9,14.3,24.9
			c9.9,0,20-11.2,22.1-24.9c2.1-13.7-4.3-24.9-14.3-24.9C216,55.3,206.2,66.6,204.1,80.2L204.1,80.2z"/>
		<polygon class="st5" points="157.7,114 169,114 183.3,46.3 171.7,46.3 		"/>
		<polygon class="st5" points="188.5,20.6 177.2,20.6 174.3,33.8 185.7,33.8 		"/>
	</g>
</g>
</svg>
