<svg xmlns="http://www.w3.org/2000/svg" width="174" height="46" viewBox="0 0 232.256 61.621" style="display:block;margin:0 auto"><defs><clipPath id="loader-logo-patch-1"><path d="M0 0h174.192v46.216H0z"/></clipPath><clipPath id="loader-logo-patch-2"><path d="M19.853 46.216c-.279 0-.553-.014-.829-.022-.606-.002-1.2-.035-1.794-.091-.179-.013-.36-.024-.542-.041-5.926-.715-11.088-3.975-13.596-9.294C0 30.204 1.825 22.359 7.046 16.637 12.241 10.661 20.74 5.722 30.948 3.46a53.347 53.347 0 0 1 9.327-1.208 26.232 26.232 0 0 1 1.599-.056c4.197.119 7.566 3.542 7.566 7.764 0 4.221-3.365 7.639-7.558 7.765 0 0-1.758.017-4.903-.929-2.92-.879-15.829-2.108-25.491 4.431-1.798 1.503-2.95 3.748-2.95 6.274a8.21 8.21 0 0 0 8.209 8.212 8.173 8.173 0 0 0 4.849-1.594c2.691-1.747 4.905-5.021 4.905-5.021s5.34-7.805 10.405-6.846c0 0 5.821.889 5.821 7.6 0 6.708-13.214 16.364-22.874 16.364z"/></clipPath><linearGradient id="loader-logo-gradient" x2="1" gradientTransform="rotate(179.479 10.01 7.174) scale(11.62553)" gradientUnits="userSpaceOnUse"><stop offset="0" stop-color="#f39200" stop-opacity="0"/><stop offset="1" stop-color="#333"/></linearGradient></defs><g fill="#f39200" clip-path="url(#loader-logo-patch-1)" transform="matrix(1.33333 0 0 -1.33333 0 61.621)"><path d="M0 5.65a5.649 5.649 0 1 1 11.298 0A5.649 5.649 0 0 1 0 5.649m41.882 12.076s-1.759.017-4.903-.929c-2.92-.879-15.829-2.108-25.492 4.431-1.797 1.503-2.949 3.749-2.949 6.274a8.211 8.211 0 0 0 8.21 8.212 8.167 8.167 0 0 0 4.847-1.594c2.692-1.747 4.906-5.021 4.906-5.021s5.34-7.805 10.405-6.847c0 0 5.82.89 5.82 7.601 0 6.708-13.214 16.364-22.873 16.364-.279 0-.553-.014-.829-.022a20.462 20.462 0 0 1-1.794-.09c-.179-.014-.36-.025-.542-.042-5.926-.714-11.088-3.975-13.596-9.294C0 30.204 1.825 22.359 7.046 16.636 12.24 10.66 20.74 5.723 30.948 3.461a53.245 53.245 0 0 1 9.326-1.209 25.488 25.488 0 0 1 1.601-.056c4.196.119 7.564 3.541 7.564 7.764 0 4.221-3.365 7.639-7.557 7.765"/></g><g fill="#f39200" clip-path="url(#loader-logo-patch-2)" transform="matrix(1.33333 0 0 -1.33333 0 61.621)"><path fill="url(#loader-logo-gradient)" d="M24.554 4.77c11.234-3.478 20.891-5.894 20.891-5.894s7.862 10.553 7.858 11.487v.002l-.001.02c-.143.771-1.404 7.505-6.595 8.138-5.193.631-12.56.351-12.56.351l-20.84 8.347-4.519 2.29S4.225 11.06 24.554 4.77" opacity=".43"/></g><path fill="#4a4949" d="M106.4 41.074c-5.206 0-9.704-3.126-9.704-8.912 0-6.52 4.708-9.6 9.574-9.6 1.947 0 4.524.34 6.126 1.262l-1.182 3.708c-1.262-.814-3.13-1.262-4.733-1.262-2.867 0-5.287 1.42-5.287 5.836 0 3.864 2.524 5.262 5.495 5.262 1.66 0 3.525-.528 4.867-1.37l.84 3.815c-1.499.763-3.89 1.261-5.996 1.261m23.116-15.093c-2.602 0-4.97 1.525-4.97 5.864 0 4.075 1.998 5.813 4.894 5.813 2.997 0 4.969-2.132 4.969-5.893 0-4.156-2.239-5.784-4.893-5.784m-.342 15.093c-4.657 0-9.125-3.157-9.125-8.86 0-6.233 4.23-9.652 9.653-9.652 4.967 0 9.204 3.287 9.204 8.943 0 6.333-4.47 9.57-9.732 9.57m28.274-14.726h-6.92v4.815h6.444v3.44h-6.444v6.21h-3.97v-17.94h11.202zm16.234 2.657a8.857 8.857 0 0 0-.368-1.712h-.21c-.052.528-.13 1.184-.342 1.712l-1.577 4.307h4.027zm4.27 11.808l-1.532-4.342h-6.287l-1.579 4.342h-3.864l6.756-17.94h3.974l6.897 17.94zm24.466 0l-7.797-10.994c-.312-.448-.71-1.13-.84-1.47h-.187c.027.312.056.92.056 1.367v11.097h-3.684v-17.94h4.286l6.84 9.314c.314.416.71 1.104.84 1.445h.186c-.027-.32-.053-.897-.053-1.368v-9.39h3.684v17.94zm20.448-14.833c-2.607 0-4.973 1.525-4.973 5.864 0 4.075 2.002 5.813 4.894 5.813 2.996 0 4.971-2.132 4.971-5.893 0-4.156-2.236-5.784-4.892-5.784m-.341 15.093c-4.656 0-9.127-3.157-9.127-8.86 0-6.233 4.233-9.652 9.65-9.652 4.974 0 9.207 3.287 9.207 8.943 0 6.333-4.472 9.57-9.73 9.57"/></svg>