<?xml version="1.0" encoding="utf-8"?>
<!-- Generator: Adobe Illustrator 25.3.1, SVG Export Plug-In . SVG Version: 6.00 Build 0)  -->
<svg version="1.1" id="Layer_1" xmlns="http://www.w3.org/2000/svg" xmlns:xlink="http://www.w3.org/1999/xlink" x="0px" y="0px"
	 viewBox="0 0 499.4 290" style="enable-background:new 0 0 499.4 290;" xml:space="preserve">
<style type="text/css">
	.st0{fill:#00642C;}
</style>
<title>ictbijDSW.nl Logo</title>
<path class="st0" d="M26.2,200.8c-3,0.1-5.5-2.3-5.6-5.3s2.3-5.5,5.3-5.6c0.1,0,0.2,0,0.3,0c3-0.1,5.5,2.3,5.6,5.3c0,0,0,0.1,0,0.1
	C31.8,198.3,29.3,200.8,26.2,200.8z M22,254.9v-46.4h8.4v46.4H22z"/>
<path class="st0" d="M63.5,255.6c-11.1,0-20.4-5.2-20.4-22.3c0-15,7.7-25.5,23.2-25.5c3.6,0,7.1,0.5,10.6,1.5l-0.9,7.4
	c-3.2-1.3-6.6-1.9-10-2c-9.3,0-13.9,6.9-13.9,17.5c0,9.1,3,16.3,13.3,16.3c3.8,0,7.6-0.8,11-2.5l0.7,7.3
	C72.6,254.7,68.1,255.6,63.5,255.6z"/>
<path class="st0" d="M104.1,255.7c-9.5,0-12.4-3.9-12.4-13.9V215h-9.5v-6.5h9.5v-15l8.4-2.3v17.4h13v6.5h-13v23.7
	c0,7.7,1.4,9.7,6.6,9.7c2.1,0,4.3-0.3,6.4-0.8v7.1C110.1,255.3,107.1,255.6,104.1,255.7z"/>
<path class="st0" d="M141.3,255.6c-5.4,0.1-10.8-0.5-16-1.9v-67h8.4v22.5c0,2.9-0.3,5.8-0.8,8.7l0.2,0.1c2.4-6.4,8.5-10.6,15.3-10.4
	c10.9,0,17.1,7.7,17.1,21.9C165.5,245.7,156.3,255.6,141.3,255.6z M146.5,214.5c-8.4,0-12.7,9.8-12.7,17.8v15.4
	c2.7,0.8,5.4,1.2,8.2,1.1c8.9,0,14.8-5.3,14.8-18.7C156.8,220.2,153.5,214.5,146.5,214.5L146.5,214.5z"/>
<path class="st0" d="M182.6,200.8c-3,0.1-5.5-2.3-5.6-5.3s2.3-5.5,5.3-5.6c0.1,0,0.2,0,0.3,0c3-0.1,5.5,2.3,5.6,5.3c0,0,0,0.1,0,0.1
	C188.2,198.3,185.7,200.8,182.6,200.8z M178.4,254.9v-46.4h8.4v46.4H178.4z"/>
<path class="st0" d="M196.7,278.6c-2.2,0-4.3-0.3-6.4-0.8l0.7-7.4c1.9,0.7,3.9,1.1,5.9,1.1c5.8,0,7.5-2.4,7.5-10.7v-52.3h8.3V260
	C212.6,272.5,208.8,278.6,196.7,278.6z M208.5,200.8c-3,0.1-5.5-2.3-5.6-5.3s2.3-5.5,5.3-5.6c0.1,0,0.2,0,0.3,0c3,0,5.5,2.4,5.5,5.4
	c0,0,0,0,0,0C214,198.3,211.6,200.8,208.5,200.8L208.5,200.8z"/>
<path class="st0" d="M257.5,254.9c0-3.2,0.2-6.3,0.7-9.4l-0.2-0.1c-2.5,6.4-8.8,10.5-15.6,10.4c-11.4,0-17.1-8.3-17.1-21.9
	c0-16.3,9.3-26.1,24-26.1c2.6,0,5.2,0.2,7.8,0.5v-21.6h8.4v68.2L257.5,254.9z M257.2,215.5c-2.7-0.7-5.4-1-8.2-1
	c-8.9,0-14.8,5.3-14.8,18.7c0,10,3.3,15.7,10.3,15.7c8.4,0,12.7-9.8,12.7-17.9V215.5z"/>
<path class="st0" d="M289.7,255.7c-3.3,0-6.6-0.3-9.8-0.8l0.3-7.5c3.3,1,6.7,1.6,10.2,1.6c6.2,0,10.4-2.8,10.4-7.1
	c0-10.4-21.6-4-21.6-20.4c0-7.9,6.4-13.9,18.6-13.9c3,0,6,0.3,8.9,0.9l-0.2,7c-3-1-6.2-1.5-9.3-1.5c-6.2,0-9.3,2.6-9.3,6.6
	c0,10.2,21.7,4.7,21.7,20.3C309.5,249.4,302.1,255.7,289.7,255.7z"/>
<path class="st0" d="M372.4,254.9H363l-9.3-27.4c-0.9-2.9-1.8-6-2.6-9.3H351c-0.9,4.1-2.1,7.8-3.3,11.7l-7.8,24.9h-9.3l-14.3-46.4
	h9.3l7.1,24.8c1.2,4.3,2.4,8.5,3.4,12.1h0.1c0.9-4.1,2-8.1,3.2-12l7.9-24.9h9l8,24.7c1.9,5.8,2.7,8.8,3.6,12.3h0.1
	c0.9-3.9,1.8-7.3,3.2-12l7.5-25h8.9L372.4,254.9z"/>
<path class="st0" d="M400.9,250c0,3.2-2.6,5.8-5.8,5.8c-3.2,0-5.8-2.6-5.8-5.8c0-3.2,2.6-5.8,5.8-5.8c0,0,0,0,0,0
	C398.3,244.2,400.9,246.8,400.9,250z"/>
<path class="st0" d="M444.2,254.9v-30c0-6.5-1.8-10.4-7.9-10.4c-7.7,0-13.2,7.8-13.2,18v22.3h-8.4v-46.4h8.1c0,3.3-0.2,6.5-0.7,9.7
	l0.2,0.1c2.6-6.7,9.2-11,16.4-10.7c10.7,0,14,6.6,14,14.9v32.5H444.2z"/>
<path class="st0" d="M469.3,254.9v-68.2h8.4v68.2L469.3,254.9z"/>
<path class="st0" d="M86.5,36C52,36,26,40.8,21.9,41.6c0,3.6,0,107.6,0,111.3c4.1,0.8,30.1,5.6,64.6,5.6c24.6-0.6,41.2-3.7,50.7-9.3
	c7.8-4.6,11-10.8,11-20.7V66C148.3,48.5,138,37.4,86.5,36z M116.7,124.9c-0.2,6.4-9.5,10.1-25.5,10.1c-12.4,0-38.5-1.2-38.5-1.2
	V60.9c0,0,26.1-1.2,38.5-1.2c16,0,25.3,3.7,25.5,10.1C116.7,69.9,116.7,124.9,116.7,124.9z M477.4,122.4c0,28.5-27,34.5-49.7,34.5
	c-16.9,0-29.6-3.8-34.3-5.3c-1.4-0.4-1.8-0.6-2.1-0.6h-0.1l-0.1,0c-0.3,0.1-1,0.2-2.2,0.5c-5.7,1.4-20.7,5.3-32.7,5.3
	c-32.9,0-44.6-15.9-45.8-17.7c-2.1-3-3.3-6.8-3.7-11.3c-0.2-2.1-0.2-71.5-0.2-71.5c0-5.6,2.3-9.6,4.2-11.9c2.6-3.1,5.7-4.7,7.5-4.9
	c0.8-0.1,1.7-0.1,2.8-0.1c0.5,0,13.5,0,13.5,0c0.8,0.1,1.4,0.7,1.4,1.4v81.5c0,4.1,2.7,8,7.8,9.8c4.6,1.6,8.1,1.8,13.9,1.8
	s19-2.3,19-3.4c0-1.1,0-89.7,0-89.7c0-0.7,0.6-1.4,1.2-1.4c0.1,0,10.1,0,10.7,0c4.4,0,9.1,0.2,12.4,2.3c1.2,0.8,2.3,1.7,3.2,2.8
	c1.7,2,2.8,4.3,3.1,6.7c0.1,1.1,0.1,44.4,0.1,80.4v0.3c0,1.3,8.7,1.9,18.4,1.9c9.6,0,13.3-0.9,17.2-3c3.2-1.7,5.1-4.4,5.1-7.2V40.8
	c0-0.7,0.5-1.2,1.2-1.4c0.1,0,10.2,0,14,0c3.5,0,6.3,0.7,8.6,2.3c1.1,0.7,2.1,1.7,2.9,2.7c1.5,1.9,2.4,4.2,2.7,6.6
	C477.6,52.5,477.4,122.4,477.4,122.4z M289,44.7c-0.2,2.8-3.3,8.2-7.3,12.9c-4.7,5.5-9.3,8.6-12.7,8.6l-0.4,0c-3,0-9-0.9-15.9-1.9
	c-10.7-1.6-24-3.5-34.7-3.5c-9.8,0-15.8,1.7-18.3,5.1c-1.2,1.7-1.5,3.5-0.8,5.2c3.3,8.3,30.6,13.3,43.7,15.8
	c2.6,0.5,6.8,1.4,7.6,1.6c9.8,2.4,35.7,8.9,35.7,36c0,22.1-18.9,33.3-56.1,33.3c-15.3,0-33.6-2-54.5-5.8c-0.6-0.1-5.7-1-10.8-1.9
	c-0.2,0-0.2-0.5-0.1-0.7c0.2-2.8,3.3-8.1,7.3-12.7c4.7-5.4,9.4-8.5,12.9-8.5l0.3,0c3.2,0,9.3,1,16.4,2.2c2.4,0.4,4.9,0.8,7.5,1.3
	c1.4,0.2,2.8,0.4,4.1,0.5c7.7,1,14.9,1.9,21.4,1.9c1,0,2,0,3-0.1c4-0.2,13.5-0.7,16.6-8.4c0.9-2.3,0.8-4.5-0.3-6.5
	c-3.9-7.1-20.1-10.3-28.9-12c-1.7-0.3-3.2-0.6-4.2-0.9c-0.7-0.2-1.8-0.4-3.2-0.7c-12.4-2.4-50.1-9.7-50.1-36.7
	c0-21.6,18.8-32.6,55.9-32.6c16.9,0,37.5,2.3,61.4,6.8v0l0.3,0.1c0,0,1.5,0.2,3.8,0.6C289,43.9,289,44.6,289,44.7z"/>
</svg>
