<svg xmlns="http://www.w3.org/2000/svg" xmlns:xlink="http://www.w3.org/1999/xlink" id="Layer_1" x="0" y="0" version="1.1" viewBox="0 0 499.4 182.9" xml:space="preserve" style="enable-background:new 0 0 499.4 182.9"><style type="text/css">.st0{fill:#00642c}</style><title>ictbijDSW.nl Logo</title><path d="M86.5,30.2C52,30.2,26,35,21.9,35.8c0,3.6,0,107.6,0,111.3c4.1,0.8,30.1,5.6,64.6,5.6	c24.6-0.6,41.2-3.7,50.7-9.3c7.8-4.6,11-10.8,11-20.7V60.2C148.3,42.7,138,31.6,86.5,30.2z M116.7,119.2	c-0.2,6.4-9.5,10.1-25.5,10.1c-12.4,0-38.5-1.2-38.5-1.2V55.1c0,0,26.1-1.2,38.5-1.2c16,0,25.3,3.7,25.5,10.1	C116.7,64.2,116.7,119.2,116.7,119.2z M477.4,116.7c0,28.5-27,34.5-49.7,34.5c-16.9,0-29.6-3.8-34.3-5.3c-1.4-0.4-1.8-0.6-2.1-0.6	h-0.1l-0.1,0c-0.3,0.1-1,0.2-2.2,0.5c-5.7,1.4-20.7,5.3-32.7,5.3c-32.9,0-44.6-15.9-45.8-17.7c-2.1-3-3.3-6.8-3.7-11.3	c-0.2-2.1-0.2-71.5-0.2-71.5c0-5.6,2.3-9.6,4.2-11.9c2.6-3.1,5.7-4.7,7.5-4.9c0.8-0.1,1.7-0.1,2.8-0.1c0.5,0,13.5,0,13.5,0	c0.8,0.1,1.4,0.7,1.4,1.4v81.5c0,4.1,2.7,8,7.8,9.8c4.6,1.6,8.1,1.8,13.9,1.8s19-2.3,19-3.4c0-1.1,0-89.7,0-89.7	c0-0.7,0.6-1.4,1.2-1.4c0.1,0,10.1,0,10.7,0c4.4,0,9.1,0.2,12.4,2.3c1.2,0.8,2.3,1.7,3.2,2.8c1.7,2,2.8,4.3,3.1,6.7	c0.1,1.1,0.1,44.4,0.1,80.4v0.3c0,1.3,8.7,1.9,18.4,1.9c9.6,0,13.3-0.9,17.2-3c3.2-1.7,5.1-4.4,5.1-7.2V35.1c0-0.7,0.5-1.2,1.2-1.4	c0.1,0,10.2,0,14,0c3.5,0,6.3,0.7,8.6,2.3c1.1,0.7,2.1,1.7,2.9,2.7c1.5,1.9,2.4,4.2,2.7,6.6C477.6,46.8,477.4,116.7,477.4,116.7z M289,38.9c-0.2,2.8-3.3,8.2-7.3,12.9c-4.7,5.5-9.3,8.6-12.7,8.6l-0.4,0c-3,0-9-0.9-15.9-1.9c-10.7-1.6-24-3.5-34.7-3.5	c-9.8,0-15.8,1.7-18.3,5.1c-1.2,1.7-1.5,3.5-0.8,5.2c3.3,8.3,30.6,13.3,43.7,15.8c2.6,0.5,6.8,1.4,7.6,1.6c9.8,2.4,35.7,8.9,35.7,36	c0,22.1-18.9,33.3-56.1,33.3c-15.3,0-33.6-2-54.5-5.8c-0.6-0.1-5.7-1-10.8-1.9c-0.2,0-0.2-0.5-0.1-0.7c0.2-2.8,3.3-8.1,7.3-12.7	c4.7-5.4,9.4-8.5,12.9-8.5l0.3,0c3.2,0,9.3,1,16.4,2.2c2.4,0.4,4.9,0.8,7.5,1.3c1.4,0.2,2.8,0.4,4.1,0.5c7.7,1,14.9,1.9,21.4,1.9	c1,0,2,0,3-0.1c4-0.2,13.5-0.7,16.6-8.4c0.9-2.3,0.8-4.5-0.3-6.5c-3.9-7.1-20.1-10.3-28.9-12c-1.7-0.3-3.2-0.6-4.2-0.9	c-0.7-0.2-1.8-0.4-3.2-0.7c-12.4-2.4-50.1-9.7-50.1-36.7c0-21.6,18.8-32.6,55.9-32.6c16.9,0,37.5,2.3,61.4,6.8v0l0.3,0.1	c0,0,1.5,0.2,3.8,0.6C289,38.2,289,38.8,289,38.9z" class="st0"/></svg>