<svg xmlns="http://www.w3.org/2000/svg" viewBox="0 0 207.31 207.31"><rect width="207.31" height="207.31" style="fill:#e2001a"/><path d="M421.71,308.74a8.64,8.64,0,1,0-8.64-8.64,8.65,8.65,0,0,0,8.64,8.64" transform="translate(-318.06 -196.43)" style="fill:#fff"/><path d="M429.92,237.42a1,1,0,0,0-.33-.64c-.44-.33-.73-.71-7.23-.71h-1.29c-6.52,0-6.81.38-7.19.71a.91.91,0,0,0-.39.64c-.3,1.78-.44,12.41-.4,23s.1,21.05.4,22.84a.88.88,0,0,0,.39.65c.38.35.67.69,7.19.72h1.29c6.5,0,6.79-.37,7.23-.72a1,1,0,0,0,.33-.65c.33-1.79.45-12.29.42-22.84s-.09-21.18-.42-23" transform="translate(-318.06 -196.43)" style="fill:#fff"/><path d="M429.92,362.64a1,1,0,0,1-.33.64c-.44.34-.73.73-7.23.75h-1.29c-6.52,0-6.81-.41-7.19-.75a.88.88,0,0,1-.39-.64c-.3-1.78-.44-12.29-.4-22.85s.1-21.06.4-22.83a.91.91,0,0,1,.39-.65c.38-.35.67-.7,7.19-.7h1.29c6.5,0,6.79.35,7.23.7a1,1,0,0,1,.33.65c.33,1.77.45,12.29.42,22.83s-.09,21.07-.42,22.85" transform="translate(-318.06 -196.43)" style="fill:#fff"/><path d="M404.1,306.15a.88.88,0,0,0-.36-.66c-.44-.34-.69-.72-7.19-.73h-1.29c-6.5,0-6.78.39-7.22.73a1.05,1.05,0,0,0-.37.66c-.29,1.74-.42,18.08-.4,28.61V335c-2-3.38-3.65-6.48-7.78-13.44-2.17-3.66-5.2-8.58-9.13-15.77h0a3.31,3.31,0,0,1-.26-.27c-.43-.34-.72-.72-7.23-.73h-1.28c-6.51,0-6.79.39-7.21.73a.91.91,0,0,0-.37.66c-.29,1.74-.4,18-.39,28.58s.1,26.13.39,27.91a.9.9,0,0,0,.37.64c.42.34.7.73,7.21.75h1.28c6.51,0,6.8-.41,7.23-.75a1.14,1.14,0,0,0,.36-.64c.29-1.76.43-16.93.4-27.46.53.88,16.75,27.6,16.95,27.86a.74.74,0,0,0,.23.24c.44.34.72.73,7.22.75h1.29c6.5,0,6.75-.41,7.19-.75a.86.86,0,0,0,.36-.64c.31-1.78.44-17.33.42-27.88s-.11-26.87-.42-28.61" transform="translate(-318.06 -196.43)" style="fill:#fff"/><path d="M406.12,261.6v-.39c-.24-17.18-11.49-24.71-31.59-25.12-4.83-.1-16.52.2-19.18.53-.63.1-1.19.26-1.34,1.07-.31,1.64-.4,16.92-.39,27.48v4.05c0,10.3.12,23.22.39,24.86a.92.92,0,0,0,.37.65c.42.34.7.69,7.21.71h1.28c6.51,0,6.8-.37,7.22-.71a1.16,1.16,0,0,0,.37-.65c.12-.68.2-3.44.26-7.06,1.44.07,2.63.1,3.81.1,19.86,0,31.59-8.76,31.59-25.13Zm-17.12.08c-.09,6.39-4.85,9.21-13.07,9.34a40.12,40.12,0,0,1-5.07-.16V252.2a40.39,40.39,0,0,1,5.07-.14c8.22.14,13,2.95,13.07,9.35v.27Z" transform="translate(-318.06 -196.43)" style="fill:#fff"/><path d="M490.24,287.51a58.58,58.58,0,0,0-3.95-6.7,26.3,26.3,0,0,0-3.42-4.33c-1.06-.94-1.27-.59-2.32.06a30.63,30.63,0,0,1-3.94,2.09,19.13,19.13,0,0,1-6.3,1.5c-8,.5-15.13-4.42-15.7-13.35,0-.2,0-.78,0-.87,0-8.91,6.72-14.29,14.78-14.29a19.79,19.79,0,0,1,10,2.8c1.3.78,1.3.9,2.34-.11a33.85,33.85,0,0,0,3.67-4.79,41.16,41.16,0,0,0,3.58-6.54,1,1,0,0,0-.23-1.37,32.41,32.41,0,0,0-19.53-6.47c-17.59,0-31.88,11.25-31.88,30.77,0,9.32,3.28,16.78,8.6,22l.67.64s.06.06.11.09a30.82,30.82,0,0,0,19.22,7.91h0c.28,0,.54.05.76.06.83.06,1.65.09,2.49.09a30.38,30.38,0,0,0,8.54-1.2,31.16,31.16,0,0,0,12.43-6.61c.3-.25.63-.51.11-1.38" transform="translate(-318.06 -196.43)" style="fill:#fff"/><path d="M490.24,355.85a55.36,55.36,0,0,0-3.95-6.69,25.34,25.34,0,0,0-3.42-4.32c-1.06-1-1.27-.61-2.32.06a33,33,0,0,1-3.94,2.06,19.38,19.38,0,0,1-6.3,1.5c-8,.54-15.13-4.42-15.7-13.33,0-.2,0-.79,0-.87,0-8.92,6.72-14.29,14.78-14.29a19.59,19.59,0,0,1,10,2.8c1.3.79,1.3.9,2.34-.12a33.77,33.77,0,0,0,3.67-4.78,44.62,44.62,0,0,0,3.58-6.53,1,1,0,0,0-.23-1.4,32.46,32.46,0,0,0-19.53-6.45c-17.59,0-31.88,11.25-31.88,30.77,0,9.32,3.28,16.77,8.6,22l.67.66s.06.05.11.1a31,31,0,0,0,19.22,7.9h0c.28,0,.54,0,.76.06.83.06,1.65.09,2.49.09a30.75,30.75,0,0,0,8.54-1.21,31.75,31.75,0,0,0,12.43-6.59c.3-.28.63-.56.11-1.4" transform="translate(-318.06 -196.43)" style="fill:#fff"/></svg>