<svg xmlns="http://www.w3.org/2000/svg" xmlns:xlink="http://www.w3.org/1999/xlink" id="Laag_1" x="0" y="0" version="1.1" viewBox="0 0 126 42" xml:space="preserve" style="enable-background:new 0 0 126 42"><style type="text/css">.st0{fill:#c22c4a}.st1{fill:#fff}</style><g><rect width="122" height="40" x="2" y="1" class="st0"/><g><path d="M32.2,33c-2.8-0.7-5.6-1.6-8-2.4c-0.4-0.2-0.9-0.3-1.3-0.3c-5-0.2-9.2-3.8-9.2-10.6c0-6.7,4.1-11,9.7-11 c5.7,0,9.4,4.4,9.4,10.6c0,5.4-2.5,8.8-6,10v0.1c2.1,0.5,4.3,1,6.1,1.3L32.2,33z M30,19.4c0-4.2-2.2-8.5-6.6-8.5 c-4.6,0-6.8,4.2-6.8,8.7c0,4.4,2.4,8.4,6.6,8.4C27.6,28.1,30,24.2,30,19.4" class="st1"/><path d="M48.9,25.9c0,1.6,0,2.9,0.1,4.1h-2.4l-0.2-2.5h-0.1c-0.7,1.2-2.3,2.8-5,2.8c-2.4,0-5.2-1.3-5.2-6.6V15H39v8.3 c0,2.9,0.9,4.8,3.3,4.8c1.8,0,3.1-1.3,3.6-2.5c0.2-0.4,0.2-0.9,0.2-1.4V15h2.7V25.9z" class="st1"/><path d="M56.5,10.7c0,0.9-0.7,1.7-1.7,1.7c-1,0-1.6-0.7-1.6-1.7c0-1,0.7-1.7,1.7-1.7C55.8,9,56.5,9.8,56.5,10.7 M53.4,15h2.7v15h-2.7V15z" class="st1"/><path d="M60.7,19c0-1.6,0-2.8-0.1-4.1H63l0.2,2.5h0.1c0.7-1.4,2.5-2.8,5-2.8c2.1,0,5.3,1.2,5.3,6.4v9h-2.7v-8.7 c0-2.4-0.9-4.4-3.5-4.4c-1.8,0-3.2,1.3-3.7,2.8c-0.1,0.3-0.2,0.8-0.2,1.3v9h-2.7V19z" class="st1"/><path d="M81.1,10.6V15H85V17h-3.9v8.1c0,1.9,0.5,2.9,2,2.9c0.7,0,1.2-0.1,1.6-0.2l0.1,2c-0.5,0.2-1.4,0.4-2.4,0.4 c-1.3,0-2.3-0.4-2.9-1.1c-0.8-0.8-1.1-2.1-1.1-3.9V17h-2.3V15h2.3v-3.6L81.1,10.6z" class="st1"/><path d="M101.5,22.3c0,5.6-3.8,8-7.5,8c-4.1,0-7.2-3-7.2-7.7c0-5,3.3-8,7.4-8C98.6,14.6,101.5,17.8,101.5,22.3 M89.6,22.5c0,3.3,1.9,5.8,4.6,5.8c2.6,0,4.6-2.5,4.6-5.8c0-2.5-1.3-5.8-4.5-5.8C91,16.7,89.6,19.6,89.6,22.5" class="st1"/><path d="M104.9,19.6c0-1.8,0-3.3-0.1-4.7h2.4l0.1,2.9h0.1c0.7-2,2.3-3.3,4.2-3.3c0.3,0,0.5,0,0.8,0.1v2.6 c-0.3-0.1-0.6-0.1-0.9-0.1c-1.9,0-3.3,1.5-3.7,3.5c-0.1,0.4-0.1,0.8-0.1,1.3v8h-2.7V19.6z" class="st1"/></g></g></svg>