<svg xmlns="http://www.w3.org/2000/svg" xmlns:xlink="http://www.w3.org/1999/xlink" id="Laag_1" x="0" y="0" version="1.1" viewBox="0 0 101 120" xml:space="preserve" style="enable-background:new 0 0 101 120"><style type="text/css">.st0{fill:#e20031}.st1{clip-path:url(#SVGID_2_)}.st1,.st2,.st3{fill:#e20031}.st2{clip-path:url(#SVGID_4_)}.st3{clip-path:url(#SVGID_6_)}</style><path d="M7.3,68L7.3,68c-0.4,1.1-1.4,1.8-3.1,1.8c-1.6,0-2.6-0.7-2.6-2.2v-3.8c0-1.1-0.1-1.2-0.7-1.2H0.3v-0.8	c0.8,0,2.3-0.1,3.3-0.2v5.6c0,1,0.5,1.4,1.4,1.4c1.4,0,2-0.9,2-2.5v-2.2c0-1.1-0.1-1.2-0.7-1.2H5.7v-0.8c0.8,0,2.3-0.1,3.3-0.2v6.2	c0,0.7,0.1,1,0.9,1h0.4v0.8H7.3V68" class="st0"/><path d="M11.2,61.7c0.8,0,2.3-0.1,3.1-0.2v1.8h0c0.6-1.3,1.5-1.9,2.8-1.9c1.6,0,2.8,0.7,2.8,2.5v3.8c0,0.7,0.1,1,0.9,1	h0.4v0.8h-4.4v-0.8H17c0.8,0,0.9-0.3,0.9-1v-3.3c0-1.1-0.5-1.7-1.4-1.7c-1.2,0-2,0.8-2,2.4v2.6c0,0.7,0.1,1,0.9,1h0.2v0.8h-4.5v-0.8	h0.5c0.8,0,0.9-0.3,0.9-1v-3.9c0-1.1-0.1-1.2-0.7-1.2h-0.6V61.7" class="st0"/><path d="M22,61.7c0.8,0,2.3-0.1,3.3-0.2v6.2c0,0.7,0.1,1,0.9,1h0.4v0.8h-4.7v-0.8h0.5c0.8,0,0.9-0.3,0.9-1v-3.9	c0-1.1-0.1-1.2-0.7-1.2H22V61.7 M24.3,57.7c0.8,0,1.2,0.5,1.2,1.2s-0.4,1.2-1.2,1.2c-0.8,0-1.2-0.5-1.2-1.2S23.6,57.7,24.3,57.7z" class="st0"/><path d="M32.1,61.7h3.4v0.8h-0.2c-0.3,0-0.5,0.1-0.6,0.5l-2.5,6.6h-1.9l-2.5-6.5c-0.2-0.5-0.3-0.6-0.7-0.6h-0.2v-0.8h4	v0.8h-0.5c-0.5,0-0.6,0.1-0.6,0.3c0,0.2,0.1,0.4,0.1,0.6l1.5,4.6h0l1.7-4.8c0-0.1,0.1-0.3,0.1-0.4c0-0.1-0.1-0.2-0.5-0.2h-0.7V61.7" class="st0"/><path d="M38.1,65.8c0,1.1,0,3.1,2,3.1c1.2,0,1.7-0.6,1.7-1.8h1.6c0,1.4-0.8,2.8-3.5,2.8c-2.7,0-3.9-1.8-3.9-4.2	c0-2.4,1.2-4.2,3.9-4.2c2.6,0,3.7,1.2,3.7,3.9v0.4H38.1 M41.6,64.8c0-1.3-0.3-2.5-1.7-2.5c-1.4,0-1.8,1.1-1.8,2.5H41.6z" class="st0"/><path d="M44.8,61.7c0.9,0,2.4-0.1,3.1-0.2v1.8h0c0.5-1.3,1.5-1.9,2.8-1.9c0.5,0,0.9,0.1,1.3,0.2V64h-1.5	c0-0.8-0.2-1.3-0.8-1.3c-0.7,0-1.5,1-1.5,2.4v2.6c0,0.7,0.1,1,0.9,1h0.9v0.8h-5.2v-0.8h0.5c0.8,0,0.9-0.3,0.9-1v-3.9	c0-1.1-0.1-1.2-0.7-1.2h-0.7V61.7" class="st0"/><path d="M53.2,67h1.4c0,1.1,0.3,1.9,1.4,1.9c1,0,1.7-0.4,1.7-1.2c0-0.6-0.2-1-1.7-1.4c-1.9-0.6-2.8-1.2-2.8-2.5	c0-1.5,1.3-2.4,3.2-2.4c1.2,0,2.3,0.2,2.8,0.4v2.2h-1.4c0-1.2-0.3-1.8-1.5-1.8c-0.7,0-1.2,0.3-1.2,1c0,0.6,0.4,1,1.2,1.3l1.3,0.4	c1.4,0.5,2,0.9,2,2.1c0,1.9-1.8,2.6-3.5,2.6c-1.3,0-2.5-0.3-3-0.5V67" class="st0"/><path d="M60.9,61.7c0.8,0,2.3-0.1,3.3-0.2v6.2c0,0.7,0.1,1,0.9,1h0.4v0.8h-4.7v-0.8h0.5c0.8,0,0.9-0.3,0.9-1v-3.9	c0-1.1-0.1-1.2-0.7-1.2h-0.6V61.7 M63.2,57.7c0.8,0,1.2,0.5,1.2,1.2s-0.4,1.2-1.2,1.2c-0.8,0-1.2-0.5-1.2-1.2S62.4,57.7,63.2,57.7z" class="st0"/><path d="M66.3,61.7c1.5-0.2,1.9-0.6,2-2.3h1.4v2.3h2.6v0.9h-2.6v5.1c0,0.7,0.3,1,0.8,1c0.6,0,0.8-0.3,0.8-1V67h1.4v0.4	c0,1.7-0.9,2.5-2.5,2.5c-1.6,0-2.5-0.5-2.5-2.5v-4.6h-1.4V61.7" class="st0"/><path d="M74.7,63.5c-0.3-0.8-0.5-1-0.9-1h-0.2v-0.8h4v0.8h-0.6c-0.3,0-0.4,0.1-0.4,0.3c0,0.2,0.1,0.5,0.2,0.7l1.3,3.6	l1.5-3.8c0.1-0.2,0.2-0.4,0.2-0.6c0-0.2-0.1-0.3-0.4-0.3h-0.7v-0.8H82v0.8h-0.4c-0.3,0-0.5,0.3-0.7,0.8l-3.2,7.6	c-0.1,0.2-0.3,0.6-0.3,0.9c0,0.3,0.2,0.5,0.8,0.5h0.5V73h-4.3v-0.8h0.7c0.6,0,0.8-0.3,1-0.9l0.8-2L74.7,63.5" class="st0"/><path d="M88.9,61.5c2.7,0,3.9,1.8,3.9,4.2c0,2.4-1.2,4.2-3.9,4.2c-2.7,0-3.9-1.8-3.9-4.2C85,63.2,86.2,61.5,88.9,61.5 M88.9,68.9c1.3,0,1.8-1,1.8-3.2c0-2.2-0.5-3.2-1.8-3.2c-1.3,0-1.8,1-1.8,3.2C87.1,67.8,87.5,68.9,88.9,68.9z" class="st0"/><path d="M93.7,61.7h1.4c0-2.2,0.1-4,3-4c0.8,0,1.5,0.1,2.1,0.2v2.1H99c0-1.1-0.2-1.4-0.8-1.4c-0.7,0-1.1,0.5-1.1,1.4	v1.6h2.1v0.9h-2.1v5.1c0,0.7,0.1,1,0.9,1h0.9v0.8h-5.1v-0.8h0.5c0.8,0,0.9-0.3,0.9-1v-5.1h-1.4V61.7" class="st0"/><path d="M8.5,78.8H7v0c0.4,0.3,0.7,0.9,0.7,1.6c0,1.3-0.7,2.5-3,2.9l-0.4,0.1c-0.5,0.1-1.3,0.2-1.3,0.7	c0,0.5,0.3,0.6,2.1,0.7c1.5,0.1,3,0.3,3,2.2c0,1.5-1.5,2.4-4.2,2.4c-2.6,0-3.7-1-3.7-2.3c0-1.3,1.3-1.9,2.5-2v0	c-1.1-0.2-1.5-0.5-1.5-1c0-0.5,0.5-0.9,1.6-1v0c-1.2-0.4-2.1-1.1-2.1-2.6c0-1.6,1.4-2.8,3.5-2.8c0.7,0,1.4,0.2,1.9,0.3l2.4-0.2V78.8 M4.2,85.6c-1.5,0-1.9,0.7-1.9,1.6c0,0.8,0.5,1.4,1.9,1.4c1.5,0,2-0.8,2-1.5C6.2,86.2,5.6,85.6,4.2,85.6z M4.2,78.5	c-0.9,0-1.4,0.5-1.4,1.9c0,1.5,0.5,2.1,1.4,2.1c0.9,0,1.3-0.7,1.3-2.1C5.5,78.9,5,78.5,4.2,78.5z" class="st0"/><path d="M9.3,77.9c0.9,0,2.4-0.1,3.1-0.2v1.8h0c0.5-1.3,1.5-1.9,2.8-1.9c0.5,0,0.9,0.1,1.3,0.2v2.3H15	c0-0.8-0.2-1.3-0.8-1.3c-0.7,0-1.5,1-1.5,2.4v2.6c0,0.7,0.1,1,0.9,1h0.9v0.8H9.3v-0.8h0.5c0.8,0,0.9-0.3,0.9-1v-3.9	c0-1.1-0.1-1.2-0.7-1.2H9.3V77.9" class="st0"/><path d="M21.2,77.6c2.7,0,3.9,1.8,3.9,4.2c0,2.4-1.2,4.2-3.9,4.2s-3.9-1.8-3.9-4.2C17.3,79.4,18.5,77.6,21.2,77.6 M21.2,85c1.3,0,1.8-1,1.8-3.2c0-2.2-0.5-3.2-1.8-3.2s-1.8,1-1.8,3.2C19.4,84,19.8,85,21.2,85z" class="st0"/><path d="M26.1,77.9c0.8,0,2.3-0.1,3.1-0.2v1.8h0c0.5-1.3,1.5-1.9,2.8-1.9c1.6,0,2.8,0.7,2.8,2.5v3.8c0,0.7,0.1,1,0.9,1	h0.4v0.8h-4.4v-0.8h0.2c0.8,0,0.9-0.3,0.9-1v-3.3c0-1.1-0.5-1.7-1.4-1.7c-1.2,0-2,0.8-2,2.4v2.6c0,0.7,0.1,1,0.9,1h0.2v0.8H26v-0.8	h0.5c0.8,0,0.9-0.3,0.9-1v-3.9c0-1.1-0.1-1.2-0.7-1.2h-0.6V77.9" class="st0"/><path d="M37,77.9c0.8,0,2.3-0.1,3.3-0.2v6.2c0,0.7,0.1,1,0.9,1h0.4v0.8h-4.7v-0.8h0.5c0.8,0,0.9-0.3,0.9-1v-3.9	c0-1.1-0.1-1.2-0.7-1.2H37V77.9 M39.3,73.9c0.8,0,1.2,0.5,1.2,1.2c0,0.7-0.4,1.2-1.2,1.2c-0.8,0-1.2-0.5-1.2-1.2	C38.1,74.4,38.5,73.9,39.3,73.9z" class="st0"/><path d="M42.5,77.9c0.8,0,2.3-0.1,3.1-0.2v1.8h0c0.5-1.3,1.5-1.9,2.8-1.9c1.6,0,2.8,0.7,2.8,2.5v3.8c0,0.7,0.1,1,0.9,1	h0.4v0.8H48v-0.8h0.2c0.8,0,0.9-0.3,0.9-1v-3.3c0-1.1-0.5-1.7-1.4-1.7c-1.2,0-2,0.8-2,2.4v2.6c0,0.7,0.1,1,0.9,1h0.2v0.8h-4.5v-0.8	h0.5c0.8,0,0.9-0.3,0.9-1v-3.9c0-1.1-0.1-1.2-0.7-1.2h-0.6V77.9" class="st0"/><path d="M61.5,78.8H60v0c0.4,0.3,0.7,0.9,0.7,1.6c0,1.3-0.7,2.5-3,2.9l-0.4,0.1c-0.5,0.1-1.3,0.2-1.3,0.7	c0,0.5,0.3,0.6,2.1,0.7c1.5,0.1,3,0.3,3,2.2c0,1.5-1.5,2.4-4.2,2.4c-2.6,0-3.7-1-3.7-2.3c0-1.3,1.3-1.9,2.5-2v0	c-1.1-0.2-1.5-0.5-1.5-1c0-0.5,0.5-0.9,1.6-1v0c-1.2-0.4-2.1-1.1-2.1-2.6c0-1.6,1.4-2.8,3.5-2.8c0.7,0,1.4,0.2,1.9,0.3l2.4-0.2V78.8 M57.2,85.6c-1.5,0-1.9,0.7-1.9,1.6c0,0.8,0.5,1.4,1.9,1.4c1.5,0,2-0.8,2-1.5C59.2,86.2,58.6,85.6,57.2,85.6z M57.2,78.5	c-0.9,0-1.4,0.5-1.4,1.9c0,1.5,0.5,2.1,1.4,2.1c0.9,0,1.3-0.7,1.3-2.1C58.5,78.9,58,78.5,57.2,78.5z" class="st0"/><path d="M64.7,81.9c0,1.1,0,3.1,2,3.1c1.2,0,1.7-0.6,1.7-1.8H70c0,1.4-0.8,2.8-3.5,2.8c-2.7,0-3.9-1.8-3.9-4.2	c0-2.4,1.2-4.2,3.9-4.2c2.6,0,3.7,1.2,3.7,3.9v0.4H64.7 M68.2,81c0-1.3-0.3-2.5-1.7-2.5c-1.4,0-1.8,1.1-1.8,2.5H68.2z" class="st0"/><g><defs><rect id="SVGID_1_" width="100.3" height="119.4" y=".5"/></defs><clipPath id="SVGID_2_"><use xlink:href="#SVGID_1_" style="overflow:visible"/></clipPath><path d="M71.4,77.9c0.8,0,2.3-0.1,3.1-0.2v1.8h0c0.5-1.3,1.5-1.9,2.8-1.9c1.6,0,2.8,0.7,2.8,2.5v3.8c0,0.7,0.1,1,0.9,1 h0.4v0.8H77v-0.8h0.2c0.8,0,0.9-0.3,0.9-1v-3.3c0-1.1-0.5-1.7-1.4-1.7c-1.2,0-2,0.8-2,2.4v2.6c0,0.7,0.1,1,0.9,1h0.2v0.8h-4.5v-0.8 h0.5c0.8,0,0.9-0.3,0.9-1v-3.9c0-1.1-0.1-1.2-0.7-1.2h-0.6V77.9" class="st1"/><path d="M17,34c1.5,0,2.3,0.9,2.8,1.2c1.2,0.5,1.4,0.2,1.4,0.2v-8.9c0-0.1-0.1-0.1-0.1-0.1s-1.2-0.2-1.6-0.4 c-0.4-0.2-1.8-1.1-2.9-1.1c-1.1,0-1.2,0.4-1.2,0.4v8.9C15.5,34.4,16,34,17,34 M9.3,26.6v8.8c0,0,0.1,0.1,0.7,0 c0.7-0.2,1.5-1,2.7-1.3c0.9-0.2,2.1,0.1,2.4,0.3v-8.8c0,0-0.5-0.5-1.4-0.5c-0.9,0-2.3,0.8-2.9,1c-0.5,0.2-1,0.4-1.4,0.5 C9.3,26.5,9.3,26.6,9.3,26.6z M14.7,35.2c0,0.3,0.3,0.6,0.6,0.6c0.3,0,0.6-0.3,0.6-0.6c0-0.3-0.3-0.6-0.6-0.6 C15,34.7,14.7,34.9,14.7,35.2z M7.5,22.9c1.2,0,1.3-1.1,1.3-1.1H6.2C6.2,21.8,6.3,22.9,7.5,22.9z M6.2,20.8h2.7v-1.1H6.2L6.2,20.8z M22.1,39.5c1.2,0,1.3-1.1,1.3-1.1h-2.6C20.8,38.4,20.9,39.5,22.1,39.5z M20.8,37.4h2.7v-1.1h-2.7L20.8,37.4z M21.7,34.8 c0.1,0.2,0.3,0.3,0.5,0.4c0.5-0.1,0.9-1.1,0.9-1.3c0-0.1-0.1-0.2-0.1-0.3c0,0,0.2,0,0.4,0c0.1,0,0.4-0.1,0.6-0.1 c0.3,0,0.4,0.2,0.4,0.2c0,0,0.1,0,0.2,0c0.1,0.1,0.3,0.2,0.2,0.3c-0.2,0-0.2,0-0.3,0c-0.1,0-0.3,0.1-0.3,0.2c0,0,0.3,0,0.5,0 c0.5,0,0.3-0.3,0.3-0.3c0-0.1,0.3,0,0.3,0.2c0,0.2-0.3,0.3-0.6,0.3c-0.2,0-0.5-0.1-0.5-0.1c0,0-0.2,0.3,0.1,0.3 c0.1,0,0.2-0.1,0.2-0.1c0,0,0.1,0.1-0.2,0.2c-0.4,0.1-0.7,0.1-0.8,0.4c-0.1,0.2,0,0.5,0.1,0.7c0.3,0.6,1.4,0.5,1.7,0.1 c0.1-0.1,0.1-0.3,0-0.3c-0.3,0-0.8,0.1-0.8-0.3c0-0.3,0.6-0.3,1.1-0.8c0.4-0.4,0.5-0.7,0.5-0.9c0-0.1,0-0.3,0-0.3 c0-0.1,0.2,0.2,0.2,0.2c0.1,0.3,0,0.6,0,0.6c0.1-0.1,0.3-0.3,0.3-0.4c0-0.1,0.1-0.2,0.1-0.2c0-0.1,0.1,0.2,0,0.4 c-0.1,0.3-0.3,0.6-0.3,0.6c0.6,0,0.8-0.6,0.8-0.6c0.4,0.5-0.2,1.1-0.2,1.1s0.1,0,0.2,0c0.2,0,0.3-0.1,0.4-0.2 c0.1-0.1,0,0.3-0.3,0.5c-0.5,0.3-0.9,0.3-0.9,0.3c0.1,0.2,0.5,0.3,0.7,0.2c0.3,0,0.5-0.2,0.5-0.2c0.3,0.6-0.5,1-0.6,1 c0.2,0.2,0.4,0.3,0.6,0.3c0.1,0,0.1,0,0.1,0c0,0-0.1,0.1-0.3,0.1c-0.4,0-0.8-0.2-0.8-0.2c0.5,1.1,1.2,1.1,1.2,1.1 c0,0,0,0.5-0.7,0.5c0,0-0.1,0-0.1,0c-0.3,0-0.5-0.2-0.5-0.2c0,0.4,0.8,0.8,0.8,0.8c0,0-0.2,0.1-0.5,0.1c-0.1,0-0.3-0.1-0.5-0.2 c-0.4-0.3-0.7-0.8-0.7-0.9c-0.2,0.9,0.5,1.3,0.7,1.3c0.1,0-0.2,0.1-0.4,0.1c0,0-0.1,0-0.1,0c-0.5-0.2-0.8-0.7-0.8-0.8 c0,0-0.1,0.5,0.2,0.9c0,0,0,0-0.1,0c-0.1,0-0.1,0-0.2-0.1c-0.3-0.2-0.5-0.5-0.5-0.9c-0.2,0-0.4,0.3-0.5,0.5c-0.1,0.2-0.1,0.4,0,0.5 c0.1,0.2,0.3,0.3,0.4,0.4c0.1,0,0.3,0,0.4,0c0.1,0,0.2,0.1,0.3,0.2c0.1,0.2,0,0.5-0.2,0.5c0,0,0.1-0.2-0.1-0.3 c-0.1,0-0.1-0.1-0.2-0.1c-0.1,0-0.2,0-0.3,0.1c-0.1,0.2,0.4,0.5,0.6,0.6c0,0,0.1,0.1,0.3,0.1c0.1,0,0.3,0,0.3-0.3 c0,0-0.2-0.1-0.2-0.3c0-0.2,0.2-0.3,0.2-0.3c0.1-0.2,0.4-0.2,0.4-0.2c0,0,0,0,0,0c-0.1,0-0.1,0.1-0.1,0.2c0,0.1,0.2,0.2,0.1,0.5 c0,0,0.2,0,0.2-0.2c0-0.1,0-0.2,0-0.3c0-0.1,0.1-0.1,0.2-0.1c0.1,0,0.2,0,0.3,0c0.2,0,0.2,0.2,0.2,0.2s0,0,0,0c0,0,0,0-0.1,0 c-0.1,0-0.2,0-0.2,0.1c0,0,0.1,0.1,0,0.2c-0.1,0.2-0.4,0.1-0.4,0.4c0,0,0.1-0.1,0.3-0.1c0.1,0,0.3,0.2,0.3,0.4c0,0.1,0,0.2-0.1,0.2 c0,0,0,0,0,0c0-0.1,0-0.2-0.1-0.2c-0.1,0-0.1,0.1-0.3,0.1c0,0,0,0-0.1,0c-0.1,0-0.1,0-0.2,0c0,0,0,0,0,0c-0.2,0-0.5,0.2-0.6,0.4 c-0.1,0.2,0,0.2-0.1,0.3c-0.1,0.1-0.2,0.1-0.2,0.1s0,0,0,0.1c0,0.1,0,0.1,0.1,0.2c0,0,0,0,0,0c0,0-0.1,0-0.1,0 c-0.1,0-0.1-0.1-0.2-0.2c0,0,0-0.1,0-0.1c0,0-0.1-0.1-0.1-0.3c0.1-0.2,0.2-0.1,0.2-0.4c-0.1-0.3-0.6-0.7-0.9-0.7 c-0.1,0-0.1,0-0.2,0c-0.1,0.1-0.1,0.4,0.2,0.4c-0.1,0.1-0.2,0.2-0.4,0.1c-0.2,0-0.3-0.3-0.2-0.6c0.1-0.4-0.2-0.7-0.4-0.8 c0,0-0.1,0-0.1,0c-0.3,0-0.2,0.5-0.2,0.5l0.1,1.6c0,0,0,0.1,0.1,0.2c0.1,0.2,0.3,0.3,0.5,0.4c0.2,0,0.4,0,0.5-0.1 c0,0,0.1-0.2,0.1-0.3c0,0,0-0.1-0.1-0.1c0,0,0,0,0,0c-0.1,0-0.1,0.1-0.2,0.1c0-0.1,0-0.3,0.3-0.3c0.2,0,0.3,0.2,0.3,0.3 c0,0.2,0,0.3,0,0.3s0.2-0.1,0.4,0c0,0,0,0,0.1,0c0.2,0.1,0.3,0.1,0.3,0.3c0,0.2-0.1,0.3-0.1,0.3s0.1-0.1-0.1-0.2c0,0-0.1,0-0.1,0 c-0.2,0-0.3,0.2-0.3,0.3c0,0.2,0,0.4-0.2,0.5c0,0-0.1,0-0.1,0c-0.1,0-0.1-0.1-0.1-0.1s0.2,0,0.2-0.2c0-0.5-0.8-0.4-1.1-0.6 c-0.3-0.1-0.4-0.3-0.4-0.3s0,0,0,0.1c0.1,0.5,0.3,0.5,0.6,0.6c0.2,0,0.4,0.2,0.4,0.5c0,0.4-0.2,0.3-0.2,0.3s0.1-0.3-0.2-0.3 c0,0,0,0-0.1,0c-0.2,0-0.2,0.1-0.3,0.2c-0.1,0.1-0.6,0.6-0.7,0.7c-0.1-0.1-0.5-0.6-0.7-0.7c-0.1-0.1-0.2-0.2-0.3-0.2c0,0,0,0-0.1,0 c-0.3,0-0.2,0.3-0.2,0.3s-0.2,0-0.2-0.3c0-0.3,0.2-0.4,0.4-0.5c0.3-0.1,0.6-0.1,0.6-0.6c0-0.1,0-0.1,0-0.1s-0.1,0.2-0.4,0.3 c-0.3,0.2-1.1,0.1-1.1,0.6c0,0.2,0.2,0.2,0.2,0.2s0,0.1-0.1,0.1c0,0-0.1,0-0.1,0c-0.2,0-0.2-0.2-0.2-0.5c0-0.2-0.1-0.4-0.3-0.3 c0,0-0.1,0-0.1,0c-0.2,0.1-0.1,0.2-0.1,0.2s-0.2-0.1-0.1-0.3c0-0.2,0.1-0.2,0.3-0.3c0,0,0,0,0.1,0c0.2,0,0.4,0,0.4,0 s-0.1-0.2,0-0.3c0-0.1,0.1-0.3,0.3-0.3c0.3-0.1,0.4,0.1,0.3,0.3c0,0-0.1-0.1-0.2-0.1c0,0,0,0,0,0c0,0-0.1,0.1-0.1,0.1 c0,0.1,0,0.3,0.1,0.3c0.1,0.1,0.2,0.1,0.5,0.1c0.3-0.1,0.5-0.2,0.5-0.4c0-0.1,0.1-0.2,0.1-0.2l0.1-1.6c0,0,0-0.4-0.2-0.5 c0,0-0.1,0-0.1,0c-0.2,0-0.5,0.4-0.4,0.8c0.1,0.3-0.1,0.5-0.2,0.6c-0.2,0-0.3,0-0.4-0.1c0.3,0,0.3-0.3,0.2-0.4c0,0-0.1-0.1-0.2,0 c-0.3,0-0.8,0.5-0.9,0.7c-0.1,0.2,0.1,0.2,0.2,0.4c0.1,0.2-0.1,0.3-0.1,0.3c0,0.1,0,0.1,0,0.1c0,0.1-0.1,0.2-0.2,0.2 c-0.1,0-0.1,0-0.1,0c0.1,0,0.1-0.1,0.1-0.2c0,0,0-0.1,0-0.1s-0.1,0-0.2-0.1C19,42,19.1,42,19,41.8c-0.1-0.2-0.4-0.3-0.6-0.4 c0,0,0,0,0,0c0,0-0.1,0-0.2,0c0,0,0,0-0.1,0c-0.2,0-0.1-0.1-0.3-0.1c-0.1,0-0.1,0.1-0.1,0.2c0,0,0,0,0,0c-0.1-0.1-0.1-0.1-0.1-0.2 c0-0.2,0.1-0.4,0.3-0.4c0.2,0,0.2,0.1,0.3,0.1c0.1-0.4-0.2-0.3-0.4-0.4c-0.1-0.1-0.1-0.2,0-0.2c0-0.1-0.1-0.1-0.2-0.1 c0,0,0,0-0.1,0c0,0,0-0.2,0.2-0.2c0.1,0,0.1,0,0.3,0c0.1,0,0.2,0,0.2,0.1c0,0.1,0,0.2,0,0.3c0,0.3,0.2,0.2,0.2,0.2 c-0.1-0.4,0-0.5,0.1-0.5c0-0.1,0-0.1-0.1-0.2c0,0,0,0,0,0c0,0,0.4,0,0.4,0.2c0,0,0.2,0.1,0.2,0.3c0,0.2-0.1,0.3-0.2,0.3 c0,0.2,0.2,0.3,0.3,0.3c0.1,0,0.3-0.1,0.3-0.1c0.2-0.1,0.7-0.4,0.6-0.6c-0.1-0.1-0.2-0.2-0.3-0.1c-0.1,0-0.1,0-0.2,0.1 c-0.1,0.1-0.1,0.3-0.1,0.3c-0.2,0.1-0.3-0.3-0.2-0.5c0.1-0.1,0.2-0.2,0.3-0.2c0.1,0,0.3,0,0.4,0c0.2,0,0.3-0.1,0.4-0.4 c0.1-0.2,0.1-0.4,0-0.5c-0.1-0.2-0.3-0.4-0.5-0.5c0,0.4-0.3,0.7-0.5,0.9c-0.1,0-0.2,0.1-0.2,0.1c0,0-0.1,0-0.1,0 c0.3-0.4,0.3-0.8,0.2-0.9c0,0-0.3,0.5-0.8,0.8c0,0-0.1,0-0.1,0c-0.3,0-0.5-0.1-0.4-0.1c0.2,0,0.9-0.4,0.7-1.3c0,0-0.3,0.6-0.7,0.9 c-0.2,0.1-0.3,0.2-0.5,0.2c-0.3,0-0.5,0-0.5-0.1c0,0,0.8-0.4,0.8-0.8c0,0-0.2,0.2-0.5,0.2c0,0-0.1,0-0.1,0c-0.7,0-0.7-0.5-0.7-0.5 c0,0,0.7,0,1.2-1.1c0,0-0.3,0.1-0.8,0.2c-0.2,0-0.3-0.1-0.3-0.1c0,0,0.1,0,0.1,0c0.1,0,0.3-0.1,0.6-0.3c-0.1,0-0.9-0.4-0.6-1 c0,0,0.2,0.2,0.5,0.2c0.2,0,0.6,0,0.7-0.2c0,0-0.5,0-0.9-0.3c0,0,0,0,0,0c-0.2,0-0.4,0-0.6,0c-0.1,0.6-0.6,1-1.2,1 c-0.6,0-1-0.4-1.2-1c-0.4-0.1-0.7-0.1-1.1,0L5,44c0.8,0.7,1.6,1.3,2.5,1.9l7.5-8V42l-4.7,5c1.7,0.6,3.5,0.8,5,0.8 c5.9,0,14.6-3.8,14.4-14.6v-6.9l-3.8,4h-4l7.7-8.2v-4.5l-8.1,8.6c0,0,0.1,0.1,0.1,0.1L21.7,34.8z M19.1,35.7c0,0.1,0,0.3,0,0.3 c0.2,0.3,1.2,0.4,1.6,0C20.1,35.9,19.6,35.8,19.1,35.7z M8.9,26.6c0,0,0-0.1,0-0.1c-0.2-0.1-0.5-0.1-0.6-0.2C8.1,26.2,8,26,8,26 s0,0,0,0.1c0.1,0.5,0.3,0.5,0.6,0.6c0.1,0,0.3,0.1,0.3,0.2V26.6z M9.8,26c0.1,0,0.3-0.1,0.5-0.2c0,0,0-0.1,0-0.1c0,0,0-0.1,0-0.1 c0,0-0.1-0.1-0.1-0.3c0.1-0.2,0.2-0.1,0.2-0.4c-0.1-0.3-0.6-0.7-0.9-0.7c-0.1,0-0.1,0-0.2,0c-0.1,0.1-0.1,0.4,0.2,0.4 c-0.1,0.1-0.2,0.2-0.4,0.1c-0.2,0-0.3-0.3-0.2-0.6c0.1-0.4-0.2-0.7-0.4-0.8c0,0-0.1,0-0.1,0C8,23.5,8,23.9,8,23.9l0.1,1.6 c0,0.1,0,0.1,0.1,0.2c0.1,0.2,0.3,0.3,0.5,0.4c0.2,0,0.4,0,0.5-0.1c0,0,0.1-0.2,0.1-0.3c0,0,0-0.1-0.1-0.1c0,0,0,0,0,0 c-0.1,0-0.1,0.1-0.2,0.1c0-0.1,0-0.3,0.3-0.3c0.2,0,0.3,0.2,0.3,0.3c0,0.2,0,0.3,0,0.3S9.7,26.1,9.8,26z M10.4,25.8 c0.1,0,0.2-0.1,0.2-0.1c0.3-0.1,0.8-0.4,1.3-0.6c0.5-0.2,1.2-0.4,1.7-0.4c0.5,0,0.9,0.2,1.2,0.3c0.1,0.1,0.3,0.2,0.3,0.2l0,0 c0,0,0,0,0,0c0.1-0.1,0.1-0.2,0.3-0.2c0.2-0.2,0.6-0.3,1.2-0.3c0.6,0,1.3,0.2,1.8,0.5l0.1,0.1l9.4-10h-4.3l-8.3,8.8v-4.2l4.3-4.6 h-19v18.2c0,0.7,0,1.3,0.1,2L5,30.9h3.9l0-3.5c-0.1,0.1-0.2,0.1-0.2,0.1s0.1-0.3-0.2-0.3c0,0,0,0-0.1,0c-0.2,0-0.2,0.1-0.3,0.2 C8,27.4,7.6,27.9,7.5,28c-0.1-0.1-0.5-0.6-0.7-0.7c-0.1-0.1-0.2-0.2-0.3-0.2c0,0,0,0-0.1,0c-0.3,0-0.2,0.3-0.2,0.3S6,27.6,6,27.2 c0-0.3,0.2-0.4,0.4-0.5c0.3-0.1,0.6-0.1,0.6-0.6c0-0.1,0-0.1,0-0.1s-0.1,0.2-0.4,0.3c-0.3,0.2-1.1,0.1-1.1,0.6 c0,0.2,0.2,0.2,0.2,0.2s0,0.1-0.1,0.1c0,0-0.1,0-0.1,0c-0.2,0-0.2-0.2-0.2-0.5c0-0.2-0.1-0.4-0.3-0.3c0,0-0.1,0-0.1,0 c-0.2,0.1-0.1,0.2-0.1,0.2s-0.2-0.1-0.1-0.3c0-0.2,0.1-0.2,0.3-0.3c0,0,0,0,0.1,0c0.2,0,0.4,0,0.4,0s-0.1-0.2,0-0.3 c0-0.1,0.1-0.3,0.3-0.3C6,25.4,6,25.6,6,25.7c0,0-0.1-0.1-0.2-0.1c0,0,0,0,0,0c0,0-0.1,0.1-0.1,0.1c-0.1,0.1,0,0.3,0.1,0.3 c0.1,0.1,0.2,0.1,0.5,0.1c0.3-0.1,0.5-0.2,0.5-0.4c0-0.1,0.1-0.2,0.1-0.2L7,23.9c0,0,0-0.4-0.2-0.5c0,0-0.1,0-0.1,0 c-0.2,0-0.5,0.4-0.4,0.8c0.1,0.3-0.1,0.5-0.2,0.6c-0.2,0-0.3,0-0.4-0.1c0.3,0,0.3-0.3,0.2-0.4c0,0-0.1-0.1-0.2,0 c-0.3,0-0.8,0.5-0.9,0.7c-0.1,0.2,0.1,0.2,0.2,0.4c0.1,0.2-0.1,0.3-0.1,0.3c0,0.1,0,0.1,0,0.1c0,0.1-0.1,0.2-0.2,0.2 c-0.1,0-0.1,0-0.1,0c0.1,0,0.1-0.1,0.1-0.2c0,0,0-0.1,0-0.1s-0.1,0-0.2-0.1c-0.1-0.1,0-0.2-0.1-0.3c-0.1-0.2-0.4-0.3-0.6-0.4 c0,0,0,0,0,0c0,0-0.1,0-0.2,0c0,0,0,0-0.1,0c-0.2,0-0.1-0.1-0.3-0.1c-0.1,0-0.1,0.1-0.1,0.2c0,0,0,0,0,0C3.1,25,3.1,24.9,3,24.8 c0-0.2,0.1-0.4,0.3-0.4c0.2,0,0.2,0.1,0.3,0.1c0.1-0.4-0.2-0.3-0.4-0.4c-0.1-0.1-0.1-0.2,0-0.2c0-0.1-0.1-0.1-0.2-0.1 c0,0,0,0-0.1,0c0,0,0-0.2,0.2-0.2c0.1,0,0.1,0,0.3,0c0.1,0,0.2,0,0.2,0.1c0,0.1,0,0.2,0,0.3c0,0.3,0.2,0.2,0.2,0.2 c-0.1-0.4,0-0.5,0.1-0.5c0-0.1,0-0.1-0.1-0.2c0,0,0,0,0,0c0,0,0.4,0,0.4,0.2c0,0,0.2,0.1,0.2,0.3c0,0.2-0.1,0.3-0.2,0.3 c0,0.2,0.2,0.3,0.3,0.3c0.1,0,0.3-0.1,0.3-0.1C5,24.3,5.5,24,5.3,23.8c-0.1-0.1-0.2-0.2-0.3-0.1c-0.1,0-0.1,0-0.2,0.1 C4.8,23.9,4.9,24,4.9,24c-0.2,0.1-0.3-0.3-0.2-0.5c0.1-0.1,0.2-0.2,0.3-0.2c0.1,0,0.3,0,0.4,0c0.2,0,0.3-0.1,0.4-0.4 c0.1-0.2,0.1-0.4,0-0.5C5.8,22.3,5.6,22,5.4,22c0,0.4-0.3,0.7-0.5,0.9c-0.1,0-0.2,0.1-0.2,0.1c0,0-0.1,0-0.1,0 c0.3-0.4,0.3-0.8,0.2-0.9c0,0-0.3,0.5-0.8,0.8c0,0-0.1,0-0.1,0c-0.3,0-0.5-0.1-0.4-0.1c0.2,0,0.9-0.4,0.7-1.3c0,0-0.3,0.6-0.7,0.9 c-0.2,0.1-0.3,0.2-0.5,0.2c-0.3,0-0.5,0-0.5-0.1c0,0,0.8-0.4,0.8-0.8c0,0-0.2,0.2-0.5,0.2c0,0-0.1,0-0.1,0C2,22,2,21.5,2,21.5 c0.1,0,0.7,0,1.2-1.1c0,0-0.3,0.1-0.8,0.2c-0.2,0-0.3-0.1-0.3-0.1c0,0,0.1,0,0.2,0c0.1,0,0.3-0.1,0.6-0.3c-0.1,0-0.9-0.4-0.6-1 c0,0,0.2,0.2,0.5,0.2c0.2,0,0.6,0,0.7-0.2c0,0-0.5,0-0.9-0.3c-0.3-0.2-0.4-0.6-0.3-0.4c0.1,0.1,0.2,0.2,0.4,0.2c0.1,0,0.2,0,0.2,0 s-0.7-0.6-0.2-1.1c0,0,0.2,0.6,0.8,0.6c0,0-0.3-0.3-0.3-0.6c0-0.2,0-0.5,0-0.4c0,0.1,0.1,0.2,0.1,0.2c0.1,0.1,0.2,0.3,0.3,0.4 c0,0-0.1-0.3,0-0.6c0,0,0.2-0.3,0.2-0.2c0,0,0,0.2,0,0.3c0,0.2,0.1,0.5,0.5,0.9c0.5,0.5,1.1,0.5,1.1,0.8c0,0.4-0.5,0.3-0.8,0.3 c-0.1,0-0.1,0.2,0,0.3c0.3,0.3,1.4,0.4,1.7-0.1c0.1-0.2,0.2-0.4,0.1-0.7c-0.1-0.3-0.3-0.3-0.8-0.4C5.2,18.2,5.3,18,5.3,18 c0,0,0.1,0.1,0.2,0.1c0.2,0,0.1-0.3,0.1-0.3c-0.1,0-0.3,0.1-0.5,0.1c-0.3,0-0.6-0.1-0.6-0.3c0-0.2,0.3-0.3,0.3-0.2 c0,0-0.2,0.3,0.3,0.3c0.2,0,0.5,0,0.5,0c0-0.1-0.2-0.2-0.3-0.2c-0.1,0-0.2,0-0.3,0c-0.1-0.1,0.1-0.3,0.2-0.3c0.1-0.1,0.2,0,0.2,0 c0.1,0,0.1-0.2,0.4-0.2C6,16.9,6.2,17,6.4,17c0.1,0,0.3-0.1,0.4,0c0,0-0.1,0.2-0.1,0.3c0,0.2,0.4,1.2,0.9,1.3 c0.5-0.1,0.9-1.1,0.9-1.3c0-0.1-0.1-0.2-0.1-0.3c0,0,0.2,0,0.4,0c0.1,0,0.4-0.1,0.6-0.1c0.3,0,0.4,0.2,0.4,0.2c0,0,0.1,0,0.2,0 c0.1,0.1,0.3,0.2,0.2,0.3c-0.2,0-0.2,0-0.3,0c-0.1,0-0.3,0.1-0.3,0.2c0,0,0.3,0,0.5,0c0.5,0,0.3-0.3,0.3-0.3c0-0.1,0.3,0,0.3,0.2 c0,0.2-0.3,0.3-0.6,0.3c-0.2,0-0.5-0.1-0.5-0.1c0,0-0.2,0.3,0.1,0.3c0.1,0,0.2-0.1,0.2-0.1c0,0,0.1,0.1-0.2,0.2 c-0.4,0.1-0.7,0.1-0.8,0.4c-0.1,0.2,0,0.5,0.1,0.7c0.3,0.6,1.4,0.5,1.7,0.1c0.1-0.1,0.1-0.3,0-0.3c-0.3,0-0.8,0.1-0.8-0.3 c0-0.3,0.6-0.3,1.1-0.8c0.4-0.4,0.5-0.7,0.5-0.9c0-0.1,0-0.3,0-0.3c0-0.1,0.2,0.2,0.2,0.2c0.1,0.3,0,0.6,0,0.6 c0.1-0.1,0.3-0.3,0.3-0.4c0-0.1,0.1-0.2,0.1-0.2c0-0.1,0.1,0.2,0,0.4c-0.1,0.3-0.3,0.6-0.3,0.6c0.6,0,0.8-0.6,0.8-0.6 c0.4,0.5-0.2,1.1-0.2,1.1s0.1,0,0.2,0c0.2,0,0.3-0.1,0.4-0.2c0.1-0.1,0,0.3-0.3,0.4c-0.5,0.3-0.9,0.3-0.9,0.3 c0.1,0.2,0.5,0.3,0.7,0.2c0.3,0,0.5-0.2,0.5-0.2c0.3,0.6-0.5,1-0.6,1c0.2,0.2,0.4,0.3,0.6,0.3c0.1,0,0.1,0,0.1,0 c0,0-0.1,0.1-0.3,0.1c-0.4,0-0.8-0.2-0.8-0.2c0.5,1.1,1.2,1.1,1.2,1.1c0,0,0,0.5-0.7,0.5c0,0-0.1,0-0.1,0c-0.3,0-0.5-0.2-0.5-0.2 c0,0.4,0.8,0.8,0.8,0.8c0,0-0.2,0.1-0.5,0.1c-0.1,0-0.3-0.1-0.5-0.2c-0.4-0.3-0.7-0.8-0.7-0.9c-0.2,0.9,0.5,1.3,0.7,1.3 c0.1,0-0.2,0.1-0.4,0.1c0,0-0.1,0-0.1,0c-0.5-0.2-0.8-0.7-0.8-0.8c0,0-0.1,0.5,0.2,0.9c0,0,0,0-0.1,0c-0.1,0-0.1,0-0.2-0.1 c-0.3-0.2-0.5-0.5-0.5-0.9c-0.2,0-0.4,0.3-0.5,0.5c-0.1,0.2-0.1,0.4,0,0.5c0.1,0.2,0.3,0.3,0.4,0.4c0.1,0,0.3,0,0.4,0 c0.1,0,0.2,0.1,0.3,0.2c0.1,0.2,0,0.5-0.2,0.5c0,0,0.1-0.2-0.1-0.3c-0.1,0-0.1-0.1-0.2-0.1c-0.1,0-0.2,0-0.3,0.1 c-0.1,0.2,0.4,0.5,0.6,0.6c0,0,0.1,0.1,0.3,0.1c0.1,0,0.3,0,0.3-0.3c0,0-0.2-0.1-0.2-0.3c0-0.2,0.2-0.3,0.2-0.3 c0.1-0.2,0.4-0.2,0.4-0.2c0,0,0,0,0,0c-0.1,0-0.1,0.1-0.1,0.2c0,0.1,0.2,0.2,0.1,0.5c0,0,0.2,0,0.2-0.2c0-0.1,0-0.2,0-0.3 c0-0.1,0.1-0.1,0.2-0.1c0.1,0,0.2,0,0.3,0c0.2,0,0.2,0.2,0.2,0.2s0,0,0,0c0,0,0,0-0.1,0c-0.1,0-0.2,0-0.2,0.1c0,0,0.1,0.1,0,0.2 c-0.1,0.2-0.4,0.1-0.4,0.4c0,0,0.1-0.1,0.3-0.1c0.1,0,0.3,0.2,0.3,0.4c0,0.1,0,0.2-0.1,0.2c0,0,0,0,0,0c0-0.1,0-0.2-0.1-0.2 c-0.1,0-0.1,0.1-0.3,0.1c0,0,0,0-0.1,0c-0.1,0-0.1,0-0.2,0c0,0,0,0,0,0c-0.2,0-0.5,0.2-0.6,0.4c-0.1,0.2,0,0.2-0.1,0.3 c-0.1,0.1-0.2,0.1-0.2,0.1S10.4,25.7,10.4,25.8C10.4,25.8,10.4,25.8,10.4,25.8z M3.1,41.7l5.9-6.2v-1.8l-0.7,0c0,0-0.5-0.1-0.3-0.6 c0.1-0.4,0.5-0.3,0.5-0.3s-0.1-0.4,0.3-0.5c0.1,0,0.1,0,0.2,0V31l-7.3,7.8C2,39.9,2.5,40.8,3.1,41.7z M30.3,14.6v18.7 c0.2,11.2-8.9,15.2-15,15.2c-6,0-15.2-4-15-15.2V14.6h5.6C5.9,14.2,6,14,6,14c7.6-1.5,11.3-1.6,18.9,0c0.2,0.2,0.2,0.4,0.2,0.6 H30.3z M19,32.3l-0.2,0.6l0.4,0.1L19,32.3z M18.9,32.1c0-0.1-0.1-0.1,0-0.2c0,0,0.1,0,0.2,0.1c0.1,0,0.2,0.1,0.2,0.2 c0,0.1,0.5,1.5,0.5,1.7c0,0.1,0.1,0.1,0.1,0.2c0,0-0.1,0-0.4-0.1c-0.2-0.1-0.3-0.1-0.3-0.1c0-0.1,0.2,0,0.2-0.1 c0-0.1-0.1-0.3-0.1-0.3l-0.6-0.2l-0.1,0.3c0,0.1,0.1,0.1,0.1,0.2c0,0-0.1,0-0.2-0.1c-0.1,0-0.1,0-0.1-0.1c0,0,0.1,0,0.1-0.1 C18.5,33.3,18.9,32.2,18.9,32.1z M19.6,29.6v0.7c0,0,0.4,0.2,0.4-0.2C20,29.7,19.6,29.6,19.6,29.6z M19.1,31c0-0.1,0.1,0,0.1-0.1 v-1.4c0-0.2-0.1-0.2-0.1-0.2c0-0.1,0.2,0,0.2,0c0,0,0.4,0.2,0.5,0.2c0,0,0.5,0.2,0.5,0.7c0,0.3-0.3,0.3-0.3,0.3s0.3,0.2,0.3,0.4 c0,0.2,0,0.4,0,0.5c0,0,0,0.2,0.2,0c0,0,0,0.3-0.3,0.2c-0.2-0.1-0.3-0.3-0.3-0.4c0-0.1-0.1-0.8-0.4-0.8v0.6c0,0.2,0.1,0.1,0.1,0.2 c0,0.1-0.1,0-0.3-0.1C19.2,31.1,19.1,31.1,19.1,31z M17.1,25.9C17.1,25.8,17.2,25.9,17.1,25.9l0.6,0.2c0,0,0.1,0,0.1,0.1 c0,0-0.2-0.1-0.2,0.1v1.5c0,0,0,0.1,0.2,0c0.2-0.1,0.4-0.2,0.4-0.2s0.1-0.1,0.1,0c0,0.1-0.2,0.4-0.2,0.4s0,0.1-0.2,0.1 c-0.1,0-0.5-0.1-0.6-0.2c-0.1,0-0.4-0.1-0.4-0.1s-0.1,0-0.1-0.1s0.2,0,0.2-0.1v-1.4C17.2,26,17.1,26,17.1,25.9z M18.5,26.4 c0-0.1,0.2,0,0.4,0.1c0.2,0.1,0.4,0.1,0.4,0.2c0,0-0.2,0-0.2,0.1c0,0.1,0.3,0.9,0.3,0.9s0.3-0.7,0.3-0.7c0-0.1-0.1-0.1-0.1-0.1 c0,0,0.1,0,0.2,0.1c0.1,0,0.2,0.1,0.2,0.1c0,0-0.1-0.1-0.1,0c0,0.1-0.6,1.4-0.6,1.4l-0.6-1.9C18.5,26.4,18.4,26.4,18.5,26.4z M17.4,28.6c0.1,0,0.1,0.3,0.1,0.4c0,0.2,0.1,0.3,0,0.3c-0.1,0-0.2-0.3-0.3-0.4c-0.1-0.1-0.6-0.4-0.6,0.6c0,0.8,0.4,0.8,0.6,0.7 c0.2-0.1,0.3-0.2,0.3-0.2c0,0-0.2,0.4-0.6,0.4s-0.8-0.3-0.8-1c0-0.6,0.3-1,0.7-1c0.3,0,0.4,0.2,0.5,0.2 C17.4,28.7,17.3,28.6,17.4,28.6z M17.8,28.8c0-0.1,0.3,0,0.5,0.1c0.2,0.1,0.6,0.1,0.6,0.3c0,0.2,0,0.3,0,0.3c0,0-0.1-0.2-0.2-0.3 c-0.1-0.1-0.3-0.1-0.4-0.2c-0.1,0,0,0,0,0v0.5c0,0,0.1,0.1,0.2,0c0.1,0,0.1-0.2,0.1-0.1c0,0,0,0.1,0,0.3c0,0.2,0,0.3,0,0.3 s0-0.2-0.1-0.3c-0.1-0.1-0.2-0.1-0.2-0.1v0.8c0,0,0.1,0.1,0.3,0c0.2-0.1,0.4-0.2,0.4-0.2c0,0,0,0.1-0.1,0.2 c-0.1,0.2-0.2,0.3-0.3,0.2c-0.1,0-0.3-0.1-0.5-0.2c-0.1-0.1-0.4-0.1-0.4-0.2c0-0.1,0.1,0.1,0.1-0.1v-1.4 C17.9,28.9,17.8,28.9,17.8,28.8z M17,31.3c0,0,0.1,0,0.1,0c0.1,0,0.2,0.1,0.3,0.2c0.1,0.1,0.6,1.1,0.6,1.1l0-0.9 c0-0.1-0.1-0.1-0.1-0.2c0,0,0.1,0,0.2,0c0.1,0,0.2,0,0.2,0.1c0,0-0.1,0-0.1,0.1v1.6c0,0,0,0.1,0,0c0-0.1-0.9-1.4-0.9-1.4 s0,0.8,0,0.9c0,0.1,0.1,0.1,0.1,0.1c0,0.1-0.1,0-0.2,0c-0.1,0-0.2,0-0.2-0.1c0-0.1,0.1,0,0.1-0.1v-1.4C17.1,31.4,17,31.4,17,31.3z M10.2,27.1c0.1,0,0.3-0.1,0.3-0.1c0,0.1-0.1,0.1-0.1,0.2c0,0.1,0.3,0.8,0.3,0.8l0.2-1c0.1-0.2-0.1-0.1-0.1-0.2 c0,0,0.1-0.1,0.2-0.1c0.1,0,0.3-0.1,0.3-0.1c0,0.1-0.1,0.1-0.1,0.3c-0.1,0.2-0.4,1.7-0.5,1.8c-0.1,0-0.6-1.3-0.6-1.4 c0-0.1-0.2-0.1-0.2-0.1C9.9,27.2,10.1,27.2,10.2,27.1z M11.6,26.6c0.2-0.1,0.4-0.2,0.7-0.3c0,0,0.2-0.1,0.2,0 c0.1,0.1,0.1,0.3,0.1,0.3c-0.1,0-0.1,0-0.2-0.1c-0.1,0-0.1-0.1-0.2,0c-0.1,0-0.2,0.1-0.2,0.1V27c0,0,0.2,0,0.2-0.1 c0-0.1,0.1-0.2,0.1-0.2c0,0,0,0.1,0,0.2c0,0.1,0,0.1,0,0.1c0,0.2,0,0.2,0,0.3c-0.1,0-0.1-0.1-0.1-0.2c0-0.1-0.2,0-0.2,0v0.8 c0,0,0.1-0.1,0.2-0.1c0.1-0.1,0.2-0.2,0.3-0.3c0.1-0.1,0.1-0.2,0.1-0.2c0,0,0,0.3,0,0.3s0,0.1-0.1,0.2c-0.1,0.1-0.7,0.3-0.8,0.4 c-0.1,0-0.2,0.1-0.2,0.1c0-0.1,0.1,0,0.1-0.3l0-1.3C11.7,26.8,11.7,26.7,11.6,26.6C11.5,26.6,11.5,26.6,11.6,26.6z M14.2,27.4 c0.1,0,0.1,0,0.1,0s0,0.2-0.3,0.2c-0.3,0-0.3-0.6-0.4-0.8c-0.1-0.2-0.3-0.1-0.3-0.1v0.6c0,0.2,0.1,0.1,0.1,0.2c0,0-0.1,0-0.1,0 s-0.3,0.1-0.4,0.1c-0.1,0-0.1,0-0.1,0c0-0.1,0.1,0,0.1-0.2v-1.2c0-0.2-0.1-0.2-0.1-0.2c0,0,0.1-0.1,0.2-0.1c0.2,0,0.2-0.1,0.5-0.1 c0.2-0.1,0.6,0.1,0.6,0.4c0,0.3-0.2,0.4-0.3,0.5C14.2,26.9,14,27.4,14.2,27.4z M13.4,25.9v0.7c0,0,0.3,0,0.3-0.4 C13.7,25.8,13.4,25.9,13.4,25.9z M10.4,29.7c0.2-0.1,0.7-0.2,0.7,0.2c0,0.3-0.2,0.4-0.2,0.4s0.3,0.1,0.3,0.4c0,0.3-0.2,0.6-0.3,0.7 c-0.1,0-0.7,0.3-0.7,0.4c-0.1,0-0.2,0.1-0.2,0.1c0-0.1,0.1-0.1,0.1-0.3v-1.3c0-0.3-0.1-0.2-0.1-0.2C9.9,29.9,10.2,29.8,10.4,29.7z M10.4,29.8v0.6c0,0,0.3-0.1,0.3-0.4C10.7,29.7,10.4,29.8,10.4,29.8z M10.4,30.6v0.8c0,0,0.4-0.1,0.4-0.6 C10.8,30.3,10.4,30.6,10.4,30.6z M12.2,29c0.1,0,0.2-0.1,0.2-0.1c0,0-0.1,0-0.1,0.3c0,0.1-0.3,1.6-0.4,1.7c0,0-0.5-1.2-0.6-1.3 c-0.1-0.2-0.2-0.1-0.2-0.1c0,0,0.1-0.1,0.2-0.1c0.1,0,0.3-0.2,0.3-0.1c0,0.1-0.1,0.1,0,0.2c0.1,0.1,0.3,0.7,0.3,0.7 s0.2-0.7,0.2-0.9c0-0.2-0.1-0.1-0.1-0.2C12.1,29.1,12.2,29,12.2,29L12.2,29z M12.7,28.8c0,0,0.2-0.1,0.2-0.1c0.1,0,0.2-0.1,0.3,0 c0.1,0.1,0.3,0.5,0.3,0.5s0.4-0.5,0.4-0.5c0,0,0-0.1,0.2-0.1c0.2,0,0.2,0,0.2,0c0,0.1-0.1,0-0.1,0.2c0,0.1,0,1.3,0,1.4 c0,0.2,0.1,0.1,0.1,0.2s-0.1,0-0.3,0c-0.2,0-0.3,0-0.3,0c0-0.1,0.1,0,0.1-0.1v-0.9c0,0-0.3,0.5-0.4,0.5c0,0-0.4-0.6-0.4-0.6v1.1 c0,0.2,0.2,0.1,0.2,0.1c0,0-0.1,0-0.2,0.1c-0.1,0-0.2,0.1-0.2,0c0-0.1,0.1,0,0.1-0.2c0-0.2,0-1.2,0-1.2 C12.9,28.8,12.7,28.8,12.7,28.8z M10.2,32.6c0,0,0.2-0.1,0.3-0.2c0.2-0.1,1-0.5,1,0.4c0,0.8-0.6,1-0.8,1.1 c-0.2,0.1-0.4,0.2-0.5,0.2c0-0.1,0.1-0.1,0.1-0.2v-1C10.3,32.5,10.2,32.7,10.2,32.6z M11.1,32.8c0-0.6-0.4-0.4-0.4-0.4v1.3 C10.7,33.7,11.1,33.7,11.1,32.8z M11.7,31.9c0,0,0.1,0,0.1-0.1c0.1,0,0.2-0.1,0.2,0c0.1,0.1,0.6,0.6,0.6,0.6v-0.8 c0-0.1-0.1,0-0.1-0.1c0-0.1,0.1-0.1,0.2-0.1c0.1,0,0.3-0.2,0.3-0.1c0,0.1-0.1,0.1-0.1,0.2V33c0,0.1,0,0.1-0.1,0.1 c0,0-0.8-0.9-0.8-0.9v1c0,0.1,0.2,0,0.2,0c0,0-0.1,0.1-0.2,0.1c-0.1,0-0.3,0.1-0.3,0.1c0-0.1,0.1-0.1,0.1-0.2V32 C11.8,31.9,11.7,32,11.7,31.9z M13.3,31.3c0-0.1,0.1-0.1,0.3-0.1c0.2,0,0.4-0.1,0.4,0c0,0.1-0.1,0-0.1,0.2v1.5c0,0.1,0.1,0,0.1,0.1 c0,0.1-0.2,0-0.3,0c-0.1,0-0.3,0-0.3,0c0-0.1,0.1,0,0.1-0.1v-1.4C13.4,31.2,13.3,31.4,13.3,31.3z M27.6,29.6 c0.1-0.4,0.5-0.3,0.5-0.3s-0.1-0.4,0.3-0.5C28.8,28.6,29,29,29,29l0.2,1.2l-1.3,0C27.9,30.2,27.5,30.1,27.6,29.6z M12.8,46 c0.1-0.4,0.5-0.3,0.5-0.3s-0.1-0.4,0.3-0.5c0.4-0.2,0.6,0.3,0.6,0.3l0.2,1.2l-1.3,0C13.1,46.6,12.7,46.4,12.8,46z M27.6,21.1 c0.1-0.4,0.5-0.3,0.5-0.3s-0.1-0.4,0.3-0.5c0.4-0.2,0.6,0.3,0.6,0.3l0.2,1.2l-1.3,0C27.9,21.6,27.5,21.5,27.6,21.1z M25.7,23.1 c0.1-0.4,0.5-0.3,0.5-0.3s-0.1-0.4,0.3-0.5c0.4-0.2,0.6,0.3,0.6,0.3l0.2,1.2l-1.3,0C26,23.7,25.6,23.6,25.7,23.1z M23.8,25.2 c0.1-0.4,0.5-0.3,0.5-0.3s-0.1-0.4,0.3-0.5c0.4-0.2,0.6,0.3,0.6,0.3l0.2,1.2l-1.3,0C24.1,25.8,23.7,25.7,23.8,25.2z M21.9,27.3 c0.1-0.4,0.5-0.3,0.5-0.3s-0.1-0.4,0.3-0.5c0.4-0.2,0.6,0.3,0.6,0.3l0.2,1.2l-1.3,0C22.2,27.9,21.8,27.7,21.9,27.3z M12.6,37.1 c0.1-0.4,0.5-0.3,0.5-0.3s-0.1-0.4,0.3-0.5c0.4-0.2,0.6,0.3,0.6,0.3l0.2,1.2l-1.3,0C12.9,37.6,12.5,37.5,12.6,37.1z M10.5,39.4 C10.6,38.9,11,39,11,39s-0.1-0.4,0.3-0.5c0.4-0.2,0.6,0.3,0.6,0.3l0.2,1.2l-1.3,0C10.8,39.9,10.3,39.8,10.5,39.4z M8.3,41.7 c0.1-0.4,0.5-0.3,0.5-0.3S8.8,41,9.2,40.8c0.4-0.2,0.6,0.3,0.6,0.3l0.2,1.2l-1.3,0C8.7,42.2,8.2,42.1,8.3,41.7z M6.2,43.9 c0.1-0.4,0.5-0.3,0.5-0.3S6.7,43.3,7,43.1c0.4-0.2,0.6,0.3,0.6,0.3l0.2,1.2l-1.3,0C6.6,44.5,6.1,44.4,6.2,43.9z M1.3,31.8 c0.1-0.4,0.5-0.3,0.5-0.3S1.7,31.2,2.1,31c0.4-0.2,0.6,0.3,0.6,0.3l0.2,1.2l-1.3,0C1.6,32.4,1.2,32.3,1.3,31.8z M23.6,16.6 c0.1-0.4,0.5-0.3,0.5-0.3s-0.1-0.4,0.3-0.5c0.4-0.2,0.6,0.3,0.6,0.3l0.2,1.2l-1.3,0C24,17.2,23.5,17.1,23.6,16.6z M21.5,18.9 c0.1-0.4,0.5-0.3,0.5-0.3s-0.1-0.4,0.3-0.5c0.4-0.2,0.6,0.3,0.6,0.3l0.2,1.2l-1.3,0C21.8,19.5,21.4,19.3,21.5,18.9z M19.4,21.1 c0.1-0.4,0.5-0.3,0.5-0.3s-0.1-0.4,0.3-0.5c0.4-0.2,0.6,0.3,0.6,0.3l0.2,1.2l-1.3,0C19.7,21.7,19.2,21.6,19.4,21.1z M17.2,23.4 c0.1-0.4,0.5-0.3,0.5-0.3s-0.1-0.4,0.3-0.5c0.4-0.2,0.6,0.3,0.6,0.3l0.2,1.2l-1.3,0C17.6,24,17.1,23.9,17.2,23.4z M15.4,16.6 c0.1-0.4,0.5-0.3,0.5-0.3s-0.1-0.4,0.3-0.5c0.4-0.2,0.6,0.3,0.6,0.3l0.2,1.2l-1.3,0C15.8,17.2,15.3,17.1,15.4,16.6z M6.1,35.1 c0.1-0.4,0.5-0.3,0.5-0.3s-0.1-0.4,0.3-0.5c0.4-0.2,0.6,0.3,0.6,0.3l0.2,1.2l-1.3,0C6.5,35.7,6,35.5,6.1,35.1z M4.3,37.1 c0.1-0.4,0.5-0.3,0.5-0.3s-0.1-0.4,0.3-0.5c0.4-0.2,0.6,0.3,0.6,0.3l0.2,1.2l-1.3,0C4.6,37.7,4.2,37.5,4.3,37.1z M2.5,39.1 C2.6,38.7,3,38.8,3,38.8s-0.1-0.4,0.3-0.5c0.4-0.2,0.6,0.3,0.6,0.3l0.2,1.2l-1.3,0C2.8,39.6,2.4,39.5,2.5,39.1z M10.1,12l0.8-0.9 l0.9,0.8L11,12.8L10.1,12z M14.6,11.8c0-0.3,0.4-0.6,0.9-0.6s0.9,0.3,0.9,0.6s-0.4,0.6-0.9,0.6S14.6,12.1,14.6,11.8z M6.6,13.3 c-0.3,0.1-0.8,0-0.9-0.4c-0.1-0.4,0.3-0.7,0.6-0.8c0.3-0.1,0.8,0,0.9,0.4C7.3,13,6.9,13.3,6.6,13.3z M20.8,12l-0.9,0.8l-0.8-0.9 l0.9-0.8L20.8,12z M24.7,12.2c0.3,0.1,0.7,0.4,0.6,0.8c-0.1,0.4-0.6,0.5-0.9,0.4c-0.3-0.1-0.7-0.4-0.6-0.8 C23.9,12.1,24.4,12.1,24.7,12.2z M10.6,9.3c0,0-0.4-0.2-0.5-0.3C10,8.9,9.8,8.8,9.8,8.8C9.7,9,9.3,9.5,9.3,9.5S10.2,9.3,10.6,9.3z M15.4,8.4c-0.2,0.2-0.5,0.5-0.9,0.7c0,0,0.6,0,0.9,0h0c0.3,0,0.9,0,0.9,0C16,8.9,15.6,8.6,15.4,8.4z M20.2,9.3 c0.5,0,1.4,0.2,1.4,0.2S21.2,9,21,8.8c0,0-0.2,0.2-0.3,0.3C20.6,9.1,20.2,9.3,20.2,9.3z M14.4,4.7c0,0.6,0.5,1.1,1.1,1.1 s1.1-0.5,1.1-1.1c0-0.6-0.5-1.1-1.1-1.1S14.4,4.1,14.4,4.7z M13.9,7.6c-0.2,0-0.5,0.1-0.7-0.3c-0.2-0.3,0.4-0.9,0.6-1.1 c0.2-0.2-0.1-0.5-0.3-0.2c-0.1,0.1-0.5,0.7-0.9,0.7c-0.6,0-0.5-0.7-0.5-0.7s-0.6-0.4-0.6-1.7c0-1.1,0.7-1.7,0.7-1.7s0-0.6,0.5-0.6 c0.5,0,0.8,0.7,0.9,0.7c0.3,0.4,0.6,0.1,0.3-0.2c-0.5-0.6-0.6-1.1-0.1-1.4c0.2-0.5,0.8-0.8,1.5-0.9l0,0l0,0 c0.7,0.1,1.3,0.4,1.5,0.9c0.6,0.3,0.5,0.8-0.1,1.4C16.7,3.1,17,3.4,17.3,3c0,0,0.4-0.7,0.9-0.7c0.5,0,0.5,0.6,0.5,0.6 s0.7,0.5,0.7,1.7c0,1.3-0.6,1.7-0.6,1.7s0,0.7-0.5,0.7c-0.4,0-0.8-0.6-0.9-0.7c-0.2-0.3-0.5,0-0.3,0.2c0.2,0.2,0.8,0.7,0.6,1.1 c-0.2,0.4-0.5,0.3-0.7,0.3c0,0-0.2,0.3-0.5,0.3c1.4,1.1,3.7,0.5,4-0.3c0,0-0.4,0.1-0.4-0.3c0-0.2,0.3-0.4,0.6-0.4 c-0.1-0.2-0.1-0.3-0.1-0.5c0-0.6,0.4-1,0.9-1.1c0.5,0,0.8,0.4,0.8,1c0,0.3-0.1,0.5-0.3,0.7c0.3,0.1,0.6,0.3,0.5,0.5 C22.5,8,22,7.9,22,7.9c-0.1,1.2,1.8,1.4,2.2,1.1c-0.2-0.7,0.1-0.9,0.3-1.1c0.1-0.1,0.6-0.4,0.7-0.4c0.1-0.1,0.2-0.3,0.1-0.4 c-0.1-0.1-0.3,0-0.3,0.1c-0.1,0.1-0.3,0.5-0.7,0.4c-0.4-0.1-0.2-0.6-0.3-0.8c-0.4-1.6-0.1-2.7,1.5-3.3c0,0,0.6-0.6,1.1-0.3 c0.5,0.3,0.2,1.1,0.2,1.1L27,4.3c0.6-1,1.4-1.8,2.6-1.8c0.9,0,1.3,0.5,1.3,1.2c0.1,1.5-1.5,1-1.4,0.4c0,0-0.4,0-0.6,0.4 c0-0.1,0-1-0.8-0.5c-0.2,0.1-0.6,0.8-0.7,0.9c-0.1,0.3,0,0.3-0.1,0.6C27.2,5.7,27,5.7,27,5.9c-0.1,0.2,0,0.5-0.1,0.7 c-0.1,0.2-0.3,0.3-0.4,0.5c-0.1,0.2-1.2,3.1-1.2,3.1s0.4,0.3,0.4,0.7c-0.1,0.6-0.5,0.4-0.7,0.8c-6.1-1.6-12.5-1.6-19.1,0 c-0.2-0.3-0.5-0.2-0.7-0.8c-0.1-0.4,0.4-0.7,0.4-0.7S4.5,7.2,4.4,7.1C4.3,6.8,4.1,6.8,4,6.6C3.9,6.4,4,6,3.9,5.9 C3.8,5.7,3.7,5.7,3.5,5.4c-0.2-0.3,0-0.3-0.1-0.6C3.4,4.7,3,4,2.8,3.9C1.9,3.4,2,4.3,2,4.4C1.7,4.1,1.4,4,1.4,4 C1.5,4.6-0.1,5.2,0,3.7C0,3,0.4,2.5,1.3,2.5c1.2,0,2,0.8,2.6,1.8l0.2-0.1c0,0-0.3-0.8,0.2-1.1c0.5-0.3,1.1,0.3,1.1,0.3 c1.6,0.7,2,1.8,1.5,3.3C6.9,7.1,7,7.5,6.6,7.7C6.3,7.7,6.1,7.4,6,7.3C5.9,7.2,5.7,7.1,5.6,7.1c-0.1,0.1,0,0.3,0.1,0.4 c0.1,0,0.5,0.3,0.7,0.4C6.6,8.1,6.9,8.3,6.7,9C7.1,9.3,9,9.1,8.9,7.9c0,0-0.5,0.1-0.6-0.4c0-0.2,0.2-0.4,0.5-0.5 C8.7,6.8,8.6,6.6,8.6,6.3c0-0.6,0.3-1,0.8-1c0.4,0,0.8,0.5,0.9,1.1c0,0.2,0,0.4-0.1,0.5c0.3,0,0.6,0.2,0.6,0.4 c0,0.4-0.4,0.3-0.4,0.3c0.3,0.8,2.6,1.4,4,0.3C14,8,13.9,7.6,13.9,7.6z" class="st1"/></g><polyline points="69.2 14.5 40.5 49.9 38.2 49.9 66.9 14.5 69.2 14.5" class="st0"/><path d="M0.1,100.8H1c0-1.4,0.1-2.5,1.9-2.5c0.5,0,0.9,0.1,1.3,0.1v1.3H3.4c0-0.7-0.1-0.9-0.5-0.9	c-0.4,0-0.7,0.3-0.7,0.9v1h1.3v0.6H2.2v3.1c0,0.5,0.1,0.6,0.6,0.6h0.5v0.5H0.1v-0.5h0.3c0.5,0,0.6-0.2,0.6-0.6v-3.1H0.1V100.8" class="st0"/><path d="M7.4,104.8L7.4,104.8c-0.4,0.8-1,1-1.7,1c-0.9,0-1.5-0.5-1.5-1.4c0-0.8,0.5-1.6,2.2-1.6h0.9v-0.5	c0-0.7-0.2-1.1-0.9-1.1c-0.7,0-0.8,0.4-0.8,0.9H4.4c0-0.7,0.3-1.5,1.9-1.5c1.6,0,2.1,0.4,2.1,1.5c0,0.5-0.1,1.9-0.1,2.4	c0,0.5,0.1,0.6,0.6,0.6h0.3v0.5H7.4V104.8 M6.6,103.3c-0.7,0-1.3,0.2-1.3,1.1c0,0.5,0.3,0.8,0.8,0.8c0.9,0,1.1-0.9,1.1-1.8H6.6z" class="st0"/><path d="M13,102.5c0-0.8-0.2-1.2-0.8-1.2c-0.8,0-1.3,0.3-1.3,1.9c0,1.6,0.4,2,1.1,2c0.7,0,1-0.4,1.1-1.3h1	c0,1.1-0.4,1.9-2.1,1.9c-1.7,0-2.4-1.1-2.4-2.6c0-1.5,0.7-2.6,2.4-2.6c0.6,0,1.3,0.1,2,0.3v1.5H13" class="st0"/><path d="M18.9,104.7L18.9,104.7c-0.2,0.7-0.9,1.1-1.9,1.1c-1,0-1.6-0.5-1.6-1.4v-2.3c0-0.7-0.1-0.8-0.4-0.8h-0.4v-0.5	c0.5,0,1.4-0.1,2-0.1v3.5c0,0.6,0.3,0.9,0.9,0.9c0.9,0,1.2-0.5,1.2-1.6v-1.4c0-0.7-0.1-0.8-0.5-0.8H18v-0.5c0.5,0,1.4-0.1,2-0.1v3.8	c0,0.5,0,0.6,0.6,0.6h0.3v0.5h-1.9V104.7" class="st0"/><path d="M21.3,98.5c0.5,0,1.4-0.1,2-0.1v6.2c0,0.5,0.1,0.6,0.6,0.6h0.3v0.5h-2.9v-0.5h0.3c0.5,0,0.6-0.2,0.6-0.6v-4.8	c0-0.7,0-0.8-0.5-0.8h-0.4V98.5" class="st0"/><path d="M24.6,100.8c0.9-0.1,1.1-0.4,1.2-1.4h0.9v1.4h1.6v0.6h-1.6v3.2c0,0.4,0.2,0.6,0.5,0.6c0.4,0,0.5-0.2,0.5-0.6	v-0.5h0.8v0.2c0,1.1-0.6,1.5-1.5,1.5c-1,0-1.6-0.3-1.6-1.6v-2.9h-0.9V100.8" class="st0"/><path d="M29.7,102c-0.2-0.5-0.3-0.6-0.6-0.6H29v-0.5h2.5v0.5h-0.4c-0.2,0-0.3,0-0.3,0.2c0,0.2,0.1,0.3,0.1,0.5l0.8,2.2	l0.9-2.3c0.1-0.1,0.1-0.3,0.1-0.4c0-0.1-0.1-0.2-0.2-0.2h-0.4v-0.5h2.1v0.5h-0.2c-0.2,0-0.3,0.2-0.4,0.5l-2,4.7	c-0.1,0.1-0.2,0.4-0.2,0.5c0,0.2,0.1,0.3,0.5,0.3h0.3v0.5h-2.7v-0.5h0.5c0.4,0,0.5-0.2,0.6-0.6l0.5-1.2L29.7,102" class="st0"/><path d="M40,100.7c1.7,0,2.4,1.1,2.4,2.6c0,1.5-0.7,2.6-2.4,2.6c-1.7,0-2.4-1.1-2.4-2.6C37.6,101.8,38.3,100.7,40,100.7 M40,105.3c0.8,0,1.1-0.6,1.1-2c0-1.4-0.3-2-1.1-2c-0.8,0-1.1,0.6-1.1,2C38.8,104.6,39.1,105.3,40,105.3z" class="st0"/><path d="M42.9,100.8h0.9c0-1.4,0.1-2.5,1.9-2.5c0.5,0,0.9,0.1,1.3,0.1v1.3h-0.8c0-0.7-0.1-0.9-0.5-0.9	c-0.4,0-0.7,0.3-0.7,0.9v1h1.3v0.6H45v3.1c0,0.5,0.1,0.6,0.6,0.6h0.5v0.5h-3.2v-0.5h0.3c0.5,0,0.6-0.2,0.6-0.6v-3.1h-0.9V100.8" class="st0"/><path d="M49.9,104.1h0.8c0,0.7,0.2,1.2,0.9,1.2c0.6,0,1.1-0.3,1.1-0.7c0-0.4-0.1-0.6-1.1-0.9c-1.2-0.3-1.7-0.8-1.7-1.5	c0-0.9,0.8-1.5,2-1.5c0.8,0,1.4,0.1,1.7,0.3v1.4h-0.8c0-0.8-0.2-1.1-0.9-1.1c-0.5,0-0.8,0.2-0.8,0.6c0,0.4,0.3,0.6,0.7,0.8l0.8,0.3	c0.9,0.3,1.2,0.6,1.2,1.3c0,1.2-1.1,1.6-2.2,1.6c-0.8,0-1.5-0.2-1.8-0.3V104.1" class="st0"/><path d="M58,102.5c0-0.8-0.2-1.2-0.8-1.2c-0.8,0-1.3,0.3-1.3,1.9c0,1.6,0.4,2,1.1,2c0.7,0,1-0.4,1.1-1.3h1	c0,1.1-0.4,1.9-2.1,1.9c-1.7,0-2.4-1.1-2.4-2.6c0-1.5,0.7-2.6,2.4-2.6c0.6,0,1.3,0.1,2,0.3v1.5H58" class="st0"/><path d="M59.7,100.8c0.5,0,1.4-0.1,2-0.1v3.8c0,0.5,0.1,0.6,0.6,0.6h0.3v0.5h-2.9v-0.5h0.3c0.5,0,0.6-0.2,0.6-0.6v-2.4	c0-0.7,0-0.8-0.5-0.8h-0.4V100.8 M61.1,98.4c0.5,0,0.7,0.3,0.7,0.7s-0.3,0.8-0.7,0.8c-0.5,0-0.7-0.3-0.7-0.8S60.6,98.4,61.1,98.4z" class="st0"/><path d="M64.4,103.3c0,0.7,0,1.9,1.2,1.9c0.7,0,1-0.4,1-1.1h1c0,0.9-0.5,1.7-2.2,1.7c-1.7,0-2.4-1.1-2.4-2.6	c0-1.5,0.7-2.6,2.4-2.6c1.6,0,2.3,0.7,2.3,2.4v0.2H64.4 M66.6,102.8c0-0.8-0.2-1.5-1.1-1.5s-1.1,0.7-1.1,1.5H66.6z" class="st0"/><path d="M68.6,100.8c0.5,0,1.4-0.1,1.9-0.1v1.1h0c0.3-0.8,0.9-1.1,1.7-1.1c1,0,1.7,0.4,1.7,1.5v2.4	c0,0.5,0.1,0.6,0.6,0.6h0.3v0.5H72v-0.5h0.1c0.5,0,0.6-0.2,0.6-0.6v-2.1c0-0.7-0.3-1-0.9-1c-0.7,0-1.2,0.5-1.2,1.5v1.6	c0,0.5,0.1,0.6,0.6,0.6h0.1v0.5h-2.8v-0.5h0.3c0.5,0,0.6-0.2,0.6-0.6v-2.4c0-0.7-0.1-0.8-0.4-0.8h-0.4V100.8" class="st0"/><path d="M78.6,102.5c0-0.8-0.2-1.2-0.8-1.2c-0.8,0-1.3,0.3-1.3,1.9c0,1.6,0.4,2,1.1,2c0.7,0,1-0.4,1.1-1.3h1	c0,1.1-0.4,1.9-2.1,1.9c-1.7,0-2.4-1.1-2.4-2.6c0-1.5,0.7-2.6,2.4-2.6c0.6,0,1.3,0.1,2,0.3v1.5H78.6" class="st0"/><path d="M81.6,103.3c0,0.7,0,1.9,1.2,1.9c0.7,0,1-0.4,1-1.1h1c0,0.9-0.5,1.7-2.2,1.7c-1.7,0-2.4-1.1-2.4-2.6	c0-1.5,0.7-2.6,2.4-2.6c1.6,0,2.3,0.7,2.3,2.4v0.2H81.6 M83.8,102.8c0-0.8-0.2-1.5-1.1-1.5c-0.9,0-1.1,0.7-1.1,1.5H83.8z" class="st0"/><path d="M3.5,116.8L3.5,116.8c-0.4,0.8-1,1-1.7,1c-0.9,0-1.5-0.5-1.5-1.4c0-0.8,0.5-1.6,2.2-1.6h0.9v-0.5	c0-0.7-0.2-1.1-0.9-1.1c-0.7,0-0.8,0.4-0.8,0.9H0.5c0-0.7,0.3-1.5,1.9-1.5c1.6,0,2.1,0.4,2.1,1.5c0,0.5-0.1,1.9-0.1,2.4	c0,0.5,0.1,0.6,0.6,0.6h0.3v0.5H3.5V116.8 M2.7,115.3c-0.7,0-1.3,0.2-1.3,1.1c0,0.5,0.3,0.8,0.8,0.8c0.9,0,1.1-0.9,1.1-1.8H2.7z" class="st0"/><path d="M5.7,112.8c0.5,0,1.4-0.1,1.9-0.1v1.1h0c0.3-0.8,0.9-1.1,1.7-1.1c1,0,1.7,0.4,1.7,1.5v2.4	c0,0.5,0.1,0.6,0.6,0.6h0.3v0.5H9.2v-0.5h0.1c0.5,0,0.6-0.2,0.6-0.6v-2.1c0-0.7-0.3-1-0.9-1c-0.7,0-1.2,0.5-1.2,1.5v1.6	c0,0.5,0.1,0.6,0.6,0.6h0.1v0.5H5.7v-0.5H6c0.5,0,0.6-0.2,0.6-0.6v-2.4c0-0.7-0.1-0.8-0.5-0.8H5.7V112.8" class="st0"/><path d="M16.1,116.9L16.1,116.9c-0.3,0.6-0.8,0.9-1.6,0.9c-1.2,0-2-0.9-2-2.5c0-1.9,0.8-2.6,2-2.6	c0.7,0,1.2,0.3,1.4,0.8h0v-1.7c0-0.7-0.1-0.8-0.5-0.8h-0.4v-0.5c0.5,0,1.4-0.1,2-0.1v6.2c0,0.5,0.1,0.6,0.6,0.6h0.3v0.5h-2V116.9 M14.9,113.4c-0.7,0-1.1,0.5-1.1,1.8c0,1.3,0.4,1.9,1.1,1.9c0.6,0,1.1-0.5,1.1-1.7C16,114,15.6,113.4,14.9,113.4z" class="st0"/><path d="M22.7,115.3c0,0.7,0,1.9,1.2,1.9c0.7,0,1-0.4,1-1.1h1c0,0.9-0.5,1.7-2.2,1.7c-1.7,0-2.4-1.1-2.4-2.6	c0-1.5,0.7-2.6,2.4-2.6c1.6,0,2.3,0.7,2.3,2.4v0.2H22.7 M24.9,114.8c0-0.8-0.2-1.5-1.1-1.5c-0.9,0-1.1,0.7-1.1,1.5H24.9z" class="st0"/><g><defs><rect id="SVGID_3_" width="100.3" height="119.4" y=".5"/></defs><clipPath id="SVGID_4_"><use xlink:href="#SVGID_3_" style="overflow:visible"/></clipPath><path d="M26.9,112.8c0.5,0,1.4-0.1,1.9-0.1v1.1h0c0.3-0.8,0.9-1.1,1.7-1.1c1,0,1.7,0.4,1.7,1.5v2.4 c0,0.5,0.1,0.6,0.6,0.6h0.3v0.5h-2.7v-0.5h0.1c0.5,0,0.6-0.2,0.6-0.6v-2.1c0-0.7-0.3-1-0.9-1c-0.7,0-1.2,0.5-1.2,1.5v1.6 c0,0.5,0.1,0.6,0.6,0.6h0.1v0.5h-2.8v-0.5h0.3c0.5,0,0.6-0.2,0.6-0.6v-2.4c0-0.7,0-0.8-0.5-0.8h-0.4V112.8" class="st2"/><path d="M38.6,113.4h-1v0c0.2,0.2,0.4,0.6,0.4,1c0,0.8-0.4,1.5-1.8,1.8l-0.2,0c-0.3,0.1-0.8,0.1-0.8,0.4 c0,0.3,0.2,0.4,1.3,0.5c0.9,0.1,1.9,0.2,1.9,1.4c0,0.9-0.9,1.5-2.6,1.5c-1.6,0-2.3-0.6-2.3-1.4c0-0.8,0.8-1.2,1.5-1.2v0 c-0.7-0.1-0.9-0.3-0.9-0.6c0-0.3,0.3-0.6,1-0.6v0c-0.7-0.2-1.3-0.7-1.3-1.6c0-1,0.9-1.7,2.2-1.7c0.4,0,0.9,0.1,1.2,0.2l1.5-0.1 V113.4 M35.9,117.6c-0.9,0-1.2,0.4-1.2,1c0,0.5,0.3,0.9,1.2,0.9c1,0,1.3-0.5,1.3-0.9C37.2,118,36.8,117.6,35.9,117.6z M36,113.2 c-0.6,0-0.9,0.3-0.9,1.2c0,0.9,0.3,1.3,0.9,1.3c0.5,0,0.8-0.4,0.8-1.3C36.8,113.5,36.4,113.2,36,113.2z" class="st2"/></g><path d="M39.1,112.8c0.5,0,1.4-0.1,2-0.1v3.8c0,0.5,0.1,0.6,0.6,0.6H42v0.5H39v-0.5h0.3c0.5,0,0.6-0.2,0.6-0.6v-2.4	c0-0.7,0-0.8-0.5-0.8h-0.4V112.8 M40.5,110.4c0.5,0,0.7,0.3,0.7,0.7c0,0.4-0.3,0.8-0.7,0.8c-0.5,0-0.7-0.3-0.7-0.8	C39.8,110.7,40,110.4,40.5,110.4z" class="st0"/><path d="M42.4,112.8c0.5,0,1.4-0.1,1.9-0.1v1.1h0c0.3-0.8,0.9-1.1,1.7-1.1c1,0,1.7,0.4,1.7,1.5v2.4	c0,0.5,0.1,0.6,0.6,0.6h0.3v0.5h-2.7v-0.5H46c0.5,0,0.6-0.2,0.6-0.6v-2.1c0-0.7-0.3-1-0.9-1c-0.7,0-1.2,0.5-1.2,1.5v1.6	c0,0.5,0.1,0.6,0.6,0.6h0.1v0.5h-2.8v-0.5h0.3c0.5,0,0.6-0.2,0.6-0.6v-2.4c0-0.7,0-0.8-0.5-0.8h-0.4V112.8" class="st0"/><path d="M50.5,115.3c0,0.7,0,1.9,1.2,1.9c0.7,0,1-0.4,1-1.1h1c0,0.9-0.5,1.7-2.2,1.7c-1.7,0-2.4-1.1-2.4-2.6	c0-1.5,0.7-2.6,2.4-2.6c1.6,0,2.3,0.7,2.3,2.4v0.2H50.5 M52.7,114.8c0-0.8-0.2-1.5-1.1-1.5c-0.9,0-1.1,0.7-1.1,1.5H52.7z" class="st0"/><path d="M56.1,115.3c0,0.7,0,1.9,1.2,1.9c0.7,0,1-0.4,1-1.1h1c0,0.9-0.5,1.7-2.2,1.7c-1.7,0-2.4-1.1-2.4-2.6	c0-1.5,0.7-2.6,2.4-2.6c1.6,0,2.3,0.7,2.3,2.4v0.2H56.1 M58.3,114.8c0-0.8-0.2-1.5-1.1-1.5c-0.9,0-1.1,0.7-1.1,1.5H58.3z" class="st0"/><path d="M60.2,112.8c0.6,0,1.5-0.1,1.9-0.1v1.1h0c0.3-0.8,0.9-1.1,1.7-1.1c0.3,0,0.6,0,0.8,0.1v1.4h-1	c0-0.5-0.1-0.8-0.5-0.8c-0.5,0-0.9,0.6-0.9,1.5v1.6c0,0.5,0.1,0.6,0.6,0.6h0.5v0.5h-3.2v-0.5h0.3c0.5,0,0.6-0.2,0.6-0.6v-2.4	c0-0.7,0-0.8-0.5-0.8h-0.4V112.8" class="st0"/><path d="M65.2,112.8c0.5,0,1.4-0.1,2-0.1v3.8c0,0.5,0.1,0.6,0.6,0.6h0.3v0.5h-2.9v-0.5h0.3c0.5,0,0.6-0.2,0.6-0.6v-2.4	c0-0.7,0-0.8-0.5-0.8h-0.4V112.8 M66.6,110.4c0.5,0,0.7,0.3,0.7,0.7c0,0.4-0.3,0.8-0.7,0.8c-0.5,0-0.7-0.3-0.7-0.8	C65.9,110.7,66.2,110.4,66.6,110.4z" class="st0"/><g><defs><rect id="SVGID_5_" width="100.3" height="119.4" y=".5"/></defs><clipPath id="SVGID_6_"><use xlink:href="#SVGID_5_" style="overflow:visible"/></clipPath><path d="M68.6,112.8c0.5,0,1.4-0.1,1.9-0.1v1.1h0c0.3-0.8,0.9-1.1,1.7-1.1c1,0,1.7,0.4,1.7,1.5v2.4 c0,0.5,0.1,0.6,0.6,0.6h0.3v0.5H72v-0.5h0.1c0.5,0,0.6-0.2,0.6-0.6v-2.1c0-0.7-0.3-1-0.9-1c-0.7,0-1.2,0.5-1.2,1.5v1.6 c0,0.5,0.1,0.6,0.6,0.6h0.1v0.5h-2.8v-0.5h0.3c0.5,0,0.6-0.2,0.6-0.6v-2.4c0-0.7,0-0.8-0.5-0.8h-0.4V112.8" class="st3"/><path d="M80.3,113.4h-1v0c0.2,0.2,0.4,0.6,0.4,1c0,0.8-0.4,1.5-1.8,1.8l-0.2,0c-0.3,0.1-0.8,0.1-0.8,0.4 c0,0.3,0.2,0.4,1.3,0.5c0.9,0.1,1.9,0.2,1.9,1.4c0,0.9-0.9,1.5-2.6,1.5c-1.6,0-2.3-0.6-2.3-1.4c0-0.8,0.8-1.2,1.5-1.2v0 c-0.7-0.1-0.9-0.3-0.9-0.6c0-0.3,0.3-0.6,1-0.6v0c-0.7-0.2-1.3-0.7-1.3-1.6c0-1,0.9-1.7,2.2-1.7c0.4,0,0.9,0.1,1.2,0.2l1.5-0.1 V113.4 M77.6,117.6c-0.9,0-1.2,0.4-1.2,1c0,0.5,0.3,0.9,1.2,0.9c1,0,1.3-0.5,1.3-0.9C78.9,118,78.5,117.6,77.6,117.6z M77.7,113.2 c-0.6,0-0.9,0.3-0.9,1.2c0,0.9,0.3,1.3,0.9,1.3c0.5,0,0.8-0.4,0.8-1.3C78.5,113.5,78.1,113.2,77.7,113.2z" class="st3"/></g></svg>