<?xml version="1.0" encoding="utf-8"?>
<!-- Generator: Adobe Illustrator 25.3.1, SVG Export Plug-In . SVG Version: 6.00 Build 0)  -->
<svg version="1.1" id="Layer_1" xmlns="http://www.w3.org/2000/svg" xmlns:xlink="http://www.w3.org/1999/xlink" x="0px" y="0px"
	 viewBox="0 0 224.5 61.2" style="enable-background:new 0 0 224.5 61.2;" xml:space="preserve">
<style type="text/css">
	.st0{opacity:0;fill:#FFFFFF;}
	.st1{fill:#C50A1D;}
</style>
<rect class="st0" width="224.5" height="61.2"/>
<g>
	<g>
		<g>
			<path class="st1" d="M122.5,20.4v-7.6h5.1v1.6h-3.4v1.4h3.2v1.5h-3.2v1.6h3.6v1.6H122.5z"/>
			<path class="st1" d="M129.3,20.4v-7.6h1.9v7.6H129.3z"/>
			<path class="st1" d="M137.8,20.4l-3.1-5h0l0,5h-1.8v-7.6h2.1l3.1,5h0l0-5h1.8v7.6H137.8z"/>
			<path class="st1" d="M148.8,16.6c0,0.7-0.1,1.2-0.4,1.7c-0.2,0.5-0.6,0.9-1,1.2c-0.4,0.3-0.9,0.5-1.4,0.7c-0.5,0.1-1,0.2-1.6,0.2
				h-2.9v-7.6h2.8c0.5,0,1.1,0.1,1.6,0.2c0.5,0.1,1,0.3,1.4,0.6c0.4,0.3,0.7,0.7,1,1.2C148.7,15.2,148.8,15.9,148.8,16.6z
				 M146.9,16.6c0-0.4-0.1-0.8-0.2-1.1c-0.1-0.3-0.3-0.5-0.6-0.7c-0.2-0.2-0.5-0.3-0.8-0.4c-0.3-0.1-0.6-0.1-0.9-0.1h-0.9v4.5h0.9
				c0.3,0,0.6,0,1-0.1c0.3-0.1,0.6-0.2,0.8-0.4c0.2-0.2,0.4-0.4,0.6-0.7C146.8,17.3,146.9,17,146.9,16.6z"/>
			<path class="st1" d="M155,20.4v-3.2h-3v3.2h-1.8v-7.6h1.8v2.9h3v-2.9h1.8v7.6H155z"/>
			<path class="st1" d="M166.6,16.6c0,0.6-0.1,1.2-0.3,1.7c-0.2,0.5-0.5,0.9-0.9,1.3c-0.4,0.4-0.8,0.6-1.3,0.8
				c-0.5,0.2-1.1,0.3-1.7,0.3c-0.6,0-1.2-0.1-1.7-0.3c-0.5-0.2-0.9-0.5-1.3-0.8c-0.4-0.4-0.7-0.8-0.9-1.3c-0.2-0.5-0.3-1.1-0.3-1.7
				c0-0.6,0.1-1.2,0.3-1.7c0.2-0.5,0.5-0.9,0.9-1.3c0.4-0.3,0.8-0.6,1.3-0.8c0.5-0.2,1.1-0.3,1.7-0.3c0.6,0,1.2,0.1,1.7,0.3
				c0.5,0.2,1,0.5,1.3,0.8c0.4,0.3,0.7,0.8,0.9,1.3C166.5,15.4,166.6,15.9,166.6,16.6z M164.6,16.6c0-0.3-0.1-0.6-0.2-0.9
				c-0.1-0.3-0.3-0.5-0.4-0.7c-0.2-0.2-0.4-0.4-0.7-0.5c-0.3-0.1-0.6-0.2-0.9-0.2c-0.3,0-0.6,0.1-0.9,0.2c-0.3,0.1-0.5,0.3-0.7,0.5
				c-0.2,0.2-0.3,0.5-0.4,0.7c-0.1,0.3-0.2,0.6-0.2,0.9c0,0.3,0.1,0.7,0.2,1c0.1,0.3,0.3,0.5,0.4,0.7c0.2,0.2,0.4,0.4,0.7,0.5
				c0.3,0.1,0.6,0.2,0.9,0.2c0.3,0,0.6-0.1,0.9-0.2c0.3-0.1,0.5-0.3,0.7-0.5c0.2-0.2,0.3-0.5,0.5-0.7
				C164.6,17.2,164.6,16.9,164.6,16.6z"/>
			<path class="st1" d="M171.5,20.4h-1.8l-2.9-7.6h2.1l1.8,5.4h0l1.8-5.4h2L171.5,20.4z"/>
			<path class="st1" d="M175.4,20.4v-7.6h5.1v1.6h-3.4v1.4h3.2v1.5h-3.2v1.6h3.6v1.6H175.4z"/>
			<path class="st1" d="M187,20.4l-3.1-5h0l0,5h-1.8v-7.6h2.1l3.1,5h0l0-5h1.8v7.6H187z"/>
		</g>
		<g>
			<g>
				<path class="st1" d="M126.5,39.9v6.1h-1.8v-6.1h-2.2v-1.6h6.2v1.6H126.5z"/>
				<path class="st1" d="M129.6,45.9v-7.6h5.1v1.6h-3.4v1.4h3.2v1.5h-3.2v1.6h3.6v1.6H129.6z"/>
				<path class="st1" d="M141.8,45.8c-0.5,0.2-1.1,0.3-1.7,0.3c-0.6,0-1.1-0.1-1.6-0.3c-0.5-0.2-0.9-0.5-1.3-0.8
					c-0.4-0.4-0.7-0.8-0.9-1.3c-0.2-0.5-0.3-1-0.3-1.6c0-0.6,0.1-1.2,0.3-1.7c0.2-0.5,0.5-0.9,0.9-1.3c0.4-0.3,0.8-0.6,1.3-0.8
					c0.5-0.2,1-0.3,1.6-0.3c0.5,0,1.1,0.1,1.6,0.3c0.5,0.2,0.9,0.5,1.3,0.8l-1.3,1.3c-0.2-0.2-0.4-0.4-0.7-0.5
					c-0.3-0.1-0.6-0.2-0.9-0.2c-0.3,0-0.6,0.1-0.9,0.2c-0.3,0.1-0.5,0.3-0.7,0.5c-0.2,0.2-0.3,0.5-0.5,0.7c-0.1,0.3-0.2,0.6-0.2,0.9
					c0,0.3,0.1,0.7,0.2,0.9c0.1,0.3,0.3,0.5,0.4,0.7c0.2,0.2,0.4,0.4,0.7,0.5c0.3,0.1,0.6,0.2,0.9,0.2c0.4,0,0.7-0.1,1-0.2
					c0.3-0.1,0.5-0.3,0.7-0.6l1.3,1.2C142.7,45.3,142.3,45.6,141.8,45.8z"/>
				<path class="st1" d="M148.8,45.9v-3.2h-3v3.2H144v-7.6h1.8v2.9h3v-2.9h1.8v7.6H148.8z"/>
				<path class="st1" d="M157.3,45.9l-3.1-5h0l0,5h-1.8v-7.6h2.1l3.1,5h0l0-5h1.8v7.6H157.3z"/>
				<path class="st1" d="M169.2,42.1c0,0.6-0.1,1.2-0.3,1.7c-0.2,0.5-0.5,0.9-0.9,1.3c-0.4,0.4-0.8,0.6-1.3,0.8
					c-0.5,0.2-1.1,0.3-1.7,0.3c-0.6,0-1.2-0.1-1.7-0.3c-0.5-0.2-0.9-0.5-1.3-0.8c-0.4-0.4-0.7-0.8-0.9-1.3c-0.2-0.5-0.3-1.1-0.3-1.7
					c0-0.6,0.1-1.2,0.3-1.7c0.2-0.5,0.5-0.9,0.9-1.3c0.4-0.3,0.8-0.6,1.3-0.8c0.5-0.2,1.1-0.3,1.7-0.3c0.6,0,1.2,0.1,1.7,0.3
					c0.5,0.2,1,0.5,1.3,0.8c0.4,0.3,0.7,0.8,0.9,1.3C169.1,40.9,169.2,41.5,169.2,42.1z M167.2,42.1c0-0.3-0.1-0.6-0.2-0.9
					c-0.1-0.3-0.3-0.5-0.4-0.7c-0.2-0.2-0.4-0.4-0.7-0.5s-0.6-0.2-0.9-0.2c-0.3,0-0.6,0.1-0.9,0.2c-0.3,0.1-0.5,0.3-0.7,0.5
					c-0.2,0.2-0.3,0.5-0.4,0.7c-0.1,0.3-0.2,0.6-0.2,0.9c0,0.3,0.1,0.7,0.2,1c0.1,0.3,0.3,0.5,0.4,0.7c0.2,0.2,0.4,0.4,0.7,0.5
					c0.3,0.1,0.6,0.2,0.9,0.2c0.3,0,0.6-0.1,0.9-0.2c0.3-0.1,0.5-0.3,0.7-0.5c0.2-0.2,0.3-0.5,0.5-0.7
					C167.1,42.7,167.2,42.4,167.2,42.1z"/>
				<path class="st1" d="M170.6,45.9v-7.6h1.9v6h3v1.6H170.6z"/>
				<path class="st1" d="M184.2,42.1c0,0.6-0.1,1.2-0.3,1.7c-0.2,0.5-0.5,0.9-0.9,1.3c-0.4,0.4-0.8,0.6-1.3,0.8
					c-0.5,0.2-1.1,0.3-1.7,0.3c-0.6,0-1.2-0.1-1.7-0.3c-0.5-0.2-0.9-0.5-1.3-0.8c-0.4-0.4-0.7-0.8-0.9-1.3c-0.2-0.5-0.3-1.1-0.3-1.7
					c0-0.6,0.1-1.2,0.3-1.7c0.2-0.5,0.5-0.9,0.9-1.3c0.4-0.3,0.8-0.6,1.3-0.8c0.5-0.2,1.1-0.3,1.7-0.3c0.6,0,1.2,0.1,1.7,0.3
					c0.5,0.2,1,0.5,1.3,0.8c0.4,0.3,0.7,0.8,0.9,1.3C184.1,40.9,184.2,41.5,184.2,42.1z M182.3,42.1c0-0.3-0.1-0.6-0.2-0.9
					c-0.1-0.3-0.3-0.5-0.4-0.7c-0.2-0.2-0.4-0.4-0.7-0.5s-0.6-0.2-0.9-0.2c-0.3,0-0.6,0.1-0.9,0.2c-0.3,0.1-0.5,0.3-0.7,0.5
					c-0.2,0.2-0.3,0.5-0.4,0.7c-0.1,0.3-0.2,0.6-0.2,0.9c0,0.3,0.1,0.7,0.2,1c0.1,0.3,0.3,0.5,0.4,0.7c0.2,0.2,0.4,0.4,0.7,0.5
					c0.3,0.1,0.6,0.2,0.9,0.2c0.3,0,0.6-0.1,0.9-0.2c0.3-0.1,0.5-0.3,0.7-0.5c0.2-0.2,0.3-0.5,0.5-0.7
					C182.2,42.7,182.3,42.4,182.3,42.1z"/>
				<path class="st1" d="M191.1,45.9c-0.5,0.1-1,0.2-1.6,0.2c-0.6,0-1.2-0.1-1.7-0.3c-0.5-0.2-1-0.5-1.3-0.8
					c-0.4-0.4-0.7-0.8-0.9-1.3c-0.2-0.5-0.3-1-0.3-1.6c0-0.6,0.1-1.2,0.3-1.7c0.2-0.5,0.5-0.9,0.9-1.3c0.4-0.3,0.8-0.6,1.3-0.8
					c0.5-0.2,1-0.3,1.6-0.3c0.6,0,1.2,0.1,1.7,0.3c0.5,0.2,0.9,0.4,1.3,0.7l-1.2,1.3c-0.2-0.2-0.4-0.4-0.7-0.5
					c-0.3-0.1-0.6-0.2-1-0.2c-0.3,0-0.6,0.1-0.9,0.2c-0.3,0.1-0.5,0.3-0.7,0.5c-0.2,0.2-0.4,0.5-0.5,0.8c-0.1,0.3-0.2,0.6-0.2,1
					c0,0.4,0.1,0.7,0.2,1c0.1,0.3,0.3,0.5,0.4,0.8c0.2,0.2,0.4,0.4,0.7,0.5s0.6,0.2,1,0.2c0.2,0,0.4,0,0.6,0c0.2,0,0.4-0.1,0.5-0.2
					v-1.4h-1.5v-1.5h3.2v4C192,45.7,191.6,45.8,191.1,45.9z"/>
				<path class="st1" d="M197.7,42.7v3.2h-1.8v-3.2l-2.9-4.4h2.2l1.6,2.8l1.6-2.8h2.2L197.7,42.7z"/>
			</g>
		</g>
		<g>
			<g>
				<path class="st1" d="M128.8,31.5c-0.2,0.4-0.4,0.7-0.7,1c-0.3,0.3-0.6,0.5-1,0.6c-0.4,0.2-0.9,0.2-1.4,0.2c-0.5,0-1-0.1-1.4-0.2
					c-0.4-0.2-0.7-0.4-1-0.6c-0.3-0.3-0.5-0.6-0.6-1c-0.2-0.4-0.2-0.8-0.2-1.3v-4.8h1.8v4.6c0,0.2,0,0.4,0.1,0.6
					c0.1,0.2,0.1,0.4,0.2,0.5c0.1,0.1,0.3,0.3,0.4,0.4c0.2,0.1,0.4,0.1,0.7,0.1s0.5,0,0.7-0.1c0.2-0.1,0.3-0.2,0.4-0.4
					s0.2-0.3,0.2-0.5c0.1-0.2,0.1-0.4,0.1-0.6v-4.6h1.8v4.8C129,30.7,129,31.2,128.8,31.5z"/>
				<path class="st1" d="M135.6,33.2l-3.1-5h0l0,5h-1.8v-7.6h2.1l3.1,5h0l0-5h1.8v7.6H135.6z"/>
				<path class="st1" d="M139.5,33.2v-7.6h1.9v7.6H139.5z"/>
				<path class="st1" d="M147,33.2h-1.8l-2.9-7.6h2.1l1.8,5.4h0l1.8-5.4h2L147,33.2z"/>
				<path class="st1" d="M150.8,33.2v-7.6h5.1v1.6h-3.4v1.4h3.2V30h-3.2v1.6h3.6v1.6H150.8z"/>
				<path class="st1" d="M161.7,33.2l-1.7-3h-0.6v3h-1.8v-7.6h2.9c0.4,0,0.7,0,1.1,0.1c0.3,0.1,0.7,0.2,0.9,0.4
					c0.3,0.2,0.5,0.4,0.7,0.7c0.2,0.3,0.2,0.7,0.2,1.1c0,0.5-0.1,1-0.4,1.3c-0.3,0.4-0.7,0.6-1.2,0.8l2,3.3H161.7z M161.6,27.9
					c0-0.2,0-0.3-0.1-0.4c-0.1-0.1-0.2-0.2-0.3-0.3c-0.1-0.1-0.3-0.1-0.4-0.1c-0.1,0-0.3,0-0.4,0h-1v1.8h0.9c0.2,0,0.3,0,0.5,0
					c0.2,0,0.3-0.1,0.4-0.1c0.1-0.1,0.2-0.2,0.3-0.3C161.6,28.2,161.6,28.1,161.6,27.9z"/>
				<path class="st1" d="M169,27.5c-0.2-0.2-0.4-0.4-0.6-0.5c-0.3-0.1-0.5-0.2-0.7-0.2c-0.1,0-0.2,0-0.4,0c-0.1,0-0.2,0.1-0.3,0.1
					c-0.1,0.1-0.2,0.1-0.3,0.2c-0.1,0.1-0.1,0.2-0.1,0.4c0,0.1,0,0.2,0.1,0.3c0.1,0.1,0.1,0.2,0.2,0.2c0.1,0.1,0.2,0.1,0.4,0.2
					c0.1,0.1,0.3,0.1,0.5,0.2c0.3,0.1,0.5,0.2,0.8,0.3c0.3,0.1,0.5,0.2,0.8,0.4c0.2,0.2,0.4,0.4,0.6,0.6c0.2,0.3,0.2,0.6,0.2,1
					c0,0.4-0.1,0.8-0.2,1.1c-0.2,0.3-0.4,0.6-0.7,0.8c-0.3,0.2-0.6,0.4-0.9,0.5c-0.4,0.1-0.7,0.2-1.1,0.2c-0.5,0-1.1-0.1-1.6-0.3
					c-0.5-0.2-0.9-0.5-1.3-0.8l1.2-1.2c0.2,0.2,0.4,0.4,0.7,0.6c0.3,0.2,0.6,0.2,0.9,0.2c0.1,0,0.3,0,0.4,0c0.1,0,0.2-0.1,0.3-0.1
					c0.1-0.1,0.2-0.2,0.2-0.3c0.1-0.1,0.1-0.2,0.1-0.4c0-0.1,0-0.3-0.1-0.4s-0.2-0.2-0.3-0.3c-0.1-0.1-0.3-0.2-0.5-0.2
					c-0.2-0.1-0.4-0.1-0.7-0.2c-0.2-0.1-0.5-0.2-0.7-0.3c-0.2-0.1-0.4-0.2-0.6-0.4c-0.2-0.2-0.3-0.4-0.4-0.6
					c-0.1-0.2-0.2-0.5-0.2-0.9c0-0.4,0.1-0.8,0.3-1.1c0.2-0.3,0.4-0.6,0.7-0.7c0.3-0.2,0.6-0.3,1-0.4c0.4-0.1,0.7-0.1,1.1-0.1
					c0.4,0,0.9,0.1,1.3,0.2c0.4,0.2,0.8,0.4,1.2,0.7L169,27.5z"/>
				<path class="st1" d="M171.6,33.2v-7.6h1.9v7.6H171.6z"/>
				<path class="st1" d="M178.4,27.1v6.1h-1.8v-6.1h-2.2v-1.6h6.2v1.6H178.4z"/>
				<path class="st1" d="M185.8,29.9v3.2h-1.8v-3.2l-2.9-4.4h2.2l1.6,2.8l1.6-2.8h2.2L185.8,29.9z"/>
				<path class="st1" d="M200.4,29.3c0,0.6-0.1,1.2-0.3,1.7c-0.2,0.5-0.5,0.9-0.9,1.3c-0.4,0.4-0.8,0.6-1.3,0.8
					c-0.5,0.2-1.1,0.3-1.7,0.3c-0.6,0-1.2-0.1-1.7-0.3c-0.5-0.2-0.9-0.5-1.3-0.8c-0.4-0.4-0.7-0.8-0.9-1.3c-0.2-0.5-0.3-1.1-0.3-1.7
					c0-0.6,0.1-1.2,0.3-1.7c0.2-0.5,0.5-0.9,0.9-1.3c0.4-0.3,0.8-0.6,1.3-0.8c0.5-0.2,1.1-0.3,1.7-0.3c0.6,0,1.2,0.1,1.7,0.3
					c0.5,0.2,1,0.5,1.3,0.8c0.4,0.3,0.7,0.8,0.9,1.3C200.3,28.2,200.4,28.7,200.4,29.3z M198.4,29.3c0-0.3-0.1-0.6-0.2-0.9
					c-0.1-0.3-0.3-0.5-0.4-0.7c-0.2-0.2-0.4-0.4-0.7-0.5c-0.3-0.1-0.6-0.2-0.9-0.2c-0.3,0-0.6,0.1-0.9,0.2c-0.3,0.1-0.5,0.3-0.7,0.5
					c-0.2,0.2-0.3,0.5-0.4,0.7c-0.1,0.3-0.2,0.6-0.2,0.9c0,0.3,0.1,0.7,0.2,1c0.1,0.3,0.3,0.5,0.4,0.7c0.2,0.2,0.4,0.4,0.7,0.5
					c0.3,0.1,0.6,0.2,0.9,0.2c0.3,0,0.6-0.1,0.9-0.2c0.3-0.1,0.5-0.3,0.7-0.5c0.2-0.2,0.3-0.5,0.5-0.7
					C198.4,30,198.4,29.7,198.4,29.3z"/>
				<path class="st1" d="M203.6,27.1v1.6h3v1.5h-3v3h-1.8v-7.6h5v1.6H203.6z"/>
			</g>
		</g>
	</g>
	<g>
		<g>
			<path class="st1" d="M28,19.6v26.3h-8.2V19.6h-9.6v-6.8h27.4v6.8H28z"/>
			<path class="st1" d="M69,38.9c-0.7,1.6-1.7,3-3,4.2c-1.3,1.2-2.8,2.1-4.6,2.7c-1.8,0.7-3.8,1-6,1c-2.2,0-4.3-0.3-6.1-1
				c-1.8-0.7-3.3-1.6-4.6-2.7c-1.2-1.2-2.2-2.6-2.9-4.2c-0.7-1.6-1-3.5-1-5.5V12.8H49v20c0,0.9,0.1,1.8,0.4,2.6
				c0.2,0.8,0.6,1.5,1.1,2.2c0.5,0.6,1.2,1.1,2,1.5c0.8,0.4,1.8,0.6,3,0.6s2.1-0.2,3-0.6s1.5-0.9,2-1.5c0.5-0.6,0.9-1.4,1.1-2.2
				c0.2-0.8,0.3-1.7,0.3-2.6v-20H70v20.7C70,35.4,69.7,37.2,69,38.9z"/>
		</g>
		<polygon class="st1" points="75.1,51 91.7,10.2 85.8,10.2 69.1,51 		"/>
		<path class="st1" d="M99.8,22c-6.9,0-12.4,5.6-12.4,12.4S93,46.8,99.8,46.8c4.4,0,8.9-1.9,11.3-5.4l-5.6-2.3
			c-1.5,1.7-3.6,2.3-5.7,2.3c-3.2,0-5.8-2.1-6.7-4.9h19c0.1-0.7,0.2-1.4,0.2-2.1C112.3,27.5,106.7,22,99.8,22z M99.8,27.3
			c2.9,0,5.5,1.8,6.5,4.4h-13C94.4,29.2,96.9,27.3,99.8,27.3z"/>
	</g>
</g>
</svg>
