<?xml version="1.0" encoding="utf-8"?>
<!-- Generator: Adobe Illustrator 25.1.0, SVG Export Plug-In . SVG Version: 6.00 Build 0)  -->
<svg version="1.1" id="Laag_1" xmlns="http://www.w3.org/2000/svg" xmlns:xlink="http://www.w3.org/1999/xlink" x="0px" y="0px"
	 viewBox="0 0 247.6 103.4" style="enable-background:new 0 0 247.6 103.4;" xml:space="preserve">
<style type="text/css">
	.st0{fill:#FFFFFF;}
	.st1{fill:#001158;}
</style>
<g>
	<path class="st0" d="M42.9,5.1c-17.7,0-32.1,16.8-32.1,37.3s14.4,37.4,32.1,37.4S75,63,75,42.4C74.9,21.9,60.5,5.1,42.9,5.1z"/>
	<path class="st1" d="M24.7,24.8c0.4-0.1,0.8-0.1,1.2-0.2v2.6c0,0.4,0,0.4,0.4,0.4v0.2h-1.6v-0.2c0.4,0,0.4,0,0.4-0.4v-1.9
		c0-0.2,0-0.2-0.2-0.2h-0.2V24.8L24.7,24.8L24.7,24.8z M56.7,24.5c0,0.2-0.1,0.5-0.1,1h0.2c0.1-0.2,0.1-0.4,0.5-0.4h1.1
		c-0.5,0.8-1,1.7-1.6,2.5v0.1l0.7-0.1c0.5-1,0.8-2,1.3-3.1v-0.1h-2.2L56.7,24.5L56.7,24.5z M59.4,24.5l-0.2,1.7
		c0.1,0,0.2-0.1,0.5-0.1c0.4,0,0.7,0.2,0.7,0.7c0,0.4-0.1,0.6-0.4,0.6s-0.5-0.2-0.6-0.4c0,0-0.1,0-0.2,0c-0.1,0.1-0.1,0.1-0.2,0.2
		c0,0.1,0,0.1,0.1,0.2s0.4,0.2,0.7,0.2c0.2,0,0.6-0.1,0.8-0.4c0.4-0.2,0.5-0.6,0.5-1s-0.4-0.8-1.1-0.8c-0.2,0-0.4,0.1-0.6,0.1
		l0.1-0.7h1.3l0.1-0.6h-1.6v0.3H59.4z M27.1,24.5l-0.2,1.7c0.1,0,0.2-0.1,0.5-0.1c0.4,0,0.7,0.2,0.7,0.7c0,0.4-0.1,0.6-0.4,0.6
		s-0.5-0.2-0.6-0.4c0,0-0.1,0-0.2,0c-0.1,0.1-0.1,0.1-0.2,0.2c0,0.1,0,0.1,0.1,0.2s0.4,0.2,0.7,0.2c0.2,0,0.6-0.1,0.8-0.4
		c0.4-0.2,0.5-0.6,0.5-1s-0.4-0.8-1.1-0.8c-0.2,0-0.4,0.1-0.6,0.1l0.2-0.6h1.3l0.1-0.6h-1.6V24.5z M74.9,42.4
		c0,20.5-14.4,37.4-32.1,37.4s-32-16.8-32-37.4S25.2,5.1,42.9,5.1C60.5,5.1,74.9,21.9,74.9,42.4z M75.4,42.4
		c0-20.9-14.6-37.8-32.5-37.8c-18.1,0-32.6,16.9-32.6,37.8S25,80.2,42.9,80.2S75.4,63.3,75.4,42.4z M41.8,19.6
		c0.1,0.1,0.4,0.2,0.5,0.2c0.2-0.1,0.5-0.4,0.5-0.4c-0.1,0-0.2,0-0.4,0c-0.1,0.1-0.1,0.2-0.3,0.2C41.9,19.5,41.9,19.6,41.8,19.6
		 M41.8,19c0,0-0.1,0.1,0,0.1c0.1,0,0.1-0.1,0.2,0c0,0,0.1,0,0.2,0s0.1-0.1,0.2,0c0.1,0,0.1-0.1,0-0.1s-0.1,0-0.2,0
		c-0.1,0.1-0.1,0-0.1,0C41.9,19,41.9,19,41.8,19 M42.4,17.9L42.4,17.9L42.4,17.9L42.4,17.9z M43.2,17.5c-0.4,0-1,0.2-1,0.2v0.1h0.1
		l0,0c0,0,0,0,0,0.1s0.1,0.2,0.2,0.2c0.1,0,0.2-0.1,0.2-0.2s0-0.1-0.1-0.1c0.1,0,0.2-0.1,0.5-0.1C43.2,17.7,43.2,17.7,43.2,17.5
		C43.3,17.5,43.2,17.5,43.2,17.5 M41.8,17.5c0.6-0.4,1.1-0.6,1.9-0.6c0.7,0,0.8,0.5,0.8,0.5c0.2-0.2,0.1-1-0.7-1
		C42.6,16.5,42,17.1,41.8,17.5 M42.7,35.7c-1.4-0.1-1.5-1.1-1.5-1.5c0-0.4,0.4-0.2-0.2-0.5c-1.2-0.6-2-0.1-2-0.1l0.1,0.1
		c1,0,1.3,0.4,1.3,0.4c-0.1,2.5,1.6,2.4,1.6,2.4c0.2,0.5,0.7,0.6,1.1,0.7c0.1,0,0.4-0.1,0.5-0.1C42.9,36.7,42.7,35.7,42.7,35.7
		 M46.9,36.2l0.7-0.2c0.1-0.4,0.4-0.5,0.5-0.6c0.1,0,0.1-0.1,0.2-0.2c0-0.4,0-0.5-0.2-0.8c-0.8-1.1-0.8-2-1-2.2c0-0.1-0.1,0-0.1,0
		s0.5,2.2-0.4,2.3c0,0,0.1,1.1-1,1.3c-0.1,0-0.2,0.1-0.2,0.2c0,0.2-0.1,0.5-0.2,0.6C45.9,36.3,46.5,36.3,46.9,36.2L46.9,36.2
		 M46.9,31.1c0.1,0,0.4-0.1,0.8-0.1c0.5,0,0.6,0.4,0.6,0.4l0.1,0.5c0,0,0.5,0.2,0.6,0c0.1-0.2,0.1-0.4-0.1-0.6
		c-0.4-0.4-0.5-0.5-1.1-0.5C47.4,30.7,46.9,31,46.9,31.1L46.9,31.1 M36,27.9c-0.6,0.4-0.8,1.3-0.7,2.5c0.1,1.7,1,1.9,1.6,1
		c0.6-0.7,0.8-1.4,0.6-1.4c-0.4,0.1-1.1,0.1-1.3-0.2c-0.5-0.6-0.1-1.3,0-1.8L36,27.9 M46.3,55.8c-0.7-0.6-1.6-1.3-2.3-2.4
		c-1.7-2.8-1.9-4.9-1.9-11.2c0-0.2,0-0.5,0-0.7l-1-0.1c0,0-0.2,6.5-0.2,7.2c0,1,0.2,1.9,0.5,0c0.1-1-0.1-3.8,0.1-3.8
		c0.4,0,0.4,11.1,0,11.1c-0.7,0-1-0.2-2-0.1c-0.4-0.5-1.4-0.5-1.6-0.4c0,0,0.4,0.2,0.7,0.4l-11.8,3l-0.7-0.5l-4.8,2l5.3-0.5l0.2-0.8
		l11.9-3.1c0.5,0.2,1.1,0.5,1.1,0.5c0.1,0.1,1.7-0.1,1.6,0.5c0,0.4-0.5,0.6-0.8,0.7c-0.4,0.1-1,0-1,0.1s1.1,0.2,1.3,0.1
		c0.4-0.1,1.4-0.5,2.3-1.3c0,0,2.5-0.2,2.9-0.7C46.5,56,46.5,55.9,46.3,55.8 M26.6,59.6l-3.1,0.5l3.4-1L26.6,59.6z M27.5,39.1
		c0,0,1.6,0.2,1.6-0.6c0-0.4-0.2-0.5-0.4-0.5c-0.2,0-0.4,0.2-0.2,0.5C28.6,38.6,28.8,39,27.5,39.1 M26.3,38.4c0,0.1,0.1,0.2,0.1,0.2
		c0.1,0,0.1-0.1,0.1-0.2v-0.1h0.1c0,0,0.1,0,0.1-0.1c0,0,0-0.1-0.1-0.1H26c0,0-0.1,0-0.1,0.1c0,0,0,0,0.1,0h0.3
		C26.3,38.2,26.3,38.4,26.3,38.4 M30.8,44.4c0.2-0.4,1-0.4,1.2,0.1c0,0-0.6,0-0.7,0.1c0,0,0.7,0.2,0.6,0.7c0,0-0.2-0.4-0.6-0.4
		c0,0,0.2,0.7-0.2,0.8c0,0-0.1-0.6-0.5-0.6s-0.4,0.4-0.4,0.5c0,0-0.2-0.1-0.2-0.6c0-0.2-0.1-0.4-0.2-0.4s-1.1-0.2-2.2-1.3
		c0,0-0.7,0.4-1.7,0.5c0,0-0.2,0.2,0.1,0.2c0.2,0,1.4,0,2.2,1.2c0.1,0.2,0.4,0.4,1,0.4c0,0,0,0.7-1.2,0.7c0,0,0.7,0.5,1.2,1
		c0.2,0.1,0.2,0.1,0.5,0c0.1-0.1,1-0.7,1.3,0.1c0,0-0.5-0.1-0.7,0c0,0,0.5,0.5,0.4,1c0,0-0.4-0.5-0.6-0.4c-0.1,0,0.2,0.5-0.2,0.7
		c0,0,0-0.6-0.5-0.6c0,0,0.1,0.4-0.4,0.5c0,0,0.2-0.7-0.2-1c-0.1,0-2.4-0.4-2.8-1.3c0,0,0.4-0.2,0.6-0.2c0,0-1.3-1-1.6-1.7
		c0,0-0.2-0.1-0.1,0.1c0.1,0.1,0.4,0.4,0.2,1.7c0,0.4,0.1,0.7,0.5,1c0,0-0.8,0.4-1.6-0.6c0,0,0,1.8,1,1.9c0.4,0,1.2,0,1.2,1.1
		c0,0-0.4-0.5-0.7-0.4c0,0,0.2,0.4,0.1,0.6c0,0-0.4-0.5-0.6-0.4c0,0,0.1,0.4,0,0.6c0,0-0.4-0.7-0.5-0.7c-0.2,0-0.4,0.4-0.4,0.7
		c0,0-0.6-0.1-0.2-0.6c0.1-0.2,0.2-0.2,0.4-0.4c0.2-0.2-2.6-1.1-2.3-3.1c0,0,0.5,0.4,0.7,0.1c0.2-0.3,0.1-0.8-0.5-1.3
		c0,0,0.5-0.2,0.7-0.2c0.1,0,0.1-0.2,0.1-0.5c-0.2,0-0.8,0-1.2-0.4c-0.2-0.2-0.4-0.6-0.2-1.2c0.1-0.5,0.6-1.2,1-1.7
		c0.1-0.1,0.2-0.4,0.4-0.5c0.2-0.4,0.5-1,0.4-1.3c-0.1-0.1-0.2-0.2-0.5-0.2c-0.1,0-0.2,0-0.2,0c0.2,0.5-0.1,1-0.6,1.3
		c-0.7,0.5-0.6,1.1-0.6,1.1s-0.2-1.2-0.1-2c0.1-0.6,0.7-1.3,1.2-0.7c0,0,0.2,0,0.4,0c0.5,0,0.7,0.2,0.8,0.5c0.4,0.7-0.2,1.7-0.4,1.8
		c-0.1,0.1-0.2,0.2-0.4,0.5c-0.4,0.5-0.8,1.2-1,1.6c-0.1,0.4-0.1,0.6,0.1,0.7c0.4,0.2,0.8,0.2,1,0.2c0,0,1.1-1,1.9-1.2
		c0.4-0.1,0.4-0.5,0.1-0.4c-0.2,0-1.2,0.2-1.6-0.4c0,0,1.1-0.4,1.2-1c0,0-0.5,0.4-1.1,0.1c0,0,1-0.7,0.7-1.3c-0.1-0.2-0.2-1,0-1.1
		c0.1-0.1-0.2-0.4-0.4-0.4c0,0,0.5-0.5,0.8,0h0.2c0.2,0,0.5-0.2,0.7-0.2c0.2,0,0.5-0.1,0.7,0.2c0,0,0.2,0.1,0.5,0.2
		c0.1,0,0.1,0.2,0.1,0.5c0,0.1-0.1,0.1-0.7,0.2c-0.1,0-0.5,0.7-0.4,0.7s0.7-0.2,1-0.2c0.1,0,0.1,0.2,0.1,0.5c-0.1,0.1-0.2,0-0.5,0
		s-0.5,0.4-0.1,0.7c0.2,0.2,1.1,0.5,1.7-0.8c0,0,0.2,0.2,0.1,1l1.8-1.4c0,0-0.1-1,0.6-1.3c0,0-0.2,0.4-0.1,0.6c0,0,0.5-0.4,0.7-0.4
		c0,0-0.5,0.6-0.5,0.7c0,0,0.7-0.2,0.8,0c0,0-0.7,0.4-0.7,0.5s0.5,0.2,0.7,0.1c0,0-0.1,0.5-1,0.4c0,0-0.7,1.1-1.8,1.8
		c-0.2,0.2,0,0.6,0.7,0.4c0.2-0.1,0.5-0.2,0.5-0.4c0,0,0.6,1.2-1.3,1.3c0,0,1.1,1.1,1.3,1.4C30.7,44.6,30.8,44.5,30.8,44.4
		 M62.8,49.8c0,0.1,0,0.2-0.1,0.2s-0.1,0-0.2,0.1c-0.1,0.1-0.1,0.1,0,0.1c0.2,0,0.5-0.4,0.5-0.5s0.2-0.2,0.4-0.2c0.1,0,0-0.2,0-0.2
		h-0.2c0-0.2,0-0.4-0.1-0.4c0.2,0,0.7,0,1-0.2c0-0.1,0.2-0.2,0.2-0.2l-0.1-0.2c-0.1-0.1-0.6-0.1-0.8,0c-0.5,0.1-0.7,0-0.7-0.1v-0.1
		c0.1,0.1,0.4,0,0.4,0c0.1-0.1,0.1-0.2,0-0.2c-0.7-0.3-0.8-0.1-0.8-0.1c-0.1,0.2-0.1,0.4,0,0.4c0.1,0.1,0.6,0.2,1,0.1
		c0.2-0.1,0.6,0,0.7,0c0,0,0,0.1,0,0.2l-0.1,0.1c-0.1,0.2-0.7,0.2-1.1,0.2c-0.4-0.1-0.7,0.1-0.8,0.2c-0.2,0-0.4,0-0.5,0
		c-0.2-0.1,0.2-0.6,0.2-0.6c0.1-0.1,0-0.1-0.1-0.1c-0.5,0.1-0.5-0.1-0.5-0.2c-0.1-0.1-0.1,0-0.1,0c-0.1,0.1,0.1,0.6-0.2,0.7
		c-0.7,0.1-1-0.5-1-0.5h-0.1c0.1,0.4,0.4,0.5,0.5,0.6c0.2,0.1,0.2,0.1,0.2,0.2l0.1,0.1l-0.1,0.4c0,0.1-0.5,0.5-0.5,0.5
		c-0.1,0-0.5,0.1-0.4,0.1c0.1,0.2,0.6,0,0.6,0c0-0.1,0.7-0.7,0.8-0.7c0,0,0.7-0.2,1-0.2c0.2-0.1,0.1,0,0.1,0
		c-0.1,0.1-0.4,0.7-0.4,0.7c-0.2,0-0.5,0.2-0.4,0.2c0.2,0.1,0.5-0.1,0.5-0.1c0-0.1,0.2-0.4,0.2-0.4l0.4-0.7l0.2-0.1
		c0,0,0.1,0.2,0.2,0.4C62.9,49.6,62.8,49.8,62.8,49.8 M63,38l0.2-0.5l-0.6,0.2v-0.5l-0.3,0.4l-0.4-0.5v0.5L63,38z M55.3,38.2
		c-0.6-0.1-0.6-0.2-0.5-0.4s0-0.2-0.1-0.2s-0.2,0-0.2,0.2C54.5,38.4,55.3,38.2,55.3,38.2 M54.1,36.8h-0.2v0.6h0.2V36.8z M57.7,36.9
		h-0.4v0.6h0.2v-0.6H57.7z M53.4,39.3h-0.2v0.6h0.2V39.3z M53.2,42.4H53V43h0.2V42.4z M55.3,43.3h-0.4v0.6h0.2v-0.6H55.3z M48,43.9
		c0-0.1,0-0.5-0.2-0.5s-0.5,0-0.6,1.3c0,0,0.5-0.1,0.7,0C47.9,44.7,47.9,44.1,48,43.9 M48.5,38.2c-0.2,0-0.5,0.2-0.6,0.7
		s-0.1,0.8-0.1,1.1c0.1,0,0.1,0,0.2,0c0.1-0.2,0.2-0.8,0.7-1.2c0,0,0,0,0-0.1C48.7,38.5,48.6,38.2,48.5,38.2 M47.1,40
		c0,0,0.1,0,0.2,0c0-0.2,0-0.7-0.1-1.2s-0.4-0.6-0.5-0.6c-0.1,0.1-0.4,0.1-0.6,0.5C46.6,39.1,46.8,39.7,47.1,40
		C46.9,40,46.9,40,47.1,40 M50.5,42.4c0-0.5,0-1,0-1.4c-0.1,0.2-0.1,0.5-0.2,0.7C50.3,41.8,50.4,42.2,50.5,42.4 M47.9,47.6
		C48,47.6,48,47.7,47.9,47.6c0.1,0.2,0.2,0.2,0.2,0.3c0.2,0.7,0,2,0,2c0.5-1,0.6-1.7,0.4-2.3c0-0.1-0.1-0.2-0.2-0.5
		C48.3,47.2,47.8,47.6,47.9,47.6 M48.7,41.8c0.1-0.2,0.2-0.6-0.2-1.2v-0.2c0,0,0.1-0.8,0.8-1.3c0.1-0.1,0.4-0.1,0.5,0
		c0.2,0.2,0.2,0.7,0.1,1.3c0-0.1-0.1-0.4-0.1-0.5c-0.1-0.2-0.4-0.4-0.6-0.2s-0.4,0.4-0.2,0.6c0.2,0.5,0.5,1.2,0.8,2.6l0.1,0.5
		c0.2,1.2-0.1,2.2-0.7,3.7c-0.4,1.3-1,4-0.7,5.3c0.4-2.3,1-4.7,1.3-5.4c0.1-0.2,0.2-0.7,0.5-1.1c-0.1,2.5-0.4,5.2-1.1,7.7
		c-0.2,1-0.7,1.7-1.1,2.2c-0.4,0.5-0.6,0.7-0.6,0.7l0,0l0,0c0,0,0,0-0.1,0l0,0c-0.4-0.2-1.3-0.8-2.3-1.9c-0.4-0.4-0.6-0.7-0.8-1.2
		c-1.2-2-1.6-3.6-1.7-7.1c0-0.7,0-1.6,0-2.6c0-0.4,0-0.7,0-1c0-3,0.2-4.6,0.2-4.6s0.6-0.2,2.2-0.6c0.7-0.1,1.7-0.2,2.6-0.2
		c0,0,0,0.1,0,0.2c0.1,0.1,0.2,0.2,0.4,0.2c-0.2,0.1-0.5,0.4-0.6,0.6c-0.1-0.4-0.4-0.6-0.7-0.7c-0.5-0.1-1,0-1.3,0.7
		c-0.5-0.1-1-0.1-1.3,0.1c-0.6,0.5-0.7,1.8,0.2,3.6c-0.1,0.2-0.1,0.5-0.2,0.7c-0.7,2.5,0.4,4,1.1,5.3c0.5,1.1,1.4,4.3,1.6,4.6
		c0.1-0.5-0.2-3.6-1-5c-0.5-1.1-1.6-2.6-1-4.6c0.2-0.7,0.6-1.7,0.8-2.5c0-0.5-0.6-1.1-0.8-0.5c0,0.2-0.1,0.5-0.2,0.8
		c-0.4-1-0.5-1.7-0.1-1.9c0.2-0.1,0.6-0.1,0.8,0c0.5,0.2,0.7,1,0.8,1.3l0,0c0.1,0.4,0.1,0.7,0,1.1c-0.1,0.6-0.5,0.8,0,1.2
		c0.2,0.2,0.6,0.4,0.6,0.4s-1.2,2.7,0.6,2.9c0.4,0.1,0.8-0.1,0.8-0.4s-0.1-0.6,0.2-1.3c0.1-0.2,0.5-1,0.4-1.3c0-0.1-0.1-0.5-0.1-0.7
		 M47.4,47.8C47.5,47.6,48,47,48,47c0.6-0.6,1.1-0.8,1.3-1.6c0.2-0.7,0.2-0.7,0.4-1.6c0.2-0.8-0.4-1.7-0.5-1
		c-0.2,0.7-0.2,1.7-0.5,2.3c-0.2,0.7-0.6,1-1,1.3c-0.1,0.1-0.1,0.1-0.1,0.2l-0.1,0c-1.1-0.5-1.6-0.7-1.7-1.7
		c-0.2-1.1,0.1-1.3-0.4-2.4c-0.1-0.2-0.2,0.1-0.4,0.5c0,0.1,0,0.4,0,0.6c0.1,0.6-0.1,1.2,0.1,2c0.4,1,1,1.2,2,1.7
		c-0.2,0.2-0.4,0.6-0.4,1c-0.1,0.7,0.2,1.6,0.5,2C47.2,49.8,47.1,48.4,47.4,47.8 M50.3,38.7L50.3,38.7c0,0,0-0.1,0-0.2
		c0-0.4-0.2-0.6-0.7-0.8c-0.1,0.1-0.4,0.1-0.6,0.1c0.1,0.2,0.2,0.5,0.2,0.7C49.8,38.4,50.2,38.6,50.3,38.7 M47.3,42.1
		c0-0.1,0-0.2-0.1-0.2c0.1,0,0.2-0.1,0.2-0.1v-0.2h-0.1c-0.2,0.2-1,0.4-1,0.4l-0.1,0.1c0,0,0,0.1,0.1,0.1c0,0,0.2,0,0.5-0.1v0.1
		c0,0.1,0.1,0.2,0.2,0.2C47.2,42.4,47.3,42.2,47.3,42.1 M48.7,41.8c-0.5-0.1-0.8-0.4-0.8-0.4h-0.1v0.2c0,0,0.1,0,0.2,0.1
		c-0.1,0-0.1,0.1-0.1,0.2c0,0.1,0.1,0.2,0.1,0.2c0.1,0,0.1-0.1,0.1-0.2c0-0.1,0-0.1,0-0.2C48.2,41.7,48.3,41.8,48.7,41.8 M47.8,43.3
		c-0.2,0-0.5,0-0.6,1.3c0,0,0.5-0.1,0.7,0c0,0,0-0.6,0.1-0.8C48,43.6,48,43.4,47.8,43.3 M47.7,42.8C47.6,42.8,47.7,42.8,47.7,42.8
		c-0.2,0-0.3,0.1-0.2,0.2c0.1,0.1,0.1-0.1,0.2,0c0,0,0.1,0,0.2,0c0.1,0,0.1,0,0.2,0c0.1,0,0.1-0.1,0-0.2c-0.1,0-0.1,0-0.2,0
		C47.7,42.8,47.8,42.8,47.7,42.8 M30.5,55.3L30.5,55.3L30.5,55.3L30.5,55.3 M22.6,55.3L22.6,55.3C22.6,55.3,22.7,55.3,22.6,55.3
		L22.6,55.3 M36.5,68.3c0,3.5,2.9,6.4,6.4,6.4s6.4-2.9,6.4-6.4v-8.8H36.5V68.3 M63.9,61.3c-4.1,6.5-10.2,11.1-17.2,12.3
		c-1.1,0.8-2.4,1.2-3.8,1.2s-2.8-0.5-3.8-1.2c-7-1.2-13.1-5.8-17.1-12.3h14.4v-1.9v-0.1h0.1h13h0.1v0.1v1.9H63.9 M47.2,68.5
		c0-0.2,0.1-0.8-0.5-1c-0.7-0.1-1.1,0.7-1.1,0.7c0,0.1-0.1,0.1-0.2,0.2c-0.1,0-1,0.1-1,0.8c0,0.6,0.6,0.7,0.8,0.7c0.4,0,0.6,0,1-0.1
		c0.1,0,0.4,0,0.5-0.1s0.1-0.4,0.2-0.5C46.9,69.1,47.1,68.9,47.2,68.5 M47.7,69.8c0.1,0,0.2,0.2,0.2,0.4c0,0.1-0.2,0.2-0.4,0.2
		s-0.4,0-0.6,0c0,0.1-0.1,0.4-0.1,0.6c0,0.1-0.1,0.2-0.4,0.2c-0.1,0-0.2-0.1-0.2-0.4c0-0.1,0-0.2,0-0.4l0,0
		c-0.4,0.1-0.7,0.2-1.2,0.1c-0.8-0.1-1.4-0.6-1.4-1.3s0.6-1.2,1.1-1.3l-2-2.6l-2,2.6c0.5,0.1,1.1,0.6,1.1,1.3s-0.5,1.3-1.3,1.3
		c-0.5,0-0.8-0.1-1.2-0.1l0,0c0,0.1,0,0.2,0,0.4c0,0.1-0.1,0.4-0.2,0.4c-0.1,0-0.4-0.1-0.4-0.2c0-0.2,0-0.4-0.1-0.6
		c-0.1,0-0.4,0-0.6,0c-0.1,0-0.4-0.1-0.4-0.2s0.1-0.4,0.2-0.4c0.1,0,0.2,0,0.4,0l0,0c-0.1-0.2-0.4-0.6-0.5-1.1
		c-0.1-0.8,0.2-1.6,1-1.7c0.7-0.1,1.2,0.2,1.4,0.7l2.2-2.8l-1.2-1.6l0,0L38.9,65l-0.4-0.5l1.1-0.8l-0.4-0.5l-1,0.5l-0.9-1l0.5-0.4
		l0.4,0.5l0.5-0.5l-0.4-0.4l0.5-0.4l0.8,1.1l0.5-0.4l-0.6-1.1l0.5-0.4l2.9,3.6l2.9-3.6l0.5,0.4l-0.8,1.1l0.5,0.4l0.8-1.1l0.5,0.4
		l-0.4,0.5l0.5,0.5l0.4-0.5l0.5,0.4l-1,1L46.2,63l-0.3,0.6l1.1,0.8l-0.4,0.5l-2.2-1.7l0,0l-1.2,1.6l2.2,2.8c0.2-0.5,0.8-0.8,1.4-0.7
		c0.7,0.1,1.1,0.8,1,1.7c-0.1,0.5-0.2,0.8-0.5,1.1l0,0C47.4,69.7,47.5,69.8,47.7,69.8 M41.2,69.3c0-0.7-1-0.8-1-0.8
		c-0.1,0-0.1-0.1-0.2-0.2c0,0-0.4-1-1.1-0.7c-0.6,0.1-0.5,0.7-0.5,1c0.1,0.4,0.2,0.6,0.4,0.8c0.1,0.1,0.1,0.4,0.2,0.5
		c0.1,0,0.4,0,0.5,0.1c0.4,0.1,0.6,0.1,1,0.1C40.7,70.1,41.3,69.9,41.2,69.3 M39,76.8c-0.1-0.1-0.2-0.1-0.4-0.1
		c-0.2,0-0.7,0-0.8,0.7c-0.1,0.5,0.2,0.7,0.6,0.8c0.4,0,0.4,0,0.4-0.2L39,76.8z M39.1,76c0.1-0.6,0-0.6-0.5-0.7v-0.2l1.9,0.4v0.1
		c-0.5,0-0.5,0-0.6,0.6L39.7,78c-0.1,0.6,0,0.6,0.4,0.7v0.2l-1.9-0.3c-0.7-0.1-1.2-0.6-1.1-1.2c0.1-0.6,0.7-1,1.3-0.8
		c0.1,0,0.2,0,0.4,0l0.4,0.2L39.1,76z M34.6,75.7l-0.3-0.1c-0.1,0-0.4-0.1-0.5-0.1c-0.2,0-0.4,0.2-0.5,0.5c-0.1,0.5,0.1,0.8,0.5,1
		c0.4,0.1,0.4,0.1,0.4-0.1L34.6,75.7z M34.9,74.9c0.2-0.5,0.1-0.6-0.2-0.8l0.1-0.2l1.8,0.6l-0.1,0.1C36,74.5,36,74.5,35.8,75
		l-0.7,1.8c-0.2,0.6-0.1,0.6,0.2,0.7l-0.1,0.2l-1.8-0.6c-0.4-0.1-0.6-0.2-0.7-0.5c-0.1-0.2-0.2-0.5-0.1-0.8c0.1-0.5,0.6-0.6,1-0.6
		c0-0.2-0.1-0.6-0.2-1c-0.1-0.4-0.1-0.5-0.2-0.6c-0.1-0.1-0.1-0.2-0.2-0.4l0.1-0.2l0.2,0.1c0.6,0.2,0.7,0.5,0.8,0.8
		c0.1,0.2,0.1,0.7,0.2,1c0,0.2,0.1,0.2,0.2,0.4h0.1L34.9,74.9z M30.5,73.6l-0.7-0.4l-0.2,1.2l0,0L30.5,73.6z M30.4,72.1L30.3,72
		c-0.2-0.1-0.2-0.1-0.4,0.2l-0.1,0.5l1,0.6c0.1,0,0.2-0.2,0.5-0.4c0.2-0.1,0.1-0.2,0-0.4l-0.1-0.1l0.1-0.2l1.2,0.7l-0.2,0.3
		c-0.4-0.1-0.5-0.2-0.8,0.1l-2.4,1.8L28.9,75l0.5-3.1c0.1-0.5-0.1-0.6-0.4-0.7l0.1-0.2l1.6,1L30.4,72.1z M27.4,70.8
		c0.4-0.5,0.5-0.5,0.8-0.1l0.1-0.1l-2.3-2c-0.1,0.1-0.6,0.5-0.7,0.6l0.1,0.1c0.2-0.1,0.4-0.2,0.6-0.2s0.4,0.1,0.6,0.2
		s0.4,0.2,0.4,0.4c0,0.1,0,0.2-0.2,0.5l-0.5,0.6l-0.4-0.4c-0.4-0.2-0.4-0.4-0.1-0.7l-0.1-0.1L25,70.4v0.4c0.4-0.2,0.4-0.2,0.7,0
		l0.4,0.4L25.3,72c-0.1,0.1-0.1,0.1-0.2,0l-0.2-0.2c-0.2-0.2-0.4-0.4-0.4-0.5s0-0.2,0.1-0.5l-0.2-0.1c-0.2,0.4-0.5,0.6-0.5,0.7
		l2.2,1.8l0.1-0.1c-0.4-0.4-0.4-0.4,0-0.8L27.4,70.8z M24.2,68.5c0.2-0.4,0.5-0.7,0.6-0.8c0-0.1-0.1-0.6-0.5-1
		c-0.6-0.6-1.3-0.7-1.8-0.2s-0.4,1-0.1,1.6l0.1,0.2c0.1,0.2,0.1,0.6-0.1,0.7c-0.2,0.2-0.5,0.1-0.7,0c-0.2-0.4-0.2-0.7,0-1.1
		l-0.2-0.1c-0.2,0.4-0.5,0.5-0.6,0.7c0.1,0.1,0.2,0.5,0.5,0.7c0.6,0.7,1.3,0.7,1.8,0.2c0.4-0.4,0.2-0.8,0.1-1.3l-0.1-0.2
		c-0.1-0.4-0.1-0.7,0.1-1c0.2-0.2,0.6-0.1,0.8,0.1C24.5,67.4,24.3,68.1,24.2,68.5L24.2,68.5z M19.8,65.4c-0.5,0.4-0.5,0.4-0.8,0
		l-0.1,0.1l1.1,1.6l0.1-0.1c-0.3-0.4-0.3-0.5,0.2-0.9l1.4-1.1c0.5-0.4,0.5-0.4,0.8,0l0.1-0.1l-1.1-1.6l-0.1,0.3
		c0.2,0.4,0.2,0.5-0.2,0.8L19.8,65.4z M19.4,61.7c0.4-0.2,0.5-0.4,0.2-0.6c-0.4-0.7-1.1-0.8-1.9-0.4c-0.8,0.5-1.1,1.1-0.6,1.8
		c0.2,0.2,0.2,0.2,0.3,0.4c0,0,0.1,0,0.2-0.1L19.4,61.7z M16.9,62.4c-0.4-0.6-0.5-1.1-0.4-1.7c0.1-0.4,0.4-0.7,0.7-1
		c1.2-0.6,2.2,0,2.8,1.1l0.8,1.4l-0.2,0.1c-0.2-0.5-0.4-0.5-0.8-0.1L18.2,63c-0.5,0.4-0.5,0.5-0.2,0.8l-0.2,0.1L16.9,62.4z
		 M15.5,57.6c-0.5,0.2-0.6,0.2-0.8-0.2l-0.2,0.1l0.7,1.8l0.1-0.2c-0.1-0.5-0.1-0.5,0.4-0.7l1.7-0.7c0.5-0.2,0.6-0.2,0.8,0.2l0.2-0.1
		L17.7,56l-0.2,0.1c0.1,0.5,0.1,0.5-0.4,0.8L15.5,57.6z M14,56.1l0.3-0.1c-0.1-0.5-0.1-0.6,0.5-0.7l1.1-0.4c0.6-0.1,1-0.4,1.1-0.7
		c0.1-0.3,0.1-0.7,0-1.1c-0.1-0.5-0.4-0.8-0.7-1c-0.4-0.2-0.8-0.2-1.3,0l-0.4,0.1c-0.5,0.1-0.7,0.2-1,0.2c-0.2,0-0.4-0.1-0.4-0.4
		h-0.3l0.5,1.6l0.2-0.1c-0.1-0.4,0-0.5,0.1-0.6c0.1-0.1,0.4-0.2,1-0.4l0.4-0.1c0.8-0.2,1.4-0.1,1.6,0.5c0.1,0.6-0.2,1.1-1.1,1.3
		l-1,0.2c-0.6,0.2-0.6,0.2-0.7-0.3l-0.2,0.1L14,56.1z M12.1,47.1l2.4,0.7l-2.2,1.5l0.2,1.3h0.2c0-0.5,0-0.6,0.6-0.6l1.2-0.1
		c0.5,0,0.7,0,0.8,0c0.2,0,0.4,0.1,0.4,0.5h0.2L15.7,49h-0.2c0,0.4,0,0.6-0.2,0.6c-0.1,0-0.4,0.1-1,0.1l-1.2,0.1l0,0l2.4-1.4v-0.2
		l-3-0.8l0,0l2-0.4c0.5-0.1,0.6,0,0.6,0.5h0.2v-2.2h-0.2c0,0.6,0,0.6-0.5,0.6l-1.8,0.2c-0.5,0.1-0.6,0-0.6-0.5H12L12.1,47.1z
		 M13.4,42.4c-0.5,0-0.8,0.4-0.8,0.8S13,44,13.4,44c0.5,0,0.8-0.4,0.8-0.8S13.9,42.4,13.4,42.4 M14,40l0.1-0.8l-1.2,0.4l0,0L14,40z
		 M15.2,39.2L15.2,39.2c0-0.3,0-0.3-0.4-0.2l-0.5,0.1v1.1c0.1,0,0.4,0.1,0.6,0.2c0.2,0.1,0.2,0,0.4-0.1v-0.1h0.2l-0.2,1.4h-0.2
		c0-0.4,0-0.5-0.5-0.7L12,39.6v-0.2l3-1c0.5-0.1,0.5-0.4,0.5-0.6h0.2l-0.1,1.8L15.2,39.2z M13.9,33.3c-0.4,0-0.7,0-1-0.1
		c-0.1,0.1-0.2,0.5-0.4,1.1c-0.2,1.2,0.4,2.3,1.5,2.5c0.8,0.1,1.9-0.4,2.2-1.7c0.1-0.5,0-1,0-1.2c-0.1-0.1-0.6-0.4-1-0.5v0.2
		c0.5,0.4,0.8,0.7,0.7,1.3c-0.1,0.7-0.8,1.2-1.8,1c-0.8-0.1-1.3-0.7-1.2-1.4c0.1-0.5,0.4-0.8,1.1-0.8L13.9,33.3z M15.5,31.5l0.2-0.8
		l-1.2,0.1l0,0L15.5,31.5z M16.8,31v-0.1c0-0.2,0-0.2-0.4-0.2h-0.5l-0.4,1.1c0.1,0,0.2,0.2,0.5,0.4c0.3,0,0.3,0,0.4-0.2l0.1-0.1
		l0.2,0.1l-0.4,1.3l-0.2-0.1c0-0.4,0.1-0.5-0.4-0.8l-2.3-1.9v-0.2l3.1-0.2c0.5,0,0.5-0.2,0.6-0.5l0.4,0L17,31.3L16.8,31z M17.5,27.2
		c0.4,0.2,0.6,0.1,0.7-0.1c0.4-0.7,0-1.4-0.8-1.8c-1-0.4-1.6-0.1-1.8,0.6c-0.1,0.2-0.1,0.4-0.1,0.4s0.1,0.1,0.2,0.1L17.5,27.2z
		 M15.3,25.6c0.2-0.6,0.6-1.1,1.1-1.3c0.4-0.1,0.8-0.1,1.2,0c1.2,0.6,1.3,1.7,0.7,2.9l-0.6,1.6h-0.2c0.1-0.5,0.1-0.5-0.4-0.7
		l-1.6-0.7c-0.5-0.2-0.6-0.2-0.8,0.2l-0.2-0.1L15.3,25.6z M19.3,23.7c0.5,0.2,0.5,0.4,0.2,0.8l0.2,0.1l1.6-2.6
		c-0.1-0.1-0.6-0.5-0.7-0.7l-0.2,0.2c0.1,0.2,0.2,0.4,0.4,0.5c0,0.1,0,0.4-0.2,0.6c-0.1,0.2-0.2,0.4-0.4,0.5c-0.1,0.1-0.2,0-0.5-0.1
		l-0.8-0.4l0.2-0.5c0.2-0.4,0.2-0.4,0.6-0.2l0.1-0.2l-1-0.6v0.2c0.5,0.2,0.5,0.2,0.3,0.7l-0.2,0.5l-0.8-0.6c-0.1-0.1-0.1-0.1,0-0.2
		l0.1-0.2c0.2-0.4,0.4-0.5,0.5-0.5c0.1,0,0.2,0,0.6,0.1v-0.3c-0.4-0.2-0.7-0.4-0.8-0.5l-1.4,2.4l0.2,0.2c0.2-0.4,0.4-0.4,0.8-0.1
		L19.3,23.7z M19.3,23.7c0.5,0.2,0.5,0.4,0.2,0.8l0.2,0.1l1.6-2.6c-0.1-0.1-0.6-0.5-0.7-0.7l-0.2,0.2c0.1,0.2,0.2,0.4,0.4,0.5
		c0,0.1,0,0.4-0.2,0.6c-0.1,0.2-0.2,0.4-0.4,0.5c-0.1,0.1-0.2,0-0.5-0.1l-0.8-0.4l0.2-0.5c0.2-0.4,0.2-0.4,0.6-0.2l0.1-0.2l-1-0.6
		v0.2c0.5,0.2,0.5,0.2,0.3,0.7l-0.2,0.5l-0.8-0.6c-0.1-0.1-0.1-0.1,0-0.2l0.1-0.2c0.2-0.4,0.4-0.5,0.5-0.5c0.1,0,0.2,0,0.6,0.1v-0.3
		c-0.4-0.2-0.7-0.4-0.8-0.5l-1.4,2.4l0.2,0.2c0.2-0.4,0.4-0.4,0.8-0.1L19.3,23.7z M21.4,16.3l1.1,2.3L20,18l-0.8,1l0.1,0.1
		c0.4-0.4,0.4-0.5,0.8,0l0.8,0.8c0.4,0.4,0.5,0.5,0.6,0.6s0.1,0.4-0.1,0.6l0.1,0.1l1-1.1L22.3,20c-0.2,0.2-0.4,0.4-0.6,0.2
		c-0.1-0.1-0.2-0.2-0.7-0.6l-0.8-0.8l0,0l2.8,0.8l0.1-0.1l-1.3-2.8l0,0l1.6,1.3c0.4,0.4,0.4,0.4,0.1,0.8l0.1,0.1l1.2-1.4l-0.1-0.1
		c-0.4,0.4-0.4,0.4-0.8,0.1l-1.6-1.1c-0.4-0.4-0.4-0.4-0.1-0.8l-0.1-0.1L21.4,16.3z M24.8,14.1c-0.4-0.5-0.4-0.5,0-0.8l-0.1-0.1
		l-1.6,1.2l0.2,0.1c0.4-0.4,0.5-0.4,0.8,0.1l1.2,1.3c0.4,0.5,0.4,0.5,0,0.8l0.1,0.1l1.4-1.3h-0.1c-0.4,0.4-0.5,0.4-0.8-0.1
		L24.8,14.1z M27.6,13.2l0.7-0.4l-1-0.6l0,0L27.6,13.2z M29,13.7L29,13.7c0.2-0.2,0.2-0.4,0-0.5L28.5,13l-0.8,0.6
		c0,0.1,0.1,0.4,0.1,0.6c0.1,0.2,0.1,0.2,0.4,0.1l0.1-0.1l0.1,0.1l-1.2,0.8L27.1,15c0.2-0.2,0.4-0.4,0.2-0.8l-0.6-2.9l0.2-0.2
		l2.6,1.7c0.4,0.2,0.5,0.1,0.8,0l0.1,0.2L29,14V13.7z M31.8,10.2c-0.2-0.5-0.7-0.6-1.2-0.4C30.2,10,30,10.5,30.2,11s0.7,0.6,1.2,0.4
		C31.8,11.2,32,10.6,31.8,10.2 M36.6,10.4c0-0.2-0.1-0.7-0.1-1.1h-0.2c0,0.4,0,0.6-0.1,0.7c-0.1,0.1-0.2,0.2-0.5,0.4
		c-0.2,0.1-0.4,0.1-0.5,0.1c-0.1,0-0.2-0.1-0.4-0.5l-0.6-1.7c-0.2-0.6-0.1-0.6,0.4-0.8l0,0l-1.8,0.6l0.1,0.2
		c0.5-0.1,0.5-0.1,0.7,0.5l0.6,1.7c0.2,0.6,0.1,0.6-0.4,0.8l0.2,0.3L36.6,10.4z M36.5,6.8V7C37,7,37,7,37.1,7.6l0.2,1.2
		c0.1,0.6,0.4,1,0.6,1.2c0.4,0.1,0.7,0.1,1.1,0.1c0.5-0.1,0.8-0.2,1.1-0.6c0.3-0.4,0.2-0.8,0.2-1.3l-0.1-0.4c-0.1-0.5-0.1-0.8-0.1-1
		c0-0.2,0.1-0.4,0.5-0.4V6.3l-1.4,0.2v0.2c0.4,0,0.5,0,0.6,0.2c0,0.1,0.1,0.5,0.2,1v0.4c0.1,0.8,0,1.4-0.7,1.6
		c-0.6,0.1-1-0.4-1.1-1.2l-0.1-1c-0.1-0.6,0-0.6,0.4-0.7V6.8H36.5z M45,7.2c0-0.5,0-0.8-0.1-1c-0.2,0-0.6-0.1-1.1-0.2
		c-1.2,0-2.3,0.6-2.3,1.8c0,1.1,0.8,1.8,2.2,1.8c0.5,0,1-0.1,1.3-0.2c0-0.1,0-0.2,0-0.5V8.6c0-0.4,0-0.4,0.4-0.5V7.8h-1.8V8
		c0.6,0,0.6,0.1,0.6,0.5V9c0,0.4-0.2,0.4-0.4,0.4c-1,0-1.3-0.8-1.3-1.7c0-1.1,0.6-1.4,1.2-1.4c0.5,0,1,0.2,1.1,1L45,7.2z M47.5,9.2
		c-0.1,0.5-0.1,0.6,0.4,0.6c0.8,0.2,1.3-0.2,1.6-1.2s-0.1-1.6-1-1.7c-0.2,0-0.4-0.1-0.4,0c0,0-0.1,0.1-0.1,0.2L47.5,9.2z M48.6,6.8
		c0.6,0.1,1.2,0.4,1.4,0.8c0.3,0.4,0.4,0.7,0.3,1.2c-0.2,1.3-1.4,1.6-2.6,1.3L46,9.7V9.5c0.5,0.1,0.6,0,0.7-0.5l0.4-1.7
		c0.1-0.6,0.1-0.6-0.4-0.7V6.4L48.6,6.8z M51.7,7.6l-0.1,0.2C52.1,8,52.1,8,51.8,8.6l-0.5,1c-0.2,0.6-0.2,1-0.1,1.3
		c0.1,0.4,0.5,0.6,0.8,0.7c0.5,0.2,0.8,0.2,1.2,0.1c0.4-0.1,0.7-0.5,0.8-1.1l0.3-0.2c0.2-0.5,0.4-0.7,0.5-0.8
		c0.1-0.1,0.2-0.1,0.6-0.1l0.1-0.2L54,8.6l-0.1,0.2c0.4,0.1,0.5,0.2,0.4,0.5c0,0.1-0.1,0.5-0.4,1l-0.1,0.3c-0.4,0.7-0.8,1.2-1.4,1
		c-0.6-0.2-0.6-0.8-0.4-1.7l0.4-1c0.2-0.5,0.2-0.6,0.7-0.4l0.1-0.2L51.7,7.6z M58.7,13c0.4-0.5,0.5-0.7,0.6-0.8s0.4-0.1,0.6,0L60,12
		l-1.3-0.8l-0.1,0.2C59,11.6,59,11.8,59,12c-0.1,0.1-0.2,0.4-0.5,0.8L58,13.5l0,0l-0.5-3.1l-1-0.7l-0.1,0.1c0.5,0.4,0.5,0.5,0.1,1
		l-0.6,0.8c-0.4,0.5-0.5,0.7-0.6,0.8s-0.4,0.1-0.6,0l-0.1,0.2l1.3,0.8l0.1-0.2c-0.4-0.2-0.4-0.4-0.4-0.6c0.1-0.1,0.2-0.4,0.5-0.8
		l0.6-0.8l0,0l0.6,3.5l0.4,0.2L58.7,13z M60.4,14.6c-0.6,0.7-0.8,1.6-0.4,1.9c0.4,0.4,1,0.4,1.7-0.4c0.6-0.6,0.8-1.4,0.4-1.9
		C61.7,13.8,61,14,60.4,14.6 M62.3,14c0.8,0.8,0.8,1.9,0.2,2.6c-0.8,1-1.9,0.7-2.8,0c-1-0.8-0.8-2-0.2-2.6
		C60.5,13.1,61.7,13.4,62.3,14 M64.6,18.9c0.4-0.4,0.5-0.8,0.1-1.2c-0.2-0.4-0.8-0.4-1.2-0.1c-0.4,0.4-0.5,0.8-0.1,1.2
		C63.6,19.1,64.1,19.3,64.6,18.9 M65.9,20.7l0.1,0.2c0.2,0.2,0.5,0.5,1,0.2c0.4-0.2,0.2-0.6,0.1-0.8c-0.1-0.2-0.2-0.2-0.4-0.1
		L65.9,20.7z M65.8,20.9l-0.7,0.5c-0.5,0.2-0.4,0.5-0.2,0.7c0.2,0.2,0.6,0.5,1,0.1c0.5-0.4,0.4-0.7,0.1-1.2L65.8,20.9z M66,19.7
		c0.5-0.4,0.5-0.4,0.2-0.7l0.2-0.1l1.1,1.7c0.4,0.6,0.5,1.1,0,1.4c-0.4,0.2-0.8,0-1.1-0.2l0,0c0.2,0.5,0.2,1-0.2,1.3
		c-0.7,0.5-1.3-0.2-1.7-0.8l-1-1.4l0.2-0.1c0.2,0.4,0.4,0.4,0.8,0.1L66,19.7z M67.6,24.5l0.4,0.8l0.8-0.8l0,0H67.6z M66.9,25.9
		L67,26c0.1,0.2,0.2,0.2,0.5-0.1l0.4-0.4l-0.5-1c-0.1,0-0.4,0-0.6,0.1c-0.2,0-0.2,0.1-0.2,0.4l0.1,0.1l-0.2,0.1l-0.6-1.3l0.2-0.1
		c0.2,0.2,0.2,0.4,0.8,0.4l3-0.1l0.2,0.2l-2,2.3c-0.4,0.4-0.2,0.5-0.1,0.8l-0.5,0.1l-0.8-1.6H66.9z M71.2,28.5l0.1,0.2
		c0.1,0.2,0.1,0.5,0.1,0.6s-0.1,0.2-0.5,0.4l0.1,0.2c0.2-0.1,0.7-0.4,1-0.5v-0.1c-0.1,0-0.1-0.1-0.2-0.2L71,26.8
		c-0.1-0.1-0.1-0.2,0-0.4v-0.1c-0.2,0.1-0.6,0.2-1.1,0.4l0.1,0.2c0.4,0,0.5,0,0.6,0s0.2,0.1,0.4,0.6l0.1,0.1l-2.2,0.8
		c-0.7,0.2-0.7,0.1-1-0.2l-0.2,0.1l0.7,1.8l0.2-0.1c-0.1-0.5-0.1-0.6,0.4-0.7L71.2,28.5z M70.4,31.9l0.2,0.8l1-0.7l0,0L70.4,31.9z
		 M69.5,32.9V33c0.1,0.2,0.1,0.2,0.5,0l0.4-0.2l-0.2-1.1c-0.1,0-0.4,0-0.6,0c-0.2,0-0.2,0-0.2,0.2V32h-0.2l-0.4-1.3H69
		c0.1,0.4,0.1,0.5,0.7,0.5l2.9,0.5l0.1,0.2l-2.5,1.9c-0.4,0.2-0.4,0.5-0.2,0.7h-0.2l-0.5-1.7L69.5,32.9z M69.9,36.4
		c1.2,0.2,2.6,0.7,2.9,0.7c0.5,0.1,0.6,0.2,0.7,0.6h0.2l-0.2-1.4h-0.2v0.1c0,0.2-0.1,0.4-0.4,0.2c-0.2,0-1.6-0.2-1.9-0.4l1.7-1.1
		c0.2-0.1,0.4-0.1,0.4,0v0.2h0.2l-0.2-1.7h-0.2c0,0.4,0,0.5-0.4,0.7L69.9,36V36.4z M71.7,39.1v0.8l1.1-0.5l0,0L71.7,39.1z M70.6,40
		L70.6,40c0,0.3,0.1,0.3,0.5,0.2l0.5-0.2l-0.1-1.1c-0.1,0-0.4-0.1-0.6-0.1s-0.2,0-0.4,0.2v0.2h-0.2l-0.1-1.4h0.2
		c0.1,0.4,0.1,0.5,0.6,0.6l2.8,1l0.1,0.2l-2.8,1.3c-0.4,0.2-0.5,0.4-0.5,0.7h-0.2l-0.1-1.8L70.6,40z M72.3,44.2
		c0.5,0,0.8-0.4,0.8-0.8s-0.3-0.8-0.8-0.8s-0.8,0.4-0.8,0.8C71.4,43.8,71.8,44.2,72.3,44.2 M70,48.2c0.2,0.1,0.7,0.2,1,0.4v-0.2
		c-0.2-0.2-0.4-0.4-0.5-0.4c-0.1-0.1-0.1-0.4-0.1-0.6s0-0.4,0.1-0.5s0.2-0.1,0.6-0.1l1.7,0.2c0.6,0.1,0.6,0.1,0.6,0.6h0.2l0.2-1.9
		h-0.2c-0.1,0.5-0.1,0.5-0.7,0.5L71.1,46c-0.6,0-0.6-0.1-0.6-0.6h-0.2L70,48.2z M72,51.6c0.6,0.1,0.6,0.1,0.5,0.6h0.2l0.4-1.8H73
		c-0.1,0.5-0.1,0.5-0.7,0.4l-1.8-0.4c-0.6-0.1-0.6-0.1-0.5-0.6h-0.2l-0.4,1.8h0.2c0.1-0.5,0.1-0.5,0.7-0.4L72,51.6z M70.5,55.1
		l-0.1,0.2c-0.1,0.4-0.1,0.7,0.4,0.8c0.4,0.1,0.6-0.1,0.7-0.5c0.1-0.2,0.1-0.4-0.1-0.4L70.5,55.1z M70.2,54.9l-0.8-0.2
		c-0.5-0.1-0.6,0-0.7,0.2c-0.1,0.4,0,0.7,0.5,0.8s0.8-0.1,1-0.6V54.9z M71.3,54.6c0.5,0.2,0.6,0.1,0.7-0.2l0.2,0.1l-0.6,1.9
		c-0.2,0.6-0.6,1.1-1.1,0.8c-0.5-0.1-0.5-0.6-0.5-1l0,0c-0.2,0.5-0.6,0.8-1.2,0.6c-0.7-0.2-0.7-1.2-0.5-1.8l0.6-1.7l0.2,0.1
		c-0.1,0.5-0.1,0.5,0.5,0.7L71.3,54.6z M67.7,58.8c-0.5-0.2-0.5-0.4-0.4-0.8l-0.2-0.1l-1.3,2.7c0.1,0.1,0.6,0.5,0.7,0.6l0.1-0.2
		c-0.2-0.3-0.3-0.4-0.3-0.5s0-0.4,0.1-0.6c0.1-0.2,0.2-0.4,0.4-0.5c0.1-0.1,0.2,0,0.6,0.1l0.7,0.4l-0.2,0.5
		c-0.2,0.4-0.2,0.4-0.6,0.2l-0.1,0.2l1.1,0.5l0.1-0.2c-0.4-0.2-0.4-0.2-0.1-0.7l0.2-0.5l1,0.5c0.1,0.1,0.1,0.1,0.1,0.2l-0.1,0.2
		c-0.1,0.4-0.4,0.5-0.4,0.5c-0.1,0-0.2,0-0.6,0l-0.2,0.5c0.4,0.1,0.7,0.2,0.8,0.4l1.3-2.5l-0.2-0.1C70,60,70,60.1,69.4,59.7
		L67.7,58.8z M65.7,64.2l-0.1,0.2c-0.1,0.1-0.2,0.4-0.2,0.5c0,0.2,0.1,0.5,0.4,0.6c0.4,0.2,0.8,0.1,1-0.2c0.2-0.2,0.2-0.2,0-0.4
		L65.7,64.2z M65,63.7c-0.5-0.4-0.5-0.4-0.8,0.1L64,63.6l1.1-1.6l0.1,0.1c-0.2,0.5-0.2,0.5,0.2,0.8l1.4,1c0.5,0.4,0.5,0.4,0.8,0
		l0.1,0.1l-0.9,1.6c-0.2,0.2-0.4,0.5-0.6,0.6c-0.2,0.1-0.6,0.1-0.8-0.1c-0.4-0.2-0.5-0.7-0.2-1.1c-0.2,0-0.6,0-1,0
		c-0.4,0-0.6,0-0.7,0c-0.1,0-0.2,0.1-0.4,0.2L63,65.1l0.1-0.2c0.4-0.6,0.7-0.6,1.1-0.6c0.4,0,0.7,0,1,0.1c0.2,0,0.2,0,0.4-0.2
		l0.1-0.1L65,63.7z M63,69.7l-0.2,0.2c-0.2,0.2-0.4,0.4-0.5,0.4s-0.2,0-0.6-0.2l-0.1,0.1c0.2,0.2,0.6,0.5,0.8,0.7l0.1-0.1
		c0-0.1,0-0.1,0.1-0.4l1.7-1.8c0.1-0.1,0.2-0.1,0.4-0.1l0.1-0.1c-0.2-0.2-0.5-0.5-0.7-0.8L64,67.7c0.1,0.2,0.2,0.4,0.2,0.5
		s0,0.2-0.4,0.6l-0.1,0.1L62,67.2c-0.4-0.4-0.4-0.5-0.1-0.8l-0.1-0.1l-1.3,1.4l0.1,0.1c0.4-0.4,0.5-0.4,0.8,0L63,69.7z M59.3,70.8
		l-0.7,0.6l1,0.6l0,0L59.3,70.8z M57.9,70.4L57.9,70.4c-0.2,0.2-0.2,0.4,0,0.5l0.5,0.2l0.8-0.6c0-0.1-0.1-0.4-0.2-0.6
		c-0.1-0.2-0.1-0.2-0.4-0.1l-0.1,0.1l-0.1-0.1l1.1-0.8l0.1,0.1c-0.2,0.2-0.4,0.4-0.2,0.8l0.7,2.9L59.9,73l-2.6-1.6
		c-0.4-0.2-0.5-0.1-0.8,0l-0.1-0.1l1.4-1.1L57.9,70.4z M55.3,75.6l-0.4,0.1c-0.2,0.1-0.5,0.2-0.6,0.1c-0.1,0-0.2-0.1-0.5-0.4v0.2
		c0.1,0.2,0.5,0.7,0.6,1h0.1c0-0.1,0-0.1,0.2-0.2l2.2-1.2c0.1-0.1,0.2-0.1,0.4,0h0.1c-0.1-0.2-0.2-0.6-0.5-1l-0.2,0.1
		c0.1,0.2,0.1,0.5,0,0.6c0,0.1-0.1,0.2-0.6,0.5L56,75.5l-1.1-2c-0.2-0.5-0.2-0.6,0.2-0.8L55,72.2l-1.8,1l0.1,0.2
		c0.5-0.2,0.6-0.2,0.8,0.2L55.3,75.6z M50.8,76.8c0.2,0.6,0.1,0.6-0.2,0.7l0.1,0.2l1.8-0.6l-0.2-0.2c-0.5,0.1-0.5,0.1-0.7-0.5
		L51,74.7c-0.2-0.5-0.1-0.6,0.2-0.7l-0.1-0.2l-1.8,0.6l0.1,0.2c0.5-0.1,0.5-0.1,0.7,0.5L50.8,76.8z M48,76c-0.1-0.4-0.2-0.7-0.2-0.8
		c-0.1-0.1-0.5-0.2-1.1-0.1c-0.8,0.1-1.3,0.6-1.2,1.3c0.1,0.6,0.6,0.8,1.2,1h0.2c0.4,0,0.6,0.2,0.6,0.5c0,0.2-0.1,0.6-0.5,0.6
		c-0.4,0.1-0.7-0.2-1-0.6L45.8,78c0.1,0.4,0.2,0.6,0.2,0.8c0.1,0,0.5,0.1,0.8,0c0.8-0.1,1.3-0.7,1.2-1.3c-0.1-0.5-0.6-0.7-1.1-0.8
		h-0.2c-0.4-0.1-0.6-0.2-0.7-0.6c0-0.4,0.1-0.6,0.5-0.6c0.5-0.1,1,0.4,1.2,0.8L48,76z M42,77.3c0,0.5,0.4,0.8,0.8,0.8
		s0.8-0.4,0.8-0.8c0-0.5-0.4-0.8-0.8-0.8C42.4,76.4,42,76.8,42,77.3 M33.1,36.6L33.1,36.6L33.1,36.6 M66.2,32.8
		c0.2-0.2,0.5-0.4,0.8-0.2l0,0c-0.2-0.2-0.7-0.2-1.1,0c-0.2,0.2-0.2,0.7,0,1.1l0,0C65.8,33.4,65.9,33.1,66.2,32.8 M62.3,21.4
		c4.2,5.5,6.7,13,6.7,21c0,4.6-0.8,8.9-2.3,12.7c0,0.1-0.1,0.2-0.1,0.4h-2.9c0.4,0.2,0.5,0.6,0.5,0.8c0,0.6-0.4,0.6-1.2,0.6h-0.2H55
		h-0.2c-0.5,0-1,0-1.2-0.2c-0.1-0.1-0.1-0.2-0.1-0.5c0-0.4,0.1-0.6,0.5-0.8h-5.3c0.4-0.5,0.7-1.2,1-2c1.1-3.7,1-7.8,1.1-11.2
		c0-1.9,0-1.8,0-3.6c0,0,0.4-0.1,0.1-0.8c-0.1-0.4-0.4-0.7-0.7-1c0-0.1,0-0.4-0.1-0.5l-0.2-0.2V36c0-0.1-0.1-0.5-0.1-0.8
		c0-1.2-0.7-3.4-0.7-3.4s0.1,0.1,0.5,0c0.5-0.1,0.5-0.7,0.1-1.1c-0.1-0.1-0.5-0.7-0.7-1c-0.1-0.4-0.5-1-0.5-1.3c-0.1-0.4,0-2,0-2.5
		c0.2-3.8-1.6-4.1-2.2-4.3c-0.2-0.1-0.4-0.2-0.6-0.4c0,0.7-1.1,1.2-2.2,1.2c-1.1,0-2.2-0.5-2.2-1.2c0,0,0-0.1,0.1-0.2l-0.5,0.1
		c-0.6,0.1-0.8,0.1-1.1,0.2c-0.8,0.4-1.1,1.1-1.1,1.3c-0.4,0.8-0.6,1.7-0.6,1.7c-0.1,0.2-0.2,0.6-0.2,0.6s-0.2-0.2-0.4-0.4
		c-0.2-0.2-1.6-1.4-1.8-1.7c-0.1-0.1-1,0.1-1,0.1c1.7,1.3,3,3,3.2,3.4c0.1,0.2,0,0.1-0.1,0.1c-1.8-0.8-4.2-0.6-4.2-0.6L33,26.6
		c2.5-0.2,4.4,0,4.9,0.7c0.1,0.1,0.4,0.2,0.6,0.2s0.4-0.2,0.4-0.5c0-0.1,0-0.1,0.1-0.4c1.2-2.5,4.4-3.7,4.4-3.7l1.3,4
		c0.5,0.1,0.6,0.1,1,0.1c-0.1-0.2-0.6-0.7-0.5-1c0-0.1,0.6,0,0.8-0.1c0.4-0.2,0.7-0.6,0.4-1.8c-0.1-0.2-0.2-0.5-0.2-0.6l0.2-0.1
		c0,0.1,0.1,0.2,0.2,0.6c0.6,1.6-0.1,1.9-0.4,2.2l-0.1,0.1c-0.1,0.2,0,0.6,0.1,0.7c0.2,0.1,0.2,0.2,0.2,0.2V28
		c-1-0.5-3.5-0.5-3.4-0.5s0.5-0.2,0.4-0.4c0,0-0.4,0-0.6,0c-0.1,0-0.1-0.1,0-0.1c0,0,0.1,0,0.4-0.1c0.4-0.2,0.6-0.6,0.7-0.7
		c0.1-0.1-0.1-0.2-0.1-0.2c0-0.1-0.1-0.2-0.4-0.1c-0.1,0-0.7,0.4-1,0.4c-0.1,0-0.2-0.1-0.1-0.1c0.4-0.5,0.5-0.5,0.6-0.8
		c0.2-0.4-0.1-0.4-0.2-0.2c-0.2,0.2-1.1,1-1.4,1.1c-0.2,0.1-0.2,0-0.2-0.1c0.1-0.4,0-0.4,0-0.6s-0.4-0.4-0.4-0.1s0,0.5-0.2,0.7
		c-0.2,0.4-0.1,0.8-0.2,1c-1.3,1-2.4,0.6-2.4,0.6c-0.1-0.4-1.2-0.7-1.7-0.2c-1.3,1.2-0.7,4-0.7,4.1c0.6,1.6,1.6,0.7,1.7,0.6
		c0.6-0.7,1-2.2,1-2.2c0.6-0.2,1-0.4,1.3-0.7c0.6-0.4,1-0.6,1.2-0.7c0.2,0,0.7-0.2,0.8-0.1v0c-0.6,0.2-1.8,1.3-1.8,1.2
		c-0.1,0.8-2,3.4-1.3,4c0.4,0.2,0.1,0.7,0,1.2c0,0-0.4,1.7-0.7,4.8c0,0-0.2,0.8,0.1,1.1c0.1,0.1,1.3,0.4,2,0.2
		c0.2,0,0.6,0.2,0.8,0.2c0,0-0.1,1.3-0.2,1.3c-0.2,0-0.2-1-0.2-0.8S40,41.7,40,41.7c-0.4,0.1-0.8,0-1.6,0c-0.1,0-0.4,0.1-0.4,0.2
		c0,0.2,0,0.4-0.1,1.7c0,0.5-0.1,0.7-0.1,1.2c0,0.2,0,1.9-0.1,2.6c-0.1,1.4-0.2,5.3-0.2,6.5c-2.5,0.1-4.9-0.2-4-1.2
		c0.1-0.1,0.4-0.2,0.5-0.5c0.7-0.6,0.7,0,1.6-1.2c0.7-1.2,1-2.5,1.2-3.6c0.2-0.8-0.1-1.2-0.7,0c-0.1,0.1-0.2,0.6-0.6,1.1
		c-0.1,0.2-0.5,0.6-0.8,0.7c-0.7,0.2-1.2-1.1-0.2-2.2c0.4-0.5,0.8-0.4,0.8-0.1c0,0,0.1,0.2,0.4,0c0.1-0.1,0.4-0.6,0.4-0.6
		c1.1-1.6,1.4-4,1.4-4.3c0-0.2,0-0.4,0-0.6c0-1-0.6-1.3-0.8-0.7c-0.2,0.5-0.6,0.4-0.5-0.2c0.4-2.3,1.7-5.3,1.8-5.6
		c0.1-0.4-0.1-0.4-0.2-0.5c-0.1-0.1-0.2-0.1-0.1-0.5c0.2-1.2,1.4-3.5,1.4-3.5c0.2-0.2-0.1-0.4-0.2-0.1c-2.6,4.1-3.7,11.1-3.7,11.5
		c0,1.8,1.1,0.8,1.1,0.8c-0.4,1.3-1,1.9-1.3,2.4c-2.3,3.4-1.3,5-1.3,5c0.4,0.7,1,1.3-0.4,2.4c-0.5,0.4-1.9,1.4-0.2,2.5
		c0.5,0.4,0.8,0.6,1.1,0.7h-2.4c0.4,0.2,0.5,0.6,0.5,0.8c0,0.6-0.4,0.6-1.2,0.6h-8.8c-0.5,0-1,0-1.2-0.2C21,56.7,21,56.6,21,56.3
		c0-0.4,0.1-0.6,0.5-0.8h-2.6c0-0.1-0.1-0.2-0.1-0.4c-1.4-4-2.3-8.3-2.3-12.7c0-8,2.5-15.5,6.7-21c0,0,0,0,0-0.1v11.1
		c-0.1-0.1-0.5-0.1-0.7,0.1l0,0c0.2,0,0.6,0,0.8,0.2c0.2,0.2,0.2,0.5,0.2,0.7l-0.1,0.1v0.4c0.1,0.4,0.6,0.8,1.6,0.8
		c0.6,0,1.4-0.5,1.4-1.4c0,0-0.1-0.1-0.2-0.2c-0.1,0.4-0.4,0.6-0.7,0.6c-0.4,0-0.7-0.4-0.7-0.7c0-0.3,0.4-0.7,0.7-0.7
		c0.4,0,0.7,0.4,0.7,0.7c0.1,0,0.4,0,0.4-0.5c-0.4,0-0.6-0.4-0.6-0.7c0-0.4,0.4-0.7,0.7-0.7c0.4,0,0.7,0.4,0.7,0.7
		c0,0.4-0.2,0.7-0.6,0.7c0,0.5,0.2,0.5,0.4,0.5c0-0.4,0.4-0.7,0.7-0.7s0.7,0.4,0.7,0.7c0,0.3-0.4,0.7-0.7,0.7s-0.6-0.2-0.7-0.6
		c-0.1,0-0.2,0.2-0.2,0.2c0,0.8,0.8,1.4,1.4,1.4c1.2,0,1.6-1,1.6-1.1c-0.2-0.1-0.5-0.4-0.5-0.7c0-0.2,0.1-0.4,0.1-0.5
		c0.2,0,0.6,0,0.7,0.2c0.2,0.2,0.2,0.5,0.2,0.8l0,0c0.2-0.2,0.2-0.7,0-1.1c-0.1-0.2-0.4-0.2-0.6-0.2V20.2c0,0-1.1-9,12.6-9.1
		c13-0.1,12.9,9.1,12.9,9.1v12.1c-0.2,0-0.5,0-0.6,0.2c-0.2,0.2-0.2,0.7,0,1.1l0,0c0-0.2,0-0.6,0.2-0.8c0.3-0.2,0.6-0.2,0.9-0.2
		c0.1,0.1,0.2,0.4,0.2,0.5c0,0.4-0.2,0.6-0.5,0.7c0,0.1,0.4,1.1,1.6,1.1c0.6,0,1.4-0.5,1.4-1.4c0,0-0.1-0.1-0.2-0.2
		c-0.1,0.4-0.4,0.6-0.7,0.6S57,33.5,57,33.2c0-0.4,0.4-0.7,0.7-0.7s0.7,0.4,0.7,0.7c0.1,0,0.4,0,0.4-0.5c-0.4-0.1-0.6-0.4-0.6-0.7
		c0-0.3,0.4-0.7,0.7-0.7s0.7,0.4,0.7,0.7c0,0.3-0.2,0.6-0.5,0.6c0,0.5,0.2,0.5,0.4,0.5c0-0.4,0.4-0.7,0.7-0.7s0.7,0.4,0.7,0.7
		c0,0.4-0.4,0.7-0.7,0.7s-0.6-0.2-0.7-0.6c-0.1,0-0.2,0.2-0.2,0.2c0,0.8,0.8,1.4,1.4,1.4c1.2,0,1.6-1,1.6-1.1
		c-0.1,0-0.1-0.1-0.2-0.1c0-0.2,0-0.6,0.2-0.8s0.5-0.4,0.8-0.2l0,0c-0.2-0.2-0.5-0.2-0.7-0.2L62.3,21.4L62.3,21.4 M30.1,34
		c0,0,0.1,1.3,1.3,1.2c0.4,0,0.6-0.1,0.7-0.2c-0.1,0.1-0.4,0.1-0.5,0.1c-1,0-1.2-0.6-1.3-1.1c0-0.1,0-0.2,0-0.2L30.1,34z M20.3,33.2
		L20.3,33.2c0.2,0,0.5,0.1,0.7,0.4c0.2,0.2,0.2,0.5,0.2,0.8l0,0c0.2-0.2,0.2-0.7,0-1.1C21.1,32.8,20.6,32.8,20.3,33.2 M19.7,33.7
		c0.2-0.2,0.2-0.7,0-1.1c-0.2-0.2-0.7-0.2-1.1,0l0,0c0.2,0,0.6,0,0.8,0.2C19.5,33.1,19.7,33.4,19.7,33.7L19.7,33.7 M20.2,34.5
		c0.2,0.4,0.6,0.7,1.2,0.8c0.4,0,0.7-0.1,0.8-0.2c-0.1,0.1-0.4,0.1-0.6,0.1c-0.6,0-1-0.4-1.2-0.8L20.2,34.5z M31.7,56.5
		c0-0.4-0.2-0.6-0.7-0.8c-0.1-0.1-0.4-0.2-0.6-0.2l0,0l0,0l0,0h-7.8l0,0l0,0l0,0c-0.2,0.1-0.5,0.2-0.6,0.2c-0.4,0.2-0.7,0.6-0.7,0.8
		v0.1h10.3C31.7,56.6,31.7,56.6,31.7,56.5 M33.5,32.6L33.5,32.6c0.2,0,0.5,0.1,0.7,0.4c0.2,0.2,0.2,0.5,0.2,0.8l0,0
		c0.2-0.2,0.2-0.7,0-1.1C34.3,32.3,33.8,32.3,33.5,32.6 M33.7,34c-0.4,0.1-0.7,0.6-0.7,1.9c0,0.4,0,0.5,0,0.6H20.3v8.9
		c0,2.4,1.3,4.4,3.2,5.6c1,0.6,2,0.8,3.2,0.8c0.8,0,1.7-0.1,2.4-0.5c-1,0.6-2,0.8-3.2,0.8c-0.8,0-1.7-0.1-2.4-0.5v3.2h6.6v-4.1
		c1.9-1.1,3.2-3.2,3.2-5.6v-8.9l0,0c0,0,0-0.1,0-0.7C33.1,34.9,33.4,34.3,33.7,34 M33,33.2c-0.2-0.2-0.7-0.2-1.1,0l0,0
		c0.2,0,0.6,0,0.8,0.2c0.2,0.2,0.4,0.5,0.2,0.8l0,0C33.2,33.9,33.2,33.4,33,33.2 M47.3,14.3c0-0.6,0-1.3-1.1-1.3
		c0.4,0-0.8-0.1-0.8,0.5c0,0.4-0.2,0.8-0.8,0.8c0,0-1.3-0.4-0.6-0.6c0.2-0.1,0.8-0.5,0.5-1.3c-0.2-0.2-0.9-0.8-1.6-0.1
		c-0.1,0.1,0,0.6-0.4,0.6s-0.4-0.4-0.4-0.5c0-0.2-0.1-0.6-0.7-0.6c-0.6,0-0.7,0.5-0.7,0.6c0,0.4,0.1,0.4,0.2,0.6
		c0.2,0.1,0.1,0.6-0.2,0.4c-0.1-0.1-1.3-1.2-2.6-0.5c-0.6,0.4-0.5,0.8-0.1,1.1c0.1,0.1,0.2,0.2,0,0.4c-0.1,0.1-0.6,1.1,0.1,1.6
		c0.5,0.4,1.3,0.5,1.7-0.2c0.1-0.1,0.2-0.7,0.1-1.2c0-0.1,0.1-0.6,0.8-0.5c0.4,0,0.4,0.2,0.1,0.5c-0.2,0.2-1,0.7-1.1,2.2
		c0,0.4-0.1,0.7-0.6,1c-0.2,0.2-1.1,0.7-0.4,1.4c0.4,0.5,0.5,0.6-0.4,1.3c-0.1,0.1-0.5,0.4,0.1,0.4c0.4,0,1.6,0,2.5-0.1l-0.1-0.4
		c-0.8,0.1-1.9,0.1-1.9,0.1c1.2-0.8,0.6-1.9,0.6-1.9c-0.4-0.5,0-0.7,0.6-0.8c0.7-0.1,0.8,0,1.4,0.2c0,0-1-0.1-1.3,0.2v0.1
		c0,0,0,0.1,0.1,0.2c0.7-0.1,1.1-0.2,1.1-0.2s0.1,0.1,0,0.1c0,0-0.1,0.1-0.1,0c0,0-0.1,0.1-0.2,0l0.1,0.1c0,0.1,0,0.2-0.1,0.2
		c-0.1,0-0.2,0-0.2-0.1s0-0.1,0-0.2c-0.1,0-0.2,0-0.5,0.1c0,0,0,0,0,0.1v0.1c0.1,0.2,0.1,0.4,0.1,0.5s0,0.2,0.1,0.2
		c0,0,0,0.1,0.1,0.2c0.2,0.5,0.6,1.3,1.6,1.1c0,0,0.1,0,0.1,0.1c0,0,0,0.1-0.1,0.1c0,0-0.1,0-0.2,0.1c-0.2,0.1-0.4,0.1-0.6,0
		c0,0.1,0.1,0.2,0.1,0.2s-0.4,0-0.5,0.1c0,0.1,0,0,0,0.1c0,0.6,0.8,1.1,1.8,1.1s1.8-0.5,1.8-1.1v-0.1l0,0c-0.1-0.1-0.1-0.1-0.1-0.2
		c-0.5-0.7-0.4-1-0.4-1c0-0.1,0-0.1,0-0.1c0.8,0,1.6-0.1,2.4-0.2c0.1,0,0.4-0.2,0.2-0.4c-0.1-0.1-1.4-0.2-1.4-1.1
		c0-0.6,0.1-1.3-1-1.7c-0.1,0-0.1-0.1-0.1-0.2c0-0.2-0.1-0.8-0.4-1.1c-0.2-0.2-0.5-0.5-0.5-0.6h0.1c0,0,0.5,0.2,0.7,0.7
		c0.1,0.4,0.5,0.6,1.4,0.6C47.1,15.7,47.3,14.7,47.3,14.3 M64.2,33.2c-0.2,0.2-0.2,0.7,0,1.1l0,0c0-0.2,0-0.6,0.2-0.8
		c0.2-0.2,0.5-0.4,0.8-0.2l0,0C65,32.8,64.5,32.8,64.2,33.2 M64,35.1c-0.2,0-0.5,0-0.6-0.1c0.2,0.1,0.5,0.2,0.8,0.2
		c0.6,0,1-0.4,1.2-0.8l-0.2-0.1C65,34.8,64.5,35.1,64,35.1 M59.2,42.3h0.4H60v-0.6c0-0.4-0.2-0.4-0.5-0.4v-0.1h1.4v0.1
		c-0.2,0-0.6,0-0.6,0.4v0.6h0.4v0.8c0.1,0,0.1,0,0.2,0c0.5,0,0.6-0.2,0.6-0.7c0-0.2,0-0.4,0-0.5h0.2c0,0.1,0,0.2,0,0.6v-0.1
		c0,0.2-0.1,0.5-0.2,0.7c-0.1,0.1-0.4,0.2-0.7,0.2h-0.1v0.8h1.6v-3.5h-3v1.7H59.2z M62.4,38.4L62.4,38.4L62.4,38.4
		C62.4,38.2,62.4,38.2,62.4,38.4L62,38.2l0,0l0,0l0.1,0.1l0,0c0,0,0,0.1,0.1,0.1C62.3,38.4,62.4,38.4,62.4,38.4 M62.3,38.7
		c-0.2,0-0.4,0.2-0.4,0.2c0.5-0.2,0.5,0.1,0.5,0.1C62.6,39,62.7,38.7,62.3,38.7 M62.4,38.4L62.4,38.4L62.4,38.4
		C62.4,38.5,62.4,38.5,62.4,38.4c0.2,0.1,0.2,0.1,0.2,0.1l0,0h0.1l0,0l0,0L62.4,38.4C62.4,38.2,62.4,38.4,62.4,38.4 M62.7,40.6
		c-0.1,0-0.2,0-0.2,0v0.2c0.1,0,0.2-0.1,0.2-0.1C62.8,40.8,62.7,40.6,62.7,40.6 M61.8,46.4c0.2-0.5,0.4-1,0.4-1.4v-0.6h-1.4v0.1
		c0,0.1,0,0.2,0,0.4L61.8,46.4z M59.4,46.2c-0.1,0-0.2,0-0.4,0V48c0.5,0,1.1-0.2,1.4-0.5L59.4,46.2z M58.5,43.5v-0.8h-0.8v0.8H58.5
		v1h-0.8l0,0c0,0.6,0.4,1.1,0.8,1.3v-1.3h1v1.3c0.4-0.2,0.8-0.6,0.8-1.2v-0.1l0,0h-0.8v-1H58.5z M59.6,43.5h0.8v-0.8h-0.8V43.5z
		 M55.8,37.9L55.8,37.9C55.8,37.9,55.8,38,55.8,37.9C55.9,38,55.9,38,55.8,37.9L55.8,37.9H56l0,0l0,0H55.8L55.8,37.9L55.8,37.9
		L55.8,37.9C55.8,37.8,55.7,37.8,55.8,37.9C55.7,37.9,55.8,37.9,55.8,37.9L55.8,37.9z M55.9,41.7v2.4h1.4v-0.6L55.9,41.7z
		 M58.6,42.3H59v-1.8h-1.8L58.6,42.3z M55.9,44.4v0.5c0,1.7,1.3,3.1,3,3.1v-1.8c-0.1,0-0.2,0-0.4,0v0.1v-0.1c0,0.2-0.1,0.5-0.2,0.7
		c-0.1,0.1-0.4,0.2-0.7,0.2c-0.2,0-0.5,0-0.6-0.1c-0.2-0.1-0.2-0.4-0.2-0.7v-0.7c0-0.4-0.2-0.4-0.5-0.4v-0.1h1.2
		c0-0.1-0.1-0.4-0.1-0.5v-0.2H55.9z M57.5,45.2c-0.2,0-0.4,0.1-0.4,0.4v0.7c0,0.5,0.2,0.7,0.6,0.7c0.5,0,0.6-0.2,0.6-0.7
		c0,0,0,0,0-0.1C58,45.9,57.7,45.6,57.5,45.2 M55.1,34c-0.1,0.4-0.4,1.1-1.3,1.1c-0.2,0-0.4-0.1-0.5-0.1c0.2,0.1,0.5,0.2,0.7,0.2
		c1.3,0.1,1.3-1.2,1.3-1.2l-0.2-0.1C55.2,33.8,55.2,33.9,55.1,34 M52.6,33.2c-0.2,0.2-0.2,0.7,0,1.1l0,0c0-0.2,0-0.6,0.2-0.8
		c0.2-0.2,0.5-0.2,0.8-0.2l0,0C53.3,32.8,52.8,32.8,52.6,33.2 M51.3,32.8c0.2-0.2,0.5-0.4,0.8-0.2l0,0c-0.2-0.2-0.7-0.2-1.1,0
		c-0.2,0.2-0.2,0.7,0,1.1l0,0C50.9,33.4,51,33.1,51.3,32.8 M52,34c0.2,0.2,0.5,0.7,0.5,1.8c0,0.5,0,0.6,0,0.7l0,0v7.6h3.1v-1.8
		c-0.4,0.1-0.8,0.1-0.8,0.1c-0.2,0.1-0.1,0.5-0.1,0.5c-0.2,0-0.2-0.4-0.2-0.4c-0.2,0-0.2,0.4-0.2,0.4c-0.2-0.1,0-0.4-0.1-0.4
		s-0.4,0.2-0.4,0.2c0-0.2,0.2-0.5,0.2-0.5c-0.1-0.1-0.2,0-0.2,0c0.1-0.5,0.5-0.2,0.6-0.1c0.1,0,0.1,0.1,0.2,0
		c0.2-0.2,0.7-0.4,0.7-0.4c-0.2,0-0.4-0.2-0.4-0.2c0.2,0,0.4-0.1,0.4-0.1c0.1-0.2,0.4-0.4,0.5-0.5v-0.5c-0.2-0.1-0.5-0.2-0.5-0.2
		c-0.6,0.6-0.8,0.8-1,0.8c0,0-0.1,0-0.1,0.1c0,0.2-0.1,0.4-0.1,0.4s0-0.2-0.2-0.2s-0.4,0.3-0.4,0.3c-0.2-0.1,0-0.5,0-0.5
		c-0.1,0-0.4,0.1-0.4,0.1c-0.1-0.2,0.2-0.4,0.2-0.4c-0.1,0-0.4,0-0.4,0c0.1-0.2,0.5-0.2,0.6-0.1c0,0.1,0.1,0.1,0.1,0
		c0.1-0.1,0.7-0.7,0.8-0.8c-0.1,0-0.4,0-0.6-0.1c0,0,0.4,0,0.6-0.2c0,0,0-0.1-0.1-0.1c-0.5-0.4-1.1-1-1.1-1c-0.4,0-0.5-0.2-0.5-0.2
		c0.1,0,0.4,0,0.4-0.1S52.7,38,52.7,38c0.1-0.1,0.4,0,0.4,0l-0.2-0.4c0.1,0,0.4,0.2,0.4,0.2c0-0.1,0-0.4,0-0.4
		c0.4,0.2,0.2,0.7,0.2,0.7l1.1,0.8c0.2,0.1,0.5,0.1,0.7-0.1c0.2-0.2,0-0.4-0.1-0.4H55c0-0.1,0-0.2,0-0.2c0.1,0,0.4,0,0.4,0
		s0.1-0.1,0-0.1c-0.4-0.1-0.5-0.2-0.5-0.2c0-0.1,0-0.2,0-0.2c0.1,0,0.2,0,0.2,0c0.1-0.2,0.2-0.2,0.4-0.2s0.4,0.1,0.5,0.1h0.1
		c0.2-0.2,0.5,0,0.5,0c-0.1,0-0.2,0.1-0.2,0.1c0.1,0.1,0,0.5-0.1,0.5c-0.1,0.2,0.2,0.6,0.2,0.6c-0.2,0.1-0.5,0-0.5,0
		c0,0.5,0.8,0.6,0.8,0.6c0,0.2-0.6,0.2-0.6,0.2c-0.1,0-0.1,0.1,0,0.2c0.2,0.1,0.6,0.2,0.7,0.5h0.7c0-0.1,0-0.2,0-0.4
		s-0.2-0.5-0.5-0.8C57,39,57,39,57,38.9c0,0-0.4-0.6-0.1-0.8c0.2-0.4,0.6-0.2,0.6-0.2c0.2-0.2,0.6-0.1,0.7,0.2
		c0.1,0.5-0.2,0.5,0,1.2c-0.2,0-1-0.6-0.7-1.2c0,0-0.1,0-0.2,0c-0.1,0-0.2,0-0.2,0.1c-0.1,0.1,0,0.5,0.1,0.6c0,0.1,0.1,0.1,0.1,0.2
		c0.2,0.2,0.5,0.6,0.5,0.8c0,0.1,0,0.2,0,0.4h0.7v-3.7h-3.2h-3h-0.1c0-0.1,0-0.2,0-0.5C52.8,34.6,52.3,34.3,52,34 M52.6,45.4
		c0,0.4,0,0.7,0.1,1.1h3.5c-0.4-0.5-0.5-1.1-0.5-1.7v-0.5h-3.1V45.4 M53.8,49.3c0.5,0.6,1,1.2,1.7,1.6v4.2h6.8v-3.2
		c-0.7,0.4-1.6,0.5-2.4,0.5c-1.2,0-2.3-0.4-3.2-0.8c0.7,0.2,1.4,0.5,2.3,0.5v-2.8H53.8 M64.1,56.5c0-0.5-0.5-0.8-1.3-1.2H55
		c-0.8,0.2-1.3,0.7-1.3,1.2v0.1L64.1,56.5C64.1,56.6,64.1,56.6,64.1,56.5 M65.4,44.4h-3.1v0.5c0,0.4,0,0.6-0.1,0.8
		c0.2,0,0.5,0,0.6,0c0,0,0.5,0,0.7,0c0.1,0,0.2,0,0.4,0c0.2,0,0.6-0.2,0.7-0.4c0,0,0.1-0.1,0-0.1v-0.1c-0.1,0-0.4,0-0.6,0.1
		c-0.2,0.1-0.6,0.2-0.7,0.1c-0.1,0-0.1-0.1,0-0.4c0,0,0-0.2,0.4-0.2c0.1,0,0.1,0.1,0,0.2c-0.1,0-0.2,0.1-0.4,0.1c0,0.1,0,0.1,0,0.1
		s0.2,0.1,0.6-0.1c0.2-0.1,0.5-0.2,0.7-0.1c0.1,0,0.1,0.1,0.1,0.1c0,0.1-0.1,0.2-0.1,0.2c-0.1,0.2-0.5,0.4-0.7,0.4
		c0.1,0.1,0.1,0.1,0.1,0.1s0,0.1,0,0.2c0,0.4,0.5,0.1,0.5,0.1c0,0.2-0.1,0.6-0.1,0.7c0,0.1-0.2,0.1-0.4,0.1c-0.1,0,0-0.1,0-0.1h0.2
		l0.1-0.4c-0.5,0.1-0.7-0.4-0.7-0.4s-0.2,0.5-0.8,0.8c-0.1,0.1-0.4,0-0.4,0c-0.1-0.1,0.1-0.1,0.1-0.1c0.2-0.1,0.7-0.7,0.7-0.7
		s0.1-0.2-0.5,0.1c-0.5,0.2-0.7,0.2-1,0.2l0,0c-0.2,0.5-0.7,0.8-1.2,1.2c-0.5,0.2-1,0.5-1.6,0.5v3.7c1.3,0,2.5-0.5,3.6-1.2l0,0
		c1.7-1.2,2.8-3.1,2.8-5.3v-0.7H65.4z M65.4,36.6h-6.2v3.7H61c0,0,0,0,0.1-0.1c-0.1,0-0.2-0.1-0.4-0.2c0,0,0.4,0,0.6-0.2
		c0,0,0-0.1-0.1-0.1c-0.5-0.4-1.1-1-1.1-1c-0.4,0-0.5-0.2-0.5-0.2c0.1,0,0.4,0,0.4-0.1s-0.4-0.2-0.4-0.2c0.1-0.1,0.4,0,0.4,0
		l-0.2-0.6c0.1,0,0.4,0.2,0.4,0.2c0-0.1,0-0.4,0-0.4c0.4,0.2,0.2,0.7,0.2,0.7l0.8,0.6c0.2,0.1,0.5,0.2,0.6-0.1c0,0-0.2-0.1-0.4-0.2
		c0,0,0.1,0,0.4-0.1s0-0.6,0.2-0.6l1,0.2c0,0,0,0.5-0.1,0.6c0,0,0,0.4,0.2,0.4h-0.4V39c0,0.2,0.2,0.6,0.4,0.6c0.4,0.1,1,0.6,1,0.6
		c0.1,0,0.4,0,0.5-0.1s0.1-0.2,0-0.4c0-0.2-0.2-0.5-0.5-0.8C64,38.8,64,38.8,64,38.7c0,0-0.4-0.6-0.1-0.8c0.2-0.4,0.6-0.2,0.6-0.2
		c0.2-0.2,0.6-0.1,0.7,0.2c0.1,0.5-0.2,0.5,0,1.2c-0.2,0-1-0.6-0.7-1.2c0,0-0.1,0-0.2,0c-0.1,0-0.2,0-0.2,0.1
		c-0.1,0.1,0,0.5,0.1,0.6c0,0,0.1,0.1,0.1,0.2c0.2,0.2,0.5,0.6,0.5,0.8s0,0.5-0.1,0.6s-0.5,0.2-0.6,0.2c0,0.1,0,0.1,0.1,0.2
		c0.1,0.1,0.2,0.2,0.2,0.2c-0.2,0.2-0.2,0.5,0,0.6c0.1,0.1,0.4,0,0.4,0c0.1,1-1.2,1.6-1.2,1.6c0,0.1,0.1,0,0.1,0.1
		c0.1,0.2-0.1,0.4-0.1,0.4c0-0.1,0-0.4-0.1-0.4s-0.3,0.5-0.3,0.5c-0.1-0.1,0.1-0.4,0.1-0.4c-0.1,0-0.4,0.4-0.4,0.4
		c-0.1-0.1,0.1-0.4,0.1-0.4c-0.1,0-0.4,0.2-0.4,0.2c0-0.5,0.4-0.5,0.6-0.5c0.7,0,0.6-0.8,0.6-0.8c-0.3,0.5-0.5,0.3-0.5,0.3
		c0.2-0.1,0.2-0.2,0.2-0.5c-0.1-0.7-0.1-0.7,0-0.8c0-0.1-0.1,0-0.1,0c-0.1,0.4-0.7,0.8-0.7,0.8c0.1,0,0.4,0.1,0.4,0.1
		c0,0.1-0.1,0.2-0.4,0.4v1.8h3.1v-7.6H65.4z"/>
	<path class="st1" d="M97.8,20c-1.3,0.1-1.9,0.5-2,1.3c-0.1,0.7-0.1,1.6-0.1,3.4v1.1c0,2.5-0.4,4.4-1.7,5.8
		c-1.1,1.1-2.4,1.6-4.1,1.6c-1.4,0-2.8-0.4-3.7-1.1c-1.3-1.1-1.9-2.8-1.9-5.4v-4.6c0-2-0.2-2.2-1.9-2.3v-0.7h6.2v0.7
		c-1.7,0.1-1.9,0.2-1.9,2.3v4.3c0,3.5,1.3,5.5,4,5.5c3,0,4-2.4,4-6.1v-1.1c0-1.8-0.1-2.8-0.2-3.4c-0.1-0.8-0.6-1.2-2.2-1.3v-0.7h5.6
		C97.8,19.3,97.8,20,97.8,20z M112.5,21.1c0.7,0,1.3-0.6,1.3-1.3c0-0.8-0.6-1.4-1.3-1.4c-0.7,0-1.3,0.6-1.3,1.4
		C111.1,20.5,111.7,21.1,112.5,21.1z M115.4,33.1v-0.7c-1.4-0.1-1.7-0.2-1.7-1.8v-7.8c-0.8,0.2-2.9,0.7-4,0.8v0.6
		c1.2,0.2,1.7,0.2,1.7,1.7v4.6c0,1.6-0.2,1.7-1.7,1.8v0.6h5.6L115.4,33.1L115.4,33.1z M128.7,26.6c0.1-1.7,1-2.9,2.2-2.9
		c1.1,0,1.7,1.2,1.7,2.4c0,0.4-0.1,0.5-0.5,0.5H128.7z M134.4,27.3c0.4,0,0.6-0.2,0.6-0.6c0-2.5-1.7-3.8-3.8-3.8
		c-1.2,0-2.3,0.4-3.2,1.4c-1,1-1.7,2.5-1.7,4.1c0,2.6,1.8,4.8,4.7,4.8c0.8,0,2.5-0.5,4-2.3l-0.4-0.5c-0.8,0.7-1.7,1.1-2.6,1.1
		c-1.7,0-3.2-1-3.2-4L134.4,27.3z M168.5,26.6c0.1-1.7,1-2.9,2.2-2.9c1.1,0,1.7,1.2,1.7,2.4c0,0.4-0.1,0.5-0.5,0.5H168.5z
		 M174.2,27.3c0.5,0,0.6-0.2,0.6-0.6c0-2.5-1.7-3.8-3.8-3.8c-1.2,0-2.3,0.4-3.2,1.4c-1,1-1.7,2.5-1.7,4.1c0,2.6,1.8,4.8,4.7,4.8
		c0.8,0,2.5-0.5,4-2.3l-0.4-0.5c-0.8,0.7-1.7,1.1-2.6,1.1c-1.7,0-3.2-1-3.2-4L174.2,27.3z M139.8,25.3v-2.5
		c-1.2,0.5-2.4,0.7-3.6,0.8v0.6c1.2,0.2,1.3,0.4,1.3,1.7v4.8c0,1.4-0.2,1.6-1.6,1.7V33h5.8v-0.6c-1.7-0.1-1.9-0.2-1.9-1.7v-4.2
		c0.5-1.1,1.1-1.6,1.6-1.6c0.4,0,0.8,0.2,1.2,0.6c0.1,0.1,0.4,0.1,0.5,0c0.5-0.4,0.8-1,0.8-1.7c0-0.6-0.6-1.1-1.4-1.1
		C141.6,22.7,140.6,24.1,139.8,25.3L139.8,25.3z M151.3,25.7c0-0.5-0.2-2-0.5-2.5c-0.5-0.2-1.2-0.4-2.2-0.4c-2.3,0-3.7,1.4-3.7,3
		c0,1.8,1.7,2.6,2.9,3.2c1.3,0.6,1.8,1.2,1.8,1.9c0,0.8-0.6,1.4-1.4,1.4c-1.4,0-2.4-1.4-2.9-2.9l-0.6,0.1c0,1,0.2,2.5,0.4,2.9
		c0.5,0.4,1.6,0.7,2.8,0.7c1.9,0,4-1.1,4-3.2c0-1.7-1.2-2.5-3-3.2c-1.1-0.5-1.8-1-1.8-1.8s0.6-1.4,1.3-1.4c1.2,0,1.9,1,2.4,2.3
		L151.3,25.7z M155.5,21.1c0.7,0,1.3-0.6,1.3-1.3c0-0.8-0.6-1.4-1.3-1.4s-1.3,0.6-1.3,1.4C154.1,20.5,154.8,21.1,155.5,21.1z
		 M158.4,33.1v-0.7c-1.4-0.1-1.7-0.2-1.7-1.8v-7.8c-0.8,0.2-2.8,0.7-4,0.8v0.6c1.2,0.2,1.6,0.2,1.6,1.7v4.6c0,1.6-0.2,1.7-1.6,1.8
		v0.6h5.6L158.4,33.1L158.4,33.1z M178.4,21.1c0.7,0,1.3-0.6,1.3-1.3c0-0.8-0.6-1.4-1.3-1.4s-1.3,0.6-1.3,1.4
		C177,20.5,177.6,21.1,178.4,21.1z M181.4,33.1v-0.7c-1.4-0.1-1.7-0.2-1.7-1.8v-7.8c-0.8,0.2-2.8,0.7-4,0.8v0.6
		c1.2,0.2,1.6,0.2,1.6,1.7v4.6c0,1.6-0.2,1.7-1.6,1.8v0.6h5.6L181.4,33.1L181.4,33.1z M183.3,21.4v1.8h-1.2l-0.5,0.8v0.2h1.7v6.2
		c0,1.9,1.1,2.8,2.6,2.8c0.4,0,0.5-0.1,0.7-0.1c0.4-0.1,1.6-0.7,2-1.1l-0.2-0.6c-0.4,0.1-1,0.4-1.4,0.4s-1.3-0.4-1.3-2.2v-5.5h2.5
		c0.2-0.2,0.2-0.7,0.2-1.1h-2.8v-3l-0.4-0.1C185,20.6,183.9,21.2,183.3,21.4z M160.3,21.4v1.8h-1.2l-0.5,0.8v0.2h1.7v6.2
		c0,1.9,1.1,2.8,2.6,2.8c0.4,0,0.5-0.1,0.7-0.1c0.4-0.1,1.6-0.7,2-1.1l-0.2-0.6c-0.4,0.1-1,0.4-1.4,0.4s-1.3-0.4-1.3-2.2v-5.5h2.5
		c0.2-0.2,0.4-0.7,0.2-1.1h-2.8v-3l-0.4-0.1C162,20.6,160.9,21.2,160.3,21.4z M122.1,33.1c1.1-3.4,1.8-5.5,2.6-7.8
		c0.4-1.1,0.6-1.2,1.7-1.3v-0.6h-4.3V24c0.2,0,0.6,0.1,0.8,0.1c0.5,0.1,0.6,0.5,0.4,1.1l-1.9,6.5h-0.1l0,0l-1.8-6.5
		c-0.1-0.7-0.1-1,0.1-1.1s0.7-0.2,1-0.2v-0.6h-5.3v0.6c1.3,0.1,1.1,0.2,1.6,1.4l2.5,7.7L122.1,33.1L122.1,33.1L122.1,33.1z
		 M97.5,24.2c1.2,0.2,1.7,0.4,1.7,1.7v4.7c0,1.4-0.2,1.6-1.7,1.8V33h5.4v-0.6c-1.1-0.1-1.3-0.2-1.3-1.7v-5.4c0.6-0.5,1.4-1,1.9-1
		c1.1,0,2,0.6,2,2.3v3.8c0,1.6-0.1,1.7-1.3,1.8v0.6h5.2v-0.5c-1.2-0.1-1.6-0.2-1.6-1.7v-4.3c0-2.3-1.1-3.6-2.9-3.6
		c-0.6,0-1.2,0.2-1.4,0.4l-1.9,1.3v-1.7c-0.8,0.2-2.9,0.7-4,0.8v0.6h-0.1V24.2z M108,43.8c0.7,0,1.3-0.6,1.3-1.3
		c0-0.8-0.6-1.4-1.3-1.4s-1.3,0.6-1.3,1.4C106.6,43,107.2,43.8,108,43.8z M111,55.7v-0.6c-1.4-0.1-1.7-0.2-1.7-1.8v-7.8
		c-0.8,0.2-2.8,0.7-4,0.8v0.6c1.2,0.2,1.6,0.2,1.6,1.7v4.6c0,1.6-0.2,1.7-1.6,1.8v0.6h5.6L111,55.7L111,55.7z M98,49.2
		c0.1-1.7,1-2.9,2.2-2.9c1.1,0,1.7,1.2,1.7,2.4c0,0.4-0.1,0.5-0.5,0.5H98z M103.6,50c0.4,0,0.6-0.2,0.6-0.6c0-2.5-1.7-3.8-3.8-3.8
		c-1.2,0-2.3,0.4-3.2,1.4c-1,1-1.7,2.5-1.7,4.1c0,2.6,1.8,4.8,4.7,4.8c0.8,0,2.5-0.5,4-2.3l-0.4-0.5c-0.8,0.7-1.7,1.1-2.6,1.1
		c-1.7,0-3.2-1-3.2-4L103.6,50z M126.1,49.2c0.1-1.7,1-2.9,2.2-2.9c1.1,0,1.7,1.2,1.7,2.4c0,0.4-0.1,0.5-0.5,0.5H126.1z M131.9,50
		c0.4,0,0.6-0.2,0.6-0.6c0-2.5-1.7-3.8-3.8-3.8c-1.2,0-2.3,0.4-3.2,1.4c-1,1-1.7,2.5-1.7,4.1c0,2.6,1.8,4.8,4.7,4.8
		c0.8,0,2.5-0.5,4-2.3l-0.4-0.5c-0.8,0.7-1.7,1.1-2.6,1.1c-1.7,0-3.2-1-3.2-4L131.9,50z M93.7,51.7c-0.4,1.1-0.8,1.7-1.3,2.2
		c-0.6,0.6-1.3,0.8-2.3,0.8c-0.8,0-1.3,0-1.8-0.2s-0.5-0.6-0.5-1.8v-7.8c0-1.9,0.2-2,2-2.2V42h-6.5v0.7c1.8,0.1,2,0.2,2,2.2v7.8
		c0,1.9-0.2,2-2.3,2.2v0.7h10.6c0.2-0.6,0.7-3,0.8-3.8L93.7,51.7z M118.9,53.9c-0.5,0.4-1.1,0.6-1.7,0.6c-1.2,0-2.9-1.2-2.9-4
		c0-3.4,1.8-4.1,2.6-4.1c1,0,1.6,0.2,2,1V53.9L118.9,53.9z M123.1,54.5l-0.7-0.1c-0.8-0.1-1.1-0.2-1.1-1.4V40.3
		c-1,0.4-2.8,0.6-4.1,0.8v0.6c1.6,0.1,1.8,0.2,1.8,1.6v2.4c-0.5-0.1-1.2-0.2-1.4-0.2c-3.7,0-5.6,2.5-5.6,5.6c0,3.2,2.3,4.7,4.2,4.7
		c0.2,0,1,0,1.7-0.4l1.3-0.8v1.3c0.8-0.2,2.9-0.7,4.1-0.8v-0.6C123.3,54.5,123.1,54.5,123.1,54.5z M133.4,46.9
		c1.2,0.2,1.6,0.4,1.6,1.7v4.7c0,1.4-0.2,1.6-1.7,1.8v0.6h5.3v-0.6c-1.1-0.1-1.3-0.2-1.3-1.7V48c0.6-0.5,1.4-1,1.9-1
		c1.1,0,2,0.6,2,2.3v3.8c0,1.6-0.1,1.7-1.3,1.8v0.6h5v-0.6c-1.2-0.1-1.4-0.2-1.4-1.7v-4.3c0-2.3-1.1-3.6-2.9-3.6
		c-0.6,0-1.2,0.2-1.4,0.4l-1.8,1.3v-1.7c-0.8,0.2-2.8,0.7-4,0.8C133.4,46.1,133.4,46.9,133.4,46.9z"/>
	<g>
		<path class="st1" d="M90.1,72.6c-0.1,0.5-0.4,1.7-0.5,2h-6v-0.4c1.1-0.1,1.2-0.1,1.2-1.3v-5.3c0-1.1-0.1-1.2-1.2-1.3v-0.4h3.6v0.4
			c-1.1,0.1-1.2,0.1-1.2,1.3v5.2c0,0.7,0.1,1,0.4,1.1c0.2,0.1,0.7,0.1,1.2,0.1c0.7,0,1.2-0.1,1.4-0.4c0.2-0.2,0.5-0.7,0.7-1.3
			L90.1,72.6z"/>
		<path class="st1" d="M95.7,73.6c-0.8,1.1-1.8,1.3-2.2,1.3c-1.7,0-2.6-1.3-2.6-2.8c0-1,0.4-1.8,0.8-2.3c0.6-0.6,1.3-1,1.9-1
			c1.1,0,2,1,2,2c0,0.2,0,0.4-0.4,0.5c-0.2,0-1.9,0.1-3.4,0.2c0,1.7,1,2.5,1.9,2.5c0.5,0,1.1-0.2,1.6-0.6L95.7,73.6z M92.1,70.8
			c0.7,0,1.4,0,2.2,0c0.2,0,0.4-0.1,0.4-0.2c0-0.7-0.4-1.3-1.1-1.3C92.8,69.2,92.2,69.7,92.1,70.8z"/>
		<path class="st1" d="M96.4,74.6v-0.4c0.8-0.1,1-0.1,1-1.1v-2.8c0-0.8,0-0.8-0.8-1v-0.4c0.7-0.1,1.3-0.2,1.9-0.5V73
			c0,0.8,0.1,1,1,1.1v0.5C99.4,74.6,96.4,74.6,96.4,74.6z M97.2,66.9c0-0.5,0.4-0.7,0.7-0.7c0.4,0,0.7,0.4,0.7,0.7
			c0,0.4-0.4,0.7-0.7,0.7C97.5,67.5,97.2,67.3,97.2,66.9z"/>
		<path class="st1" d="M106.5,74.3c-0.4,0-1.3,0.2-2.2,0.5V74l-0.8,0.5c-0.5,0.2-0.8,0.4-1,0.4c-1.1,0-2.5-1-2.5-2.9
			c0-1.8,1.6-3.2,3.5-3.2c0.1,0,0.5,0,0.8,0.1v-1.8c0-0.8-0.1-0.8-1-1v-0.5c0.7-0.1,1.7-0.2,2.2-0.5v7.8c0,0.7,0.1,0.7,0.6,0.8h0.4
			V74.3z M104.4,69.9c-0.4-0.5-0.8-0.7-1.3-0.7c-0.6,0-1.7,0.5-1.7,2.4c0,1.6,1,2.3,1.8,2.3c0.5,0,0.8-0.2,1.2-0.4V69.9z"/>
		<path class="st1" d="M111.9,73.6c-0.8,1.1-1.8,1.3-2.2,1.3c-1.7,0-2.6-1.3-2.6-2.8c0-1,0.4-1.8,0.8-2.3c0.6-0.6,1.3-1,1.9-1
			c1.1,0,2,1,2,2c0,0.2,0,0.4-0.4,0.5c-0.2,0-1.9,0.1-3.4,0.2c0,1.7,1,2.5,1.9,2.5c0.5,0,1.1-0.2,1.6-0.6L111.9,73.6z M108.3,70.8
			c0.7,0,1.4,0,2.2,0c0.2,0,0.4-0.1,0.4-0.2c0-0.7-0.4-1.3-1.1-1.3C109,69.2,108.6,69.7,108.3,70.8z"/>
		<path class="st1" d="M116.5,74.6v-0.4c0.7-0.1,0.8-0.1,0.8-1.1v-2.2c0-1-0.4-1.4-1.2-1.4c-0.5,0-1,0.4-1.3,0.6v3.1
			c0,0.8,0.1,1,0.8,1v0.4h-3v-0.4c0.8-0.1,1-0.1,1-1.1v-2.8c0-0.8-0.1-0.8-0.7-1v-0.4c0.6-0.1,1.3-0.2,1.9-0.6v1.3
			c0.2-0.2,0.6-0.4,0.8-0.6c0.4-0.2,0.7-0.4,1.1-0.4c1.1,0,1.7,0.7,1.7,2v2.5c0,0.8,0.1,1,0.8,1v0.4L116.5,74.6L116.5,74.6
			L116.5,74.6z"/>
		<path class="st1" d="M123,74.6v-0.4c1.1-0.1,1.2-0.1,1.2-1.3v-5.3c0-1.1-0.1-1.2-1.2-1.3v-0.4h3.6v0.4c-1.1,0.1-1.2,0.1-1.2,1.3
			v5.3c0,1.1,0.1,1.2,1.2,1.3v0.4H123z"/>
		<path class="st1" d="M131,74.6v-0.4c0.7-0.1,0.8-0.1,0.8-1.1v-2.2c0-1-0.4-1.4-1.2-1.4c-0.5,0-1,0.4-1.3,0.6v3.1
			c0,0.8,0.1,1,0.8,1v0.4h-2.8v-0.4c0.8-0.1,1-0.1,1-1.1v-2.8c0-0.8-0.1-0.8-0.7-1v-0.4c0.6-0.1,1.3-0.2,1.9-0.6v1.3
			c0.2-0.2,0.6-0.4,0.8-0.6c0.4-0.2,0.7-0.4,1.1-0.4c1.1,0,1.7,0.7,1.7,2v2.5c0,0.8,0.1,1,0.8,1v0.4L131,74.6
			C131,74.5,131,74.6,131,74.6z"/>
		<path class="st1" d="M138,70.4c-0.2-0.7-0.7-1.3-1.3-1.3c-0.5,0-0.8,0.4-0.8,0.8c0,0.6,0.5,0.8,1.1,1.1c1,0.5,1.7,0.8,1.7,1.8
			c0,1.2-1.1,1.8-2.2,1.8c-0.7,0-1.3-0.2-1.6-0.5c-0.1-0.2-0.2-1.1-0.2-1.6h0.4c0.2,0.8,0.8,1.7,1.7,1.7c0.5,0,0.8-0.4,0.8-0.8
			c0-0.6-0.4-0.8-1.1-1.2s-1.7-0.8-1.7-1.8s0.8-1.8,2-1.8c0.6,0,1,0.1,1.2,0.2c0.1,0.2,0.2,1.1,0.2,1.4L138,70.4z"/>
		<path class="st1" d="M142,74.6c-0.2,0.1-0.5,0.1-0.6,0.1c-0.8,0-1.3-0.5-1.3-1.6v-3.8h-0.8v-0.1l0.4-0.4h0.6v-1l1-0.8h0.1v1.8h1.4
			c0.1,0.1,0.1,0.5-0.1,0.6h-1.4v3.4c0,1.1,0.5,1.2,0.7,1.2c0.4,0,0.6-0.1,0.7-0.2l0.1,0.4L142,74.6z"/>
		<path class="st1" d="M143.5,74.6v-0.4c0.8-0.1,1-0.1,1-1.1v-2.8c0-0.8,0-0.8-0.8-1v-0.4c0.7-0.1,1.3-0.2,1.9-0.5V73
			c0,0.8,0.1,1,1,1.1v0.5C146.5,74.6,143.5,74.6,143.5,74.6z M144.1,66.9c0-0.5,0.4-0.7,0.7-0.7s0.7,0.4,0.7,0.7
			c0,0.4-0.4,0.7-0.7,0.7C144.5,67.5,144.1,67.3,144.1,66.9z"/>
		<path class="st1" d="M149.6,74.6c-0.2,0.1-0.5,0.1-0.6,0.1c-0.8,0-1.3-0.5-1.3-1.6v-3.8h-0.8v-0.1l0.4-0.4h0.6v-1l1-0.8h0.1v1.8
			h1.4c0.1,0.1,0.1,0.5-0.1,0.6h-1.4v3.4c0,1.1,0.5,1.2,0.7,1.2c0.4,0,0.6-0.1,0.7-0.2l0.1,0.4L149.6,74.6z"/>
		<path class="st1" d="M157.3,74.3c-0.6,0.1-1.3,0.2-2,0.5l-0.1-0.1v-1c-0.2,0.2-0.6,0.5-1,0.6c-0.4,0.2-0.7,0.4-1.1,0.4
			c-1,0-1.7-0.6-1.7-1.9v-2.6c0-0.7,0-0.7-0.8-1v-0.4c0.7,0,1.3-0.1,2-0.2c0,0.5,0,1.1,0,1.9v1.8c0,1.1,0.6,1.4,1.1,1.4
			s1-0.2,1.3-0.6V70c0-0.7-0.1-0.8-1-1v-0.4c0.7,0,1.4-0.1,2.2-0.2v4.8c0,0.7,0.1,0.7,0.6,0.8h0.4v0.2L157.3,74.3L157.3,74.3z"/>
		<path class="st1" d="M160.5,74.6c-0.2,0.1-0.5,0.1-0.6,0.1c-0.8,0-1.3-0.5-1.3-1.6v-3.8h-0.8v-0.1l0.4-0.4h0.6v-1l1-0.8h0.1v1.8
			h1.4c0.1,0.1,0.1,0.5-0.1,0.6h-1.4v3.4c0,1.1,0.5,1.2,0.7,1.2c0.4,0,0.6-0.1,0.7-0.2l0.1,0.4L160.5,74.6z"/>
		<path class="st1" d="M166.7,73.6c-0.8,1.1-1.8,1.3-2.2,1.3c-1.7,0-2.6-1.3-2.6-2.8c0-1,0.4-1.8,0.8-2.3c0.6-0.6,1.3-1,1.9-1
			c1.1,0,2,1,2,2c0,0.2,0,0.4-0.4,0.5c-0.2,0-1.9,0.1-3.4,0.2c0,1.7,1,2.5,1.9,2.5c0.5,0,1.1-0.2,1.6-0.6L166.7,73.6z M163.1,70.8
			c0.7,0,1.4,0,2.2,0c0.2,0,0.4-0.1,0.4-0.2c0-0.7-0.4-1.3-1.1-1.3C163.8,69.2,163.3,69.7,163.1,70.8z"/>
		<path class="st1" d="M176.3,71.6c0,2.2-1.6,3.1-2.9,3.1c-1.9,0-2.9-1.4-2.9-2.9c0-2.2,1.7-3.2,3-3.2
			C175.1,68.7,176.3,70.1,176.3,71.6z M171.9,71.5c0,1.7,0.7,2.9,1.7,2.9c0.7,0,1.4-0.6,1.4-2.4c0-1.6-0.6-2.8-1.7-2.8
			C172.6,69.1,171.9,69.9,171.9,71.5z"/>
		<path class="st1" d="M178,68.9v-0.3c0-0.4,0-0.7,0.1-1.1c0.1-0.4,0.4-1,1.1-1.6c0.5-0.4,1-0.6,1.4-0.7c0.5,0,0.8,0.2,1.1,0.5
			c0.1,0.1,0.1,0.4,0.1,0.5s-0.1,0.2-0.2,0.4c-0.1,0.1-0.2,0.1-0.4,0c-0.2-0.2-0.7-0.5-1.1-0.5c-0.4,0-0.5,0.1-0.6,0.4
			c-0.1,0.2-0.2,0.8-0.2,2V69h1.6c0.1,0.1,0,0.5-0.1,0.6h-1.5v3.6c0,1,0.1,1,1.1,1.1v0.3h-3.2v-0.4c0.8-0.1,1-0.1,1-1v-3.8h-1v-0.1
			l0.4-0.4h0.5v0H178z"/>
		<path class="st1" d="M88.6,90.5v-0.4c0.8-0.1,1-0.2,0.7-0.7c-0.1-0.5-0.4-1.2-0.7-1.9h-2.8c-0.2,0.6-0.4,1.1-0.6,1.7
			c-0.2,0.8-0.1,1,0.8,1.1v0.3h-2.9v-0.4c0.8-0.1,1.1-0.2,1.4-1.3l2.8-6.8l0.5-0.1c0.8,2.3,1.7,4.8,2.5,7.1c0.4,1.1,0.6,1.3,1.4,1.3
			v0.4h-3.2L88.6,90.5L88.6,90.5z M87.4,83.5L87.4,83.5c-0.5,1.1-0.8,2.2-1.2,3.2h2.4L87.4,83.5z"/>
		<path class="st1" d="M98.8,90.1c-0.4,0-1.3,0.2-2.2,0.5v-0.8l-0.8,0.5c-0.5,0.2-0.8,0.4-1,0.4c-1.1,0-2.5-1-2.5-2.9
			c0-1.8,1.6-3.2,3.5-3.2c0.1,0,0.5,0,0.8,0.1v-1.8c0-0.8-0.1-0.8-1-1v-0.3c0.7-0.1,1.7-0.2,2.2-0.5v7.8c0,0.7,0.1,0.7,0.6,0.8h0.4
			V90.1z M96.7,85.8c-0.4-0.5-0.8-0.7-1.3-0.7c-0.6,0-1.7,0.5-1.7,2.4c0,1.6,1,2.3,1.8,2.3c0.5,0,0.8-0.2,1.2-0.4V85.8z"/>
		<path class="st1" d="M105.2,85.1c-0.7,0.1-0.8,0.2-1.2,1c-0.5,1-1.1,2.6-1.9,4.6h-0.4c-0.6-1.6-1.2-3.1-1.8-4.7
			c-0.4-0.7-0.4-0.8-1.1-1v-0.4h2.8V85c-0.7,0.1-0.7,0.2-0.5,0.7c0.4,1,0.8,2.3,1.2,3.1c0.5-1,0.8-2.2,1.1-3.1
			c0.2-0.6,0.1-0.7-0.6-0.8v-0.4h2.4V85.1z"/>
		<path class="st1" d="M109.5,90.6c-0.2,0-0.5-0.1-0.6-0.2s-0.2-0.4-0.4-0.6c-0.5,0.4-1.2,0.8-1.6,0.8c-1,0-1.7-0.8-1.7-1.7
			c0-0.7,0.4-1.1,1.1-1.3c0.8-0.2,1.8-0.6,2-0.8v-0.2c0-1-0.5-1.4-1.1-1.4c-0.2,0-0.5,0.1-0.6,0.2c-0.1,0.2-0.2,0.5-0.4,0.8
			c-0.1,0.2-0.2,0.4-0.5,0.4c-0.2,0-0.6-0.2-0.6-0.6c0-0.2,0.1-0.4,0.5-0.6s1.3-0.7,2-1c0.4,0,0.8,0.1,1.1,0.4
			c0.5,0.4,0.6,1,0.6,1.7v2.4c0,0.6,0.2,0.7,0.5,0.7c0.1,0,0.4-0.1,0.5-0.1l0.1,0.4L109.5,90.6z M108.6,87.4
			c-0.2,0.1-0.8,0.4-1.1,0.5c-0.5,0.2-0.7,0.5-0.7,1c0,0.7,0.5,1,1,1c0.4,0,0.7-0.2,1-0.5v-1.9L108.6,87.4L108.6,87.4z"/>
		<path class="st1" d="M114.9,90.5v-0.4c0.7-0.1,0.8-0.1,0.8-1.1v-2.2c0-1-0.4-1.4-1.2-1.4c-0.5,0-1,0.4-1.3,0.6v3.1
			c0,0.8,0.1,1,0.8,1v0.4h-2.9v-0.4c0.8-0.1,1-0.1,1-1.1v-2.6c0-0.8-0.1-0.8-0.7-1V85c0.6-0.1,1.3-0.2,1.9-0.6v1.2
			c0.2-0.2,0.6-0.4,0.8-0.6c0.4-0.2,0.7-0.4,1.1-0.4c1.1,0,1.7,0.7,1.7,2v2.5c0,0.8,0.1,1,0.8,1v0.4
			C117.8,90.5,114.9,90.5,114.9,90.5z"/>
		<path class="st1" d="M123.3,89.3c-0.6,0.7-1.4,1.3-2.3,1.3c-1.7,0-2.6-1.3-2.6-2.8c0-1,0.5-1.9,1.3-2.5c0.7-0.6,1.6-0.7,2-0.7
			c0.5,0,1,0.1,1.2,0.4c0.2,0.1,0.2,0.2,0.2,0.4c0,0.4-0.4,0.6-0.5,0.6s-0.1,0-0.2-0.1c-0.5-0.4-0.8-0.6-1.3-0.6
			c-0.8,0-1.6,0.7-1.6,2c0,1.8,1.2,2.4,1.9,2.4c0.6,0,1-0.1,1.6-0.7L123.3,89.3z"/>
		<path class="st1" d="M128.9,89.4c-0.8,1.1-1.8,1.3-2.2,1.3c-1.7,0-2.6-1.3-2.6-2.8c0-1,0.4-1.8,0.8-2.3c0.6-0.6,1.3-1,1.9-1
			c1.1,0,2,1,2,2c0,0.2,0,0.4-0.4,0.5c-0.2,0-1.9,0.1-3.4,0.2c0,1.7,1,2.5,1.9,2.5c0.5,0,1.1-0.2,1.6-0.6L128.9,89.4z M125.3,86.6
			c0.7,0,1.4,0,2.2,0c0.2,0,0.4-0.1,0.4-0.2c0-0.7-0.4-1.3-1.1-1.3C126,85.1,125.4,85.6,125.3,86.6z"/>
		<path class="st1" d="M136.2,90.1c-0.4,0-1.3,0.2-2.2,0.5v-0.8l-0.8,0.5c-0.5,0.2-0.8,0.4-1,0.4c-1.1,0-2.5-1-2.5-2.9
			c0-1.8,1.6-3.2,3.5-3.2c0.1,0,0.5,0,0.8,0.1v-1.8c0-0.8-0.1-0.8-1-1v-0.3c0.7-0.1,1.7-0.2,2.2-0.5v7.8c0,0.7,0.1,0.7,0.6,0.8h0.4
			V90.1z M134,85.8c-0.4-0.5-0.8-0.7-1.3-0.7c-0.6,0-1.7,0.5-1.7,2.4c0,1.6,1,2.3,1.8,2.3c0.5,0,0.8-0.2,1.2-0.4V85.8z"/>
		<path class="st1" d="M147.8,88.3c-0.2,0.6-0.5,1.6-0.7,2c-0.4,0.1-1.4,0.4-2.4,0.4c-3.4,0-4.8-2.3-4.8-4.3c0-2.8,2.2-4.6,5.2-4.6
			c1.1,0,2,0.2,2.3,0.4c0.1,0.7,0.2,1.3,0.2,2l-0.4,0.1c-0.4-1.4-1.2-1.9-2.5-1.9c-2.2,0-3.4,1.8-3.4,3.8c0,2.4,1.4,4.1,3.4,4.1
			c1.3,0,2-0.7,2.6-2H147.8z"/>
		<path class="st1" d="M154.6,87.5c0,2.2-1.6,3.1-2.9,3.1c-1.9,0-2.9-1.4-2.9-2.9c0-2.2,1.7-3.2,3-3.2
			C153.4,84.6,154.6,85.9,154.6,87.5z M150.1,87.4c0,1.7,0.7,2.9,1.7,2.9c0.7,0,1.4-0.6,1.4-2.4c0-1.6-0.6-2.8-1.7-2.8
			C150.7,85,150.1,85.8,150.1,87.4z"/>
		<path class="st1" d="M162.6,90.5v-0.4c0.7-0.1,0.8-0.1,0.8-1.1v-2.2c0-1-0.4-1.4-1.1-1.4c-0.5,0-1,0.2-1.4,0.6c0,0.1,0,0.4,0,0.6
			v2.6c0,0.8,0.1,0.8,0.8,1v0.4h-2.9v-0.4c0.7-0.1,0.8-0.1,0.8-1v-2.3c0-1-0.4-1.4-1.1-1.4c-0.5,0-1,0.4-1.3,0.6v3.1
			c0,0.8,0.1,1,0.7,1v0.4H155v-0.4c0.8-0.1,1-0.1,1-1v-2.9c0-0.8,0-0.8-0.7-1v-0.4c0.6-0.1,1.3-0.2,1.9-0.6v1.3
			c0.2-0.2,0.6-0.5,1-0.6c0.4-0.2,0.7-0.4,1.1-0.4c0.6,0,1.2,0.4,1.4,1.1c0.4-0.2,0.7-0.5,1.1-0.7c0.2-0.2,0.6-0.4,1-0.4
			c1.1,0,1.7,0.7,1.7,2v2.5c0,0.8,0.1,1,0.8,1v0.4C165.4,90.5,162.6,90.5,162.6,90.5z"/>
		<path class="st1" d="M169.1,84.7c0.2-0.1,0.5-0.2,0.7-0.2c1.4,0,2.4,1.2,2.4,2.5c0,2-1.6,3.2-3.2,3.6c-0.4,0-0.7-0.1-0.8-0.2v1.7
			c0,1,0.1,1.1,1.1,1.1v0.4h-3.2v-0.4c0.8-0.1,1-0.1,1-1v-6c0-0.8-0.1-0.8-0.8-1v-0.4c0.6-0.1,1.3-0.4,2-0.6v1.1L169.1,84.7z
			 M167.9,89.5c0.2,0.2,0.7,0.5,1.2,0.5c1.1,0,1.8-1,1.8-2.4s-0.8-2.2-1.7-2.2c-0.4,0-0.8,0.2-1.2,0.5v3.6H167.9z"/>
		<path class="st1" d="M179.3,90.1c-0.6,0.1-1.3,0.2-2,0.5l-0.1-0.1v-1c-0.2,0.2-0.6,0.5-1,0.6c-0.4,0.2-0.7,0.4-1.1,0.4
			c-1,0-1.7-0.6-1.7-1.9V86c0-0.7,0-0.7-0.8-1v-0.4c0.7,0,1.3-0.1,2-0.2c0,0.5,0,1.1,0,1.9v1.8c0,1.1,0.6,1.4,1.1,1.4s1-0.2,1.3-0.6
			v-3.1c0-0.7-0.1-0.8-1-1v-0.4c0.7,0,1.4-0.1,2.2-0.2v4.4c0,0.7,0.1,0.7,0.6,0.8h0.4V90L179.3,90.1L179.3,90.1z"/>
		<path class="st1" d="M182.4,90.5c-0.2,0.1-0.5,0.1-0.6,0.1c-0.8,0-1.3-0.5-1.3-1.6v-3.8h-0.8v-0.1l0.4-0.4h0.6v-1l1-0.8h0.1v1.8
			h1.4c0.1,0.1,0.1,0.5-0.1,0.6h-1.4v3.4c0,1.1,0.5,1.2,0.7,1.2c0.4,0,0.6-0.1,0.7-0.2l0.1,0.4L182.4,90.5z"/>
		<path class="st1" d="M188.7,89.4c-0.8,1.1-1.8,1.3-2.2,1.3c-1.7,0-2.6-1.3-2.6-2.8c0-1,0.4-1.8,0.8-2.3c0.6-0.6,1.3-1,1.9-1
			c1.1,0,2,1,2,2c0,0.2,0,0.4-0.4,0.5c-0.2,0-1.9,0.1-3.4,0.2c0,1.7,1,2.5,1.9,2.5c0.5,0,1.1-0.2,1.6-0.6L188.7,89.4z M185.1,86.6
			c0.7,0,1.4,0,2.2,0c0.2,0,0.4-0.1,0.4-0.2c0-0.7-0.4-1.3-1.1-1.3C185.8,85.1,185.2,85.6,185.1,86.6z"/>
		<path class="st1" d="M191.5,85.9c0.4-0.7,1-1.4,1.6-1.4c0.5,0,0.8,0.4,0.8,0.7c0,0.4-0.2,0.6-0.5,0.7c-0.1,0.1-0.2,0-0.4,0
			c-0.2-0.2-0.4-0.2-0.6-0.2c-0.4,0-0.7,0.4-1,1.1v2.4c0,0.8,0.1,1,1.1,1v0.4h-3.1v-0.4c0.8-0.1,0.8-0.1,0.8-1v-2.8
			c0-0.8-0.1-0.8-0.8-1V85c0.7-0.1,1.3-0.2,1.9-0.5L191.5,85.9L191.5,85.9z"/>
		<path class="st1" d="M202,84c-0.2-0.8-0.6-1.8-1.8-1.8c-1,0-1.4,0.7-1.4,1.4c0,1,0.6,1.3,1.7,1.9s2.3,1.2,2.3,2.6s-1.2,2.5-3,2.5
			c-0.5,0-1-0.1-1.3-0.2s-0.6-0.2-0.7-0.2c-0.1-0.2-0.2-1.4-0.4-2l0.4-0.1c0.2,0.8,0.8,2.2,2.2,2.2c1,0,1.6-0.6,1.6-1.6
			s-0.7-1.4-1.7-1.9s-2.2-1.2-2.2-2.6c0-1.3,1.1-2.4,2.8-2.4c0.7,0,1.2,0.1,1.7,0.4c0,0.5,0.1,1,0.2,1.8L202,84z"/>
		<path class="st1" d="M208.9,89.3c-0.6,0.7-1.4,1.3-2.3,1.3c-1.7,0-2.6-1.3-2.6-2.8c0-1,0.5-1.9,1.3-2.5c0.7-0.6,1.6-0.7,2-0.7
			s1,0.1,1.2,0.4c0.2,0.1,0.2,0.2,0.2,0.4c0,0.4-0.4,0.6-0.5,0.6s-0.1,0-0.2-0.1c-0.5-0.4-0.8-0.6-1.3-0.6c-0.8,0-1.6,0.7-1.6,2
			c0,1.8,1.2,2.4,1.9,2.4c0.6,0,1-0.1,1.6-0.7L208.9,89.3z"/>
		<path class="st1" d="M209.5,90.5v-0.4c0.8-0.1,1-0.1,1-1.1v-2.6c0-0.8,0-0.8-0.8-1V85c0.7-0.1,1.3-0.2,1.9-0.5v4.6
			c0,0.8,0.1,1,1,1.1v0.4L209.5,90.5L209.5,90.5L209.5,90.5z M210.2,82.8c0-0.5,0.4-0.7,0.7-0.7s0.7,0.4,0.7,0.7
			c0,0.4-0.4,0.7-0.7,0.7C210.6,83.4,210.2,83.2,210.2,82.8z"/>
		<path class="st1" d="M218,89.4c-0.8,1.1-1.8,1.3-2.2,1.3c-1.7,0-2.6-1.3-2.6-2.8c0-1,0.4-1.8,0.8-2.3c0.6-0.6,1.3-1,1.9-1
			c1.1,0,2,1,2,2c0,0.2,0,0.4-0.4,0.5c-0.2,0-1.9,0.1-3.4,0.2c0,1.7,1,2.5,1.9,2.5c0.5,0,1.1-0.2,1.6-0.6L218,89.4z M214.4,86.6
			c0.7,0,1.4,0,2.2,0c0.2,0,0.4-0.1,0.4-0.2c0-0.7-0.4-1.3-1.1-1.3C215.1,85.1,214.5,85.6,214.4,86.6z"/>
		<path class="st1" d="M222.4,90.5v-0.4c0.7-0.1,0.8-0.1,0.8-1.1v-2.2c0-1-0.4-1.4-1.2-1.4c-0.5,0-1,0.4-1.3,0.6v3.1
			c0,0.8,0.1,1,0.8,1v0.4h-2.9v-0.4c0.8-0.1,1-0.1,1-1.1v-2.6c0-0.8-0.1-0.8-0.7-1V85c0.6-0.1,1.3-0.2,1.9-0.6v1.2
			c0.2-0.2,0.6-0.4,0.8-0.6c0.4-0.2,0.7-0.4,1.1-0.4c1.1,0,1.7,0.7,1.7,2v2.5c0,0.8,0.1,1,0.8,1v0.4
			C225.3,90.5,222.4,90.5,222.4,90.5z"/>
		<path class="st1" d="M231,89.3c-0.6,0.7-1.4,1.3-2.3,1.3c-1.7,0-2.6-1.3-2.6-2.8c0-1,0.5-1.9,1.3-2.5c0.7-0.6,1.6-0.7,2-0.7
			s1,0.1,1.2,0.4c0.2,0.1,0.2,0.2,0.2,0.4c0,0.4-0.4,0.6-0.5,0.6s-0.1,0-0.2-0.1c-0.5-0.4-0.8-0.6-1.3-0.6c-0.8,0-1.6,0.7-1.6,2
			c0,1.8,1.2,2.4,1.9,2.4c0.6,0,1-0.1,1.6-0.7L231,89.3z"/>
		<path class="st1" d="M236.4,89.4c-0.8,1.1-1.8,1.3-2.2,1.3c-1.7,0-2.6-1.3-2.6-2.8c0-1,0.4-1.8,0.8-2.3c0.6-0.6,1.3-1,1.9-1
			c1.1,0,2,1,2,2c0,0.2,0,0.4-0.4,0.5c-0.2,0-1.9,0.1-3.4,0.2c0,1.7,1,2.5,1.9,2.5c0.5,0,1.1-0.2,1.6-0.6L236.4,89.4z M232.8,86.6
			c0.7,0,1.4,0,2.2,0c0.2,0,0.4-0.1,0.4-0.2c0-0.7-0.4-1.3-1.1-1.3C233.6,85.1,233,85.6,232.8,86.6z"/>
	</g>
</g>
</svg>
