<?xml version="1.0" encoding="utf-8"?>
<!-- Generator: Adobe Illustrator 22.0.1, SVG Export Plug-In . SVG Version: 6.00 Build 0)  -->
<svg version="1.1" id="Laag_1" xmlns="http://www.w3.org/2000/svg" xmlns:xlink="http://www.w3.org/1999/xlink" x="0px" y="0px"
	 viewBox="0 0 231.8 105" style="enable-background:new 0 0 231.8 105;" xml:space="preserve">
<style type="text/css">
	.st0{fill:#FFFFFF;}
	.st1{fill:#001158;}
</style>
<title>UL - Geesteswetenschappen - RGB-Kleur</title>
<g>
	<path class="st0" d="M47.9,21.3c-14.7,0-26.7,14-26.7,31.1c0,17.1,12,31.1,26.7,31.1c14.7,0,26.7-14,26.7-31.1
		C74.6,35.3,62.6,21.3,47.9,21.3z"/>
	<path class="st1" d="M32.8,37.7c0.3-0.1,0.7-0.1,1-0.2v2.2c0,0.3,0,0.3,0.3,0.3v0.2h-1.3V40c0.3,0,0.3,0,0.3-0.3v-1.6
		c0-0.2,0-0.2-0.2-0.2l-0.2,0V37.7z M59.4,37.5c0,0.2-0.1,0.4-0.1,0.8h0.2c0.1-0.2,0.1-0.3,0.4-0.3h0.9c-0.4,0.7-0.8,1.4-1.3,2.1
		l0,0.1l0.6-0.1c0.4-0.8,0.7-1.7,1.1-2.6l0-0.1H59.4z M61.7,37.5l-0.2,1.4c0.1,0,0.2-0.1,0.4-0.1c0.3,0,0.6,0.2,0.6,0.6
		c0,0.3-0.1,0.5-0.3,0.5c-0.2,0-0.4-0.2-0.5-0.3c0,0-0.1,0-0.2,0c-0.1,0.1-0.1,0.1-0.2,0.2c0,0.1,0,0.1,0.1,0.2
		c0.1,0.1,0.3,0.2,0.6,0.2c0.2,0,0.5-0.1,0.7-0.3c0.3-0.2,0.4-0.5,0.4-0.8c0-0.3-0.3-0.7-0.9-0.7c-0.2,0-0.3,0.1-0.5,0.1l0.1-0.6
		h1.1l0.1-0.5H61.7z M34.8,37.5l-0.2,1.4c0.1,0,0.2-0.1,0.4-0.1c0.3,0,0.6,0.2,0.6,0.6c0,0.3-0.1,0.5-0.3,0.5
		c-0.2,0-0.4-0.2-0.5-0.3c0,0-0.1,0-0.2,0c-0.1,0.1-0.1,0.1-0.2,0.2c0,0.1,0,0.1,0.1,0.2c0.1,0.1,0.3,0.2,0.6,0.2
		c0.2,0,0.5-0.1,0.7-0.3c0.3-0.2,0.4-0.5,0.4-0.8c0-0.3-0.3-0.7-0.9-0.7c-0.2,0-0.3,0.1-0.5,0.1L35,38h1.1l0.1-0.5H34.8z M74.6,52.4
		c0,17.1-12,31.1-26.7,31.1c-14.7,0-26.7-14-26.7-31.1c0-17.1,12-31.1,26.7-31.1C62.6,21.3,74.6,35.3,74.6,52.4z M75,52.4
		c0-17.4-12.2-31.5-27.1-31.5c-15,0-27.1,14.1-27.1,31.5c0,17.4,12.2,31.5,27.1,31.5C62.8,83.9,75,69.8,75,52.4z M47,33.4
		c0.1,0.1,0.3,0.2,0.4,0.2c0.2-0.1,0.4-0.3,0.4-0.3c-0.1,0-0.2,0-0.3,0c-0.1,0-0.1,0.1-0.2,0.1C47.1,33.3,47.1,33.4,47,33.4
		 M47,32.9C47,32.9,46.9,33,47,33c0.1,0,0.1-0.1,0.2,0c0,0,0.1,0,0.2,0c0.1,0,0.1-0.1,0.2,0c0.1,0,0.1-0.1,0-0.1c-0.1,0-0.1,0-0.2,0
		c-0.1,0.1-0.1,0-0.1,0C47.1,32.9,47.1,32.9,47,32.9 M47.5,32L47.5,32L47.5,32L47.5,32z M48.2,31.6c-0.3,0-0.8,0.2-0.8,0.2
		c0,0,0,0.1,0,0.1c0,0,0.1,0,0.1,0c0,0,0,0,0,0c0,0,0,0,0,0.1c0,0.1,0.1,0.2,0.2,0.2c0.1,0,0.2-0.1,0.2-0.2c0-0.1,0-0.1-0.1-0.1
		c0.1,0,0.2-0.1,0.4-0.1c0.1,0,0.1,0,0.1-0.1C48.3,31.6,48.2,31.6,48.2,31.6 M47,31.6c0.5-0.3,0.9-0.5,1.6-0.5
		c0.6,0,0.7,0.4,0.7,0.4c0.2-0.2,0.1-0.8-0.6-0.8C47.7,30.8,47.2,31.3,47,31.6 M47.8,46.8c-1.2-0.1-1.3-0.9-1.3-1.3
		c0-0.3,0.3-0.2-0.2-0.4c-1-0.5-1.7-0.1-1.7-0.1l0.1,0.1c0.8,0,1.1,0.3,1.1,0.3c-0.1,2.1,1.3,2,1.3,2c0.2,0.4,0.6,0.5,0.9,0.6
		c0.1,0,0.3-0.1,0.4-0.1C47.9,47.6,47.8,46.8,47.8,46.8 M51.3,47.2c0,0,0.6-0.2,0.6-0.2c0.1-0.3,0.3-0.4,0.4-0.5
		c0.1,0,0.1-0.1,0.2-0.2c0-0.3,0-0.4-0.2-0.7c-0.7-0.9-0.7-1.7-0.8-1.8c0-0.1-0.1,0-0.1,0s0.4,1.8-0.3,1.9c0,0,0.1,0.9-0.8,1.1
		c-0.1,0-0.2,0.1-0.2,0.2c0,0.2-0.1,0.4-0.2,0.5C50.4,47.3,50.9,47.3,51.3,47.2C51.3,47.2,51.3,47.2,51.3,47.2 M51.3,43
		c0.1,0,0.3-0.1,0.7-0.1c0.4,0,0.5,0.3,0.5,0.3l0.1,0.4c0,0,0.4,0.2,0.5,0c0.1-0.2,0.1-0.3-0.1-0.5c-0.3-0.3-0.4-0.4-0.9-0.4
		C51.7,42.6,51.3,42.9,51.3,43L51.3,43 M42.2,40.3c-0.5,0.3-0.7,1.1-0.6,2.1c0.1,1.4,0.8,1.6,1.3,0.8c0.5-0.6,0.7-1.2,0.5-1.2
		c-0.3,0.1-0.9,0.1-1.1-0.2c-0.4-0.5-0.1-1.1,0-1.5L42.2,40.3 M50.8,63.5c-0.6-0.5-1.3-1.1-1.9-2c-1.4-2.3-1.6-4.1-1.6-9.3
		c0-0.2,0-0.4,0-0.6l-0.8-0.1c0,0-0.2,5.4-0.2,6c0,0.8,0.2,1.6,0.4,0c0.1-0.8-0.1-3.2,0.1-3.2c0.3,0,0.3,9.2,0,9.2
		c-0.6,0-0.8-0.2-1.7-0.1c-0.3-0.4-1.2-0.4-1.3-0.3c0,0,0.3,0.2,0.6,0.3l-9.8,2.5l-0.6-0.4l-4,1.7l4.4-0.4l0.2-0.7l9.9-2.6
		c0.4,0.2,0.9,0.4,0.9,0.4c0.1,0.1,1.4-0.1,1.3,0.4c0,0.3-0.4,0.5-0.7,0.6c-0.3,0.1-0.8,0-0.8,0.1c0,0.1,0.9,0.2,1.1,0.1
		c0.3-0.1,1.2-0.4,1.9-1.1c0,0,2.1-0.2,2.4-0.6C50.9,63.7,50.9,63.6,50.8,63.5 M34.4,66.7l-2.6,0.4l2.8-0.8L34.4,66.7z M35.1,49.6
		c0,0,1.3,0.2,1.3-0.5c0-0.3-0.2-0.4-0.3-0.4c-0.2,0-0.3,0.2-0.2,0.4C36,49.2,36.2,49.5,35.1,49.6 M34.1,49c0,0.1,0.1,0.2,0.1,0.2
		c0.1,0,0.1-0.1,0.1-0.2c0,0,0-0.1,0-0.1l0.1,0c0,0,0.1,0,0.1-0.1c0,0,0-0.1-0.1-0.1l-0.5,0c0,0-0.1,0-0.1,0.1c0,0,0,0,0.1,0l0.2,0
		C34.1,48.9,34.1,49,34.1,49 M37.9,54c0.2-0.3,0.8-0.3,1,0.1c0,0-0.5,0-0.6,0.1c0,0,0.6,0.2,0.5,0.6c0,0-0.2-0.3-0.5-0.3
		c0,0,0.2,0.6-0.2,0.7c0,0-0.1-0.5-0.4-0.5c-0.3,0-0.3,0.3-0.3,0.4c0,0-0.2-0.1-0.2-0.5c0-0.2-0.1-0.3-0.2-0.3
		c-0.1,0-0.9-0.2-1.8-1.1c0,0-0.6,0.3-1.4,0.4c0,0-0.2,0.2,0.1,0.2c0.2,0,1.2,0,1.8,1c0.1,0.2,0.3,0.3,0.8,0.3c0,0,0,0.6-1,0.6
		c0,0,0.6,0.4,1,0.8c0.2,0.1,0.2,0.1,0.4,0c0.1-0.1,0.8-0.6,1.1,0.1c0,0-0.4-0.1-0.6,0c0,0,0.4,0.4,0.3,0.8c0,0-0.3-0.4-0.5-0.3
		c-0.1,0,0.2,0.4-0.2,0.6c0,0,0-0.5-0.4-0.5c0,0,0.1,0.3-0.3,0.4c0,0,0.2-0.6-0.2-0.8c-0.1,0-2-0.3-2.3-1.1c0,0,0.3-0.2,0.5-0.2
		c0,0-1.1-0.8-1.3-1.4c0,0-0.2-0.1-0.1,0.1c0.1,0.1,0.3,0.3,0.2,1.4c0,0.3,0.1,0.6,0.4,0.8c0,0-0.7,0.3-1.3-0.5c0,0,0,1.5,0.8,1.6
		c0.3,0,1,0,1,0.9c0,0-0.3-0.4-0.6-0.3c0,0,0.2,0.3,0.1,0.5c0,0-0.3-0.4-0.5-0.3c0,0,0.1,0.3,0,0.5c0,0-0.3-0.6-0.4-0.6
		c-0.2,0-0.3,0.3-0.3,0.6c0,0-0.5-0.1-0.2-0.5c0.1-0.2,0.2-0.2,0.3-0.3c0.1-0.1-2.2-0.9-1.9-2.6c0,0,0.4,0.3,0.6,0.1
		c0.2-0.2,0.1-0.7-0.4-1.1c0,0,0.4-0.2,0.6-0.2c0.1,0,0.1-0.2,0.1-0.4c-0.2,0-0.7,0-1-0.3c-0.2-0.2-0.3-0.5-0.2-1
		c0.1-0.4,0.5-1,0.8-1.4c0.1-0.1,0.2-0.3,0.3-0.4c0.2-0.3,0.4-0.8,0.3-1.1c-0.1-0.1-0.2-0.2-0.4-0.2c-0.1,0-0.2,0-0.2,0
		c0.2,0.4-0.1,0.8-0.5,1.1c-0.6,0.4-0.5,0.9-0.5,0.9s-0.2-1-0.1-1.7c0.1-0.5,0.6-1.1,1-0.6c0,0,0.2,0,0.3,0c0.4,0,0.6,0.2,0.7,0.4
		c0.3,0.6-0.2,1.4-0.3,1.5c-0.1,0.1-0.2,0.2-0.3,0.4c-0.3,0.4-0.7,1-0.8,1.3c-0.1,0.3-0.1,0.5,0.1,0.6c0.3,0.2,0.7,0.2,0.8,0.2
		c0,0,0.9-0.8,1.6-1c0.3-0.1,0.3-0.4,0.1-0.3c-0.2,0-1,0.2-1.3-0.3c0,0,0.9-0.3,1-0.8c0,0-0.4,0.3-0.9,0.1c0,0,0.8-0.6,0.6-1.1
		c-0.1-0.2-0.2-0.8,0-0.9c0.1-0.1-0.2-0.3-0.3-0.3c0,0,0.4-0.4,0.7,0c0,0,0.2,0,0.2,0c0.2,0,0.4-0.2,0.6-0.2c0.2,0,0.4-0.1,0.6,0.2
		c0,0,0.2,0.1,0.4,0.2c0.1,0,0.1,0.2,0.1,0.4c0,0.1-0.1,0.1-0.6,0.2c-0.1,0-0.4,0.6-0.3,0.6c0.1,0,0.6-0.2,0.8-0.2
		c0.1,0,0.1,0.2,0.1,0.4c-0.1,0.1-0.2,0-0.4,0c-0.2,0-0.4,0.3-0.1,0.6c0.2,0.2,0.9,0.4,1.4-0.7c0,0,0.2,0.2,0.1,0.8l1.5-1.2
		c0,0-0.1-0.8,0.5-1.1c0,0-0.2,0.3-0.1,0.5c0,0,0.4-0.3,0.6-0.3c0,0-0.4,0.5-0.4,0.6c0,0,0.6-0.2,0.7,0c0,0-0.6,0.3-0.6,0.4
		c0,0.1,0.4,0.2,0.6,0.1c0,0-0.1,0.4-0.8,0.3c0,0-0.6,0.9-1.5,1.5c-0.2,0.2,0,0.5,0.6,0.3c0.2-0.1,0.4-0.2,0.4-0.3
		c0,0,0.5,1-1.1,1.1c0,0,0.9,0.9,1.1,1.2C37.8,54.2,37.9,54.1,37.9,54 M64.5,58.5c0,0.1,0,0.2-0.1,0.2c-0.1,0-0.1,0-0.2,0.1
		c-0.1,0.1-0.1,0.1,0,0.1c0.2,0,0.4-0.3,0.4-0.4c0-0.1,0.2-0.2,0.3-0.2c0.1,0,0-0.2,0-0.2l-0.2,0c0-0.2,0-0.3-0.1-0.3
		c0.2,0,0.6,0,0.8-0.2c0-0.1,0.2-0.2,0.2-0.2c0,0-0.1-0.2-0.1-0.2c-0.1-0.1-0.5-0.1-0.7,0c-0.4,0.1-0.6,0-0.6-0.1c0,0,0-0.1,0-0.1
		c0.1,0.1,0.3,0,0.3,0c0.1-0.1,0.1-0.2,0-0.2c-0.3-0.1-0.4,0.1-0.4,0.1c-0.1,0.2-0.1,0.3,0,0.3c0.1,0.1,0.5,0.2,0.8,0.1
		c0.2-0.1,0.5,0,0.6,0c0,0,0,0.1,0,0.2c0,0-0.1,0.1-0.1,0.1c-0.1,0.2-0.6,0.2-0.9,0.2c-0.3-0.1-0.6,0.1-0.7,0.2
		C63.6,58,63.5,58,63.4,58c-0.2-0.1,0.2-0.5,0.2-0.5c0.1-0.1,0-0.1-0.1-0.1c-0.4,0.1-0.4-0.1-0.4-0.2c-0.1-0.1-0.1,0-0.1,0
		c-0.1,0.1,0.1,0.5-0.2,0.6c-0.6,0.1-0.8-0.4-0.8-0.4l-0.1,0c0.1,0.3,0.3,0.4,0.4,0.5c0.2,0.1,0.2,0.1,0.2,0.2l0.1,0.1
		c0,0-0.1,0.3-0.1,0.3c0,0.1-0.4,0.4-0.4,0.4c-0.1,0-0.4,0.1-0.3,0.1c0.1,0.2,0.5,0,0.5,0c0-0.1,0.6-0.6,0.7-0.6
		c0,0,0.6-0.2,0.8-0.2c0.2-0.1,0.1,0,0.1,0c-0.1,0.1-0.3,0.6-0.3,0.6c-0.2,0-0.4,0.2-0.3,0.2c0.2,0.1,0.4-0.1,0.4-0.1
		c0-0.1,0.2-0.3,0.2-0.3l0.3-0.6l0.2-0.1c0,0,0.1,0.2,0.2,0.3C64.6,58.4,64.5,58.5,64.5,58.5 M64.7,48.7l0.2-0.4l-0.5,0.2l0-0.4
		l-0.3,0.3l-0.3-0.4l0,0.4L64.7,48.7z M58.3,48.9c-0.5-0.1-0.5-0.2-0.4-0.3c0.1-0.1,0-0.2-0.1-0.2c-0.1,0-0.2,0-0.2,0.2
		C57.6,49,58.3,48.9,58.3,48.9 M57.3,47.7h-0.2v0.5h0.2V47.7z M60.3,47.8H60v0.5h0.2V47.8z M56.7,49.8h-0.2v0.5h0.2V49.8z
		 M56.5,52.4h-0.2v0.5h0.2V52.4z M58.3,53.1H58v0.5h0.2V53.1z M52.2,53.6c0-0.1,0-0.4-0.2-0.4c-0.2,0-0.4,0-0.5,1.1
		c0,0,0.4-0.1,0.6,0C52.1,54.3,52.1,53.8,52.2,53.6 M52.6,48.9c-0.2,0-0.4,0.2-0.5,0.6C52,49.9,52,50.2,52,50.4c0.1,0,0.1,0,0.2,0
		c0.1-0.2,0.2-0.7,0.6-1c0,0,0,0,0-0.1C52.8,49.1,52.7,48.9,52.6,48.9 M51.4,50.4c0,0,0.1,0,0.2,0c0-0.2,0-0.6-0.1-1
		c-0.1-0.4-0.3-0.5-0.4-0.5c-0.1,0.1-0.3,0.1-0.5,0.4C51,49.6,51.2,50.1,51.4,50.4C51.3,50.4,51.3,50.4,51.4,50.4 M54.3,52.4
		c0-0.4,0-0.8,0-1.2c-0.1,0.2-0.1,0.4-0.2,0.6C54.1,51.9,54.2,52.2,54.3,52.4 M52.1,56.7c0.1,0,0.1,0.1,0.1,0.1
		c0,0.1,0.1,0.1,0.1,0.2c0.2,0.6,0,1.7,0,1.7c0.4-0.8,0.5-1.4,0.3-1.9c0-0.1-0.1-0.2-0.2-0.4C52.4,56.4,52,56.7,52.1,56.7
		 M52.8,51.9c0.1-0.2,0.2-0.5-0.2-1c0,0,0-0.2,0-0.2c0,0,0.1-0.7,0.7-1.1c0.1-0.1,0.3-0.1,0.4,0c0.2,0.2,0.2,0.6,0.1,1.1
		c0-0.1-0.1-0.3-0.1-0.4c-0.1-0.2-0.3-0.3-0.5-0.2c-0.2,0.1-0.3,0.3-0.2,0.5c0.2,0.4,0.4,1,0.7,2.2l0.1,0.4c0.2,1-0.1,1.8-0.6,3.1
		c-0.3,1.1-0.8,3.3-0.6,4.4c0.3-1.9,0.8-3.9,1.1-4.5c0.1-0.2,0.2-0.6,0.4-0.9c-0.1,2.1-0.3,4.3-0.9,6.4c-0.2,0.8-0.6,1.4-0.9,1.8
		c-0.3,0.4-0.5,0.6-0.5,0.6s0,0,0,0c0,0,0,0,0,0c0,0,0,0-0.1,0c0,0,0,0,0,0c-0.3-0.2-1.1-0.7-1.9-1.6c-0.3-0.3-0.5-0.6-0.7-1
		c-1-1.7-1.3-3-1.4-5.9c0-0.6,0-1.3,0-2.2c0-0.3,0-0.6,0-0.8c0-2.5,0.2-3.8,0.2-3.8s0.5-0.2,1.8-0.5c0.6-0.1,1.4-0.2,2.2-0.2
		c0,0,0,0.1,0,0.2c0.1,0.1,0.2,0.2,0.3,0.2c-0.2,0.1-0.4,0.3-0.5,0.5c-0.1-0.3-0.3-0.5-0.6-0.6c-0.4-0.1-0.8,0-1.1,0.6
		c-0.4-0.1-0.8-0.1-1.1,0.1c-0.5,0.4-0.6,1.5,0.2,3c-0.1,0.2-0.1,0.4-0.2,0.6c-0.6,2.1,0.3,3.3,0.9,4.4c0.4,0.9,1.2,3.6,1.3,3.8
		c0.1-0.4-0.2-3-0.8-4.2c-0.4-0.9-1.3-2.2-0.8-3.8c0.2-0.6,0.5-1.4,0.7-2.1c0-0.4-0.5-0.9-0.7-0.4c0,0.2-0.1,0.4-0.2,0.7
		c-0.3-0.8-0.4-1.4-0.1-1.6c0.2-0.1,0.5-0.1,0.7,0c0.4,0.2,0.6,0.8,0.7,1.1h0c0.1,0.3,0.1,0.6,0,0.9c-0.1,0.5-0.4,0.7,0,1
		c0.2,0.2,0.5,0.3,0.5,0.3c0,0-1,2.2,0.5,2.4c0.3,0.1,0.7-0.1,0.7-0.3c0-0.2-0.1-0.5,0.2-1.1c0.1-0.2,0.4-0.8,0.3-1.1
		c0-0.1-0.1-0.4-0.1-0.6 M51.7,56.9c0.1-0.2,0.5-0.7,0.5-0.7c0.5-0.5,0.9-0.7,1.1-1.3c0.2-0.6,0.2-0.6,0.3-1.3
		c0.2-0.7-0.3-1.4-0.4-0.8c-0.2,0.6-0.2,1.4-0.4,1.9c-0.2,0.6-0.5,0.8-0.8,1.1c-0.1,0.1-0.1,0.1-0.1,0.2c0,0-0.1-0.1-0.1-0.1
		c-0.9-0.4-1.3-0.6-1.4-1.4c-0.2-0.9,0.1-1.1-0.3-2c-0.1-0.2-0.2,0.1-0.3,0.4c0,0.1,0,0.3,0,0.5c0.1,0.5-0.1,1,0.1,1.7
		c0.3,0.8,0.8,1,1.7,1.4c-0.2,0.2-0.3,0.5-0.3,0.8c-0.1,0.6,0.2,1.3,0.4,1.7C51.5,58.5,51.4,57.4,51.7,56.9 M54.1,49.3
		C54.1,49.3,54.1,49.3,54.1,49.3c0,0,0-0.1,0-0.2c0-0.3-0.2-0.5-0.6-0.7c-0.1,0.1-0.3,0.1-0.5,0.1c0.1,0.2,0.2,0.4,0.2,0.6
		C53.7,49,54,49.2,54.1,49.3 M51.6,52.1c0-0.1,0-0.2-0.1-0.2c0.1,0,0.2-0.1,0.2-0.1c0,0,0-0.1,0-0.1c0,0-0.1,0-0.1,0
		c-0.2,0.2-0.8,0.3-0.8,0.3c0,0-0.1,0.1-0.1,0.1c0,0,0,0.1,0.1,0.1c0,0,0.2,0,0.4-0.1c0,0,0,0.1,0,0.1c0,0.1,0.1,0.2,0.2,0.2
		C51.5,52.4,51.6,52.2,51.6,52.1 M52.8,51.9c-0.4-0.1-0.7-0.3-0.7-0.3c0,0-0.1,0-0.1,0c0,0,0,0.1,0,0.1c0,0,0.1,0,0.2,0.1
		c-0.1,0-0.1,0.1-0.1,0.2c0,0.1,0.1,0.2,0.1,0.2c0.1,0,0.1-0.1,0.1-0.2c0-0.1,0-0.1,0-0.2c0.1,0,0.2,0.1,0.4,0.1 M52,53.1
		c-0.2,0-0.4,0-0.5,1.1c0,0,0.4-0.1,0.6,0c0,0,0-0.5,0.1-0.7C52.2,53.4,52.2,53.2,52,53.1 M51.9,52.7c-0.1,0,0,0-0.1,0
		c-0.1,0-0.2,0.1-0.1,0.2c0.1,0.1,0.1-0.1,0.2,0c0,0,0.1,0,0.2,0c0.1,0,0.1,0,0.2,0c0.1,0,0.1-0.1,0-0.2c-0.1,0-0.1,0-0.2,0
		C51.9,52.7,52,52.7,51.9,52.7 M37.6,63.1C37.6,63.1,37.6,63.1,37.6,63.1L37.6,63.1C37.6,63.1,37.6,63.1,37.6,63.1 M31,63.1L31,63.1
		C31,63.1,31.1,63.1,31,63.1C31,63.1,31,63.1,31,63.1 M42.6,73.9c0,2.9,2.4,5.3,5.3,5.3c2.9,0,5.3-2.4,5.3-5.3v-7.3H42.6V73.9
		 M65.4,68.1c-3.4,5.4-8.5,9.2-14.3,10.2c-0.9,0.7-2,1-3.2,1c-1.2,0-2.3-0.4-3.2-1c-5.8-1-10.9-4.8-14.2-10.2h12v-1.6v-0.1h0.1h10.8
		h0.1v0.1v1.6H65.4 M51.5,74.1c0-0.2,0.1-0.7-0.4-0.8c-0.6-0.1-0.9,0.6-0.9,0.6c0,0.1-0.1,0.1-0.2,0.2c-0.1,0-0.8,0.1-0.8,0.7
		c0,0.5,0.5,0.6,0.7,0.6c0.3,0,0.5,0,0.8-0.1c0.1,0,0.3,0,0.4-0.1c0.1-0.1,0.1-0.3,0.2-0.4C51.3,74.6,51.4,74.4,51.5,74.1
		 M51.9,75.2c0.1,0,0.2,0.2,0.2,0.3c0,0.1-0.2,0.2-0.3,0.2c-0.2,0-0.3,0-0.5,0c0,0.1-0.1,0.3-0.1,0.5c0,0.1-0.1,0.2-0.3,0.2
		c-0.1,0-0.2-0.1-0.2-0.3c0-0.1,0-0.2,0-0.3c0,0,0,0,0,0c-0.3,0.1-0.6,0.2-1,0.1c-0.7-0.1-1.2-0.5-1.2-1.1c0-0.6,0.5-1,0.9-1.1
		l-1.7-2.2l-1.7,2.2c0.4,0.1,0.9,0.5,0.9,1.1c0,0.6-0.4,1.1-1.1,1.1c-0.4,0-0.7-0.1-1-0.1c0,0,0,0,0,0c0,0.1,0,0.2,0,0.3
		c0,0.1-0.1,0.3-0.2,0.3c-0.1,0-0.3-0.1-0.3-0.2c0-0.2,0-0.3-0.1-0.5c-0.1,0-0.3,0-0.5,0c-0.1,0-0.3-0.1-0.3-0.2
		c0-0.1,0.1-0.3,0.2-0.3c0.1,0,0.2,0,0.3,0c0,0,0,0,0,0c-0.1-0.2-0.3-0.5-0.4-0.9c-0.1-0.7,0.2-1.3,0.8-1.4c0.6-0.1,1,0.2,1.2,0.6
		l1.8-2.3l-1-1.3l0,0l-1.8,1.4l-0.3-0.4l0.9-0.7l-0.3-0.4L44,70.2l-0.7-0.9l0.4-0.3l0.3,0.4l0.4-0.4l-0.3-0.4l0.4-0.3l0.7,0.9
		l0.4-0.3L45.1,68l0.4-0.3l2.4,3l2.4-3l0.4,0.3l-0.7,0.9l0.4,0.3l0.7-0.9l0.4,0.3l-0.3,0.4l0.4,0.4l0.3-0.4l0.4,0.3l-0.7,0.9
		l-0.9-0.7L50.4,70l0.9,0.7L51,71.1l-1.8-1.4l0,0l-1,1.3l1.8,2.3c0.2-0.4,0.7-0.7,1.2-0.6c0.6,0.1,0.9,0.7,0.8,1.4
		c-0.1,0.4-0.2,0.7-0.4,0.9c0,0,0,0,0,0C51.7,75.1,51.8,75.2,51.9,75.2 M46.5,74.8c0-0.6-0.8-0.7-0.8-0.7c-0.1,0-0.1-0.1-0.2-0.2
		c0,0-0.3-0.8-0.9-0.6c-0.5,0.1-0.4,0.6-0.4,0.8c0.1,0.3,0.2,0.5,0.3,0.7c0.1,0.1,0.1,0.3,0.2,0.4c0.1,0,0.3,0,0.4,0.1
		c0.3,0.1,0.5,0.1,0.8,0.1C46.1,75.4,46.6,75.3,46.5,74.8 M44.7,81c-0.1-0.1-0.2-0.1-0.3-0.1c-0.2,0-0.6,0-0.7,0.6
		c-0.1,0.4,0.2,0.6,0.5,0.7c0.3,0,0.3,0,0.3-0.2L44.7,81z M44.8,80.3c0.1-0.5,0-0.5-0.4-0.6l0-0.2l1.6,0.3l0,0.2
		c-0.4,0-0.4,0-0.5,0.5l-0.2,1.5c-0.1,0.5,0,0.5,0.3,0.6l0,0.2l-1.6-0.3c-0.6-0.1-1-0.5-0.9-1c0.1-0.5,0.6-0.8,1.1-0.7
		c0.1,0,0.2,0,0.3,0l0.3,0.2L44.8,80.3z M41,80.1L40.8,80c-0.1,0-0.3-0.1-0.4-0.1c-0.2,0-0.3,0.2-0.4,0.4c-0.1,0.4,0.1,0.7,0.4,0.8
		c0.3,0.1,0.3,0.1,0.3-0.1L41,80.1z M41.3,79.4c0.2-0.4,0.1-0.5-0.2-0.7l0.1-0.2l1.5,0.5l-0.1,0.2c-0.4-0.1-0.4-0.1-0.6,0.3L41.4,81
		c-0.2,0.5-0.1,0.5,0.2,0.6l-0.1,0.2L40,81.3c-0.3-0.1-0.5-0.2-0.6-0.4c-0.1-0.2-0.2-0.4-0.1-0.7c0.1-0.4,0.5-0.5,0.8-0.5
		c0-0.2-0.1-0.5-0.2-0.8c-0.1-0.3-0.1-0.4-0.2-0.5c-0.1-0.1-0.1-0.2-0.2-0.3l0.1-0.2l0.2,0.1c0.5,0.2,0.6,0.4,0.7,0.7
		c0.1,0.2,0.1,0.6,0.2,0.8c0,0.2,0.1,0.2,0.2,0.3l0.1,0L41.3,79.4z M37.6,78.3L37,78l-0.2,1l0,0L37.6,78.3z M37.5,77.1L37.4,77
		c-0.2-0.1-0.2-0.1-0.3,0.2l-0.1,0.4l0.8,0.5c0.1,0,0.2-0.2,0.4-0.3c0.2-0.1,0.1-0.2,0-0.3l-0.1-0.1l0.1-0.2l1,0.6L39.1,78
		c-0.3-0.1-0.4-0.2-0.7,0.1l-2,1.5l-0.2-0.1l0.4-2.6c0.1-0.4-0.1-0.5-0.3-0.6l0.1-0.2l1.3,0.8L37.5,77.1z M35,76
		c0.3-0.4,0.4-0.4,0.7-0.1l0.1-0.1l-1.9-1.6c-0.1,0.1-0.5,0.4-0.6,0.5l0.1,0.1c0.2-0.1,0.3-0.2,0.5-0.2c0.2,0,0.3,0.1,0.5,0.2
		c0.2,0.1,0.3,0.2,0.3,0.3c0,0.1,0,0.2-0.2,0.4l-0.4,0.5l-0.3-0.3c-0.3-0.2-0.3-0.3-0.1-0.6l-0.1-0.1l-0.6,0.7L33,76
		c0.3-0.2,0.3-0.2,0.6,0l0.3,0.3L33.3,77c-0.1,0.1-0.1,0.1-0.2,0l-0.2-0.2c-0.2-0.2-0.3-0.3-0.3-0.4c0-0.1,0-0.2,0.1-0.4l-0.2-0.1
		c-0.2,0.3-0.4,0.5-0.4,0.6l1.8,1.5l0.1-0.1c-0.3-0.3-0.3-0.3,0-0.7L35,76z M32.4,74.1c0.2-0.3,0.4-0.6,0.5-0.7
		c0-0.1-0.1-0.5-0.4-0.8C32,72.1,31.4,72,31,72.4c-0.4,0.4-0.3,0.8-0.1,1.3l0.1,0.2c0.1,0.2,0.1,0.5-0.1,0.6c-0.2,0.2-0.4,0.1-0.6,0
		c-0.2-0.3-0.2-0.6,0-0.9l-0.2-0.1c-0.2,0.3-0.4,0.4-0.5,0.6c0.1,0.1,0.2,0.4,0.4,0.6c0.5,0.6,1.1,0.6,1.5,0.2
		c0.3-0.3,0.2-0.7,0.1-1.1l-0.1-0.2c-0.1-0.3-0.1-0.6,0.1-0.8c0.2-0.2,0.5-0.1,0.7,0.1c0.3,0.3,0.2,0.9,0,1.2L32.4,74.1z M28.7,71.5
		c-0.4,0.3-0.4,0.3-0.7,0l-0.1,0.1l0.9,1.3l0.1-0.1c-0.2-0.3-0.2-0.4,0.2-0.7l1.2-0.9c0.4-0.3,0.4-0.3,0.7,0l0.1-0.1l-0.9-1.3L30,70
		c0.2,0.3,0.2,0.4-0.2,0.7L28.7,71.5z M28.4,68.4c0.3-0.2,0.4-0.3,0.2-0.5c-0.3-0.6-0.9-0.7-1.6-0.3c-0.7,0.4-0.9,0.9-0.5,1.5
		c0.1,0.2,0.1,0.2,0.2,0.3c0,0,0.1,0,0.2-0.1L28.4,68.4z M26.3,69c-0.3-0.5-0.4-0.9-0.3-1.4c0.1-0.3,0.3-0.6,0.6-0.8
		c1-0.5,1.8,0,2.3,0.9l0.7,1.2l-0.2,0.1c-0.2-0.4-0.3-0.4-0.7-0.1l-1.3,0.7C27,69.9,27,70,27.2,70.3L27,70.4L26.3,69z M25.1,65
		c-0.4,0.2-0.5,0.2-0.7-0.2l-0.2,0.1l0.6,1.5l0.2-0.1c-0.1-0.4-0.1-0.4,0.3-0.6l1.4-0.6c0.4-0.2,0.5-0.2,0.7,0.2l0.2-0.1L27,63.7
		l-0.2,0.1c0.1,0.4,0.1,0.4-0.3,0.6L25.1,65z M23.9,63.8l0.2-0.1c-0.1-0.4-0.1-0.5,0.4-0.6l0.9-0.3c0.5-0.1,0.8-0.3,0.9-0.6
		c0.1-0.3,0.1-0.6,0-0.9c-0.1-0.4-0.3-0.7-0.6-0.8c-0.3-0.2-0.7-0.2-1.1,0l-0.3,0.1c-0.4,0.1-0.6,0.2-0.8,0.2
		c-0.2,0-0.3-0.1-0.3-0.3l-0.2,0l0.4,1.2l0.2-0.1c-0.1-0.3,0-0.4,0.1-0.5c0.1-0.1,0.3-0.2,0.8-0.3l0.3-0.1c0.7-0.2,1.2-0.1,1.3,0.4
		c0.1,0.5-0.2,0.9-0.9,1.1l-0.8,0.2c-0.5,0.1-0.5,0.1-0.6-0.3l-0.2,0.1L23.9,63.8z M22.3,56.3l2,0.6l-1.8,1.2l0.1,1.1l0.2,0
		c0-0.4,0-0.5,0.5-0.5l1-0.1c0.4,0,0.6,0,0.7,0c0.2,0,0.3,0.1,0.3,0.4l0.2,0l-0.2-1.2l-0.2,0c0,0.3,0,0.5-0.2,0.5
		c-0.1,0-0.3,0.1-0.8,0.1l-1,0.1l0,0l2-1.2l0-0.2l-2.5-0.7l0,0l1.7-0.3c0.4-0.1,0.5,0,0.5,0.4l0.2,0L25,54.7l-0.2,0
		c0,0.5,0,0.5-0.4,0.5l-1.5,0.2c-0.4,0.1-0.5,0-0.5-0.4l-0.2,0L22.3,56.3z M23.4,52.4c-0.4,0-0.7,0.3-0.7,0.7c0,0.4,0.3,0.7,0.7,0.7
		c0.4,0,0.7-0.3,0.7-0.7C24.1,52.7,23.8,52.4,23.4,52.4 M23.9,50.4l0.1-0.7L23,50v0L23.9,50.4z M24.9,49.7l0-0.1
		c0-0.2,0-0.2-0.3-0.1l-0.4,0.1l-0.1,0.9c0.1,0,0.3,0.1,0.5,0.2c0.2,0.1,0.2,0,0.3-0.1l0-0.1l0.2,0l-0.1,1.2l-0.2,0
		c0-0.3,0-0.4-0.4-0.6l-2.2-1.1l0-0.2l2.5-0.8c0.4-0.1,0.4-0.3,0.4-0.5l0.2,0l-0.1,1.5L24.9,49.7z M23.8,44.8c-0.3,0-0.6,0-0.8-0.1
		c-0.1,0.1-0.2,0.4-0.3,0.9c-0.2,1,0.3,1.9,1.2,2.1c0.7,0.1,1.6-0.3,1.8-1.4c0.1-0.4,0-0.8,0-1c-0.1-0.1-0.5-0.3-0.8-0.4l0,0.2
		c0.4,0.3,0.7,0.6,0.6,1.1c-0.1,0.6-0.7,1-1.5,0.8c-0.7-0.1-1.1-0.6-1-1.2c0.1-0.4,0.3-0.7,0.9-0.7L23.8,44.8z M25.1,43.3l0.2-0.7
		l-1,0.1l0,0L25.1,43.3z M26.2,42.9l0-0.1c0-0.2,0-0.2-0.3-0.2l-0.4,0l-0.3,0.9c0.1,0,0.2,0.2,0.4,0.3c0.2,0.1,0.2,0.1,0.3-0.1
		l0.1-0.1l0.2,0.1l-0.3,1.1l-0.2-0.1c0-0.3,0.1-0.4-0.3-0.7l-1.9-1.6l0-0.2l2.6-0.2c0.4,0,0.4-0.2,0.5-0.4l0.2,0.1l-0.4,1.4
		L26.2,42.9z M26.8,39.7c0.3,0.2,0.5,0.1,0.6-0.1c0.3-0.6,0-1.2-0.7-1.5c-0.8-0.3-1.3-0.1-1.5,0.5c-0.1,0.2-0.1,0.3-0.1,0.3
		c0,0,0.1,0.1,0.2,0.1L26.8,39.7z M25,38.4c0.2-0.5,0.5-0.9,0.9-1.1c0.3-0.1,0.7-0.1,1,0c1,0.5,1.1,1.4,0.6,2.4L27,41L26.8,41
		c0.1-0.4,0.1-0.4-0.3-0.6l-1.3-0.6c-0.4-0.2-0.5-0.2-0.7,0.2l-0.2-0.1L25,38.4z M28.3,36.8c0.4,0.2,0.4,0.3,0.2,0.7l0.2,0.1
		l1.3-2.2c-0.1-0.1-0.5-0.4-0.6-0.6L29.2,35c0.1,0.2,0.2,0.3,0.3,0.4c0,0.1,0,0.3-0.2,0.5c-0.1,0.2-0.2,0.3-0.3,0.4
		c-0.1,0.1-0.2,0-0.4-0.1L28,35.9l0.2-0.4c0.2-0.3,0.2-0.3,0.5-0.2l0.1-0.2l-0.8-0.5L28,34.8c0.3,0.2,0.3,0.2,0.1,0.6l-0.2,0.4
		l-0.7-0.5c-0.1-0.1-0.1-0.1,0-0.2l0.1-0.2c0.2-0.3,0.3-0.4,0.4-0.4c0.1,0,0.2,0,0.5,0.1l0.1-0.2c-0.3-0.2-0.6-0.3-0.7-0.4l-1.2,2
		l0.2,0.1c0.2-0.3,0.3-0.3,0.7-0.1L28.3,36.8z M28.3,36.8c0.4,0.2,0.4,0.3,0.2,0.7l0.2,0.1l1.3-2.2c-0.1-0.1-0.5-0.4-0.6-0.6
		L29.2,35c0.1,0.2,0.2,0.3,0.3,0.4c0,0.1,0,0.3-0.2,0.5c-0.1,0.2-0.2,0.3-0.3,0.4c-0.1,0.1-0.2,0-0.4-0.1L28,35.9l0.2-0.4
		c0.2-0.3,0.2-0.3,0.5-0.2l0.1-0.2l-0.8-0.5L28,34.8c0.3,0.2,0.3,0.2,0.1,0.6l-0.2,0.4l-0.7-0.5c-0.1-0.1-0.1-0.1,0-0.2l0.1-0.2
		c0.2-0.3,0.3-0.4,0.4-0.4c0.1,0,0.2,0,0.5,0.1l0.1-0.2c-0.3-0.2-0.6-0.3-0.7-0.4l-1.2,2l0.2,0.1c0.2-0.3,0.3-0.3,0.7-0.1L28.3,36.8
		z M30,30.6l0.9,1.9L28.8,32l-0.7,0.8l0.1,0.1c0.3-0.3,0.3-0.4,0.7,0l0.7,0.7c0.3,0.3,0.4,0.4,0.5,0.5c0.1,0.1,0.1,0.3-0.1,0.5
		l0.1,0.1l0.8-0.9l-0.1-0.1c-0.2,0.2-0.3,0.3-0.5,0.2c-0.1-0.1-0.2-0.2-0.6-0.5l-0.7-0.7l0,0l2.3,0.7l0.1-0.1l-1.1-2.3l0,0l1.3,1.1
		c0.3,0.3,0.3,0.3,0.1,0.7l0.1,0.1l1-1.2l-0.1-0.1c-0.3,0.3-0.3,0.3-0.7,0.1l-1.2-1c-0.3-0.3-0.3-0.3-0.1-0.7l-0.1-0.1L30,30.6z
		 M32.9,28.8c-0.3-0.4-0.3-0.4,0-0.7l-0.1-0.1L31.5,29l0.1,0.1c0.3-0.3,0.4-0.3,0.7,0.1l1,1.1c0.3,0.4,0.3,0.4,0,0.7l0.1,0.1
		l1.2-1.1L34.5,30c-0.3,0.3-0.4,0.3-0.7-0.1L32.9,28.8z M35.2,28.1l0.6-0.4L35,27.2l0,0L35.2,28.1z M36.4,28.5L36.4,28.5
		c0.2-0.2,0.2-0.3,0-0.4L36,27.9l-0.7,0.5c0,0.1,0.1,0.3,0.1,0.5c0.1,0.2,0.1,0.2,0.3,0.1l0.1-0.1l0.1,0.1l-1,0.7l-0.1-0.1
		c0.2-0.2,0.3-0.3,0.2-0.7l-0.5-2.4l0.2-0.2l2.2,1.4c0.3,0.2,0.4,0.1,0.7,0l0.1,0.2l-1.2,0.8L36.4,28.5z M38.7,25.6
		c-0.2-0.4-0.6-0.5-1-0.3c-0.3,0.2-0.5,0.6-0.3,1c0.2,0.4,0.6,0.5,1,0.3C38.7,26.4,38.9,25.9,38.7,25.6 M42.7,25.7
		c0-0.2-0.1-0.6-0.1-0.9l-0.2,0c0,0.3,0,0.5-0.1,0.6c-0.1,0.1-0.2,0.2-0.4,0.3c-0.2,0.1-0.3,0.1-0.4,0.1c-0.1,0-0.2-0.1-0.3-0.4
		l-0.5-1.4c-0.2-0.5-0.1-0.5,0.3-0.7L41,23.3l-1.5,0.5l0.1,0.2c0.4-0.1,0.4-0.1,0.6,0.4l0.5,1.4c0.2,0.5,0.1,0.5-0.3,0.7l0.1,0.2
		L42.7,25.7z M42.6,22.7l0,0.2c0.4,0,0.4,0,0.5,0.5l0.2,1c0.1,0.5,0.3,0.8,0.5,1c0.3,0.1,0.6,0.1,0.9,0.1c0.4-0.1,0.7-0.2,0.9-0.5
		c0.2-0.3,0.2-0.7,0.2-1.1l-0.1-0.3c-0.1-0.4-0.1-0.7-0.1-0.8c0-0.2,0.1-0.3,0.4-0.3l0-0.2l-1.2,0.2l0,0.2c0.3,0,0.4,0,0.5,0.2
		c0,0.1,0.1,0.4,0.2,0.8l0,0.3c0.1,0.7,0,1.2-0.6,1.3c-0.5,0.1-0.8-0.3-0.9-1l-0.1-0.8c-0.1-0.5,0-0.5,0.3-0.6l0-0.2L42.6,22.7z
		 M49.7,23.1c0-0.4,0-0.7-0.1-0.8c-0.2,0-0.5-0.1-0.9-0.2c-1,0-1.9,0.5-1.9,1.5c0,0.9,0.7,1.5,1.8,1.5c0.4,0,0.8-0.1,1.1-0.2
		c0-0.1,0-0.2,0-0.4l0-0.3c0-0.3,0-0.3,0.3-0.4l0-0.2l-1.5,0l0,0.2c0.5,0,0.5,0.1,0.5,0.4l0,0.4c0,0.3-0.2,0.3-0.3,0.3
		c-0.8,0-1.1-0.7-1.1-1.4c0-0.9,0.5-1.2,1-1.2c0.4,0,0.8,0.2,0.9,0.8L49.7,23.1z M51.8,24.7c-0.1,0.4-0.1,0.5,0.3,0.5
		c0.7,0.2,1.1-0.2,1.3-1c0.2-0.8-0.1-1.3-0.8-1.4c-0.2,0-0.3-0.1-0.3,0c0,0-0.1,0.1-0.1,0.2L51.8,24.7z M52.7,22.7
		c0.5,0.1,1,0.3,1.2,0.7c0.2,0.3,0.3,0.6,0.2,1c-0.2,1.1-1.2,1.3-2.2,1.1l-1.4-0.3l0-0.2c0.4,0.1,0.5,0,0.6-0.4l0.3-1.4
		c0.1-0.5,0.1-0.5-0.3-0.6l0-0.2L52.7,22.7z M55.3,23.4l-0.1,0.2c0.4,0.2,0.4,0.2,0.2,0.7L55,25.1c-0.2,0.5-0.2,0.8-0.1,1.1
		c0.1,0.3,0.4,0.5,0.7,0.6c0.4,0.2,0.7,0.2,1,0.1c0.3-0.1,0.6-0.4,0.7-0.9l0.1-0.3c0.2-0.4,0.3-0.6,0.4-0.7c0.1-0.1,0.2-0.1,0.5-0.1
		l0.1-0.2l-1.2-0.5l-0.1,0.2c0.3,0.1,0.4,0.2,0.3,0.4c0,0.1-0.1,0.4-0.3,0.8l-0.1,0.3c-0.3,0.6-0.7,1-1.2,0.8
		c-0.5-0.2-0.5-0.7-0.3-1.4l0.3-0.8c0.2-0.4,0.2-0.5,0.6-0.3l0.1-0.2L55.3,23.4z M61.1,27.9c0.3-0.4,0.4-0.6,0.5-0.7
		c0.1-0.1,0.3-0.1,0.5,0l0.1-0.2l-1.1-0.7L61,26.5c0.3,0.2,0.3,0.3,0.3,0.5c-0.1,0.1-0.2,0.3-0.4,0.7l-0.4,0.6l0,0l-0.4-2.6
		l-0.8-0.6l-0.1,0.1c0.4,0.3,0.4,0.4,0.1,0.8l-0.5,0.7c-0.3,0.4-0.4,0.6-0.5,0.7c-0.1,0.1-0.3,0.1-0.5,0l-0.1,0.2l1.1,0.7l0.1-0.2
		c-0.3-0.2-0.3-0.3-0.3-0.5c0.1-0.1,0.2-0.3,0.4-0.7l0.5-0.7l0,0l0.4,2.9l0.3,0.2L61.1,27.9z M62.5,29.2c-0.5,0.6-0.7,1.3-0.3,1.6
		c0.3,0.3,0.8,0.3,1.4-0.3c0.5-0.5,0.7-1.2,0.3-1.6C63.6,28.6,63,28.7,62.5,29.2 M64.1,28.7c0.7,0.7,0.7,1.6,0.2,2.2
		c-0.7,0.8-1.6,0.6-2.3,0c-0.8-0.7-0.7-1.7-0.2-2.2C62.6,28,63.6,28.2,64.1,28.7 M66,32.8c0.3-0.3,0.4-0.7,0.1-1
		c-0.2-0.3-0.7-0.3-1-0.1c-0.3,0.3-0.4,0.7-0.1,1C65.2,33,65.6,33.1,66,32.8 M67.1,34.3l0.1,0.2c0.2,0.2,0.4,0.4,0.8,0.2
		c0.3-0.2,0.2-0.5,0.1-0.7c-0.1-0.2-0.2-0.2-0.3-0.1L67.1,34.3z M67,34.5l-0.6,0.4c-0.4,0.2-0.3,0.4-0.2,0.6
		c0.2,0.2,0.5,0.4,0.8,0.1c0.4-0.3,0.3-0.6,0.1-1L67,34.5z M67.2,33.5c0.4-0.3,0.4-0.3,0.2-0.6l0.2-0.1l0.9,1.4
		c0.3,0.5,0.4,0.9,0,1.2c-0.3,0.2-0.7,0-0.9-0.2l0,0c0.2,0.4,0.2,0.8-0.2,1.1c-0.6,0.4-1.1-0.2-1.4-0.7l-0.8-1.2l0.2-0.1
		c0.2,0.3,0.3,0.3,0.7,0.1L67.2,33.5z M68.5,37.5l0.3,0.7l0.7-0.7l0,0L68.5,37.5z M67.9,38.6l0.1,0.1c0.1,0.2,0.2,0.2,0.4-0.1
		l0.3-0.3l-0.4-0.8c-0.1,0-0.3,0-0.5,0.1c-0.2,0-0.2,0.1-0.2,0.3l0.1,0.1l-0.2,0.1l-0.5-1.1l0.2-0.1c0.2,0.2,0.2,0.3,0.7,0.3
		l2.5-0.1l0.2,0.2l-1.7,1.9c-0.3,0.3-0.2,0.4-0.1,0.7L68.4,40l-0.7-1.3L67.9,38.6z M71.5,40.8l0.1,0.2c0.1,0.2,0.1,0.4,0.1,0.5
		c0,0.1-0.1,0.2-0.4,0.3l0.1,0.2c0.2-0.1,0.6-0.3,0.8-0.4l0-0.1c-0.1,0-0.1-0.1-0.2-0.2l-0.7-1.9c-0.1-0.1-0.1-0.2,0-0.3l0-0.1
		c-0.2,0.1-0.5,0.2-0.9,0.3l0.1,0.2c0.3,0,0.4,0,0.5,0c0.1,0,0.2,0.1,0.3,0.5l0.1,0.1l-1.8,0.7C69,41,69,40.9,68.8,40.6l-0.2,0.1
		l0.6,1.5l0.2-0.1c-0.1-0.4-0.1-0.5,0.3-0.6L71.5,40.8z M70.8,43.6l0.2,0.7l0.8-0.6l0,0L70.8,43.6z M70.1,44.5l0,0.1
		c0.1,0.2,0.1,0.2,0.4,0l0.3-0.2l-0.2-0.9c-0.1,0-0.3,0-0.5,0c-0.2,0-0.2,0-0.2,0.2l0,0.1l-0.2,0l-0.3-1.1l0.2,0
		c0.1,0.3,0.1,0.4,0.6,0.4l2.4,0.4l0.1,0.2l-2.1,1.6c-0.3,0.2-0.3,0.4-0.2,0.6l-0.2,0l-0.4-1.4L70.1,44.5z M70.4,47.4
		c1,0.2,2.2,0.6,2.4,0.6c0.4,0.1,0.5,0.2,0.6,0.5l0.2,0l-0.2-1.2l-0.2,0l0,0.1c0,0.2-0.1,0.3-0.3,0.2c-0.2,0-1.3-0.2-1.6-0.3
		l1.4-0.9c0.2-0.1,0.3-0.1,0.3,0l0,0.2l0.2,0L73,45.2l-0.2,0c0,0.3,0,0.4-0.3,0.6l-2.2,1.4L70.4,47.4z M71.9,49.6l0,0.7l0.9-0.4l0,0
		L71.9,49.6z M71,50.4l0,0.1c0,0.2,0.1,0.2,0.4,0.1l0.4-0.2l-0.1-0.9c-0.1,0-0.3-0.1-0.5-0.1c-0.2,0-0.2,0-0.3,0.2l0,0.2l-0.2,0
		l-0.1-1.2l0.2,0c0.1,0.3,0.1,0.4,0.5,0.5l2.3,0.8l0.1,0.2l-2.3,1.1c-0.3,0.2-0.4,0.3-0.4,0.6l-0.2,0l-0.1-1.5L71,50.4z M72.4,53.9
		c0.4,0,0.7-0.3,0.7-0.7c0-0.4-0.3-0.7-0.7-0.7c-0.4,0-0.7,0.3-0.7,0.7C71.7,53.5,72,53.9,72.4,53.9 M70.5,57.2
		c0.2,0.1,0.6,0.2,0.8,0.3l0-0.2C71.1,57.1,71,57,70.9,57c-0.1-0.1-0.1-0.3-0.1-0.5c0-0.2,0-0.3,0.1-0.4c0.1-0.1,0.2-0.1,0.5-0.1
		l1.4,0.2c0.5,0.1,0.5,0.1,0.5,0.5l0.2,0l0.2-1.6l-0.2,0c-0.1,0.4-0.1,0.4-0.6,0.4l-1.5-0.2c-0.5,0-0.5-0.1-0.5-0.5l-0.2,0
		L70.5,57.2z M72.2,60c0.5,0.1,0.5,0.1,0.4,0.5l0.2,0l0.3-1.5L73,59c-0.1,0.4-0.1,0.4-0.6,0.3L70.9,59c-0.5-0.1-0.5-0.1-0.4-0.5
		l-0.2,0L70,60l0.2,0c0.1-0.4,0.1-0.4,0.6-0.3L72.2,60z M70.9,62.9l-0.1,0.2c-0.1,0.3-0.1,0.6,0.3,0.7c0.3,0.1,0.5-0.1,0.6-0.4
		c0.1-0.2,0.1-0.3-0.1-0.3L70.9,62.9z M70.7,62.8L70,62.6c-0.4-0.1-0.5,0-0.6,0.2c-0.1,0.3,0,0.6,0.4,0.7c0.4,0.1,0.7-0.1,0.8-0.5
		L70.7,62.8z M71.6,62.5c0.4,0.2,0.5,0.1,0.6-0.2l0.2,0.1l-0.5,1.6c-0.2,0.5-0.5,0.9-0.9,0.7c-0.4-0.1-0.4-0.5-0.4-0.8l0,0
		c-0.2,0.4-0.5,0.7-1,0.5c-0.6-0.2-0.6-1-0.4-1.5l0.5-1.4l0.2,0.1c-0.1,0.4-0.1,0.4,0.4,0.6L71.6,62.5z M68.6,66
		c-0.4-0.2-0.4-0.3-0.3-0.7l-0.2-0.1l-1.1,2.3c0.1,0.1,0.5,0.4,0.6,0.5l0.1-0.2c-0.2-0.2-0.3-0.3-0.3-0.4c0-0.1,0-0.3,0.1-0.5
		c0.1-0.2,0.2-0.3,0.3-0.4c0.1-0.1,0.2,0,0.5,0.1l0.6,0.3l-0.2,0.4c-0.2,0.3-0.2,0.3-0.5,0.2l-0.1,0.2l0.9,0.4l0.1-0.2
		c-0.3-0.2-0.3-0.2-0.1-0.6l0.2-0.4l0.8,0.4c0.1,0.1,0.1,0.1,0.1,0.2l-0.1,0.2c-0.1,0.3-0.3,0.4-0.3,0.4c-0.1,0-0.2,0-0.5,0L69,68.5
		c0.3,0.1,0.6,0.2,0.7,0.3l1.1-2.1l-0.2-0.1c-0.2,0.3-0.2,0.4-0.7,0.1L68.6,66z M66.9,70.5l-0.1,0.2c-0.1,0.1-0.2,0.3-0.2,0.4
		c0,0.2,0.1,0.4,0.3,0.5c0.3,0.2,0.7,0.1,0.8-0.2c0.2-0.2,0.2-0.2,0-0.3L66.9,70.5z M66.3,70.1c-0.4-0.3-0.4-0.3-0.7,0.1L65.5,70
		l0.9-1.3l0.1,0.1c-0.2,0.4-0.2,0.4,0.2,0.7l1.2,0.8c0.4,0.3,0.4,0.3,0.7,0l0.1,0.1l-0.9,1.3c-0.2,0.2-0.3,0.4-0.5,0.5
		c-0.2,0.1-0.5,0.1-0.7-0.1c-0.3-0.2-0.4-0.6-0.2-0.9c-0.2,0-0.5,0-0.8,0c-0.3,0-0.5,0-0.6,0c-0.1,0-0.2,0.1-0.3,0.2l-0.1-0.1
		l0.1-0.2c0.3-0.5,0.6-0.5,0.9-0.5c0.3,0,0.6,0,0.8,0.1c0.2,0,0.2,0,0.3-0.2l0.1-0.1L66.3,70.1z M64.7,75.1l-0.2,0.2
		c-0.2,0.2-0.3,0.3-0.4,0.3c-0.1,0-0.2,0-0.5-0.2l-0.1,0.1c0.2,0.2,0.5,0.4,0.7,0.6l0.1-0.1c0-0.1,0-0.1,0.1-0.3l1.4-1.5
		c0.1-0.1,0.2-0.1,0.3-0.1l0.1-0.1c-0.2-0.2-0.4-0.4-0.6-0.7l-0.1,0.1c0.1,0.2,0.2,0.3,0.2,0.4c0,0.1,0,0.2-0.3,0.5l-0.1,0.1
		l-1.4-1.4c-0.3-0.3-0.3-0.4-0.1-0.7l-0.1-0.1l-1.1,1.2l0.1,0.1c0.3-0.3,0.4-0.3,0.7,0L64.7,75.1z M61.6,76L61,76.5l0.8,0.5l0,0
		L61.6,76z M60.4,75.7L60.4,75.7c-0.2,0.2-0.2,0.3,0,0.4l0.4,0.2l0.7-0.5c0-0.1-0.1-0.3-0.2-0.5c-0.1-0.2-0.1-0.2-0.3-0.1l-0.1,0.1
		l-0.1-0.1l0.9-0.7l0.1,0.1c-0.2,0.2-0.3,0.3-0.2,0.7l0.6,2.4l-0.2,0.2l-2.2-1.3c-0.3-0.2-0.4-0.1-0.7,0l-0.1-0.1l1.2-0.9L60.4,75.7
		z M58.3,80L58,80.1c-0.2,0.1-0.4,0.2-0.5,0.1c-0.1,0-0.2-0.1-0.4-0.3L57,80c0.1,0.2,0.4,0.6,0.5,0.8l0.1,0c0-0.1,0-0.1,0.2-0.2
		l1.8-1c0.1-0.1,0.2-0.1,0.3,0l0.1,0c-0.1-0.2-0.2-0.5-0.4-0.8l-0.2,0.1c0.1,0.2,0.1,0.4,0,0.5c0,0.1-0.1,0.2-0.5,0.4l-0.1,0.1
		l-0.9-1.7c-0.2-0.4-0.2-0.5,0.2-0.7L58,77.1l-1.5,0.8l0.1,0.2c0.4-0.2,0.5-0.2,0.7,0.2L58.3,80z M54.5,81c0.2,0.5,0.1,0.5-0.2,0.6
		l0.1,0.2l1.5-0.5l-0.1-0.2c-0.4,0.1-0.4,0.1-0.6-0.4l-0.5-1.4c-0.2-0.4-0.1-0.5,0.2-0.6l-0.1-0.2l-1.5,0.5l0.1,0.2
		c0.4-0.1,0.4-0.1,0.6,0.4L54.5,81z M52.2,80.3C52.1,80,52,79.7,52,79.6c-0.1-0.1-0.4-0.2-0.9-0.1c-0.7,0.1-1.1,0.5-1,1.1
		c0.1,0.5,0.5,0.7,1,0.8l0.2,0c0.3,0,0.5,0.2,0.5,0.4c0,0.2-0.1,0.5-0.4,0.5c-0.3,0.1-0.6-0.2-0.8-0.5l-0.2,0.1
		c0.1,0.3,0.2,0.5,0.2,0.7c0.1,0,0.4,0.1,0.7,0c0.7-0.1,1.1-0.6,1-1.1c-0.1-0.4-0.5-0.6-0.9-0.7l-0.2,0c-0.3-0.1-0.5-0.2-0.6-0.5
		c0-0.3,0.1-0.5,0.4-0.5c0.4-0.1,0.8,0.3,1,0.7L52.2,80.3z M47.2,81.4c0,0.4,0.3,0.7,0.7,0.7c0.4,0,0.7-0.3,0.7-0.7
		c0-0.4-0.3-0.7-0.7-0.7C47.5,80.7,47.2,81,47.2,81.4 M39.8,47.5L39.8,47.5C39.8,47.5,39.8,47.5,39.8,47.5 M67.3,44.4
		c0.2-0.2,0.4-0.3,0.7-0.2c0,0,0,0,0,0c-0.2-0.2-0.6-0.2-0.9,0c-0.2,0.2-0.2,0.6,0,0.9c0,0,0,0,0,0C67,44.9,67.1,44.6,67.3,44.4
		 M64.1,34.9c3.5,4.6,5.6,10.8,5.6,17.5c0,3.8-0.7,7.4-1.9,10.6c0,0.1-0.1,0.2-0.1,0.3l-2.4,0c0.3,0.2,0.4,0.5,0.4,0.7
		c0,0.5-0.3,0.5-1,0.5l-0.2,0H58h-0.2c-0.4,0-0.8,0-1-0.2c-0.1-0.1-0.1-0.2-0.1-0.4c0-0.3,0.1-0.5,0.4-0.7h-4.4
		c0.3-0.4,0.6-1,0.8-1.7c0.9-3.1,0.8-6.5,0.9-9.3c0-1.6,0-1.5,0-3c0,0,0.3-0.1,0.1-0.7c-0.1-0.3-0.3-0.6-0.6-0.8
		c0-0.1,0-0.3-0.1-0.4l-0.2-0.2c0,0,0-0.1,0-0.1c0-0.1-0.1-0.4-0.1-0.7c0-1-0.6-2.8-0.6-2.8s0.1,0.1,0.4,0c0.4-0.1,0.4-0.6,0.1-0.9
		c-0.1-0.1-0.4-0.6-0.6-0.8c-0.1-0.3-0.4-0.8-0.4-1.1c-0.1-0.3,0-1.7,0-2.1c0.2-3.2-1.3-3.4-1.8-3.6c-0.2-0.1-0.3-0.2-0.5-0.3
		c0,0.6-0.9,1-1.8,1c-0.9,0-1.8-0.4-1.8-1c0,0,0-0.1,0.1-0.2l-0.4,0.1c-0.5,0.1-0.7,0.1-0.9,0.2c-0.7,0.3-0.9,0.9-0.9,1.1
		c-0.3,0.7-0.5,1.4-0.5,1.4c-0.1,0.2-0.2,0.5-0.2,0.5s-0.2-0.2-0.3-0.3c-0.2-0.2-1.3-1.2-1.5-1.4c-0.1-0.1-0.8,0.1-0.8,0.1
		c1.4,1.1,2.5,2.5,2.7,2.8c0.1,0.2,0,0.1-0.1,0.1c-1.5-0.7-3.5-0.5-3.5-0.5l-0.5,0.6c2.1-0.2,3.7,0,4.1,0.6c0.1,0.1,0.3,0.2,0.5,0.2
		c0.2,0,0.3-0.2,0.3-0.4c0-0.1,0-0.1,0.1-0.3c1-2.1,3.7-3.1,3.7-3.1l1.1,3.3c0.4,0.1,0.5,0.1,0.8,0.1c-0.1-0.2-0.5-0.6-0.4-0.8
		c0-0.1,0.5,0,0.7-0.1c0.3-0.2,0.6-0.5,0.3-1.5c-0.1-0.2-0.2-0.4-0.2-0.5l0.2-0.1c0,0.1,0.1,0.2,0.2,0.5c0.5,1.3-0.1,1.6-0.3,1.8
		c0,0-0.1,0.1-0.1,0.1c-0.1,0.2,0,0.5,0.1,0.6c0.2,0.1,0.2,0.2,0.2,0.2l0,0.7c-0.8-0.4-2.9-0.4-2.8-0.4c0.1,0,0.4-0.2,0.3-0.3
		c0,0-0.3,0-0.5,0c-0.1,0-0.1-0.1,0-0.1c0,0,0.1,0,0.3-0.1c0.3-0.2,0.5-0.5,0.6-0.6c0.1-0.1-0.1-0.2-0.1-0.2c0-0.1-0.1-0.2-0.3-0.1
		c-0.1,0-0.6,0.3-0.8,0.3c-0.1,0-0.2-0.1-0.1-0.1c0.3-0.4,0.4-0.4,0.5-0.7c0.2-0.3-0.1-0.3-0.2-0.2c-0.2,0.2-0.9,0.8-1.2,0.9
		c-0.2,0.1-0.2,0-0.2-0.1c0.1-0.3,0-0.3,0-0.5c0-0.2-0.3-0.3-0.3-0.1c0,0.2,0,0.4-0.2,0.6c-0.2,0.3-0.1,0.7-0.2,0.8
		c-1.1,0.8-2,0.5-2,0.5c-0.1-0.3-1-0.6-1.4-0.2c-1.1,1-0.6,3.3-0.6,3.4c0.5,1.3,1.3,0.6,1.4,0.5C43.7,43.2,44,42,44,42
		c0.5-0.2,0.8-0.3,1.1-0.6c0.5-0.3,0.8-0.5,1-0.6c0.2,0,0.6-0.2,0.7-0.1v0.2c-0.5,0.2-1.5,1.1-1.5,1c-0.1,0.7-1.7,2.8-1.1,3.3
		c0.3,0.2,0.1,0.6,0,1c0,0-0.3,1.4-0.6,4c0,0-0.2,0.7,0.1,0.9c0.1,0.1,1.1,0.3,1.7,0.2c0.2,0,0.5,0.2,0.7,0.2c0,0-0.1,1.1-0.2,1.1
		c-0.2,0-0.2-0.8-0.2-0.7c0,0.1-0.2-0.1-0.2-0.1c-0.3,0.1-0.7,0-1.3,0c-0.1,0-0.3,0.1-0.3,0.2c0,0.2,0,0.3-0.1,1.4
		c0,0.4-0.1,0.6-0.1,1c0,0.2,0,1.6-0.1,2.2c-0.1,1.2-0.2,4.4-0.2,5.4c-2.1,0.1-4.1-0.2-3.3-1c0.1-0.1,0.3-0.2,0.4-0.4
		c0.6-0.5,0.6,0,1.3-1c0.6-1,0.8-2.1,1-3c0.2-0.7-0.1-1-0.6,0c-0.1,0.1-0.2,0.5-0.5,0.9c-0.1,0.2-0.4,0.5-0.7,0.6
		c-0.6,0.2-1-0.9-0.2-1.8c0.3-0.4,0.7-0.3,0.7-0.1c0,0,0.1,0.2,0.3,0c0.1-0.1,0.3-0.5,0.3-0.5c0.9-1.3,1.2-3.3,1.2-3.6
		c0-0.2,0-0.3,0-0.5c0-0.8-0.5-1.1-0.7-0.6c-0.2,0.4-0.5,0.3-0.4-0.2c0.3-1.9,1.4-4.4,1.5-4.7c0.1-0.3-0.1-0.3-0.2-0.4
		c-0.1-0.1-0.2-0.1-0.1-0.4c0.2-1,1.2-2.9,1.2-2.9c0.2-0.2-0.1-0.3-0.2-0.1c-2.2,3.4-3.1,9.2-3.1,9.6c0,1.5,0.9,0.7,0.9,0.7
		c-0.3,1.1-0.8,1.6-1.1,2c-1.9,2.8-1.1,4.2-1.1,4.2c0.3,0.6,0.8,1.1-0.3,2c-0.4,0.3-1.6,1.2-0.2,2.1c0.4,0.3,0.7,0.5,0.9,0.6h-2
		c0.3,0.2,0.4,0.5,0.4,0.7c0,0.5-0.3,0.5-1,0.5l-7,0c-0.4,0-0.8,0-1-0.2c-0.1-0.1-0.1-0.2-0.1-0.4c0-0.3,0.1-0.5,0.4-0.7l-2.1,0
		c0-0.1-0.1-0.2-0.1-0.3c-1.2-3.3-1.9-6.9-1.9-10.6c0-6.7,2.1-12.9,5.6-17.5c0,0,0,0,0-0.1v9.2C31.5,44,31.2,44,31,44.2c0,0,0,0,0,0
		c0.2,0,0.5,0,0.7,0.2c0.2,0.2,0.2,0.4,0.2,0.6c0,0-0.1,0.1-0.1,0.1v0.3c0.1,0.3,0.5,0.7,1.3,0.7c0.5,0,1.2-0.4,1.2-1.2
		c0,0-0.1-0.1-0.2-0.2c-0.1,0.3-0.3,0.5-0.6,0.5c-0.3,0-0.6-0.3-0.6-0.6c0-0.3,0.3-0.6,0.6-0.6c0.3,0,0.6,0.3,0.6,0.6
		c0.1,0,0.3,0,0.3-0.4c-0.3,0-0.5-0.3-0.5-0.6c0-0.3,0.3-0.6,0.6-0.6c0.3,0,0.6,0.3,0.6,0.6c0,0.3-0.2,0.6-0.5,0.6
		c0,0.4,0.2,0.4,0.3,0.4c0-0.3,0.3-0.6,0.6-0.6c0.3,0,0.6,0.3,0.6,0.6c0,0.3-0.3,0.6-0.6,0.6c-0.3,0-0.5-0.2-0.6-0.5
		c-0.1,0-0.2,0.2-0.2,0.2c0,0.7,0.7,1.2,1.2,1.2c1,0,1.3-0.8,1.3-0.9c-0.2-0.1-0.4-0.3-0.4-0.6c0-0.2,0.1-0.3,0.1-0.4
		c0.2,0,0.5,0,0.6,0.2c0.2,0.2,0.2,0.4,0.2,0.7c0,0,0,0,0,0c0.2-0.2,0.2-0.6,0-0.9C37.6,44,37.4,44,37.2,44V33.9
		c0,0-0.9-7.5,10.5-7.6c10.8-0.1,10.7,7.6,10.7,7.6V44c-0.2,0-0.4,0-0.5,0.2c-0.2,0.2-0.2,0.6,0,0.9c0,0,0,0,0,0
		c0-0.2,0-0.5,0.2-0.7c0.2-0.2,0.4-0.2,0.7-0.2c0.1,0.1,0.2,0.3,0.2,0.4c0,0.3-0.2,0.5-0.4,0.6c0,0.1,0.3,0.9,1.3,0.9
		c0.5,0,1.2-0.4,1.2-1.2c0,0-0.1-0.1-0.2-0.2c-0.1,0.3-0.3,0.5-0.6,0.5c-0.3,0-0.6-0.3-0.6-0.6c0-0.3,0.3-0.6,0.6-0.6
		c0.3,0,0.6,0.3,0.6,0.6c0.1,0,0.3,0,0.3-0.4c-0.3-0.1-0.5-0.3-0.5-0.6c0-0.3,0.3-0.6,0.6-0.6c0.3,0,0.6,0.3,0.6,0.6
		c0,0.3-0.2,0.6-0.5,0.6c0,0.4,0.2,0.4,0.3,0.4c0-0.3,0.3-0.6,0.6-0.6c0.3,0,0.6,0.3,0.6,0.6c0,0.3-0.3,0.6-0.6,0.6
		c-0.3,0-0.5-0.2-0.6-0.5c-0.1,0-0.2,0.2-0.2,0.2c0,0.7,0.7,1.2,1.2,1.2c1,0,1.3-0.8,1.3-0.9c-0.1,0-0.1-0.1-0.2-0.1
		c0-0.2,0-0.5,0.2-0.7c0.2-0.2,0.4-0.3,0.7-0.2c0,0,0,0,0,0C64.5,44,64.3,44,64.1,44L64.1,34.9C64.1,34.9,64.1,34.9,64.1,34.9
		 M37.3,45.4c0,0,0.1,1.1,1.1,1c0.3,0,0.5-0.1,0.6-0.2c-0.1,0.1-0.3,0.1-0.4,0.1c-0.8,0-1-0.5-1.1-0.9c0-0.1,0-0.2,0-0.2L37.3,45.4z
		 M29.1,44.7C29.1,44.7,29.1,44.7,29.1,44.7c0.2,0,0.4,0.1,0.6,0.3c0.2,0.2,0.2,0.4,0.2,0.7c0,0,0,0,0,0c0.2-0.2,0.2-0.6,0-0.9
		C29.8,44.4,29.4,44.4,29.1,44.7 M28.6,45.1c0.2-0.2,0.2-0.6,0-0.9c-0.2-0.2-0.6-0.2-0.9,0c0,0,0,0,0,0c0.2,0,0.5,0,0.7,0.2
		C28.5,44.6,28.6,44.9,28.6,45.1C28.6,45.1,28.6,45.1,28.6,45.1 M29,45.8c0.2,0.3,0.5,0.6,1,0.7c0.3,0,0.6-0.1,0.7-0.2
		c-0.1,0.1-0.3,0.1-0.5,0.1c-0.5,0-0.8-0.3-1-0.7L29,45.8z M38.6,64.1c0-0.3-0.2-0.5-0.6-0.7c-0.1-0.1-0.3-0.2-0.5-0.2h0
		c0,0,0,0,0,0c0,0,0,0,0,0H31c0,0,0,0,0,0c0,0,0,0,0,0h0c-0.2,0.1-0.4,0.2-0.5,0.2c-0.3,0.2-0.6,0.5-0.6,0.7c0,0,0,0.1,0,0.1h8.6
		C38.6,64.2,38.6,64.2,38.6,64.1 M40.1,44.2C40.1,44.2,40.1,44.2,40.1,44.2c0.2,0,0.4,0.1,0.6,0.3c0.2,0.2,0.2,0.4,0.2,0.7
		c0,0,0,0,0,0c0.2-0.2,0.2-0.6,0-0.9C40.8,44,40.4,44,40.1,44.2 M40.3,45.4c-0.3,0.1-0.6,0.5-0.6,1.6c0,0.3,0,0.4,0,0.5H29.1v7.4
		c0,2,1.1,3.7,2.7,4.7c0.8,0.5,1.7,0.7,2.7,0.7c0.7,0,1.4-0.1,2-0.4c-0.8,0.5-1.7,0.7-2.7,0.7c-0.7,0-1.4-0.1-2-0.4v2.7h5.5v-3.4
		c1.6-0.9,2.7-2.7,2.7-4.7v-7.4h0c0,0,0-0.1,0-0.6C39.8,46.1,40,45.6,40.3,45.4 M39.7,44.7c-0.2-0.2-0.6-0.2-0.9,0c0,0,0,0,0,0
		c0.2,0,0.5,0,0.7,0.2c0.2,0.2,0.3,0.4,0.2,0.7c0,0,0,0,0,0C39.9,45.3,39.9,44.9,39.7,44.7 M51.6,29c0-0.5,0-1.1-0.9-1.1
		c0.3,0-0.7-0.1-0.7,0.4c0,0.3-0.2,0.7-0.7,0.7c0,0-1.1-0.3-0.5-0.5c0.2-0.1,0.7-0.4,0.4-1.1c-0.1-0.2-0.7-0.7-1.3-0.1
		c-0.1,0.1,0,0.5-0.3,0.5c-0.3,0-0.3-0.3-0.3-0.4c0-0.2-0.1-0.5-0.6-0.5c-0.5,0-0.6,0.4-0.6,0.5c0,0.3,0.1,0.3,0.2,0.5
		c0.2,0.1,0.1,0.5-0.2,0.3c-0.1-0.1-1.1-1-2.2-0.4c-0.5,0.3-0.4,0.7-0.1,0.9c0.1,0.1,0.2,0.2,0,0.3c-0.1,0.1-0.5,0.9,0.1,1.3
		c0.4,0.3,1.1,0.4,1.4-0.2c0.1-0.1,0.2-0.6,0.1-1c0-0.1,0.1-0.5,0.7-0.4c0.3,0,0.3,0.2,0.1,0.4c-0.2,0.2-0.8,0.6-0.9,1.8
		c0,0.3-0.1,0.6-0.5,0.8c-0.2,0.2-0.9,0.6-0.3,1.2c0.3,0.4,0.4,0.5-0.3,1.1c-0.1,0.1-0.4,0.3,0.1,0.3c0.3,0,1.3,0,2.1-0.1l-0.1-0.3
		c-0.7,0.1-1.6,0.1-1.6,0.1c1-0.7,0.5-1.6,0.5-1.6c-0.3-0.4,0-0.6,0.5-0.7c0.6-0.1,0.7,0,1.2,0.2c0,0-0.8-0.1-1.1,0.2l0,0.1
		c0,0,0,0.1,0.1,0.2c0.6-0.1,0.9-0.2,0.9-0.2c0,0,0.1,0.1,0,0.1c0,0-0.1,0.1-0.1,0c0,0-0.1,0.1-0.2,0c0,0,0.1,0.1,0.1,0.1
		c0,0.1,0,0.2-0.1,0.2c-0.1,0-0.2,0-0.2-0.1c0-0.1,0-0.1,0-0.2c-0.1,0-0.2,0-0.4,0.1c0,0,0,0,0,0.1c0,0,0,0.1,0,0.1
		c0.1,0.2,0.1,0.3,0.1,0.4c0,0.1,0,0.2,0.1,0.2c0,0,0,0.1,0.1,0.2c0.2,0.4,0.5,1.1,1.3,0.9c0,0,0.1,0,0.1,0.1c0,0,0,0.1-0.1,0.1
		c0,0-0.1,0-0.2,0.1c-0.2,0.1-0.3,0.1-0.5,0c0,0.1,0.1,0.2,0.1,0.2s-0.3,0-0.4,0.1c0,0.1,0,0,0,0.1c0,0.5,0.7,0.9,1.5,0.9
		s1.5-0.4,1.5-0.9c0,0,0-0.1,0-0.1l0,0c-0.1-0.1-0.1-0.1-0.1-0.2c-0.4-0.6-0.3-0.8-0.3-0.8c0-0.1,0-0.1,0-0.1c0.7,0,1.3-0.1,2-0.2
		c0.1,0,0.3-0.2,0.2-0.3c-0.1-0.1-1.2-0.2-1.2-0.9c0-0.5,0.1-1.1-0.8-1.4c-0.1,0-0.1-0.1-0.1-0.2c0-0.2-0.1-0.7-0.3-0.9
		c-0.2-0.2-0.4-0.4-0.4-0.5l0.1,0c0,0,0.4,0.2,0.6,0.6c0.1,0.3,0.4,0.5,1.2,0.5C51.4,30.1,51.6,29.3,51.6,29 M65.7,44.7
		c-0.2,0.2-0.2,0.6,0,0.9c0,0,0,0,0,0c0-0.2,0-0.5,0.2-0.7c0.2-0.2,0.4-0.3,0.7-0.2c0,0,0,0,0,0C66.3,44.4,65.9,44.4,65.7,44.7
		 M65.5,46.3c-0.2,0-0.4,0-0.5-0.1c0.2,0.1,0.4,0.2,0.7,0.2c0.5,0,0.8-0.3,1-0.7l-0.2-0.1C66.3,46,65.9,46.3,65.5,46.3 M61.5,52.3
		h0.3h0.3v-0.5c0-0.3-0.2-0.3-0.4-0.3v-0.1h1.2v0.1c-0.2,0-0.5,0-0.5,0.3v0.5h0.3V53c0.1,0,0.1,0,0.2,0c0.4,0,0.5-0.2,0.5-0.6
		c0-0.2,0-0.3,0-0.4h0.2c0,0.1,0,0.2,0,0.5v-0.1c0,0.2-0.1,0.4-0.2,0.6c-0.1,0.1-0.3,0.2-0.6,0.2c0,0-0.1,0-0.1,0v0.7H64v-3h-2.5
		V52.3z M64.2,49C64.2,49,64.2,49,64.2,49C64.2,49,64.2,49,64.2,49C64.2,48.9,64.2,48.9,64.2,49l-0.3-0.2c0,0,0,0,0,0c0,0,0,0,0,0
		l0.1,0.1c0,0,0,0,0,0c0,0,0,0.1,0.1,0.1C64.1,49,64.2,49,64.2,49 M64.1,49.3c-0.2,0-0.3,0.2-0.3,0.2c0.4-0.2,0.4,0.1,0.4,0.1
		C64.3,49.5,64.4,49.3,64.1,49.3 M64.2,49C64.2,49,64.2,49,64.2,49C64.2,49,64.2,49,64.2,49c0,0.1,0,0.1,0.1,0.1c0.1,0,0.1,0,0.1,0
		c0,0,0,0,0,0l0.1,0c0,0,0,0,0,0c0,0,0,0,0,0L64.2,49C64.2,48.9,64.2,49,64.2,49 M64.4,50.9c-0.1,0-0.2,0-0.2,0v0.2
		c0.1,0,0.2-0.1,0.2-0.1C64.5,51,64.4,50.9,64.4,50.9 M63.7,55.7c0.2-0.4,0.3-0.8,0.3-1.2V54h-1.2v0.1c0,0.1,0,0.2,0,0.3L63.7,55.7z
		 M61.7,55.5c-0.1,0-0.2,0-0.3,0V57c0.4,0,0.9-0.2,1.2-0.4L61.7,55.5z M60.9,53.3v-0.7h-0.7v0.7H60.9v0.8h-0.7v0
		c0,0.5,0.3,0.9,0.7,1.1v-1.1h0.8v1.1c0.4-0.2,0.7-0.5,0.7-1c0,0,0-0.1,0-0.1v0h-0.7v-0.8H60.9z M61.8,53.3h0.7v-0.7h-0.7V53.3z
		 M58.7,48.6C58.7,48.6,58.7,48.6,58.7,48.6C58.7,48.6,58.7,48.7,58.7,48.6c0.1,0.1,0.1,0.1,0.1,0c0,0,0,0,0,0l0.1,0c0,0,0,0,0,0
		c0,0,0,0,0,0L58.7,48.6L58.7,48.6L58.7,48.6L58.7,48.6C58.7,48.5,58.6,48.5,58.7,48.6C58.6,48.6,58.7,48.6,58.7,48.6L58.7,48.6z
		 M58.8,51.8v2H60v-0.5L58.8,51.8z M61,52.3h0.3v-1.5h-1.5L61,52.3z M58.8,54v0.4c0,1.4,1.1,2.6,2.5,2.6v-1.5c-0.1,0-0.2,0-0.3,0
		c0,0,0,0.1,0,0.1v-0.1c0,0.2-0.1,0.4-0.2,0.6c-0.1,0.1-0.3,0.2-0.6,0.2c-0.2,0-0.4,0-0.5-0.1c-0.2-0.1-0.2-0.3-0.2-0.6V55
		c0-0.3-0.2-0.3-0.4-0.3v-0.1h1c0-0.1-0.1-0.3-0.1-0.4V54H58.8z M60.1,54.7c-0.2,0-0.3,0.1-0.3,0.3v0.6c0,0.4,0.2,0.6,0.5,0.6
		c0.4,0,0.5-0.2,0.5-0.6c0,0,0,0,0-0.1C60.5,55.3,60.3,55,60.1,54.7 M58.1,45.4c-0.1,0.3-0.3,0.9-1.1,0.9c-0.2,0-0.3-0.1-0.4-0.1
		c0.2,0.1,0.4,0.2,0.6,0.2c1.1,0.1,1.1-1,1.1-1l-0.2-0.1C58.2,45.2,58.2,45.3,58.1,45.4 M56,44.7c-0.2,0.2-0.2,0.6,0,0.9
		c0,0,0,0,0,0c0-0.2,0-0.5,0.2-0.7c0.2-0.2,0.4-0.2,0.7-0.2c0,0,0,0,0,0C56.6,44.4,56.2,44.4,56,44.7 M54.9,44.4
		c0.2-0.2,0.4-0.3,0.7-0.2c0,0,0,0,0,0c-0.2-0.2-0.6-0.2-0.9,0c-0.2,0.2-0.2,0.6,0,0.9c0,0,0,0,0,0C54.6,44.9,54.7,44.6,54.9,44.4
		 M55.5,45.4c0.2,0.2,0.4,0.6,0.4,1.5c0,0.4,0,0.5,0,0.6l0,0v6.3h2.6v-1.5c-0.3,0.1-0.7,0.1-0.7,0.1c-0.2,0.1-0.1,0.4-0.1,0.4
		c-0.2,0-0.2-0.3-0.2-0.3c-0.2,0-0.2,0.3-0.2,0.3c-0.2-0.1,0-0.3-0.1-0.3c-0.1,0-0.3,0.2-0.3,0.2c0-0.2,0.2-0.4,0.2-0.4
		c-0.1-0.1-0.2,0-0.2,0c0.1-0.4,0.4-0.2,0.5-0.1c0.1,0,0.1,0.1,0.2,0c0.2-0.2,0.6-0.3,0.6-0.3c-0.2,0-0.3-0.2-0.3-0.2
		c0.2,0,0.3-0.1,0.3-0.1c0.1-0.2,0.3-0.3,0.4-0.4v-0.4c-0.2-0.1-0.4-0.2-0.4-0.2c-0.5,0.5-0.7,0.7-0.8,0.7c0,0-0.1,0-0.1,0.1
		c0,0.2-0.1,0.3-0.1,0.3c0,0,0-0.2-0.2-0.2c-0.2,0-0.2,0.2-0.2,0.2c-0.2-0.1,0-0.4,0-0.4c-0.1,0-0.3,0.1-0.3,0.1
		c-0.1-0.2,0.2-0.3,0.2-0.3c-0.1,0-0.3,0-0.3,0c0.1-0.2,0.4-0.2,0.5-0.1c0,0.1,0.1,0.1,0.1,0c0.1-0.1,0.6-0.6,0.7-0.7
		c-0.1,0-0.3,0-0.5-0.1c0,0,0.3,0,0.5-0.2c0,0,0-0.1-0.1-0.1c-0.4-0.3-0.9-0.8-0.9-0.8c-0.3,0-0.4-0.2-0.4-0.2c0.1,0,0.3,0,0.3-0.1
		c0-0.1-0.3-0.2-0.3-0.2c0.1-0.1,0.3,0,0.3,0c0,0-0.2-0.3-0.2-0.3c0.1,0,0.3,0.2,0.3,0.2c0-0.1,0-0.3,0-0.3c0.3,0.2,0.2,0.6,0.2,0.6
		l0.9,0.7c0.2,0.1,0.4,0.1,0.6-0.1c0.2-0.2,0-0.3-0.1-0.3c0,0-0.2,0-0.2,0c0-0.1,0-0.2,0-0.2c0.1,0,0.3,0,0.3,0c0,0,0.1-0.1,0-0.1
		c-0.3-0.1-0.4-0.2-0.4-0.2c0-0.1,0-0.2,0-0.2c0.1,0,0.2,0,0.2,0c0.1-0.2,0.2-0.2,0.3-0.2c0.1,0,0.3,0.1,0.4,0.1c0,0,0.1,0,0.1,0
		c0.2-0.2,0.4,0,0.4,0c-0.1,0-0.2,0.1-0.2,0.1c0.1,0.1,0,0.4-0.1,0.4c-0.1,0.2,0.2,0.5,0.2,0.5c-0.2,0.1-0.4,0-0.4,0
		c0,0.4,0.7,0.5,0.7,0.5c-0.1,0.2-0.6,0.2-0.6,0.2c-0.1,0-0.1,0.1,0,0.2c0.2,0.1,0.5,0.2,0.6,0.4h0.6c0-0.1,0-0.2,0-0.3
		c0-0.2-0.2-0.4-0.4-0.7c-0.1-0.1-0.1-0.1-0.1-0.2c0,0-0.3-0.5-0.1-0.7c0.2-0.3,0.5-0.2,0.5-0.2c0.2-0.2,0.5-0.1,0.6,0.2
		c0.1,0.4-0.2,0.4,0,1c-0.2,0-0.8-0.5-0.6-1c0,0-0.1,0-0.2,0c-0.1,0-0.2,0-0.2,0.1c-0.1,0.1,0,0.4,0.1,0.5c0,0.1,0.1,0.1,0.1,0.2
		c0.2,0.2,0.4,0.5,0.4,0.7c0,0.1,0,0.2,0,0.3h0.6v-3.1h-2.6h-2.5l-0.1,0c0-0.1,0-0.2,0-0.4C56.2,45.9,55.8,45.6,55.5,45.4 M56,54.9
		c0,0.3,0,0.6,0.1,0.9H59c-0.3-0.4-0.4-0.9-0.4-1.4V54H56V54.9 M57,58.1c0.4,0.5,0.8,1,1.4,1.3l0,3.5h5.7l0-2.7
		c-0.6,0.3-1.3,0.4-2,0.4c-1,0-1.9-0.3-2.7-0.7c0.6,0.2,1.2,0.4,1.9,0.4v-2.3H57 M65.6,64.1c0-0.4-0.4-0.7-1.1-1H58
		c-0.7,0.2-1.1,0.6-1.1,1c0,0,0,0.1,0,0.1h8.6C65.6,64.2,65.6,64.2,65.6,64.1 M66.7,54h-2.6v0.4c0,0.3,0,0.5-0.1,0.7
		c0.2,0,0.4,0,0.5,0c0,0,0.4,0,0.6,0c0.1,0,0.2,0,0.3,0c0.2,0,0.5-0.2,0.6-0.3c0,0,0.1-0.1,0-0.1c0,0,0-0.1,0-0.1
		c-0.1,0-0.3,0-0.5,0.1c-0.2,0.1-0.5,0.2-0.6,0.1c-0.1,0-0.1-0.1,0-0.3c0,0,0-0.2,0.3-0.2c0.1,0,0.1,0.1,0,0.2
		c-0.1,0-0.2,0.1-0.3,0.1c0,0.1,0,0.1,0,0.1c0,0,0.2,0.1,0.5-0.1c0.2-0.1,0.4-0.2,0.6-0.1c0.1,0,0.1,0.1,0.1,0.1
		c0,0.1-0.1,0.2-0.1,0.2c-0.1,0.2-0.4,0.3-0.6,0.3c0.1,0.1,0.1,0.1,0.1,0.1s0,0.1,0,0.2c0,0.3,0.4,0.1,0.4,0.1
		c0,0.2-0.1,0.5-0.1,0.6c0,0.1-0.2,0.1-0.3,0.1c-0.1,0,0-0.1,0-0.1c0,0,0.2,0,0.2,0l0.1-0.3c-0.4,0.1-0.6-0.3-0.6-0.3
		s-0.2,0.4-0.7,0.7c-0.1,0.1-0.3,0-0.3,0c-0.1-0.1,0.1-0.1,0.1-0.1c0.2-0.1,0.6-0.6,0.6-0.6s0.1-0.2-0.4,0.1
		c-0.4,0.2-0.6,0.2-0.8,0.2c0,0,0,0,0,0c-0.2,0.4-0.6,0.7-1,1c-0.4,0.2-0.8,0.4-1.3,0.4v3.1c1.1,0,2.1-0.4,3-1v0
		c1.4-1,2.3-2.6,2.3-4.4V54z M66.7,47.5h-5.2v3.1H63c0,0,0,0,0.1-0.1c-0.1,0-0.2-0.1-0.3-0.2c0,0,0.3,0,0.5-0.2c0,0,0-0.1-0.1-0.1
		c-0.4-0.3-0.9-0.8-0.9-0.8c-0.3,0-0.4-0.2-0.4-0.2c0.1,0,0.3,0,0.3-0.1c0-0.1-0.3-0.2-0.3-0.2c0.1-0.1,0.3,0,0.3,0
		c0,0-0.2-0.3-0.2-0.3c0.1,0,0.3,0.2,0.3,0.2c0-0.1,0-0.3,0-0.3c0.3,0.2,0.2,0.6,0.2,0.6l0.7,0.5c0.2,0.1,0.4,0.2,0.5-0.1
		c0,0-0.2-0.1-0.3-0.2c0,0,0.1,0,0.3-0.1c0.2-0.1,0-0.5,0.2-0.5l0.8,0.2c0,0,0,0.4-0.1,0.5c0,0,0,0.3,0.2,0.3c0,0-0.3,0-0.3,0l0,0.1
		c0,0.2,0.2,0.5,0.3,0.5c0.3,0.1,0.8,0.5,0.8,0.5c0.1,0,0.3,0,0.4-0.1c0.1-0.1,0.1-0.2,0-0.3c0-0.2-0.2-0.4-0.4-0.7
		c-0.1-0.1-0.1-0.1-0.1-0.2c0,0-0.3-0.5-0.1-0.7c0.2-0.3,0.5-0.2,0.5-0.2c0.2-0.2,0.5-0.1,0.6,0.2c0.1,0.4-0.2,0.4,0,1
		c-0.2,0-0.8-0.5-0.6-1c0,0-0.1,0-0.2,0c-0.1,0-0.2,0-0.2,0.1c-0.1,0.1,0,0.4,0.1,0.5c0,0,0.1,0.1,0.1,0.2c0.2,0.2,0.4,0.5,0.4,0.7
		c0,0.2,0,0.4-0.1,0.5c-0.1,0.1-0.4,0.2-0.5,0.2c0,0.1,0,0.1,0.1,0.2c0.1,0.1,0.2,0.2,0.2,0.2c-0.2,0.2-0.2,0.4,0,0.5
		c0.1,0.1,0.3,0,0.3,0c0.1,0.8-1,1.3-1,1.3c0,0.1,0.1,0,0.1,0.1c0.1,0.2-0.1,0.3-0.1,0.3c0-0.1,0-0.3-0.1-0.3
		c-0.1,0-0.2,0.3-0.2,0.3c-0.1-0.1,0.1-0.3,0.1-0.3c-0.1,0-0.3,0.3-0.3,0.3c-0.1-0.1,0.1-0.3,0.1-0.3c-0.1,0-0.3,0.2-0.3,0.2
		c0-0.4,0.3-0.4,0.5-0.4c0.6,0,0.5-0.7,0.5-0.7c-0.3,0.3-0.5,0.2-0.5,0.2c0.2-0.1,0.2-0.2,0.2-0.4c-0.1-0.6-0.1-0.6,0-0.7
		c0-0.1-0.1,0-0.1,0c-0.1,0.3-0.6,0.7-0.6,0.7c0.1,0,0.3,0.1,0.3,0.1c0,0.1-0.1,0.2-0.3,0.3v1.5h2.6V47.5z"/>
	<path class="st1" d="M93.6,33.7c-1.1,0.1-1.6,0.4-1.7,1.1c-0.1,0.6-0.1,1.3-0.1,2.8v0.9c0,2.1-0.3,3.7-1.4,4.8
		c-0.9,0.9-2,1.3-3.4,1.3c-1.2,0-2.3-0.3-3.1-0.9c-1.1-0.9-1.6-2.3-1.6-4.5v-3.8c0-1.7-0.2-1.8-1.6-1.9v-0.6h5.2v0.6
		c-1.4,0.1-1.6,0.2-1.6,1.9V39c0,2.9,1.1,4.6,3.3,4.6c2.5,0,3.3-2,3.3-5.1v-0.9c0-1.5-0.1-2.3-0.2-2.8c-0.1-0.7-0.5-1-1.8-1.1v-0.6
		h4.7V33.7z M105.9,34.6c0.6,0,1.1-0.5,1.1-1.1c0-0.7-0.5-1.2-1.1-1.2c-0.6,0-1.1,0.5-1.1,1.2C104.7,34.1,105.2,34.6,105.9,34.6z
		 M108.3,44.6V44c-1.2-0.1-1.4-0.2-1.4-1.5V36c-0.7,0.2-2.4,0.6-3.3,0.7v0.5c1,0.2,1.4,0.2,1.4,1.4v3.8c0,1.3-0.2,1.4-1.4,1.5v0.5
		H108.3z M119.4,39.2c0.1-1.4,0.8-2.4,1.8-2.4c0.9,0,1.4,1,1.4,2c0,0.3-0.1,0.4-0.4,0.4H119.4z M124.1,39.8c0.3,0,0.5-0.2,0.5-0.5
		c0-2.1-1.4-3.2-3.2-3.2c-1,0-1.9,0.3-2.7,1.2c-0.8,0.8-1.4,2.1-1.4,3.4c0,2.2,1.5,4,3.9,4c0.7,0,2.1-0.4,3.3-1.9l-0.3-0.4
		c-0.7,0.6-1.4,0.9-2.2,0.9c-1.4,0-2.7-0.8-2.7-3.3L124.1,39.8z M152.5,39.2c0.1-1.4,0.8-2.4,1.8-2.4c0.9,0,1.4,1,1.4,2
		c0,0.3-0.1,0.4-0.4,0.4H152.5z M157.2,39.8c0.4,0,0.5-0.2,0.5-0.5c0-2.1-1.4-3.2-3.2-3.2c-1,0-1.9,0.3-2.7,1.2
		c-0.8,0.8-1.4,2.1-1.4,3.4c0,2.2,1.5,4,3.9,4c0.7,0,2.1-0.4,3.3-1.9l-0.3-0.4c-0.7,0.6-1.4,0.9-2.2,0.9c-1.4,0-2.7-0.8-2.7-3.3
		L157.2,39.8z M128.6,38.1V36c-1,0.4-2,0.6-3,0.7v0.5c1,0.2,1.1,0.3,1.1,1.4v4c0,1.2-0.2,1.3-1.3,1.4v0.5h4.8V44
		c-1.4-0.1-1.6-0.2-1.6-1.4v-3.5c0.4-0.9,0.9-1.3,1.3-1.3c0.3,0,0.7,0.2,1,0.5c0.1,0.1,0.3,0.1,0.4,0c0.4-0.3,0.7-0.8,0.7-1.4
		c0-0.5-0.5-0.9-1.2-0.9C130.1,36,129.3,37.1,128.6,38.1L128.6,38.1z M138.2,38.5c0-0.4-0.2-1.7-0.4-2.1c-0.4-0.2-1-0.3-1.8-0.3
		c-1.9,0-3.1,1.2-3.1,2.5c0,1.5,1.4,2.2,2.4,2.7c1.1,0.5,1.5,1,1.5,1.6c0,0.7-0.5,1.2-1.2,1.2c-1.2,0-2-1.2-2.4-2.4l-0.5,0.1
		c0,0.8,0.2,2.1,0.3,2.4c0.4,0.3,1.3,0.6,2.3,0.6c1.6,0,3.3-0.9,3.3-2.7c0-1.4-1-2.1-2.5-2.7c-0.9-0.4-1.5-0.8-1.5-1.5
		c0-0.7,0.5-1.2,1.1-1.2c1,0,1.6,0.8,2,1.9L138.2,38.5z M141.7,34.6c0.6,0,1.1-0.5,1.1-1.1c0-0.7-0.5-1.2-1.1-1.2
		c-0.6,0-1.1,0.5-1.1,1.2C140.5,34.1,141.1,34.6,141.7,34.6z M144.1,44.6V44c-1.2-0.1-1.4-0.2-1.4-1.5V36c-0.7,0.2-2.3,0.6-3.3,0.7
		v0.5c1,0.2,1.3,0.2,1.3,1.4v3.8c0,1.3-0.2,1.4-1.3,1.5v0.5H144.1z M160.7,34.6c0.6,0,1.1-0.5,1.1-1.1c0-0.7-0.5-1.2-1.1-1.2
		c-0.6,0-1.1,0.5-1.1,1.2C159.6,34.1,160.1,34.6,160.7,34.6z M163.2,44.6V44c-1.2-0.1-1.4-0.2-1.4-1.5V36c-0.7,0.2-2.3,0.6-3.3,0.7
		v0.5c1,0.2,1.3,0.2,1.3,1.4v3.8c0,1.3-0.2,1.4-1.3,1.5v0.5H163.2z M164.8,34.9v1.5h-1l-0.4,0.7v0.2h1.4v5.2c0,1.6,0.9,2.3,2.2,2.3
		c0.3,0,0.4-0.1,0.6-0.1c0.3-0.1,1.3-0.6,1.7-0.9l-0.2-0.5c-0.3,0.1-0.8,0.3-1.2,0.3c-0.4,0-1.1-0.3-1.1-1.8v-4.6h2.1
		c0.2-0.2,0.2-0.6,0.2-0.9h-2.3v-2.5l-0.3-0.1C166.2,34.2,165.3,34.7,164.8,34.9z M145.7,34.9v1.5h-1l-0.4,0.7v0.2h1.4v5.2
		c0,1.6,0.9,2.3,2.2,2.3c0.3,0,0.4-0.1,0.6-0.1c0.3-0.1,1.3-0.6,1.7-0.9l-0.2-0.5c-0.3,0.1-0.8,0.3-1.2,0.3c-0.4,0-1.1-0.3-1.1-1.8
		v-4.6h2.1c0.2-0.2,0.3-0.6,0.2-0.9h-2.3v-2.5l-0.3-0.1C147.1,34.2,146.2,34.7,145.7,34.9z M113.9,44.6c0.9-2.8,1.5-4.6,2.2-6.5
		c0.3-0.9,0.5-1,1.4-1.1v-0.5h-3.6l0,0.5c0.2,0,0.5,0.1,0.7,0.1c0.4,0.1,0.5,0.4,0.3,0.9l-1.6,5.4h-0.1l0,0l-1.5-5.4
		c-0.1-0.6-0.1-0.8,0.1-0.9c0.2-0.1,0.6-0.2,0.8-0.2v-0.5h-4.4v0.5c1.1,0.1,0.9,0.2,1.3,1.2l2.1,6.4H113.9z M93.4,37.2
		c1,0.2,1.4,0.3,1.4,1.4v3.9c0,1.2-0.2,1.3-1.4,1.5v0.5h4.5V44c-0.9-0.1-1.1-0.2-1.1-1.4v-4.5c0.5-0.4,1.2-0.8,1.6-0.8
		c0.9,0,1.7,0.5,1.7,1.9v3.2c0,1.3-0.1,1.4-1.1,1.5v0.5h4.3V44c-1-0.1-1.3-0.2-1.3-1.4V39c0-1.9-0.9-3-2.4-3c-0.5,0-1,0.2-1.2,0.3
		l-1.6,1.1V36c-0.7,0.2-2.4,0.6-3.3,0.7V37.2z M102.1,53.5c0.6,0,1.1-0.5,1.1-1.1c0-0.7-0.5-1.2-1.1-1.2c-0.6,0-1.1,0.5-1.1,1.2
		C101,52.9,101.5,53.5,102.1,53.5z M104.6,63.4v-0.5c-1.2-0.1-1.4-0.2-1.4-1.5v-6.5c-0.7,0.2-2.3,0.6-3.3,0.7v0.5
		c1,0.2,1.3,0.2,1.3,1.4v3.8c0,1.3-0.2,1.4-1.3,1.5v0.5H104.6z M93.8,58c0.1-1.4,0.8-2.4,1.8-2.4c0.9,0,1.4,1,1.4,2
		c0,0.3-0.1,0.4-0.4,0.4H93.8z M98.5,58.7c0.3,0,0.5-0.2,0.5-0.5c0-2.1-1.4-3.2-3.2-3.2c-1,0-1.9,0.3-2.7,1.2
		c-0.8,0.8-1.4,2.1-1.4,3.4c0,2.2,1.5,4,3.9,4c0.7,0,2.1-0.4,3.3-1.9l-0.3-0.4c-0.7,0.6-1.4,0.9-2.2,0.9c-1.4,0-2.7-0.8-2.7-3.3
		L98.5,58.7z M117.2,58c0.1-1.4,0.8-2.4,1.8-2.4c0.9,0,1.4,1,1.4,2c0,0.3-0.1,0.4-0.4,0.4H117.2z M122,58.7c0.3,0,0.5-0.2,0.5-0.5
		c0-2.1-1.4-3.2-3.2-3.2c-1,0-1.9,0.3-2.7,1.2c-0.8,0.8-1.4,2.1-1.4,3.4c0,2.2,1.5,4,3.9,4c0.7,0,2.1-0.4,3.3-1.9l-0.3-0.4
		c-0.7,0.6-1.4,0.9-2.2,0.9c-1.4,0-2.7-0.8-2.7-3.3L122,58.7z M90.2,60.1c-0.3,0.9-0.7,1.4-1.1,1.8c-0.5,0.5-1.1,0.7-1.9,0.7
		c-0.7,0-1.1,0-1.5-0.2c-0.4-0.2-0.4-0.5-0.4-1.5v-6.5c0-1.6,0.2-1.7,1.7-1.8v-0.6h-5.4v0.6c1.5,0.1,1.7,0.2,1.7,1.8v6.5
		c0,1.6-0.2,1.7-1.9,1.8v0.6h8.8c0.2-0.5,0.6-2.5,0.7-3.2L90.2,60.1z M111.2,61.9c-0.4,0.3-0.9,0.5-1.4,0.5c-1,0-2.4-1-2.4-3.3
		c0-2.8,1.5-3.4,2.2-3.4c0.8,0,1.3,0.2,1.7,0.8V61.9z M114.7,62.4l-0.6-0.1c-0.7-0.1-0.9-0.2-0.9-1.2V50.6c-0.8,0.3-2.3,0.5-3.4,0.7
		v0.5c1.3,0.1,1.5,0.2,1.5,1.3v2c-0.4-0.1-1-0.2-1.2-0.2c-3.1,0-4.7,2.1-4.7,4.7c0,2.7,1.9,3.9,3.5,3.9c0.2,0,0.8,0,1.4-0.3l1.1-0.7
		v1.1c0.7-0.2,2.4-0.6,3.4-0.7V62.4z M123.3,56.1c1,0.2,1.3,0.3,1.3,1.4v3.9c0,1.2-0.2,1.3-1.4,1.5v0.5h4.4v-0.5
		c-0.9-0.1-1.1-0.2-1.1-1.4v-4.5c0.5-0.4,1.2-0.8,1.6-0.8c0.9,0,1.7,0.5,1.7,1.9v3.2c0,1.3-0.1,1.4-1.1,1.5v0.5h4.2v-0.5
		c-1-0.1-1.2-0.2-1.2-1.4v-3.6c0-1.9-0.9-3-2.4-3c-0.5,0-1,0.2-1.2,0.3l-1.5,1.1v-1.4c-0.7,0.2-2.3,0.6-3.3,0.7V56.1z"/>
	<g>
		<path class="st1" d="M87.2,77.5c-0.1,0.4-0.3,1.4-0.4,1.7h-5v-0.3c0.9-0.1,1-0.1,1-1.1v-4.4c0-0.9-0.1-1-1-1.1v-0.3h3v0.3
			c-0.9,0.1-1,0.1-1,1.1v4.3c0,0.6,0.1,0.8,0.3,0.9c0.2,0.1,0.6,0.1,1,0.1c0.6,0,1-0.1,1.2-0.3c0.2-0.2,0.4-0.6,0.6-1.1L87.2,77.5z"
			/>
		<path class="st1" d="M91.9,78.3c-0.7,0.9-1.5,1.1-1.8,1.1c-1.4,0-2.2-1.1-2.2-2.3c0-0.8,0.3-1.5,0.7-1.9c0.5-0.5,1.1-0.8,1.6-0.8
			c0.9,0,1.7,0.8,1.7,1.7c0,0.2,0,0.3-0.3,0.4c-0.2,0-1.6,0.1-2.8,0.2c0,1.4,0.8,2.1,1.6,2.1c0.4,0,0.9-0.2,1.3-0.5L91.9,78.3z
			 M88.9,76c0.6,0,1.2,0,1.8,0c0.2,0,0.3-0.1,0.3-0.2c0-0.6-0.3-1.1-0.9-1.1C89.5,74.7,89,75.1,88.9,76z"/>
		<path class="st1" d="M92.5,79.2v-0.3c0.7-0.1,0.8-0.1,0.8-0.9v-2.3c0-0.7,0-0.7-0.7-0.8v-0.3c0.6-0.1,1.1-0.2,1.6-0.4V78
			c0,0.7,0.1,0.8,0.8,0.9v0.3H92.5z M93.1,72.8c0-0.4,0.3-0.6,0.6-0.6c0.3,0,0.6,0.3,0.6,0.6c0,0.3-0.3,0.6-0.6,0.6
			C93.4,73.3,93.1,73.1,93.1,72.8z"/>
		<path class="st1" d="M100.9,78.9c-0.3,0-1.1,0.2-1.8,0.4v-0.7L98.4,79c-0.4,0.2-0.7,0.3-0.8,0.3c-0.9,0-2.1-0.8-2.1-2.4
			c0-1.5,1.3-2.7,2.9-2.7c0.1,0,0.4,0,0.7,0.1v-1.5c0-0.7-0.1-0.7-0.8-0.8v-0.3c0.6-0.1,1.4-0.2,1.8-0.4v6.5c0,0.6,0.1,0.6,0.5,0.7
			l0.3,0V78.9z M99.1,75.3c-0.3-0.4-0.7-0.6-1.1-0.6c-0.5,0-1.4,0.4-1.4,2c0,1.3,0.8,1.9,1.5,1.9c0.4,0,0.7-0.2,1-0.3V75.3z"/>
		<path class="st1" d="M105.4,78.3c-0.7,0.9-1.5,1.1-1.8,1.1c-1.4,0-2.2-1.1-2.2-2.3c0-0.8,0.3-1.5,0.7-1.9c0.5-0.5,1.1-0.8,1.6-0.8
			c0.9,0,1.7,0.8,1.7,1.7c0,0.2,0,0.3-0.3,0.4c-0.2,0-1.6,0.1-2.8,0.2c0,1.4,0.8,2.1,1.6,2.1c0.4,0,0.9-0.2,1.3-0.5L105.4,78.3z
			 M102.4,76c0.6,0,1.2,0,1.8,0c0.2,0,0.3-0.1,0.3-0.2c0-0.6-0.3-1.1-0.9-1.1C103,74.7,102.6,75.1,102.4,76z"/>
		<path class="st1" d="M109.2,79.2v-0.3c0.6-0.1,0.7-0.1,0.7-0.9v-1.8c0-0.8-0.3-1.2-1-1.2c-0.4,0-0.8,0.3-1.1,0.5v2.6
			c0,0.7,0.1,0.8,0.7,0.8v0.3H106v-0.3c0.7-0.1,0.8-0.1,0.8-0.9v-2.3c0-0.7-0.1-0.7-0.6-0.8v-0.3c0.5-0.1,1.1-0.2,1.6-0.5v0.9
			c0.2-0.2,0.5-0.3,0.7-0.5c0.3-0.2,0.6-0.3,0.9-0.3c0.9,0,1.4,0.6,1.4,1.7v2.1c0,0.7,0.1,0.8,0.7,0.8v0.3H109.2z"/>
		<path class="st1" d="M114.6,79.2v-0.3c0.9-0.1,1-0.1,1-1.1v-4.4c0-0.9-0.1-1-1-1.1v-0.3h3v0.3c-0.9,0.1-1,0.1-1,1.1v4.4
			c0,0.9,0.1,1,1,1.1v0.3H114.6z"/>
		<path class="st1" d="M121.3,79.2v-0.3c0.6-0.1,0.7-0.1,0.7-0.9v-1.8c0-0.8-0.3-1.2-1-1.2c-0.4,0-0.8,0.3-1.1,0.5v2.6
			c0,0.7,0.1,0.8,0.7,0.8v0.3h-2.4v-0.3c0.7-0.1,0.8-0.1,0.8-0.9v-2.3c0-0.7-0.1-0.7-0.6-0.8v-0.3c0.5-0.1,1.1-0.2,1.6-0.5v0.9
			c0.2-0.2,0.5-0.3,0.7-0.5c0.3-0.2,0.6-0.3,0.9-0.3c0.9,0,1.4,0.6,1.4,1.7v2.1c0,0.7,0.1,0.8,0.7,0.8v0.3H121.3z"/>
		<path class="st1" d="M127.1,75.7c-0.2-0.6-0.6-1.1-1.1-1.1c-0.4,0-0.7,0.3-0.7,0.7c0,0.5,0.4,0.7,0.9,0.9c0.8,0.4,1.4,0.7,1.4,1.5
			c0,1-0.9,1.5-1.8,1.5c-0.6,0-1.1-0.2-1.3-0.4c-0.1-0.2-0.2-0.9-0.2-1.3l0.3,0c0.2,0.7,0.7,1.4,1.4,1.4c0.4,0,0.7-0.3,0.7-0.7
			c0-0.5-0.3-0.7-0.9-1c-0.6-0.3-1.4-0.7-1.4-1.5c0-0.8,0.7-1.5,1.7-1.5c0.5,0,0.8,0.1,1,0.2c0.1,0.2,0.2,0.9,0.2,1.2L127.1,75.7z"
			/>
		<path class="st1" d="M130.4,79.2c-0.2,0.1-0.4,0.1-0.5,0.1c-0.7,0-1.1-0.4-1.1-1.3v-3.2h-0.7l0-0.1l0.3-0.3h0.5v-0.8l0.8-0.7
			l0.1,0v1.5h1.2c0.1,0.1,0.1,0.4-0.1,0.5h-1.2v2.8c0,0.9,0.4,1,0.6,1c0.3,0,0.5-0.1,0.6-0.2l0.1,0.3L130.4,79.2z"/>
		<path class="st1" d="M131.7,79.2v-0.3c0.7-0.1,0.8-0.1,0.8-0.9v-2.3c0-0.7,0-0.7-0.7-0.8v-0.3c0.6-0.1,1.1-0.2,1.6-0.4V78
			c0,0.7,0.1,0.8,0.8,0.9v0.3H131.7z M132.2,72.8c0-0.4,0.3-0.6,0.6-0.6c0.3,0,0.6,0.3,0.6,0.6c0,0.3-0.3,0.6-0.6,0.6
			C132.5,73.3,132.2,73.1,132.2,72.8z"/>
		<path class="st1" d="M136.8,79.2c-0.2,0.1-0.4,0.1-0.5,0.1c-0.7,0-1.1-0.4-1.1-1.3v-3.2h-0.7l0-0.1l0.3-0.3h0.5v-0.8l0.8-0.7
			l0.1,0v1.5h1.2c0.1,0.1,0.1,0.4-0.1,0.5h-1.2v2.8c0,0.9,0.4,1,0.6,1c0.3,0,0.5-0.1,0.6-0.2l0.1,0.3L136.8,79.2z"/>
		<path class="st1" d="M143.2,78.9c-0.5,0.1-1.1,0.2-1.7,0.4l-0.1-0.1v-0.8c-0.2,0.2-0.5,0.4-0.8,0.5c-0.3,0.2-0.6,0.3-0.9,0.3
			c-0.8,0-1.4-0.5-1.4-1.6v-2.2c0-0.6,0-0.6-0.7-0.8v-0.3c0.6,0,1.1-0.1,1.7-0.2c0,0.4,0,0.9,0,1.6v1.5c0,0.9,0.5,1.2,0.9,1.2
			c0.4,0,0.8-0.2,1.1-0.5v-2.6c0-0.6-0.1-0.7-0.8-0.8v-0.3c0.6,0,1.2-0.1,1.8-0.2V78c0,0.6,0.1,0.6,0.5,0.7l0.3,0V78.9z"/>
		<path class="st1" d="M145.8,79.2c-0.2,0.1-0.4,0.1-0.5,0.1c-0.7,0-1.1-0.4-1.1-1.3v-3.2h-0.7l0-0.1l0.3-0.3h0.5v-0.8l0.8-0.7
			l0.1,0v1.5h1.2c0.1,0.1,0.1,0.4-0.1,0.5h-1.2v2.8c0,0.9,0.4,1,0.6,1c0.3,0,0.5-0.1,0.6-0.2l0.1,0.3L145.8,79.2z"/>
		<path class="st1" d="M151,78.3c-0.7,0.9-1.5,1.1-1.8,1.1c-1.4,0-2.2-1.1-2.2-2.3c0-0.8,0.3-1.5,0.7-1.9c0.5-0.5,1.1-0.8,1.6-0.8
			c0.9,0,1.7,0.8,1.7,1.7c0,0.2,0,0.3-0.3,0.4c-0.2,0-1.6,0.1-2.8,0.2c0,1.4,0.8,2.1,1.6,2.1c0.4,0,0.9-0.2,1.3-0.5L151,78.3z
			 M148,76c0.6,0,1.2,0,1.8,0c0.2,0,0.3-0.1,0.3-0.2c0-0.6-0.3-1.1-0.9-1.1C148.6,74.7,148.2,75.1,148,76z"/>
		<path class="st1" d="M159,76.7c0,1.8-1.3,2.6-2.4,2.6c-1.6,0-2.4-1.2-2.4-2.4c0-1.8,1.4-2.7,2.5-2.7C158,74.3,159,75.4,159,76.7z
			 M155.3,76.6c0,1.4,0.6,2.4,1.4,2.4c0.6,0,1.2-0.5,1.2-2c0-1.3-0.5-2.3-1.4-2.3C155.9,74.6,155.3,75.3,155.3,76.6z"/>
		<path class="st1" d="M160.4,74.4v-0.2c0-0.3,0-0.6,0.1-0.9s0.3-0.8,0.9-1.3c0.4-0.3,0.8-0.5,1.2-0.6c0.4,0,0.7,0.2,0.9,0.4
			c0.1,0.1,0.1,0.3,0.1,0.4c0,0.1-0.1,0.2-0.2,0.3c-0.1,0.1-0.2,0.1-0.3,0c-0.2-0.2-0.6-0.4-0.9-0.4c-0.3,0-0.4,0.1-0.5,0.3
			c-0.1,0.2-0.2,0.7-0.2,1.7v0.4h1.3c0.1,0.1,0,0.4-0.1,0.5h-1.2V78c0,0.8,0.1,0.8,0.9,0.9v0.3h-2.7v-0.3c0.7-0.1,0.8-0.1,0.8-0.8
			v-3.2h-0.8l0-0.1l0.3-0.3H160.4z"/>
		<path class="st1" d="M86,92.4v-0.3c0.7-0.1,0.8-0.2,0.6-0.6c-0.1-0.4-0.3-1-0.6-1.6h-2.3c-0.2,0.5-0.3,0.9-0.5,1.4
			c-0.2,0.7-0.1,0.8,0.7,0.9v0.3h-2.4v-0.3c0.7-0.1,0.9-0.2,1.2-1.1l2.3-5.7l0.4-0.1c0.7,1.9,1.4,4,2.1,5.9c0.3,0.9,0.5,1.1,1.2,1.1
			v0.3H86z M85,86.6L85,86.6c-0.4,0.9-0.7,1.8-1,2.7h2L85,86.6z"/>
		<path class="st1" d="M94.5,92.1c-0.3,0-1.1,0.2-1.8,0.4v-0.7L92,92.2c-0.4,0.2-0.7,0.3-0.8,0.3c-0.9,0-2.1-0.8-2.1-2.4
			c0-1.5,1.3-2.7,2.9-2.7c0.1,0,0.4,0,0.7,0.1v-1.5c0-0.7-0.1-0.7-0.8-0.8V85c0.6-0.1,1.4-0.2,1.8-0.4v6.5c0,0.6,0.1,0.6,0.5,0.7
			l0.3,0V92.1z M92.7,88.5c-0.3-0.4-0.7-0.6-1.1-0.6c-0.5,0-1.4,0.4-1.4,2c0,1.3,0.8,1.9,1.5,1.9c0.4,0,0.7-0.2,1-0.3V88.5z"/>
		<path class="st1" d="M99.8,87.9c-0.6,0.1-0.7,0.2-1,0.8c-0.4,0.8-0.9,2.2-1.6,3.8h-0.3c-0.5-1.3-1-2.6-1.5-3.9
			c-0.3-0.6-0.3-0.7-0.9-0.8v-0.3h2.3v0.3c-0.6,0.1-0.6,0.2-0.4,0.6c0.3,0.8,0.7,1.9,1,2.6c0.4-0.8,0.7-1.8,0.9-2.6
			c0.2-0.5,0.1-0.6-0.5-0.7v-0.3h2V87.9z"/>
		<path class="st1" d="M103.4,92.5c-0.2,0-0.4-0.1-0.5-0.2c-0.1-0.1-0.2-0.3-0.3-0.5c-0.4,0.3-1,0.7-1.3,0.7c-0.8,0-1.4-0.7-1.4-1.4
			c0-0.6,0.3-0.9,0.9-1.1c0.7-0.2,1.5-0.5,1.7-0.7v-0.2c0-0.8-0.4-1.2-0.9-1.2c-0.2,0-0.4,0.1-0.5,0.2c-0.1,0.2-0.2,0.4-0.3,0.7
			c-0.1,0.2-0.2,0.3-0.4,0.3c-0.2,0-0.5-0.2-0.5-0.5c0-0.2,0.1-0.3,0.4-0.5c0.3-0.2,1.1-0.6,1.7-0.8c0.3,0,0.7,0.1,0.9,0.3
			c0.4,0.3,0.5,0.8,0.5,1.4v2c0,0.5,0.2,0.6,0.4,0.6c0.1,0,0.3-0.1,0.4-0.1l0.1,0.3L103.4,92.5z M102.6,89.8
			c-0.2,0.1-0.7,0.3-0.9,0.4c-0.4,0.2-0.6,0.4-0.6,0.8c0,0.6,0.4,0.8,0.8,0.8c0.3,0,0.6-0.2,0.8-0.4V89.8z"/>
		<path class="st1" d="M107.9,92.4v-0.3c0.6-0.1,0.7-0.1,0.7-0.9v-1.8c0-0.8-0.3-1.2-1-1.2c-0.4,0-0.8,0.3-1.1,0.5v2.6
			c0,0.7,0.1,0.8,0.7,0.8v0.3h-2.4v-0.3c0.7-0.1,0.8-0.1,0.8-0.9V89c0-0.7-0.1-0.7-0.6-0.8v-0.3c0.5-0.1,1.1-0.2,1.6-0.5v0.9
			c0.2-0.2,0.5-0.3,0.7-0.5c0.3-0.2,0.6-0.3,0.9-0.3c0.9,0,1.4,0.6,1.4,1.7v2.1c0,0.7,0.1,0.8,0.7,0.8v0.3H107.9z"/>
		<path class="st1" d="M114.9,91.4c-0.5,0.6-1.2,1.1-1.9,1.1c-1.4,0-2.2-1.1-2.2-2.3c0-0.8,0.4-1.6,1.1-2.1c0.6-0.5,1.3-0.6,1.7-0.6
			c0.4,0,0.8,0.1,1,0.3c0.2,0.1,0.2,0.2,0.2,0.3c0,0.3-0.3,0.5-0.4,0.5c-0.1,0-0.1,0-0.2-0.1c-0.4-0.3-0.7-0.5-1.1-0.5
			c-0.7,0-1.3,0.6-1.3,1.7c0,1.5,1,2,1.6,2c0.5,0,0.8-0.1,1.3-0.6L114.9,91.4z"/>
		<path class="st1" d="M119.5,91.5c-0.7,0.9-1.5,1.1-1.8,1.1c-1.4,0-2.2-1.1-2.2-2.3c0-0.8,0.3-1.5,0.7-1.9c0.5-0.5,1.1-0.8,1.6-0.8
			c0.9,0,1.7,0.8,1.7,1.7c0,0.2,0,0.3-0.3,0.4c-0.2,0-1.6,0.1-2.8,0.2c0,1.4,0.8,2.1,1.6,2.1c0.4,0,0.9-0.2,1.3-0.5L119.5,91.5z
			 M116.5,89.2c0.6,0,1.2,0,1.8,0c0.2,0,0.3-0.1,0.3-0.2c0-0.6-0.3-1.1-0.9-1.1C117.1,87.9,116.6,88.3,116.5,89.2z"/>
		<path class="st1" d="M125.6,92.1c-0.3,0-1.1,0.2-1.8,0.4v-0.7l-0.7,0.4c-0.4,0.2-0.7,0.3-0.8,0.3c-0.9,0-2.1-0.8-2.1-2.4
			c0-1.5,1.3-2.7,2.9-2.7c0.1,0,0.4,0,0.7,0.1v-1.5c0-0.7-0.1-0.7-0.8-0.8V85c0.6-0.1,1.4-0.2,1.8-0.4v6.5c0,0.6,0.1,0.6,0.5,0.7
			l0.3,0V92.1z M123.8,88.5c-0.3-0.4-0.7-0.6-1.1-0.6c-0.5,0-1.4,0.4-1.4,2c0,1.3,0.8,1.9,1.5,1.9c0.4,0,0.7-0.2,1-0.3V88.5z"/>
		<path class="st1" d="M135.3,90.6c-0.2,0.5-0.4,1.3-0.6,1.7c-0.3,0.1-1.2,0.3-2,0.3c-2.8,0-4-1.9-4-3.6c0-2.3,1.8-3.8,4.3-3.8
			c0.9,0,1.7,0.2,1.9,0.3c0.1,0.6,0.2,1.1,0.2,1.7l-0.3,0.1c-0.3-1.2-1-1.6-2.1-1.6c-1.8,0-2.8,1.5-2.8,3.2c0,2,1.2,3.4,2.8,3.4
			c1.1,0,1.7-0.6,2.2-1.7L135.3,90.6z"/>
		<path class="st1" d="M140.9,89.9c0,1.8-1.3,2.6-2.4,2.6c-1.6,0-2.4-1.2-2.4-2.4c0-1.8,1.4-2.7,2.5-2.7
			C139.9,87.5,140.9,88.6,140.9,89.9z M137.2,89.8c0,1.4,0.6,2.4,1.4,2.4c0.6,0,1.2-0.5,1.2-2c0-1.3-0.5-2.3-1.4-2.3
			C137.7,87.8,137.2,88.5,137.2,89.8z"/>
		<path class="st1" d="M147.6,92.4v-0.3c0.6-0.1,0.7-0.1,0.7-0.9v-1.8c0-0.8-0.3-1.2-0.9-1.2c-0.4,0-0.8,0.2-1.2,0.5
			c0,0.1,0,0.3,0,0.5v2.2c0,0.7,0.1,0.7,0.7,0.8v0.3h-2.4v-0.3c0.6-0.1,0.7-0.1,0.7-0.8v-1.9c0-0.8-0.3-1.2-0.9-1.2
			c-0.4,0-0.8,0.3-1.1,0.5v2.6c0,0.7,0.1,0.8,0.6,0.8v0.3h-2.4v-0.3c0.7-0.1,0.8-0.1,0.8-0.8V89c0-0.7,0-0.7-0.6-0.8v-0.3
			c0.5-0.1,1.1-0.2,1.6-0.5v0.9c0.2-0.2,0.5-0.4,0.8-0.5c0.3-0.2,0.6-0.3,0.9-0.3c0.5,0,1,0.3,1.2,0.9c0.3-0.2,0.6-0.4,0.9-0.6
			c0.2-0.2,0.5-0.3,0.8-0.3c0.9,0,1.4,0.6,1.4,1.7v2.1c0,0.7,0.1,0.8,0.7,0.8v0.3H147.6z"/>
		<path class="st1" d="M153,87.6c0.2-0.1,0.4-0.2,0.6-0.2c1.2,0,2,1,2,2.1c0,1.7-1.3,2.7-2.7,3c-0.3,0-0.6-0.1-0.7-0.2v1.4
			c0,0.8,0.1,0.9,0.9,0.9V95h-2.7v-0.3c0.7-0.1,0.8-0.1,0.8-0.8v-5c0-0.7-0.1-0.7-0.7-0.8v-0.3c0.5-0.1,1.1-0.3,1.7-0.5v0.9
			L153,87.6z M152,91.6c0.2,0.2,0.6,0.4,1,0.4c0.9,0,1.5-0.8,1.5-2c0-1.2-0.7-1.8-1.4-1.8c-0.3,0-0.7,0.2-1,0.4V91.6z"/>
		<path class="st1" d="M161.5,92.1c-0.5,0.1-1.1,0.2-1.7,0.4l-0.1-0.1v-0.8c-0.2,0.2-0.5,0.4-0.8,0.5c-0.3,0.2-0.6,0.3-0.9,0.3
			c-0.8,0-1.4-0.5-1.4-1.6v-2.2c0-0.6,0-0.6-0.7-0.8v-0.3c0.6,0,1.1-0.1,1.7-0.2c0,0.4,0,0.9,0,1.6v1.5c0,0.9,0.5,1.2,0.9,1.2
			c0.4,0,0.8-0.2,1.1-0.5v-2.6c0-0.6-0.1-0.7-0.8-0.8v-0.3c0.6,0,1.2-0.1,1.8-0.2v3.7c0,0.6,0.1,0.6,0.5,0.7l0.3,0V92.1z"/>
		<path class="st1" d="M164.1,92.4c-0.2,0.1-0.4,0.1-0.5,0.1c-0.7,0-1.1-0.4-1.1-1.3V88h-0.7l0-0.1l0.3-0.3h0.5v-0.8l0.8-0.7l0.1,0
			v1.5h1.2c0.1,0.1,0.1,0.4-0.1,0.5h-1.2v2.8c0,0.9,0.4,1,0.6,1c0.3,0,0.5-0.1,0.6-0.2l0.1,0.3L164.1,92.4z"/>
		<path class="st1" d="M169.3,91.5c-0.7,0.9-1.5,1.1-1.8,1.1c-1.4,0-2.2-1.1-2.2-2.3c0-0.8,0.3-1.5,0.7-1.9c0.5-0.5,1.1-0.8,1.6-0.8
			c0.9,0,1.7,0.8,1.7,1.7c0,0.2,0,0.3-0.3,0.4c-0.2,0-1.6,0.1-2.8,0.2c0,1.4,0.8,2.1,1.6,2.1c0.4,0,0.9-0.2,1.3-0.5L169.3,91.5z
			 M166.3,89.2c0.6,0,1.2,0,1.8,0c0.2,0,0.3-0.1,0.3-0.2c0-0.6-0.3-1.1-0.9-1.1C166.9,87.9,166.4,88.3,166.3,89.2z"/>
		<path class="st1" d="M171.6,88.6c0.3-0.6,0.8-1.2,1.3-1.2c0.4,0,0.7,0.3,0.7,0.6c0,0.3-0.2,0.5-0.4,0.6c-0.1,0.1-0.2,0-0.3,0
			c-0.2-0.2-0.3-0.2-0.5-0.2c-0.3,0-0.6,0.3-0.8,0.9v2c0,0.7,0.1,0.8,0.9,0.8v0.3h-2.6v-0.3c0.7-0.1,0.7-0.1,0.7-0.8V89
			c0-0.7-0.1-0.7-0.7-0.8v-0.3c0.6-0.1,1.1-0.2,1.6-0.4L171.6,88.6L171.6,88.6z"/>
		<path class="st1" d="M180.4,87c-0.2-0.7-0.5-1.5-1.5-1.5c-0.8,0-1.2,0.6-1.2,1.2c0,0.8,0.5,1.1,1.4,1.6c0.9,0.5,1.9,1,1.9,2.2
			c0,1.2-1,2.1-2.5,2.1c-0.4,0-0.8-0.1-1.1-0.2c-0.3-0.1-0.5-0.2-0.6-0.2c-0.1-0.2-0.2-1.2-0.3-1.7l0.3-0.1c0.2,0.7,0.7,1.8,1.8,1.8
			c0.8,0,1.3-0.5,1.3-1.3s-0.6-1.2-1.4-1.6c-0.8-0.4-1.8-1-1.8-2.2c0-1.1,0.9-2,2.3-2c0.6,0,1,0.1,1.4,0.3c0,0.4,0.1,0.8,0.2,1.5
			L180.4,87z"/>
		<path class="st1" d="M186.1,91.4c-0.5,0.6-1.2,1.1-1.9,1.1c-1.4,0-2.2-1.1-2.2-2.3c0-0.8,0.4-1.6,1.1-2.1c0.6-0.5,1.3-0.6,1.7-0.6
			c0.4,0,0.8,0.1,1,0.3c0.2,0.1,0.2,0.2,0.2,0.3c0,0.3-0.3,0.5-0.4,0.5c-0.1,0-0.1,0-0.2-0.1c-0.4-0.3-0.7-0.5-1.1-0.5
			c-0.7,0-1.3,0.6-1.3,1.7c0,1.5,1,2,1.6,2c0.5,0,0.8-0.1,1.3-0.6L186.1,91.4z"/>
		<path class="st1" d="M186.6,92.4v-0.3c0.7-0.1,0.8-0.1,0.8-0.9V89c0-0.7,0-0.7-0.7-0.8v-0.3c0.6-0.1,1.1-0.2,1.6-0.4v3.8
			c0,0.7,0.1,0.8,0.8,0.9v0.3H186.6z M187.2,86c0-0.4,0.3-0.6,0.6-0.6c0.3,0,0.6,0.3,0.6,0.6c0,0.3-0.3,0.6-0.6,0.6
			C187.5,86.5,187.2,86.3,187.2,86z"/>
		<path class="st1" d="M193.7,91.5c-0.7,0.9-1.5,1.1-1.8,1.1c-1.4,0-2.2-1.1-2.2-2.3c0-0.8,0.3-1.5,0.7-1.9c0.5-0.5,1.1-0.8,1.6-0.8
			c0.9,0,1.7,0.8,1.7,1.7c0,0.2,0,0.3-0.3,0.4c-0.2,0-1.6,0.1-2.8,0.2c0,1.4,0.8,2.1,1.6,2.1c0.4,0,0.9-0.2,1.3-0.5L193.7,91.5z
			 M190.7,89.2c0.6,0,1.2,0,1.8,0c0.2,0,0.3-0.1,0.3-0.2c0-0.6-0.3-1.1-0.9-1.1C191.3,87.9,190.8,88.3,190.7,89.2z"/>
		<path class="st1" d="M197.4,92.4v-0.3c0.6-0.1,0.7-0.1,0.7-0.9v-1.8c0-0.8-0.3-1.2-1-1.2c-0.4,0-0.8,0.3-1.1,0.5v2.6
			c0,0.7,0.1,0.8,0.7,0.8v0.3h-2.4v-0.3c0.7-0.1,0.8-0.1,0.8-0.9V89c0-0.7-0.1-0.7-0.6-0.8v-0.3c0.5-0.1,1.1-0.2,1.6-0.5v0.9
			c0.2-0.2,0.5-0.3,0.7-0.5c0.3-0.2,0.6-0.3,0.9-0.3c0.9,0,1.4,0.6,1.4,1.7v2.1c0,0.7,0.1,0.8,0.7,0.8v0.3H197.4z"/>
		<path class="st1" d="M204.5,91.4c-0.5,0.6-1.2,1.1-1.9,1.1c-1.4,0-2.2-1.1-2.2-2.3c0-0.8,0.4-1.6,1.1-2.1c0.6-0.5,1.3-0.6,1.7-0.6
			c0.4,0,0.8,0.1,1,0.3c0.2,0.1,0.2,0.2,0.2,0.3c0,0.3-0.3,0.5-0.4,0.5c-0.1,0-0.1,0-0.2-0.1c-0.4-0.3-0.7-0.5-1.1-0.5
			c-0.7,0-1.3,0.6-1.3,1.7c0,1.5,1,2,1.6,2c0.5,0,0.8-0.1,1.3-0.6L204.5,91.4z"/>
		<path class="st1" d="M209,91.5c-0.7,0.9-1.5,1.1-1.8,1.1c-1.4,0-2.2-1.1-2.2-2.3c0-0.8,0.3-1.5,0.7-1.9c0.5-0.5,1.1-0.8,1.6-0.8
			c0.9,0,1.7,0.8,1.7,1.7c0,0.2,0,0.3-0.3,0.4c-0.2,0-1.6,0.1-2.8,0.2c0,1.4,0.8,2.1,1.6,2.1c0.4,0,0.9-0.2,1.3-0.5L209,91.5z
			 M206,89.2c0.6,0,1.2,0,1.8,0c0.2,0,0.3-0.1,0.3-0.2c0-0.6-0.3-1.1-0.9-1.1C206.7,87.9,206.2,88.3,206,89.2z"/>
	</g>
</g>
</svg>
