<?xml version="1.0" encoding="utf-8"?>
<!-- Generator: Adobe Illustrator 25.1.0, SVG Export Plug-In . SVG Version: 6.00 Build 0)  -->
<svg version="1.1" id="logo" xmlns="http://www.w3.org/2000/svg" xmlns:xlink="http://www.w3.org/1999/xlink" x="0px" y="0px"
	 viewBox="0 0 57.7 28.8" style="enable-background:new 0 0 57.7 28.8;" xml:space="preserve">
<style type="text/css">
	.st0{fill:none;}
</style>
<g>
	<g>
		<rect class="st0" width="57.7" height="28.8"/>
	</g>
	<path d="M10.8,11.2c0,1.8-0.7,2.3-2.1,2.3c-1.6,0-2.1-0.8-2.1-2.4V6.7h1V11c0,0.6,0,1.7,1.1,1.7c0.9,0,1.1-0.7,1.1-1.7V6.7h1V11.2z
		"/>
	<path d="M38.5,22.1l-2-5.8v5.8h-0.9v-6.7h1.5l2,5.8v-5.8h0.9v6.7H38.5z"/>
	<path d="M15.1,13.4l-2-5.8v5.8h-0.9V6.7h1.5l2,5.8V6.7h0.9v6.7H15.1z"/>
	<path d="M18.2,13.4V6.7h1v6.7H18.2z"/>
	<path d="M40.2,13.4V6.7h1v6.7H40.2z"/>
	<path d="M23,13.4h-1.2l-1.7-6.7h1.1l1.3,5.7l1.3-5.7h1L23,13.4z"/>
	<path d="M25.5,13.4V6.7h3.3v0.8h-2.3v2h2.1v0.8h-2.1v2.3h2.3v0.8H25.5z"/>
	<path d="M31.1,22.1v-6.7h3.3v0.8h-2.3v2h2.1V19h-2.1v2.3h2.3v0.8H31.1z"/>
	<path d="M45.9,22.1v-6.7h3.3v0.8h-2.3v2H49V19h-2.1v2.3h2.3v0.8H45.9z"/>
	<path d="M32.9,13.4c-0.1-0.6-0.1-1.6-0.1-1.7c0-0.5-0.1-0.8-0.2-1c-0.1-0.2-0.4-0.3-0.8-0.3h-0.6v3h-1V6.7H32
		c1.1,0,1.9,0.3,1.9,1.7c0,0.9-0.4,1.4-1.1,1.6c0.4,0,0.6,0.2,0.8,0.4c0.1,0.2,0.2,0.6,0.2,1.1c0,0.2,0,1.5,0.1,1.9H32.9z M32.9,8.4
		c0-0.8-0.4-1-1.1-1h-0.7v2.1h0.5C32.5,9.6,32.9,9.4,32.9,8.4z"/>
	<path d="M38.9,11.7c0,1.2-0.7,1.8-2,1.8c-1.5,0-2-0.6-2-2v-0.1H36v0.1c0,0.8,0.2,1.2,0.9,1.2c0.6,0,0.9-0.3,0.9-1
		c0-0.6-0.3-0.8-0.6-1c-0.1-0.1-0.3-0.2-0.6-0.4c-1-0.6-1.6-1-1.6-2.1c0-1.1,0.7-1.7,2-1.7c1.2,0,1.8,0.6,1.8,1.7v0.2h-1V8.3
		c0-0.6-0.3-1-0.8-1c-0.5,0-0.9,0.3-0.9,0.9c0,0.7,0.5,0.9,0.9,1.2c0.2,0.1,0.3,0.2,0.5,0.3C38.6,10.3,38.9,10.7,38.9,11.7z"/>
	<path d="M44.7,7.5v5.9h-1V7.5h-1.5V6.7h4.1v0.8H44.7z"/>
	<path d="M20.7,16.2v5.9h-1v-5.9h-1.5v-0.8h4.1v0.8H20.7z"/>
	<path d="M43.5,16.2v5.9h-1v-5.9h-1.5v-0.8H45v0.8H43.5z"/>
	<path d="M28.8,22.1h-1.2l-1-5.6l-1.2,5.6h-1.2l-1.4-6.7h1.1l1,5.6l1.1-5.6h1.2l1.1,5.6l1.1-5.6h1L28.8,22.1z"/>
	<path d="M51.2,21.7c0,0.3-0.2,0.5-0.5,0.5c-0.3,0-0.5-0.2-0.5-0.5c0-0.3,0.2-0.5,0.5-0.5C51,21.2,51.2,21.4,51.2,21.7z"/>
	<g>
		<path d="M49.2,10.8v2.5h-1v-2.5l-1.8-4.1h1.1l1.2,3.2L50,6.7h1.1L49.2,10.8z"/>
		<path d="M11,18.8c0,1.2-0.1,2-0.3,2.4c-0.3,0.6-0.9,1-1.9,1c-0.9,0-1.5-0.3-1.8-0.9c-0.1-0.3-0.2-0.6-0.3-1c0-0.3-0.1-0.8-0.1-1.5
			c0-0.8,0-1.4,0.1-1.8c0.1-0.5,0.2-0.9,0.5-1.2c0.3-0.4,0.9-0.6,1.6-0.6c0.7,0,1.2,0.2,1.6,0.5c0.2,0.3,0.4,0.7,0.5,1.2
			C10.9,17.4,11,18,11,18.8z M9.9,18.7c0-0.8,0-1.4-0.1-1.7c-0.1-0.6-0.5-1-1-1c-0.5,0-0.9,0.3-1,1c0,0.1,0,0.3-0.1,0.6
			c0,0.3,0,0.6,0,1.1c0,0.4,0,0.7,0,1c0,0.3,0,0.5,0.1,0.6c0.1,0.4,0.2,0.6,0.3,0.8c0.2,0.2,0.4,0.3,0.7,0.3c0.5,0,0.9-0.3,1-1
			c0-0.1,0-0.4,0.1-0.6C9.9,19.5,9.9,19.2,9.9,18.7z"/>
		<path d="M13.3,16.2v2.1h2v0.8h-2v3.1h-1v-6.7h3.1v0.8H13.3z"/>
	</g>
</g>
</svg>
