<?xml version="1.0" encoding="utf-8"?>
<!-- Generator: Adobe Illustrator 25.3.1, SVG Export Plug-In . SVG Version: 6.00 Build 0)  -->
<svg version="1.1" id="Laag_1" xmlns="http://www.w3.org/2000/svg" xmlns:xlink="http://www.w3.org/1999/xlink" x="0px" y="0px"
	 viewBox="0 0 320 72" style="enable-background:new 0 0 320 72;" xml:space="preserve">
<style type="text/css">
	.st0{clip-path:url(#SVGID_2_);fill:#1A171B;}
	.st1{fill:#FFFFFF;}
	.st2{fill:#000206;}
	.st3{clip-path:url(#SVGID_4_);fill:#000206;}
	.st4{clip-path:url(#SVGID_6_);fill:#000206;}
</style>
<g>
	<defs>
		<rect id="SVGID_1_" x="0.1" y="0.5" width="319.7" height="71.4"/>
	</defs>
	<clipPath id="SVGID_2_">
		<use xlink:href="#SVGID_1_"  style="overflow:visible;"/>
	</clipPath>
	<rect x="0.1" y="0.5" class="st0" width="56.6" height="56.7"/>
</g>
<polyline class="st1" points="24.1,16.7 28.3,12.4 32.6,16.7 35,14.3 30.7,10 35,5.8 32.6,3.4 28.3,7.7 24.1,3.4 21.7,5.8 26,10 
	21.7,14.3 24.1,16.7 "/>
<polyline class="st1" points="24.1,32.4 28.3,28.2 32.6,32.4 35,30.1 30.7,25.8 35,21.5 32.6,19.1 28.3,23.4 24.1,19.1 21.7,21.5 
	26,25.8 21.7,30.1 24.1,32.4 "/>
<polyline class="st1" points="24.1,54.4 28.3,50.1 32.6,54.4 35,52 30.7,47.7 35,43.4 32.6,41.1 28.3,45.4 24.1,41.1 21.7,43.4 
	26,47.7 21.7,52 24.1,54.4 "/>
<path class="st1" d="M41.2,16.6l-4.9,0.2c0,0,0.7,5.2,0.4,10.5c-0.3,5-1.1,5.9-1.1,5.9c-1.1,2.1-4.6,2.6-6.3,2.7
	c-1.8,0.1-2.6,0-2.6,0s-5.1-0.2-6.2-2.6c-0.6-1.3-0.8-4-0.8-4s0-12.4-0.1-12.7c0-0.1-1,0.1-2.2,0.1c-0.9,0-2.3-0.1-2.3-0.1l0.4,9.1
	l-0.1,5.4c0,0,0,2.9,0.7,4c1.3,2,2.6,2.7,3.4,3c0.8,0.4,2,0.7,3.4,1c1.4,0.3,3.7,0.4,6.8-0.4c3.1-0.8,4.4-2.2,4.4-2.2l2.3-2.2l0,5.2
	l4.9-1.4c0,0-0.6-4.1-0.6-11.1C40.9,20.3,41.2,16.6,41.2,16.6"/>
<path class="st2" d="M75.1,5.8c0-3.1-1.9-3.1-4-3.1l-0.2-0.2V1.9c0-0.4,0.3-0.5,0.7-0.5c1,0,3.5,0.2,5.4,0.2c2,0,3.9-0.2,5.9-0.2
	l0.1,0.1v1l-0.2,0.2h-0.5c-2.5,0-3.7,0.3-3.7,3.2v11.3c0,5.6,1.1,10.1,7.8,10.1c7,0,9.3-3.4,9.3-10V7.2c0-4.5,0-4.1-3.4-4.5
	l-0.2-0.3V1.7l0.1-0.2c0.7,0,1.5,0.2,4.4,0.2c1.6,0,3.7-0.2,5-0.2l0.2,0.2v0.8l-0.2,0.2c-2.8,0-3.9,0.2-3.9,2.1v14
	c0,7.2-4.2,10.8-11.3,10.8c-5.7,0-11.3-2-11.3-8.5V5.8"/>
<path class="st2" d="M104,11.9c0-0.6,0-0.7-0.1-1c-0.3-0.5-1.6-1.6-2-1.6l-1.6-0.1c-0.1,0-0.1-0.3-0.1-0.5c0-0.2,0-0.4,0.1-0.4
	c0.9,0,1.6-0.1,2.3-0.1c1.4,0,3.5,0.1,4,0.2l8.9,10.7c1.3,1.6,2.7,3.2,4.8,5.3h0.1V11.6c0-1.9-0.7-2.2-1.6-2.3l-1.3-0.1
	c-0.1,0-0.2-0.3-0.2-0.5c0-0.2,0.1-0.5,0.3-0.5c0.6,0,2.2,0.1,3.6,0.1c1.3,0,2.7-0.1,3.5-0.1c0.1,0,0.2,0.1,0.2,0.2v0.6
	c0,0.1-0.1,0.2-0.3,0.2h-0.8c-2,0-2,1-2,3.5v17h-0.7l-15.8-18.1v13.4c0,2.5,0.4,2.8,2.9,2.9c0.1,0,0.2,0.3,0.2,0.5
	c0,0.2,0,0.5-0.1,0.5c-0.6,0-2.4-0.1-3.7-0.1c-1.4,0-2.1,0.1-3.4,0.1c-0.2,0-0.2-0.2-0.2-0.6c0-0.3,0-0.4,0.4-0.4
	c1.2,0,2.6-0.3,2.6-1.8V11.9"/>
<path class="st2" d="M132.6,23.6c0,4.3,0.1,4.3,3,4.5l0.1,0.2v0.6c0,0.2-0.4,0.2-0.7,0.2c-0.4,0-2.4-0.1-3.6-0.1
	c-1.4,0-2.8,0.1-4.4,0.1c-0.1-0.1-0.1-0.2-0.1-0.5c0-0.4,0.1-0.4,0.9-0.4c2,0,2.1-0.4,2.1-2.7v-14c0-1.7-0.5-2.1-3-2.1l-0.1-0.1
	l-0.1-0.5c0-0.3,0.3-0.4,0.5-0.4c0.8,0,1.7,0.1,3.7,0.1c1.5,0,3.2-0.1,4.4-0.1l0.1,0.2v0.5l-0.1,0.2l-0.8,0.1
	c-1.2,0.1-2.1,0.2-2.1,1.6V23.6"/>
<path class="st2" d="M139.6,10.3c-0.3-0.8-1.5-1-2.3-1l-0.2-0.1V8.4l0.3-0.1c1.2,0,3,0.1,3.7,0.1c1.3,0,2.7-0.1,4-0.1l0.1,0.1
	l-0.1,0.8l-1.4,0.1c-0.5,0-1,0.2-1,0.6c0,0.2,0.1,0.6,0.3,0.9l3.4,8.8l1.9,4.4c0.2,0.4,0.2,0.5,0.3,0.5c0.1,0,0.1-0.1,0.3-0.5
	l4.2-11.1c0.5-1.3,0.8-2.3,0.8-2.7c0-0.5-0.2-0.8-1-0.8l-1.5-0.2l-0.2-0.1V8.3c1.1,0,2.3,0.2,3.4,0.2c0.9,0,2.8-0.2,3-0.2l0.2,0.1
	v0.7l-0.3,0.2l-0.9,0.1c-0.6,0-0.8,0.3-1.2,1.3c-2.8,6.7-3.5,8.8-5.7,14.5l-1.5,3.8c-0.1,0.4-0.2,0.4-0.4,0.4
	c-0.3,0-0.3-0.1-0.4-0.2L139.6,10.3"/>
<path class="st2" d="M162.5,11.3c0-1.9-1.4-2.1-3.1-2.1c-0.1,0-0.1-0.1-0.1-0.3V8.6c0-0.3,0.5-0.3,1.5-0.3c1.2,0,2.5,0.1,3.7,0.1
	c1.2,0,2.3-0.1,3.5-0.1h6.2c0.2,0,0.3,0.3,0.3,0.6v3.6c0,0.1-0.1,0.2-0.2,0.2c-0.2,0-0.7,0-0.7-0.3l-0.1-0.9
	c-0.2-1.9-1.5-2.2-3.1-2.2h-3c-1.6,0-2.2,0.4-2.2,2.6v5.3c0,0.1,0.2,0.2,0.2,0.2l3.5-0.1c1.8-0.1,2.3-0.6,2.7-2.2
	c0.1-0.2,0.1-0.2,0.5-0.2c0.2,0,0.4,0,0.4,0.2c0,0.6-0.2,2-0.2,2.9c0,1.6,0.2,2.4,0.2,2.9c0,0.2-0.3,0.4-0.5,0.4
	c-0.2,0-0.4-0.1-0.5-0.4c-0.1-0.8-0.1-1.4-0.3-1.8c-0.1-0.4-0.5-0.6-1.4-0.7l-4.2-0.1c-0.4,0-0.4,0.2-0.4,0.4v7
	c0,2.1,1.6,2.2,3.6,2.2h1.6c1.6,0,2.6,0,3.4-0.5c0.6-0.4,1.6-2.2,1.9-2.9c0.4,0,0.9,0.1,0.9,0.3c0,0.1-0.1,0.3-0.1,0.5l-0.8,3
	c-0.2,0.8-0.4,0.8-0.8,0.8c-3.2,0-6.3-0.1-10.5-0.1c-1,0-3.4,0.1-4.9,0.1c-0.1,0-0.2-0.3-0.2-0.5c0-0.2,0.1-0.5,0.2-0.5
	c2.6-0.1,3.3-0.4,3.3-3.1V11.3"/>
<path class="st2" d="M181.8,11.5c0-1.5-0.1-2.2-1.9-2.2h-1.2c-0.2,0-0.2-0.3-0.2-0.6c0-0.1,0.1-0.4,0.2-0.4c1.7,0,3.4,0.1,5.1,0.1
	c1.3,0,2.7-0.1,4-0.1c3,0,5.9,2,5.9,5.1c0,2.7-2.4,4.5-4.7,4.8v0.1c1.1,0.3,2.3,2.4,2.6,2.9l3.2,4.9c1,1.5,1.7,1.8,3.5,1.9l0.2,0.2
	v0.6c0,0.3-0.2,0.3-0.3,0.3c-0.6,0-1.5-0.1-2-0.1c-0.7,0-1.4,0.1-2.1,0.1c-0.7,0-2-2-3.7-5c-1.9-3.4-3-5.2-4.9-5.2
	c-0.2,0-0.6,0-1,0.1V26c0,1.1,0,2,1.5,2c1.1,0,1.6,0,1.6,0.2c0,0.6-0.1,0.7-0.5,0.7c-1.5,0-2.8-0.1-4-0.1c-0.5,0-3.8,0.1-4.2,0.1
	c-0.2,0-0.2-0.4-0.2-0.6c0-0.3,0.1-0.3,0.7-0.3c2-0.1,2.5-0.4,2.5-2.4V11.5 M184.5,17.7c0.4,0,0.7,0.1,1.1,0.1
	c2.3,0,5.3-0.8,5.3-4.3c0-2.6-1.8-4.3-4.3-4.3c-2,0-2.1,0.5-2.1,1.4V17.7z"/>
<path class="st2" d="M203.2,18.3c-2.1-1.3-3-2.4-3-4.7c0-3.7,3-5.7,6.9-5.7c1.1,0,2.7,0.4,3.7,0.8l0.2,3.7v0.1
	c0,0.1-0.3,0.2-0.7,0.2c-0.4,0-0.4-0.2-0.5-0.5c-0.2-2-1.6-3.2-3.7-3.2c-2,0-3.5,1.4-3.5,3.3c0,2.1,1.3,2.9,4.2,4.5
	c2.9,1.5,5.4,2.9,5.4,6.5c0,4-3.6,6.1-7.3,6.1c-1.2,0-3.2-0.4-4.3-0.8c-0.2-0.1-0.3-0.5-0.4-1.1l-0.4-2.8c0-0.2,0.6-0.2,0.8-0.2
	c0.1,0,0.2,0.1,0.2,0.3c0.7,2.2,2.2,3.5,4.5,3.5c2,0,4-1.8,4-3.8c0-1.9-1.1-3.1-2.6-4L203.2,18.3"/>
<path class="st2" d="M220.5,23.6c0,4.3,0.1,4.3,3,4.5l0.1,0.2v0.6c0,0.2-0.4,0.2-0.7,0.2c-0.4,0-2.4-0.1-3.6-0.1
	c-1.4,0-2.8,0.1-4.4,0.1c-0.1-0.1-0.1-0.2-0.1-0.5c0-0.4,0.1-0.4,0.9-0.4c2,0,2.1-0.4,2.1-2.7v-14c0-1.7-0.5-2.1-3-2.1l-0.1-0.1
	l-0.1-0.5c0-0.3,0.3-0.4,0.5-0.4c0.8,0,1.7,0.1,3.7,0.1c1.5,0,3.2-0.1,4.4-0.1l0.1,0.2v0.5l-0.1,0.2l-0.8,0.1
	c-1.2,0.1-2.1,0.2-2.1,1.6V23.6"/>
<path class="st2" d="M236.1,25.9c0,2.2,1.5,2.2,3.3,2.2l0.2,0.1v0.5c0,0.4-0.1,0.4-0.6,0.4c-0.6,0-2-0.1-4.1-0.1
	c-1.6,0-4.1,0.1-4.8,0.1c-0.1-0.2-0.1-0.4-0.1-0.5c0-0.1,0-0.3,0.1-0.3l0.3-0.1h0.4c2.7,0,2.8-0.9,2.8-3.3V10.8l-0.1-1.3h-3.9
	c-2.2,0-2.6,1.4-3.1,3.3c-0.1,0.2-0.2,0.3-0.4,0.3c-0.4,0-0.7-0.1-0.7-0.3c0-0.5,0.4-3.2,0.4-5.5c0-0.1,0.4-0.1,0.8-0.1
	c0.9,1.3,1.2,1.3,2.5,1.3h10.9c2.1,0,2.6-0.6,3.4-1.5c0.2,0,0.9,0,0.9,0.3c0,0.2-0.6,2.6-0.6,4.7c0,0.3-0.1,0.9-0.2,0.9
	c-0.3,0-0.9-0.1-0.9-0.3l-0.1-1.5c-0.1-1.5-0.8-1.5-2-1.5h-4V25.9"/>
<path class="st2" d="M254.1,19.7c0-0.3,0-0.7-0.4-1.2l-6.6-8.9c-0.2-0.3-0.4-0.4-1.1-0.4l-1.1-0.1L244.7,9V8.2l0.2-0.1h0.4
	c0.5,0,3.7,0.1,4.2,0.1c0.7,0,1.9-0.1,2.9-0.1c0.6,0,0.9,0,0.9,0.2v0.4c0,0.3-0.1,0.4-0.2,0.4l-1.7,0.1c-0.4,0-0.7,0.2-0.7,0.5
	c0,0.1,0.2,0.4,0.5,0.8l4.2,5.9c0.2,0.3,0.5,0.6,0.8,0.9c0.6-0.5,3.2-4.1,4.4-6c0.5-0.7,0.7-1.2,0.7-1.5c0-0.4-0.2-0.6-1.1-0.6
	l-1.5-0.1c0,0,0-0.4,0-0.6c0-0.1,0-0.3,0.2-0.4c1.1,0.1,2.6,0.1,3.8,0.1c0.9,0,2.2-0.1,2.5-0.1l0.2,0.1V9l-0.1,0.1l-1.1,0.1
	c-0.9,0.1-2.1,2.1-2.7,2.8l-4.9,6.7v6.9c0,0.6,0,1.2,0.1,1.3c0.2,0.7,1,1.1,2.1,1.1h0.8l0.3,0.1V29l-0.1,0h-0.4
	c-1.3,0-2.6-0.2-3.9-0.2c-1.3,0-2.7,0.2-4,0.2h-0.4l-0.2-0.1v-0.5c0-0.2,0.1-0.4,0.3-0.4l1.4-0.2c0.9-0.1,1.5-0.4,1.5-1.9V19.7"/>
<path class="st2" d="M129.2,60.5l-1.7,5.6c-0.3,1-0.5,1.9-0.5,2.6c0,1.3,1.8,1.6,2.9,1.6c0.3,0,0.4,0.2,0.4,0.7c0,0.4,0,0.6-0.3,0.6
	c-0.9,0-3.8-0.2-4.8-0.2c-1.1,0-2.7,0.2-3.9,0.2c-0.8,0-0.8-0.1-0.8-0.6v-0.4c0-0.2,0.3-0.3,1.3-0.4c2-0.2,2.3-0.6,3.1-2.7l7.8-22.6
	c0.8-0.7,1.6-1.6,2.6-1.9l9.8,24.8c0.7,1.6,1.4,2.5,3.6,2.5c0.4,0,0.5,0.5,0.5,0.9c0,0.4-0.3,0.4-0.7,0.4c-0.6,0-3.1-0.2-4.7-0.2
	c-1.6,0-3.1,0.1-4.7,0.2c-0.6,0-0.6-0.1-0.6-0.7c0-0.4,0.2-0.6,0.8-0.6c0.6,0,2.5-0.1,2.5-1.1c0-0.3-0.2-0.9-0.7-2.3l-2.5-6.3H129.2
	 M137.8,59l-4.3-11.2h-0.1L129.7,59H137.8z"/>
<path class="st2" d="M72,61.3c0-6.1,5.2-11.1,11.3-11.1c6.1,0,11.6,4.2,11.6,10.3c0,5.9-5.7,11.2-11.5,11.2
	C77.3,71.7,72,67.7,72,61.3 M91.8,61.1c0-4.9-3.4-9.9-8.6-9.9c-5.4,0-8,4.2-8,9.2c0,5,3,10.2,8.5,10.2C89,70.6,91.8,66.1,91.8,61.1"
	/>
<g>
	<defs>
		<rect id="SVGID_3_" x="0.1" y="0.5" width="319.7" height="71.4"/>
	</defs>
	<clipPath id="SVGID_4_">
		<use xlink:href="#SVGID_3_"  style="overflow:visible;"/>
	</clipPath>
	<path class="st3" d="M98.5,53.9c0-1.8-0.3-2.2-2-2.2H96c-0.5,0-0.8-0.1-0.8-0.2c0-0.2,0-0.7,0.3-0.7h12c1,0,2-0.1,3-0.1
		c0.2,0,0.4,0,0.4,0.3l0.1,3.3c0,0.2,0,0.4,0,0.6c0,0.1-0.2,0.2-0.5,0.2h-0.4c-0.1-0.3-0.1-0.7-0.2-1l-0.3-0.9
		c-0.3-1.1-1.2-1.3-2.1-1.3h-4.1c-2.2,0-2.4,0.7-2.4,2.8v5.2h4.3c2.5,0,3.1-0.7,3.1-2.3c0.3-0.1,0.6-0.1,0.8-0.1
		c0.1,0,0.2,0.1,0.2,0.2c0,0.2-0.1,0.7-0.1,2.8c0,0.9,0.1,2.4,0.1,3c0,0.3-0.2,0.4-0.5,0.4c-0.2,0-0.3-0.3-0.4-0.7
		c-0.2-1.2-0.8-2.3-3.3-2.3h-4.2v7.7c0,1.1,0.2,1.8,1.6,1.9l1.5,0.1c0.1,0,0.2,0.2,0.2,0.4c0,0.2,0,0.6-0.3,0.6
		c-2.2,0-3.1-0.1-4.5-0.1c-1.2,0-3.4,0.1-4.2,0.1c-0.2,0-0.2-0.3-0.2-0.5c0-0.2,0-0.4,0.2-0.4l1.3-0.1c1.5-0.1,1.8-0.5,1.8-2.2V53.9
		"/>
	<path class="st3" d="M170.3,50.7c0.9,0,1.9,0.1,2.8,0.1c0.7,0,1.5-0.1,2.2-0.1c0.4,0,0.5,0.1,0.5,0.2v0.5c0,0.2-0.1,0.4-0.2,0.4
		c-0.2,0-0.5-0.1-0.9-0.1c-1.7,0-1.7,0.9-1.7,2.8c0,1.7,0.3,12.7,0.3,14.3c0,0.8,0.4,1.8,1.7,1.8c1.2,0,1.3,0.1,1.3,0.3
		c0,0.4-0.2,0.6-0.3,0.6c-1.6,0-2.8-0.2-4-0.2c-1.2,0-2.5,0.2-3.8,0.2c-0.2,0-0.2-0.1-0.2-0.3v-0.3c0-0.3,0.3-0.4,1.6-0.4
		c0.6,0,1.1-0.7,1.1-1.7c0-3.2-0.1-10-0.2-15.1c-0.1,0-0.1,0-0.1,0c-1.6,3.4-3.8,8.3-4.8,10.9l-2.8,7.3c0,0.1-0.1,0.2-0.3,0.2
		c-0.1,0-0.3-0.1-0.3-0.6c-0.2-0.7-0.4-1.4-0.7-2.1l-5.6-13.5c-0.2-0.5-0.4-0.9-0.5-0.9c-0.1,0-0.1,0.6-0.1,0.9
		c0,2.3-0.3,11.2-0.3,12.6c0,1.3,0,2,2.6,2c0.2,0,0.2,0.1,0.2,0.5c0,0.1,0,0.5-0.1,0.5c-0.4,0-1.9-0.2-3.4-0.2
		c-1.7,0-3.3,0.2-3.7,0.2c-0.1,0-0.2-0.1-0.2-0.2v-0.4c0-0.3,0.2-0.3,0.6-0.3c2.4,0,2.8-0.7,2.8-3.3c0-1.4,0.5-12.3,0.5-13.3
		c0-1.6-0.8-2.2-3.4-2.2c-0.1,0-0.1-0.1-0.1-0.3V51c0-0.1,0.1-0.3,0.2-0.3c1.1,0,2.2,0.1,3.3,0.1c0.7,0,1.5-0.1,2.2-0.1
		c0.2,0,0.4,0.5,0.6,0.9l6.4,15.2h0.1L170.3,50.7"/>
</g>
<path class="st2" d="M181,60.7c-2.1-1.3-3-2.4-3-4.7c0-3.7,3-5.7,7-5.7c1.1,0,2.7,0.4,3.7,0.8l0.2,3.7v0.1c0,0.1-0.3,0.2-0.7,0.2
	c-0.4,0-0.4-0.2-0.5-0.5c-0.2-2-1.6-3.2-3.7-3.2c-2,0-3.6,1.4-3.6,3.3c0,2.1,1.3,2.9,4.2,4.5c2.9,1.5,5.4,2.9,5.4,6.6
	c0,4-3.6,6.1-7.3,6.1c-1.2,0-3.2-0.4-4.3-0.9c-0.2-0.1-0.3-0.5-0.4-1.1l-0.4-2.8c0-0.2,0.6-0.2,0.8-0.2c0.1,0,0.2,0.1,0.2,0.3
	c0.7,2.2,2.2,3.5,4.6,3.5c2.1,0,4-1.8,4-3.8c0-1.9-1.1-3.1-2.6-4L181,60.7"/>
<path class="st2" d="M202.4,68.4c0,2.2,1.5,2.2,3.3,2.2l0.2,0.1v0.5c0,0.4-0.1,0.4-0.6,0.4c-0.6,0-2-0.2-4.1-0.2
	c-1.6,0-4.1,0.2-4.8,0.2c-0.1-0.2-0.1-0.4-0.1-0.5c0-0.1,0-0.3,0.1-0.3l0.3-0.1h0.4c2.7,0,2.8-0.9,2.8-3.4V53.3l-0.1-1.4h-3.9
	c-2.2,0-2.6,1.4-3.1,3.3c-0.1,0.2-0.2,0.3-0.4,0.3c-0.4,0-0.7-0.1-0.7-0.3c0-0.5,0.3-3.2,0.3-5.6c0-0.1,0.4-0.1,0.8-0.1
	c0.9,1.3,1.2,1.3,2.5,1.3h10.9c2.1,0,2.7-0.6,3.4-1.5c0.2,0,0.9,0,0.9,0.3c0,0.2-0.6,2.6-0.6,4.8c0,0.3-0.1,0.9-0.2,0.9
	c-0.3,0-0.9-0.1-0.9-0.3l-0.1-1.5c-0.1-1.5-0.8-1.5-2-1.5h-4.1V68.4"/>
<path class="st2" d="M214.7,53.7c0-1.9-1.4-2.1-3.1-2.1c-0.1,0-0.1-0.1-0.1-0.3V51c0-0.3,0.5-0.3,1.5-0.3c1.2,0,2.5,0.1,3.7,0.1
	c1.2,0,2.4-0.1,3.5-0.1h6.2c0.2,0,0.3,0.3,0.3,0.6v3.6c0,0.1-0.1,0.2-0.2,0.2c-0.2,0-0.7,0-0.7-0.3l-0.1-0.9
	c-0.2-1.9-1.5-2.2-3.1-2.2h-3c-1.6,0-2.2,0.4-2.2,2.6v5.3c0,0.1,0.2,0.2,0.2,0.2l3.5-0.1c1.8-0.1,2.3-0.6,2.7-2.2
	c0.1-0.2,0.1-0.2,0.5-0.2c0.2,0,0.3,0,0.3,0.2c0,0.6-0.2,2-0.2,2.9c0,1.6,0.2,2.4,0.2,2.9c0,0.2-0.3,0.4-0.5,0.4
	c-0.2,0-0.4-0.1-0.5-0.4c-0.1-0.8-0.1-1.3-0.3-1.8c-0.2-0.4-0.5-0.6-1.4-0.7l-4.2-0.1c-0.4,0-0.4,0.1-0.4,0.3v7
	c0,2.1,1.6,2.2,3.6,2.2h1.6c1.6,0,2.6,0,3.4-0.5c0.7-0.4,1.6-2.2,1.9-2.9c0.4,0,0.9,0.1,0.9,0.3c0,0.1-0.1,0.3-0.1,0.5l-0.8,3
	c-0.2,0.8-0.4,0.8-0.8,0.8c-3.2,0-6.3-0.2-10.6-0.2c-1,0-3.4,0.2-4.9,0.2c-0.1,0-0.2-0.3-0.2-0.5c0-0.2,0.1-0.5,0.2-0.5
	c2.6-0.1,3.3-0.4,3.3-3.1V53.7"/>
<path class="st2" d="M233.2,53.9c0-1.5-0.1-2.2-1.9-2.2H230c-0.2,0-0.2-0.3-0.2-0.6c0-0.1,0.1-0.4,0.2-0.4c1.7,0,3.4,0.1,5.2,0.1
	c1.4,0,2.7-0.1,4-0.1c3,0,5.9,2,5.9,5.1c0,2.7-2.4,4.5-4.7,4.8v0.1c1.1,0.3,2.4,2.4,2.6,2.9l3.2,4.9c1,1.6,1.7,1.9,3.5,1.9l0.2,0.2
	v0.6c0,0.3-0.2,0.3-0.3,0.3c-0.6,0-1.5-0.1-2-0.1c-0.7,0-1.4,0.1-2.1,0.1c-0.7,0-2-2-3.7-5.1c-1.9-3.4-3-5.2-5-5.2
	c-0.2,0-0.6,0-1,0.1v7.2c0,1.1,0,2.1,1.5,2.1c1.1,0,1.6,0,1.6,0.2c0,0.6-0.1,0.7-0.5,0.7c-1.5,0-2.8-0.2-4.1-0.2
	c-0.5,0-3.8,0.2-4.2,0.2c-0.2,0-0.2-0.4-0.2-0.6c0-0.3,0.1-0.3,0.7-0.4c2-0.1,2.6-0.4,2.6-2.4V53.9 M235.8,60.1
	c0.4,0,0.7,0.1,1.1,0.1c2.4,0,5.3-0.8,5.3-4.3c0-2.6-1.8-4.3-4.3-4.3c-2,0-2.1,0.5-2.1,1.4V60.1z"/>
<path class="st2" d="M254.3,53.9c0-1.1-0.2-2.3-1.3-2.3c-0.4,0-1.3,0.1-1.8,0.1c-0.1,0-0.1-0.4-0.1-0.6c0-0.2,0-0.3,0.5-0.4
	c2-0.4,6.7-0.7,9.2-0.7c1.6,0,3.1,0.1,4.6,0.5c4,1.1,7.7,4.6,7.7,10.1c0,7.3-6.1,10.6-11.7,10.6c-2.8,0-4.3-0.1-5.7-0.1
	c-1.5,0-2.9,0.1-4.4,0.1c-0.1,0-0.1-0.3-0.1-0.5c0-0.2,0.1-0.5,0.3-0.5c0.9-0.1,1.7-0.2,2.2-0.5c0.4-0.3,0.7-0.8,0.7-1.7V53.9
	 M256.9,67c0,3.2,3.3,3.2,4.6,3.2c4,0,8.3-3.3,8.3-9.5c0-5.2-2.8-7.8-4.9-9c-1.4-0.6-3.3-0.8-4.5-0.8c-2.4,0-3.6,0.2-3.6,2.1V67z"/>
<g>
	<defs>
		<rect id="SVGID_5_" x="0.1" y="0.5" width="319.7" height="71.4"/>
	</defs>
	<clipPath id="SVGID_6_">
		<use xlink:href="#SVGID_5_"  style="overflow:visible;"/>
	</clipPath>
	<path class="st4" d="M278.2,63.2l-1.3,4.2c-0.2,0.8-0.4,1.4-0.4,1.9c0,1,1.4,1.2,2.2,1.2c0.3,0,0.3,0.2,0.3,0.6
		c0,0.3,0,0.4-0.2,0.4c-0.7,0-2.8-0.2-3.6-0.2c-0.8,0-2,0.2-2.9,0.2c-0.6,0-0.6-0.1-0.6-0.5v-0.3c0-0.1,0.3-0.2,1-0.3
		c1.5-0.1,1.7-0.4,2.3-2.1l5.8-16.9c0.6-0.5,1.2-1.2,1.9-1.4l7.4,18.6c0.5,1.2,1,1.9,2.7,1.9c0.3,0,0.4,0.4,0.4,0.7
		c0,0.3-0.2,0.3-0.6,0.3c-0.5,0-2.4-0.2-3.5-0.2c-1.2,0-2.4,0.1-3.5,0.2c-0.4,0-0.5-0.1-0.5-0.5c0-0.3,0.2-0.5,0.6-0.5
		c0.4,0,1.9-0.1,1.9-0.8c0-0.2-0.1-0.7-0.5-1.7l-1.9-4.7H278.2 M284.7,62.1l-3.3-8.4h-0.1l-2.8,8.4H284.7z"/>
	<path class="st4" d="M313.6,50.7c0.9,0,1.9,0.1,2.8,0.1c0.7,0,1.5-0.1,2.2-0.1c0.4,0,0.5,0.1,0.5,0.2v0.5c0,0.2-0.1,0.4-0.2,0.4
		c-0.2,0-0.5-0.1-0.9-0.1c-1.7,0-1.7,0.9-1.7,2.8c0,1.7,0.3,12.7,0.3,14.3c0,0.8,0.4,1.8,1.7,1.8c1.2,0,1.3,0.1,1.3,0.3
		c0,0.4-0.2,0.6-0.3,0.6c-1.6,0-2.8-0.2-4-0.2c-1.2,0-2.5,0.2-3.8,0.2c-0.2,0-0.2-0.1-0.2-0.3v-0.3c0-0.3,0.3-0.4,1.6-0.4
		c0.6,0,1.1-0.7,1.1-1.7c0-3.2-0.1-10-0.2-15.1c-0.1,0-0.1,0-0.1,0c-1.6,3.4-3.8,8.3-4.8,10.9l-2.8,7.3c0,0.1-0.1,0.2-0.3,0.2
		c-0.1,0-0.3-0.1-0.4-0.6c-0.2-0.7-0.4-1.4-0.7-2.1l-5.6-13.5c-0.2-0.5-0.4-0.9-0.5-0.9c-0.1,0-0.1,0.6-0.1,0.9
		c0,2.3-0.4,11.2-0.4,12.6c0,1.3,0,2,2.6,2c0.2,0,0.2,0.1,0.2,0.5c0,0.1,0,0.5-0.1,0.5c-0.4,0-1.8-0.2-3.4-0.2
		c-1.7,0-3.3,0.2-3.7,0.2c-0.1,0-0.2-0.1-0.2-0.2v-0.4c0-0.3,0.2-0.3,0.6-0.3c2.4,0,2.8-0.7,2.8-3.3c0-1.4,0.5-12.3,0.5-13.3
		c0-1.6-0.8-2.2-3.4-2.2c-0.1,0-0.1-0.1-0.1-0.3V51c0-0.1,0.1-0.3,0.2-0.3c1.1,0,2.2,0.1,3.4,0.1c0.7,0,1.5-0.1,2.2-0.1
		c0.2,0,0.4,0.5,0.6,0.9l6.3,15.2h0.1L313.6,50.7"/>
</g>
</svg>
