<svg xmlns="http://www.w3.org/2000/svg" xmlns:xlink="http://www.w3.org/1999/xlink" style="enable-background:new 0 0 231.4 58.9" id="Laag_1" x="0" y="0" version="1.1" viewBox="0 0 231.4 58.9" xml:space="preserve"><style type="text/css"/><g><defs><rect id="SVGID_1_" width="231.4" height="58.9"/></defs><clipPath id="SVGID_00000163040626813508636450000016921731009489564849_"><use style="overflow:visible" xlink:href="#SVGID_1_"/></clipPath><path d="M203,8.8 c10.6,0.5,19,9,19.5,19.6h8.9V0H203V8.8z" style="clip-path:url(#SVGID_00000163040626813508636450000016921731009489564849_);fill:#fbba00"/><path d="M220.5,28.4 c-0.5-9.4-8.1-17-17.5-17.5v8.8H201v-8.8c-9.4,0.5-17,8.1-17.5,17.5h8.8v2.1h-8.8c0.5,9.4,8.1,17,17.5,17.5v-8.8h2.1v8.8 c9.4-0.5,17-8.1,17.5-17.5h-8.7v-2.1H220.5z" style="clip-path:url(#SVGID_00000163040626813508636450000016921731009489564849_);fill:#fbba00"/><path d="M201,50 c-10.6-0.5-19.1-9-19.6-19.6h-8.8v28.4H201V50z" style="clip-path:url(#SVGID_00000163040626813508636450000016921731009489564849_);fill:#fbba00"/><path d="M181.4,28.4 c0.5-10.6,9-19.1,19.6-19.6V0h-28.4v28.4H181.4z" style="clip-path:url(#SVGID_00000163040626813508636450000016921731009489564849_);fill:#fbba00"/><path d="M222.5,30.4 c-0.5,10.6-9,19-19.5,19.6v8.9h28.4V30.4H222.5z" style="clip-path:url(#SVGID_00000163040626813508636450000016921731009489564849_);fill:#fbba00"/><path d="M203,8.8V0H201v8.8 c-10.6,0.5-19.1,9-19.6,19.6h-8.8v2.1h8.8c0.5,10.6,9,19.1,19.6,19.6v8.9h2.1V50c10.6-0.5,19-9,19.5-19.6h8.9v-2.1h-8.9 C222,17.8,213.6,9.3,203,8.8 M220.5,30.4c-0.5,9.4-8.1,17-17.5,17.5v-8.8H201v8.8c-9.4-0.5-17-8.1-17.5-17.5h8.8v-2.1h-8.8 c0.5-9.4,8.1-17,17.5-17.5v8.8h2.1v-8.8c9.4,0.5,17,8.1,17.5,17.5h-8.7v2.1H220.5z" style="clip-path:url(#SVGID_00000163040626813508636450000016921731009489564849_);fill:#fff"/><path d="M161.7,56.8 c-5,0-5.7-4.3-6.1-13c-0.7-12.9-5-13.7-16.3-14.3v-0.1c8-0.2,15.6-4.8,15.6-14.2C154.9,3.3,147.5,0,137,0h-28v2.1h7.7v54.8H109v2.1 h24.5v-2.1h-7.4V30.5h7.1c11.1-0.2,12.3,3.3,12.9,14c0.7,11.6,1.5,14.4,11.5,14.4h6v-2.1H161.7z M126.1,28.3V2.1h8.2 c8.4,0,11.2,5.6,11.2,13.3c0,6.8-3.1,12.4-11.7,13H126.1z" style="clip-path:url(#SVGID_00000163040626813508636450000016921731009489564849_);fill:#00205b"/><path d="M60.7,2.1h-8.3 L35.3,32.5v24.3h7.6v2.1H18.1v-2.1h7.8V32.7L6.9,2.1H0V0h26.3v2.1h-8.6l16.6,27.4L49.9,2.1h-8.4V0h58.6l0.5,18.1h-2.1l-0.1-2.9 C98.3,3.5,94,1.7,78.2,2.1h-8.1v26.3h6.5c8,0,8.6-3,8.5-10.4h2.1v23.5h-2.1c-0.1-8.6-0.5-10.9-8.5-10.9h-6.5v26.3h12.4 c12.6,0,16.7-6.3,18.4-18.1h2.2l-0.7,20.2H53v-2.1h7.7V2.1" style="clip-path:url(#SVGID_00000163040626813508636450000016921731009489564849_);fill:#00205b"/></g></svg>