<svg version="1" xmlns="http://www.w3.org/2000/svg" width="933.333" height="933.333" viewBox="0 0 700.000000 700.000000"><path d="M113.4 152.2c.1 7.9 0 14.9-.2 15.5-.3 1-7.7 1.3-32.3 1.3H49v37h64.5l-.1 14.5-.1 14.5h206.8l-2.3-4c-2.3-3.9-10.6-17.6-41.1-67.5l-15.3-25-74.1-.3-74-.2.1 14.2zM425.5 166.1c-9.3 15.4-20.3 33.3-24.3 39.7-3.9 6.4-7.5 12.4-7.9 13.2-.4.8-2.6 4.5-5 8.3-2.4 3.7-4.3 6.9-4.3 7.2 0 .3 46.5.4 103.2.3l103.3-.3v-96l-74-.2-74-.3-17 28.1zM113.4 295.2l.1 48.3 237.9.3c147.9.1 238.2-.2 238.6-.7.3-.6.5-7.3.5-15V314H655v-37h-64.5v-29.5l-107.1-.3-107.1-.2-11.9 19.5c-6.5 10.7-12.2 19.5-12.5 19.5-.5 0-19.9-31.2-22.8-36.8l-1.2-2.2H113.4v48.2zM20.5 404.2v48.3l324.1.3 324.1.2 2.6-8.7c6.1-20.5 8.8-33.5 11.2-53.8.3-2.8.8-6.6 1-8.5.3-1.9.8-8.6 1.1-14.8l.6-11.2H20.5v48.2zM113.5 478.7c0 7.6-.1 14.4-.3 15-.3 1-12.4 1.3-56.1 1.3H1.4v36.8h55.2c30.4 0 55.6.2 56.1.5s.8 7.1.7 15.1l-.2 14.6H346v-97H113.4l.1 13.7zM358 513.5V562h232.5v-97H358v48.5z"/></svg>