<svg xmlns="http://www.w3.org/2000/svg" xmlns:xlink="http://www.w3.org/1999/xlink" x="0" y="0" version="1.1" viewBox="0 0 895.8 203.9" xml:space="preserve" style="enable-background:new 0 0 895.8 203.9"><style type="text/css">.st0{fill:#fff}.st1{fill:#d5a361}</style><g id="MobilIT"><polygon points="252.8 75.2 198 75.2 191.8 85.4 185.6 75.2 130.8 75.2 130.8 100 252.8 100" class="st0"/><polygon points="168.6 47.3 130.8 47.3 130.8 72.1 183.7 72.1" class="st0"/><polygon points="252.8 47.3 215 47.3 199.9 72.1 252.8 72.1" class="st0"/><path d="M372.5,155.7h60.1c24.5,0,38.5-10.2,41.1-24.8H372.5V155.7z" class="st0"/><path d="M432.5,47.3h-60.1v24.8h101.2C471,57.5,457.1,47.3,432.5,47.3" class="st0"/><path d="M456.4,100c10.7-4.1,17.3-11.1,17.3-23.6v-0.3c0-0.3,0-0.6,0-0.8H262.9c-4.3,7.6-6.7,16.1-6.9,24.8H456.4z" class="st0"/><rect width="36.2" height="24.8" x="476.8" y="47.3" class="st0"/><rect width="140.6" height="24.8" x="372.5" y="103.1" class="st0"/><rect width="36.2" height="24.8" x="476.8" y="130.9" class="st0"/><rect width="36.2" height="24.8" x="606.5" y="75.2" class="st1"/><rect width="36.2" height="24.8" x="606.5" y="103.1" class="st1"/><rect width="102.5" height="24.8" x="516.2" class="st0"/><rect width="174.3" height="24.5" x="355" y="178.8" class="st0"/><rect width="127.6" height="24.8" x="768.2" y="130.9" class="st0"/><rect width="36.2" height="24.8" x="606.5" y="130.9" class="st1"/><rect width="139.4" height="24.8" x="606.5" y="47.3" class="st1"/><rect width="36.2" height="24.8" x="677.8" y="75.2" class="st1"/><rect width="36.2" height="24.8" x="677.8" y="103.1" class="st1"/><rect width="36.2" height="24.8" x="677.8" y="130.9" class="st1"/><rect width="36.2" height="24.8" x="516.2" y="47.3" class="st0"/><rect width="75.6" height="24.8" x="476.8" y="75.2" class="st0"/><rect width="36.2" height="24.8" x="516.2" y="103.1" class="st0"/><rect width="87.2" height="24.8" x="516.2" y="130.9" class="st0"/><path d="M312.8,47.3c-20.5,0-38,9.8-48,24.8h95.9C350.8,57.1,333.4,47.3,312.8,47.3" class="st0"/><path d="M312.5,155.7c20.5,0,38-9.8,48-24.8h-95.9C274.5,145.9,291.9,155.7,312.5,155.7" class="st0"/><path d="M88.8,103.1v24.8h273.6c4.3-7.6,6.7-16.1,6.9-24.8H88.8z" class="st0"/><rect width="59.5" height="24.8" x="193.4" y="130.9" class="st0"/><rect width="59.5" height="24.8" x="130.8" y="130.9" class="st0"/><rect width="24.8" height="24.8" y="103.1" class="st0"/></g><g id="SNIC_text"><path d="M338,200.3c-0.7,0-1.4-0.2-2-0.5l6.4-13.8c0.6,1.7,0.8,3.5,0.8,5.3C343.2,197,341.5,200.4,338,200.3 M333.7,196.9c-0.6-1.8-0.9-3.6-0.9-5.5c0-5.7,1.8-9,5.2-9c0.8,0,1.5,0.2,2.1,0.6L333.7,196.9z M338,203.7c5.7,0,8.9-4.7,8.9-12.4 S343.7,179,338,179s-8.9,4.7-8.9,12.4S332.3,203.7,338,203.7 M303.5,203.5h15.2v-3.4h-9.4l6.9-8.8c1.3-1.5,2-3.5,2-5.5 c0-4.1-2.6-6.8-7-6.8c-3.7-0.1-6.9,2.8-7.2,6.5l3.5,0.7c0.3-2.3,1.7-3.8,3.7-3.8c1.8-0.1,3.3,1.3,3.4,3.1c0,0.2,0,0.3,0,0.5 c0,1.5-0.4,2.6-1.9,4.5l-9.1,11.5L303.5,203.5z M284.1,200.3c-0.7,0-1.4-0.2-2-0.5l6.4-13.8c0.6,1.7,0.8,3.5,0.8,5.3 C289.3,197,287.6,200.4,284.1,200.3 M279.7,196.9c-0.6-1.8-0.9-3.6-0.9-5.5c0-5.7,1.8-9,5.2-9c0.8,0,1.5,0.2,2.1,0.6L279.7,196.9z M284.1,203.8c5.7,0,8.9-4.7,8.9-12.4s-3.2-12.4-8.9-12.4s-8.9,4.7-8.9,12.3S278.4,203.7,284.1,203.8 M249.5,203.4h15.2V200h-9.4 l6.9-8.7c1.3-1.5,2-3.5,2-5.5c0-4.1-2.6-6.8-7-6.8c-3.7-0.1-6.9,2.8-7.2,6.5l3.5,0.7c0.3-2.3,1.6-3.8,3.7-3.8 c1.8-0.1,3.3,1.3,3.4,3.1c0,0.2,0,0.3,0,0.5c0,1.5-0.4,2.6-1.9,4.5l-9.1,11.5L249.5,203.4z" class="st1"/><path d="M162.8,186c-1-2.4-2.6-3.6-4.8-3.6c-2.6,0-4.3,1.4-4.3,3.7c-0.1,1,0.4,2,1.3,2.5c1.3,0.7,2.8,1.2,4.2,1.5 c1.4,0.3,2.7,0.8,3.9,1.4c1.9,0.9,2.8,2.3,2.9,4.8c0,5-3.1,7.6-7.9,7.6c-4.6,0-7.9-2.5-8.9-7.1l2.8-1c0.9,3.5,3,5.3,6.1,5.3 s4.9-1.5,4.9-4.3c0-0.8-0.3-1.6-0.9-2.2c-0.3-0.3-0.7-0.5-1.1-0.6c-1.1-0.5-2.2-0.8-3.4-1.1c-1.3-0.3-2.6-0.7-3.8-1.3 c-1.9-1-2.9-2.5-3-5.3c-0.1-1.8,0.6-3.5,1.9-4.8c1.5-1.3,3.4-2,5.3-1.9c3.3-0.1,6.3,2,7.4,5.1L162.8,186z" class="st0"/><path d="M186.3,179.9h3v23.8H186l-10-18.4v18.4h-3v-23.8h3.3l10,18.4L186.3,179.9z" class="st0"/><path d="M211.9,203.7h-14.5v-2.6h5.8v-18.6h-5.8v-2.6h14.5v2.6h-5.7v18.6h5.7L211.9,203.7z" class="st0"/><path d="M237.6,196.7c-1.1,4.4-4.1,7.2-8.5,7.2c-2.7,0.1-5.3-1.1-7.1-3.1c-1.8-2.1-2.7-5.1-2.8-9.1c0-3.9,0.9-7,2.8-9 c1.8-2,4.4-3.2,7.1-3.1c4.4,0,7.4,2.9,8.5,7.2l-2.8,0.9c-1.1-3.5-2.8-5.2-5.7-5.2c-4.2,0-6.7,3-6.7,9.3s2.5,9.3,6.7,9.3 c2.9,0,4.6-1.7,5.7-5.2L237.6,196.7z" class="st0"/></g><g id="Bars"><rect width="128.6" height="9.4" x="226.4" y="82.9" class="st1"/><rect width="128.6" height="9.4" x="322.4" y="7.7" class="st1"/><rect width="128.6" height="9.4" x="459.2" y="110.8" class="st1"/><rect width="128.6" height="9.4" x="631.6" y="173.5" class="st1"/><rect width="128.6" height="9.4" x="687.3" y="82.9" class="st0"/><rect width="128.6" height="9.4" x="36.2" y="138.6" class="st1"/></g></svg>