<svg xmlns="http://www.w3.org/2000/svg" xmlns:xlink="http://www.w3.org/1999/xlink" x="0" y="0" version="1.1" viewBox="0 0 895.8 203.9" xml:space="preserve" style="enable-background:new 0 0 895.8 203.9"><style type="text/css">.st0{fill:#fff}.st1{fill:#d5a361}</style><g id="MobilIT"><polygon points="252.8 75.2 198 75.2 191.8 85.4 185.6 75.2 130.8 75.2 130.8 100 252.8 100" class="st0"/><polygon points="168.6 47.3 130.8 47.3 130.8 72.1 183.7 72.1" class="st0"/><polygon points="252.8 47.3 215 47.3 199.9 72.1 252.8 72.1" class="st0"/><path d="M372.5,155.7h60.1c24.5,0,38.5-10.2,41.1-24.8H372.5V155.7z" class="st0"/><path d="M432.5,47.3h-60.1v24.8h101.2C471,57.5,457.1,47.3,432.5,47.3" class="st0"/><path d="M456.4,100c10.7-4.1,17.3-11.1,17.3-23.6v-0.3c0-0.3,0-0.6,0-0.8H262.9c-4.3,7.6-6.7,16.1-6.9,24.8H456.4z" class="st0"/><rect width="36.2" height="24.8" x="476.8" y="47.3" class="st0"/><rect width="140.6" height="24.8" x="372.5" y="103.1" class="st0"/><rect width="36.2" height="24.8" x="476.8" y="130.9" class="st0"/><rect width="36.2" height="24.8" x="606.5" y="75.2" class="st1"/><rect width="36.2" height="24.8" x="606.5" y="103.1" class="st1"/><rect width="102.5" height="24.8" x="516.2" class="st0"/><rect width="174.3" height="24.5" x="355" y="178.8" class="st0"/><rect width="127.6" height="24.8" x="768.2" y="130.9" class="st0"/><rect width="36.2" height="24.8" x="606.5" y="130.9" class="st1"/><rect width="139.4" height="24.8" x="606.5" y="47.3" class="st1"/><rect width="36.2" height="24.8" x="677.8" y="75.2" class="st1"/><rect width="36.2" height="24.8" x="677.8" y="103.1" class="st1"/><rect width="36.2" height="24.8" x="677.8" y="130.9" class="st1"/><rect width="36.2" height="24.8" x="516.2" y="47.3" class="st0"/><rect width="75.6" height="24.8" x="476.8" y="75.2" class="st0"/><rect width="36.2" height="24.8" x="516.2" y="103.1" class="st0"/><rect width="87.2" height="24.8" x="516.2" y="130.9" class="st0"/><path d="M312.8,47.3c-20.5,0-38,9.8-48,24.8h95.9C350.8,57.1,333.4,47.3,312.8,47.3" class="st0"/><path d="M312.5,155.7c20.5,0,38-9.8,48-24.8h-95.9C274.5,145.9,291.9,155.7,312.5,155.7" class="st0"/><path d="M88.8,103.1v24.8h273.6c4.3-7.6,6.7-16.1,6.9-24.8H88.8z" class="st0"/><rect width="59.5" height="24.8" x="193.4" y="130.9" class="st0"/><rect width="59.5" height="24.8" x="130.8" y="130.9" class="st0"/><rect width="24.8" height="24.8" y="103.1" class="st0"/></g><g id="Bars"><rect width="128.6" height="9.4" x="226.4" y="82.9" class="st1"/><rect width="128.6" height="9.4" x="322.4" y="7.7" class="st1"/><rect width="128.6" height="9.4" x="459.2" y="110.8" class="st1"/><rect width="128.6" height="9.4" x="631.6" y="173.5" class="st1"/><rect width="128.6" height="9.4" x="687.3" y="82.9" class="st0"/><rect width="128.6" height="9.4" x="36.2" y="138.6" class="st1"/></g></svg>