<?xml version="1.0" encoding="utf-8"?>
<!-- Generator: Adobe Illustrator 25.0.1, SVG Export Plug-In . SVG Version: 6.00 Build 0)  -->
<svg version="1.1" xmlns="http://www.w3.org/2000/svg" xmlns:xlink="http://www.w3.org/1999/xlink" x="0px" y="0px"
	 viewBox="0 0 895.8 203.9" style="enable-background:new 0 0 895.8 203.9;" xml:space="preserve">
<style type="text/css">
	.st0{fill:#FFFFFF;}
	.st1{fill:#D5A361;}
</style>
<g id="MobilIT">
  <polygon class="st0" points="252.8,75.2 198,75.2 191.8,85.4 185.6,75.2 130.8,75.2 130.8,100 252.8,100 		"/>
  <polygon class="st0" points="168.6,47.3 130.8,47.3 130.8,72.1 183.7,72.1 		"/>
  <polygon class="st0" points="252.8,47.3 215,47.3 199.9,72.1 252.8,72.1 		"/>
  <path class="st0" d="M372.5,155.7h60.1c24.5,0,38.5-10.2,41.1-24.8H372.5V155.7z"/>
  <path class="st0" d="M432.5,47.3h-60.1v24.8h101.2C471,57.5,457.1,47.3,432.5,47.3"/>
  <path class="st0" d="M456.4,100c10.7-4.1,17.3-11.1,17.3-23.6v-0.3c0-0.3,0-0.6,0-0.8H262.9c-4.3,7.6-6.7,16.1-6.9,24.8H456.4z"/>
  <rect x="476.8" y="47.3" class="st0" width="36.2" height="24.8"/>
  <rect x="372.5" y="103.1" class="st0" width="140.6" height="24.8"/>
  <rect x="476.8" y="130.9" class="st0" width="36.2" height="24.8"/>
  <rect x="606.5" y="75.2" class="st1" width="36.2" height="24.8"/>
  <rect x="606.5" y="103.1" class="st1" width="36.2" height="24.8"/>
  <rect x="516.2" class="st0" width="102.5" height="24.8"/>
  <rect x="355" y="178.8" class="st0" width="174.3" height="24.5"/>
  <rect x="768.2" y="130.9" class="st0" width="127.6" height="24.8"/>
  <rect x="606.5" y="130.9" class="st1" width="36.2" height="24.8"/>
  <rect x="606.5" y="47.3" class="st1" width="139.4" height="24.8"/>
  <rect x="677.8" y="75.2" class="st1" width="36.2" height="24.8"/>
  <rect x="677.8" y="103.1" class="st1" width="36.2" height="24.8"/>
  <rect x="677.8" y="130.9" class="st1" width="36.2" height="24.8"/>
  <rect x="516.2" y="47.3" class="st0" width="36.2" height="24.8"/>
  <rect x="476.8" y="75.2" class="st0" width="75.6" height="24.8"/>
  <rect x="516.2" y="103.1" class="st0" width="36.2" height="24.8"/>
  <rect x="516.2" y="130.9" class="st0" width="87.2" height="24.8"/>
  <path class="st0" d="M312.8,47.3c-20.5,0-38,9.8-48,24.8h95.9C350.8,57.1,333.4,47.3,312.8,47.3"/>
  <path class="st0" d="M312.5,155.7c20.5,0,38-9.8,48-24.8h-95.9C274.5,145.9,291.9,155.7,312.5,155.7"/>
  <path class="st0" d="M88.8,103.1v24.8h273.6c4.3-7.6,6.7-16.1,6.9-24.8H88.8z"/>
  <rect x="193.4" y="130.9" class="st0" width="59.5" height="24.8"/>
  <rect x="130.8" y="130.9" class="st0" width="59.5" height="24.8"/>
  <rect y="103.1" class="st0" width="24.8" height="24.8"/>
</g>
<g id="Bars">
  <rect x="226.4" y="82.9" class="st1" width="128.6" height="9.4"/>
  <rect x="322.4" y="7.7" class="st1" width="128.6" height="9.4"/>
  <rect x="459.2" y="110.8" class="st1" width="128.6" height="9.4"/>
  <rect x="631.6" y="173.5" class="st1" width="128.6" height="9.4"/>
  <rect x="687.3" y="82.9" class="st0" width="128.6" height="9.4"/>
  <rect x="36.2" y="138.6" class="st1" width="128.6" height="9.4"/>
</g>
</svg>
